<svg width="1500" height="341" viewBox="0 0 1500 341" fill="none" xmlns="http://www.w3.org/2000/svg">
<rect x="0.5" y="0.5" width="1499" height="340" stroke="black"/>
<mask id="path-2-outside-1_12_2" maskUnits="userSpaceOnUse" x="51" y="36" width="1408" height="268" fill="black">
<rect fill="white" x="51" y="36" width="1408" height="268"/>
<path d="M54.7244 39.1818H122.991L195.094 215.091H198.162L270.264 39.1818H338.531V301H284.838V130.588H282.665L214.909 299.722H178.347L110.591 129.949H108.418V301H54.7244V39.1818ZM407.666 301H348.348L438.732 39.1818H510.067L600.323 301H541.004L475.422 99.0114H473.377L407.666 301ZM403.959 198.088H544.073V241.298H403.959V198.088ZM610.235 301V39.1818H713.531C733.304 39.1818 750.179 42.7187 764.156 49.7926C778.218 56.7812 788.914 66.7102 796.244 79.5795C803.659 92.3636 807.366 107.406 807.366 124.707C807.366 142.094 803.616 157.051 796.116 169.58C788.616 182.023 777.75 191.568 763.517 198.216C749.369 204.864 732.238 208.188 712.125 208.188H642.963V163.699H703.176C713.744 163.699 722.522 162.25 729.511 159.352C736.5 156.455 741.698 152.108 745.108 146.312C748.602 140.517 750.349 133.315 750.349 124.707C750.349 116.014 748.602 108.685 745.108 102.719C741.698 96.7528 736.457 92.2358 729.383 89.1676C722.394 86.0142 713.573 84.4375 702.92 84.4375H665.59V301H610.235ZM751.627 181.852L816.698 301H755.59L691.926 181.852H751.627ZM824.885 301V39.1818H880.24V154.622H883.692L977.911 39.1818H1044.26L947.101 156.412L1045.41 301H979.189L907.471 193.358L880.24 226.597V301H824.885ZM1051.49 301V39.1818H1227.91V84.821H1106.84V147.207H1218.83V192.847H1106.84V255.361H1228.42V301H1051.49ZM1240.35 84.821V39.1818H1455.38V84.821H1375.22V301H1320.5V84.821H1240.35Z"/>
</mask>
<path d="M54.7244 39.1818H122.991L195.094 215.091H198.162L270.264 39.1818H338.531V301H284.838V130.588H282.665L214.909 299.722H178.347L110.591 129.949H108.418V301H54.7244V39.1818ZM407.666 301H348.348L438.732 39.1818H510.067L600.323 301H541.004L475.422 99.0114H473.377L407.666 301ZM403.959 198.088H544.073V241.298H403.959V198.088ZM610.235 301V39.1818H713.531C733.304 39.1818 750.179 42.7187 764.156 49.7926C778.218 56.7812 788.914 66.7102 796.244 79.5795C803.659 92.3636 807.366 107.406 807.366 124.707C807.366 142.094 803.616 157.051 796.116 169.58C788.616 182.023 777.75 191.568 763.517 198.216C749.369 204.864 732.238 208.188 712.125 208.188H642.963V163.699H703.176C713.744 163.699 722.522 162.25 729.511 159.352C736.5 156.455 741.698 152.108 745.108 146.312C748.602 140.517 750.349 133.315 750.349 124.707C750.349 116.014 748.602 108.685 745.108 102.719C741.698 96.7528 736.457 92.2358 729.383 89.1676C722.394 86.0142 713.573 84.4375 702.92 84.4375H665.59V301H610.235ZM751.627 181.852L816.698 301H755.59L691.926 181.852H751.627ZM824.885 301V39.1818H880.24V154.622H883.692L977.911 39.1818H1044.26L947.101 156.412L1045.41 301H979.189L907.471 193.358L880.24 226.597V301H824.885ZM1051.49 301V39.1818H1227.91V84.821H1106.84V147.207H1218.83V192.847H1106.84V255.361H1228.42V301H1051.49ZM1240.35 84.821V39.1818H1455.38V84.821H1375.22V301H1320.5V84.821H1240.35Z" fill="white"/>
<path d="M54.7244 39.1818V36.1818H51.7244V39.1818H54.7244ZM122.991 39.1818L125.767 38.044L125.004 36.1818H122.991V39.1818ZM195.094 215.091L192.318 216.229L193.081 218.091H195.094V215.091ZM198.162 215.091V218.091H200.175L200.938 216.229L198.162 215.091ZM270.264 39.1818V36.1818H268.252L267.488 38.044L270.264 39.1818ZM338.531 39.1818H341.531V36.1818H338.531V39.1818ZM338.531 301V304H341.531V301H338.531ZM284.838 301H281.838V304H284.838V301ZM284.838 130.588H287.838V127.588H284.838V130.588ZM282.665 130.588V127.588H280.635L279.88 129.472L282.665 130.588ZM214.909 299.722V302.722H216.939L217.694 300.837L214.909 299.722ZM178.347 299.722L175.56 300.834L176.314 302.722H178.347V299.722ZM110.591 129.949L113.377 128.837L112.624 126.949H110.591V129.949ZM108.418 129.949V126.949H105.418V129.949H108.418ZM108.418 301V304H111.418V301H108.418ZM54.7244 301H51.7244V304H54.7244V301ZM54.7244 42.1818H122.991V36.1818H54.7244V42.1818ZM120.216 40.3196L192.318 216.229L197.87 213.953L125.767 38.044L120.216 40.3196ZM195.094 218.091H198.162V212.091H195.094V218.091ZM200.938 216.229L273.04 40.3196L267.488 38.044L195.386 213.953L200.938 216.229ZM270.264 42.1818H338.531V36.1818H270.264V42.1818ZM335.531 39.1818V301H341.531V39.1818H335.531ZM338.531 298H284.838V304H338.531V298ZM287.838 301V130.588H281.838V301H287.838ZM284.838 127.588H282.665V133.588H284.838V127.588ZM279.88 129.472L212.124 298.606L217.694 300.837L285.45 131.704L279.88 129.472ZM214.909 296.722H178.347V302.722H214.909V296.722ZM181.133 298.61L113.377 128.837L107.805 131.061L175.56 300.834L181.133 298.61ZM110.591 126.949H108.418V132.949H110.591V126.949ZM105.418 129.949V301H111.418V129.949H105.418ZM108.418 298H54.7244V304H108.418V298ZM57.7244 301V39.1818H51.7244V301H57.7244ZM407.666 301V304H409.845L410.519 301.928L407.666 301ZM348.348 301L345.512 300.021L344.139 304H348.348V301ZM438.732 39.1818V36.1818H436.594L435.896 38.2029L438.732 39.1818ZM510.067 39.1818L512.903 38.2041L512.206 36.1818H510.067V39.1818ZM600.323 301V304H604.53L603.159 300.022L600.323 301ZM541.004 301L538.151 301.926L538.824 304H541.004V301ZM475.422 99.0114L478.275 98.0849L477.602 96.0114H475.422V99.0114ZM473.377 99.0114V96.0114H471.198L470.524 98.0833L473.377 99.0114ZM403.959 198.088V195.088H400.959V198.088H403.959ZM544.073 198.088H547.073V195.088H544.073V198.088ZM544.073 241.298V244.298H547.073V241.298H544.073ZM403.959 241.298H400.959V244.298H403.959V241.298ZM407.666 298H348.348V304H407.666V298ZM351.184 301.979L441.567 40.1608L435.896 38.2029L345.512 300.021L351.184 301.979ZM438.732 42.1818H510.067V36.1818H438.732V42.1818ZM507.231 40.1595L597.486 301.978L603.159 300.022L512.903 38.2041L507.231 40.1595ZM600.323 298H541.004V304H600.323V298ZM543.858 300.074L478.275 98.0849L472.569 99.9378L538.151 301.926L543.858 300.074ZM475.422 96.0114H473.377V102.011H475.422V96.0114ZM470.524 98.0833L404.813 300.072L410.519 301.928L476.229 99.9394L470.524 98.0833ZM403.959 201.088H544.073V195.088H403.959V201.088ZM541.073 198.088V241.298H547.073V198.088H541.073ZM544.073 238.298H403.959V244.298H544.073V238.298ZM406.959 241.298V198.088H400.959V241.298H406.959ZM610.235 301H607.235V304H610.235V301ZM610.235 39.1818V36.1818H607.235V39.1818H610.235ZM764.156 49.7926L762.801 52.4693L762.811 52.4743L762.821 52.4791L764.156 49.7926ZM796.244 79.5795L793.637 81.0642L793.643 81.0745L793.649 81.0847L796.244 79.5795ZM796.116 169.58L798.685 171.128L798.69 171.12L796.116 169.58ZM763.517 198.216L762.247 195.498L762.241 195.501L763.517 198.216ZM642.963 208.188H639.963V211.188H642.963V208.188ZM642.963 163.699V160.699H639.963V163.699H642.963ZM729.511 159.352L730.66 162.124L730.66 162.124L729.511 159.352ZM745.108 146.312L742.538 144.763L742.53 144.777L742.522 144.791L745.108 146.312ZM745.108 102.719L742.503 104.207L742.511 104.221L742.519 104.235L745.108 102.719ZM729.383 89.1676L728.149 91.9021L728.169 91.9111L728.189 91.9199L729.383 89.1676ZM665.59 84.4375V81.4375H662.59V84.4375H665.59ZM665.59 301V304H668.59V301H665.59ZM751.627 181.852L754.26 180.414L753.407 178.852H751.627V181.852ZM816.698 301V304H821.755L819.331 299.562L816.698 301ZM755.59 301L752.945 302.414L753.792 304H755.59V301ZM691.926 181.852V178.852H686.921L689.28 183.266L691.926 181.852ZM613.235 301V39.1818H607.235V301H613.235ZM610.235 42.1818H713.531V36.1818H610.235V42.1818ZM713.531 42.1818C732.953 42.1818 749.339 45.6564 762.801 52.4693L765.51 47.1159C751.018 39.7811 733.654 36.1818 713.531 36.1818V42.1818ZM762.821 52.4791C776.383 59.2193 786.621 68.745 793.637 81.0642L798.851 78.0949C791.208 64.6755 780.053 54.3432 765.491 47.1061L762.821 52.4791ZM793.649 81.0847C800.756 93.3387 804.366 107.844 804.366 124.707H810.366C810.366 106.969 806.561 91.3885 798.839 78.0744L793.649 81.0847ZM804.366 124.707C804.366 141.655 800.714 156.058 793.542 168.039L798.69 171.12C806.518 158.044 810.366 142.532 810.366 124.707H804.366ZM793.547 168.031C786.379 179.922 775.986 189.081 762.247 195.498L764.786 200.934C779.513 194.056 790.853 184.123 798.685 171.128L793.547 168.031ZM762.241 195.501C748.59 201.915 731.919 205.188 712.125 205.188V211.188C732.557 211.188 750.148 207.812 764.792 200.931L762.241 195.501ZM712.125 205.188H642.963V211.188H712.125V205.188ZM645.963 208.188V163.699H639.963V208.188H645.963ZM642.963 166.699H703.176V160.699H642.963V166.699ZM703.176 166.699C713.993 166.699 723.193 165.219 730.66 162.124L728.362 156.581C721.851 159.281 713.495 160.699 703.176 160.699V166.699ZM730.66 162.124C738.172 159.009 743.913 154.26 747.693 147.834L742.522 144.791C739.484 149.956 734.828 153.9 728.362 156.581L730.66 162.124ZM747.677 147.862C751.52 141.487 753.349 133.715 753.349 124.707H747.349C747.349 132.916 745.684 139.547 742.538 144.763L747.677 147.862ZM753.349 124.707C753.349 115.617 751.521 107.733 747.696 101.203L742.519 104.235C745.683 109.637 747.349 116.412 747.349 124.707H753.349ZM747.712 101.23C743.943 94.6337 738.169 89.7083 730.577 86.4153L728.189 91.9199C734.745 94.7632 739.454 98.8719 742.503 104.207L747.712 101.23ZM730.617 86.4331C723.12 83.0505 713.844 81.4375 702.92 81.4375V87.4375C713.303 87.4375 721.668 88.9779 728.149 91.9021L730.617 86.4331ZM702.92 81.4375H665.59V87.4375H702.92V81.4375ZM662.59 84.4375V301H668.59V84.4375H662.59ZM665.59 298H610.235V304H665.59V298ZM748.994 183.29L814.065 302.438L819.331 299.562L754.26 180.414L748.994 183.29ZM816.698 298H755.59V304H816.698V298ZM758.236 299.586L694.572 180.438L689.28 183.266L752.945 302.414L758.236 299.586ZM691.926 184.852H751.627V178.852H691.926V184.852ZM824.885 301H821.885V304H824.885V301ZM824.885 39.1818V36.1818H821.885V39.1818H824.885ZM880.24 39.1818H883.24V36.1818H880.24V39.1818ZM880.24 154.622H877.24V157.622H880.24V154.622ZM883.692 154.622V157.622H885.116L886.016 156.519L883.692 154.622ZM977.911 39.1818V36.1818H976.487L975.587 37.2849L977.911 39.1818ZM1044.26 39.1818L1046.57 41.0962L1050.64 36.1818H1044.26V39.1818ZM947.101 156.412L944.791 154.498L943.352 156.234L944.62 158.099L947.101 156.412ZM1045.41 301V304H1051.08L1047.89 299.313L1045.41 301ZM979.189 301L976.693 302.663L977.583 304H979.189V301ZM907.471 193.358L909.967 191.695L907.719 188.321L905.15 191.457L907.471 193.358ZM880.24 226.597L877.92 224.695L877.24 225.525V226.597H880.24ZM880.24 301V304H883.24V301H880.24ZM827.885 301V39.1818H821.885V301H827.885ZM824.885 42.1818H880.24V36.1818H824.885V42.1818ZM877.24 39.1818V154.622H883.24V39.1818H877.24ZM880.24 157.622H883.692V151.622H880.24V157.622ZM886.016 156.519L980.235 41.0787L975.587 37.2849L881.368 152.725L886.016 156.519ZM977.911 42.1818H1044.26V36.1818H977.911V42.1818ZM1041.95 37.2675L944.791 154.498L949.411 158.326L1046.57 41.0962L1041.95 37.2675ZM944.62 158.099L1042.93 302.687L1047.89 299.313L949.582 154.725L944.62 158.099ZM1045.41 298H979.189V304H1045.41V298ZM981.686 299.337L909.967 191.695L904.974 195.021L976.693 302.663L981.686 299.337ZM905.15 191.457L877.92 224.695L882.561 228.498L909.791 195.259L905.15 191.457ZM877.24 226.597V301H883.24V226.597H877.24ZM880.24 298H824.885V304H880.24V298ZM1051.49 301H1048.49V304H1051.49V301ZM1051.49 39.1818V36.1818H1048.49V39.1818H1051.49ZM1227.91 39.1818H1230.91V36.1818H1227.91V39.1818ZM1227.91 84.821V87.821H1230.91V84.821H1227.91ZM1106.84 84.821V81.821H1103.84V84.821H1106.84ZM1106.84 147.207H1103.84V150.207H1106.84V147.207ZM1218.83 147.207H1221.83V144.207H1218.83V147.207ZM1218.83 192.847V195.847H1221.83V192.847H1218.83ZM1106.84 192.847V189.847H1103.84V192.847H1106.84ZM1106.84 255.361H1103.84V258.361H1106.84V255.361ZM1228.42 255.361H1231.42V252.361H1228.42V255.361ZM1228.42 301V304H1231.42V301H1228.42ZM1054.49 301V39.1818H1048.49V301H1054.49ZM1051.49 42.1818H1227.91V36.1818H1051.49V42.1818ZM1224.91 39.1818V84.821H1230.91V39.1818H1224.91ZM1227.91 81.821H1106.84V87.821H1227.91V81.821ZM1103.84 84.821V147.207H1109.84V84.821H1103.84ZM1106.84 150.207H1218.83V144.207H1106.84V150.207ZM1215.83 147.207V192.847H1221.83V147.207H1215.83ZM1218.83 189.847H1106.84V195.847H1218.83V189.847ZM1103.84 192.847V255.361H1109.84V192.847H1103.84ZM1106.84 258.361H1228.42V252.361H1106.84V258.361ZM1225.42 255.361V301H1231.42V255.361H1225.42ZM1228.42 298H1051.49V304H1228.42V298ZM1240.35 84.821H1237.35V87.821H1240.35V84.821ZM1240.35 39.1818V36.1818H1237.35V39.1818H1240.35ZM1455.38 39.1818H1458.38V36.1818H1455.38V39.1818ZM1455.38 84.821V87.821H1458.38V84.821H1455.38ZM1375.22 84.821V81.821H1372.22V84.821H1375.22ZM1375.22 301V304H1378.22V301H1375.22ZM1320.5 301H1317.5V304H1320.5V301ZM1320.5 84.821H1323.5V81.821H1320.5V84.821ZM1243.35 84.821V39.1818H1237.35V84.821H1243.35ZM1240.35 42.1818H1455.38V36.1818H1240.35V42.1818ZM1452.38 39.1818V84.821H1458.38V39.1818H1452.38ZM1455.38 81.821H1375.22V87.821H1455.38V81.821ZM1372.22 84.821V301H1378.22V84.821H1372.22ZM1375.22 298H1320.5V304H1375.22V298ZM1323.5 301V84.821H1317.5V301H1323.5ZM1320.5 81.821H1240.35V87.821H1320.5V81.821Z" fill="white" mask="url(#path-2-outside-1_12_2)"/>
</svg>
