<svg width="694" height="207" viewBox="0 0 694 207" fill="none" xmlns="http://www.w3.org/2000/svg">
<mask id="path-1-outside-1_1_26" maskUnits="userSpaceOnUse" x="-3" y="-3" width="700" height="213" fill="black">
<rect fill="white" x="-3" y="-3" width="700" height="213"/>
<path d="M0.387157 204V0.36363H81.9212C96.9023 0.36363 109.398 2.58428 119.407 7.02557C129.417 11.4669 136.94 17.6316 141.978 25.5199C147.016 33.3419 149.535 42.357 149.535 52.5653C149.535 60.5199 147.944 67.5133 144.762 73.5455C141.58 79.5114 137.205 84.4167 131.637 88.2614C126.135 92.0398 119.838 94.7244 112.745 96.3153V98.304C120.501 98.6354 127.759 100.823 134.521 104.866C141.348 108.91 146.883 114.578 151.126 121.869C155.368 129.095 157.489 137.712 157.489 147.722C157.489 158.527 154.805 168.171 149.435 176.656C144.132 185.075 136.277 191.737 125.87 196.642C115.463 201.547 102.636 204 87.39 204H0.387157ZM43.4411 168.801H78.5406C90.5387 168.801 99.2887 166.514 104.791 161.94C110.292 157.3 113.043 151.135 113.043 143.446C113.043 137.812 111.685 132.84 108.967 128.531C106.249 124.223 102.371 120.842 97.3332 118.389C92.3616 115.937 86.4288 114.71 79.5349 114.71H43.4411V168.801ZM43.4411 85.5767H75.3587C81.2584 85.5767 86.4951 84.5492 91.069 82.4943C95.7091 80.3731 99.355 77.3902 102.006 73.5455C104.724 69.7008 106.083 65.0938 106.083 59.7244C106.083 52.3665 103.465 46.4337 98.2281 41.9261C93.0576 37.4186 85.6997 35.1648 76.1542 35.1648H43.4411V85.5767ZM294.486 0.36363H337.54V132.608C337.54 147.456 333.993 160.449 326.9 171.585C319.874 182.722 310.03 191.405 297.369 197.636C284.708 203.801 269.959 206.884 253.122 206.884C236.219 206.884 221.436 203.801 208.775 197.636C196.114 191.405 186.271 182.722 179.244 171.585C172.218 160.449 168.704 147.456 168.704 132.608V0.36363H211.758V128.929C211.758 136.685 213.449 143.579 216.829 149.611C220.276 155.643 225.115 160.383 231.346 163.83C237.577 167.277 244.836 169 253.122 169C261.474 169 268.733 167.277 274.898 163.83C281.129 160.383 285.934 155.643 289.315 149.611C292.762 143.579 294.486 136.685 294.486 128.929V0.36363ZM356.162 204V0.36363H436.503C451.882 0.36363 465.007 3.11458 475.878 8.61647C486.816 14.0521 495.135 21.7746 500.835 31.7841C506.602 41.7273 509.486 53.4271 509.486 66.8835C509.486 80.4062 506.569 92.0398 500.736 101.784C494.903 111.462 486.451 118.886 475.381 124.057C464.377 129.227 451.053 131.812 435.409 131.812H381.617V97.2102H428.449C436.669 97.2102 443.496 96.0833 448.932 93.8295C454.368 91.5758 458.411 88.1951 461.063 83.6875C463.78 79.1799 465.139 73.5786 465.139 66.8835C465.139 60.1222 463.78 54.4214 461.063 49.7812C458.411 45.1411 454.334 41.6278 448.833 39.2415C443.397 36.7888 436.536 35.5625 428.25 35.5625H399.216V204H356.162ZM466.134 111.33L516.745 204H469.216L419.699 111.33H466.134ZM693.439 0.36363V204H656.251L567.658 75.8324H566.166V204H523.112V0.36363H560.896L648.794 128.432H650.584V0.36363H693.439Z"/>
</mask>
<path d="M0.387157 204V0.36363H81.9212C96.9023 0.36363 109.398 2.58428 119.407 7.02557C129.417 11.4669 136.94 17.6316 141.978 25.5199C147.016 33.3419 149.535 42.357 149.535 52.5653C149.535 60.5199 147.944 67.5133 144.762 73.5455C141.58 79.5114 137.205 84.4167 131.637 88.2614C126.135 92.0398 119.838 94.7244 112.745 96.3153V98.304C120.501 98.6354 127.759 100.823 134.521 104.866C141.348 108.91 146.883 114.578 151.126 121.869C155.368 129.095 157.489 137.712 157.489 147.722C157.489 158.527 154.805 168.171 149.435 176.656C144.132 185.075 136.277 191.737 125.87 196.642C115.463 201.547 102.636 204 87.39 204H0.387157ZM43.4411 168.801H78.5406C90.5387 168.801 99.2887 166.514 104.791 161.94C110.292 157.3 113.043 151.135 113.043 143.446C113.043 137.812 111.685 132.84 108.967 128.531C106.249 124.223 102.371 120.842 97.3332 118.389C92.3616 115.937 86.4288 114.71 79.5349 114.71H43.4411V168.801ZM43.4411 85.5767H75.3587C81.2584 85.5767 86.4951 84.5492 91.069 82.4943C95.7091 80.3731 99.355 77.3902 102.006 73.5455C104.724 69.7008 106.083 65.0938 106.083 59.7244C106.083 52.3665 103.465 46.4337 98.2281 41.9261C93.0576 37.4186 85.6997 35.1648 76.1542 35.1648H43.4411V85.5767ZM294.486 0.36363H337.54V132.608C337.54 147.456 333.993 160.449 326.9 171.585C319.874 182.722 310.03 191.405 297.369 197.636C284.708 203.801 269.959 206.884 253.122 206.884C236.219 206.884 221.436 203.801 208.775 197.636C196.114 191.405 186.271 182.722 179.244 171.585C172.218 160.449 168.704 147.456 168.704 132.608V0.36363H211.758V128.929C211.758 136.685 213.449 143.579 216.829 149.611C220.276 155.643 225.115 160.383 231.346 163.83C237.577 167.277 244.836 169 253.122 169C261.474 169 268.733 167.277 274.898 163.83C281.129 160.383 285.934 155.643 289.315 149.611C292.762 143.579 294.486 136.685 294.486 128.929V0.36363ZM356.162 204V0.36363H436.503C451.882 0.36363 465.007 3.11458 475.878 8.61647C486.816 14.0521 495.135 21.7746 500.835 31.7841C506.602 41.7273 509.486 53.4271 509.486 66.8835C509.486 80.4062 506.569 92.0398 500.736 101.784C494.903 111.462 486.451 118.886 475.381 124.057C464.377 129.227 451.053 131.812 435.409 131.812H381.617V97.2102H428.449C436.669 97.2102 443.496 96.0833 448.932 93.8295C454.368 91.5758 458.411 88.1951 461.063 83.6875C463.78 79.1799 465.139 73.5786 465.139 66.8835C465.139 60.1222 463.78 54.4214 461.063 49.7812C458.411 45.1411 454.334 41.6278 448.833 39.2415C443.397 36.7888 436.536 35.5625 428.25 35.5625H399.216V204H356.162ZM466.134 111.33L516.745 204H469.216L419.699 111.33H466.134ZM693.439 0.36363V204H656.251L567.658 75.8324H566.166V204H523.112V0.36363H560.896L648.794 128.432H650.584V0.36363H693.439Z" fill="white" fill-opacity="0.88"/>
<path d="M0.387157 204H-2.61284V207H0.387157V204ZM0.387157 0.36363V-2.63637H-2.61284V0.36363H0.387157ZM119.407 7.02557L118.19 9.76775L118.19 9.76775L119.407 7.02557ZM141.978 25.5199L139.45 27.1346L139.456 27.1443L141.978 25.5199ZM144.762 73.5455L147.409 74.9572L147.416 74.9451L144.762 73.5455ZM131.637 88.2614L133.335 90.7344L133.342 90.7301L131.637 88.2614ZM112.745 96.3153L112.089 93.3881L109.745 93.9137V96.3153H112.745ZM112.745 98.304H109.745V101.179L112.617 101.301L112.745 98.304ZM134.521 104.866L132.981 107.441L132.992 107.448L134.521 104.866ZM151.126 121.869L148.533 123.378L148.539 123.388L151.126 121.869ZM149.435 176.656L146.9 175.052L146.897 175.057L149.435 176.656ZM125.87 196.642L124.591 193.928L124.591 193.928L125.87 196.642ZM43.4411 168.801H40.4411V171.801H43.4411V168.801ZM104.791 161.94L106.708 164.247L106.717 164.24L106.725 164.234L104.791 161.94ZM108.967 128.531L106.429 130.132L106.429 130.132L108.967 128.531ZM97.3332 118.389L96.0059 121.08L96.013 121.083L96.02 121.087L97.3332 118.389ZM43.4411 114.71V111.71H40.4411V114.71H43.4411ZM43.4411 85.5767H40.4411V88.5767H43.4411V85.5767ZM91.069 82.4943L92.2984 85.2308L92.3074 85.2268L92.3163 85.2227L91.069 82.4943ZM102.006 73.5455L99.5567 71.8137L99.5467 71.8279L99.5368 71.8423L102.006 73.5455ZM98.2281 41.9261L96.2567 44.1874L96.2638 44.1937L96.271 44.1998L98.2281 41.9261ZM43.4411 35.1648V32.1648H40.4411V35.1648H43.4411ZM3.38716 204V0.36363H-2.61284V204H3.38716ZM0.387157 3.36363H81.9212V-2.63637H0.387157V3.36363ZM81.9212 3.36363C96.6282 3.36363 108.677 5.54679 118.19 9.76775L120.624 4.28338C110.118 -0.378244 97.1764 -2.63637 81.9212 -2.63637V3.36363ZM118.19 9.76775C127.755 14.0116 134.78 19.8225 139.45 27.1346L144.506 23.9051C139.101 15.4407 131.078 8.92207 120.624 4.28338L118.19 9.76775ZM139.456 27.1443C144.152 34.4352 146.535 42.875 146.535 52.5653H152.535C152.535 41.839 149.88 32.2485 144.5 23.8954L139.456 27.1443ZM146.535 52.5653C146.535 60.1134 145.028 66.6117 142.109 72.1458L147.416 74.9451C150.86 68.4148 152.535 60.9263 152.535 52.5653H146.535ZM142.115 72.1337C139.159 77.6768 135.107 82.2198 129.933 85.7927L133.342 90.7301C139.304 86.6135 144.002 81.3459 147.409 74.9572L142.115 72.1337ZM129.939 85.7884C124.779 89.3318 118.842 91.8733 112.089 93.3881L113.402 99.2426C120.834 97.5755 127.491 94.7477 133.335 90.7344L129.939 85.7884ZM109.745 96.3153V98.304H115.745V96.3153H109.745ZM112.617 101.301C119.867 101.611 126.641 103.65 132.981 107.441L136.06 102.292C128.878 97.9962 121.135 95.6598 112.873 95.3067L112.617 101.301ZM132.992 107.448C139.351 111.214 144.531 116.5 148.533 123.378L153.719 120.361C149.236 112.655 143.345 106.606 136.049 102.285L132.992 107.448ZM148.539 123.388C152.462 130.071 154.489 138.142 154.489 147.722H160.489C160.489 137.282 158.274 128.119 153.713 120.35L148.539 123.388ZM154.489 147.722C154.489 158.004 151.943 167.084 146.9 175.052L151.971 178.26C157.667 169.259 160.489 159.049 160.489 147.722H154.489ZM146.897 175.057C141.944 182.92 134.563 189.228 124.591 193.928L127.149 199.356C137.991 194.245 146.321 187.23 151.974 178.255L146.897 175.057ZM124.591 193.928C114.692 198.594 102.331 201 87.39 201V207C102.941 207 116.234 204.5 127.149 199.356L124.591 193.928ZM87.39 201H0.387157V207H87.39V201ZM43.4411 171.801H78.5406V165.801H43.4411V171.801ZM78.5406 171.801C90.8034 171.801 100.408 169.485 106.708 164.247L102.873 159.633C98.1697 163.543 90.274 165.801 78.5406 165.801V171.801ZM106.725 164.234C112.953 158.981 116.043 151.951 116.043 143.446H110.043C110.043 150.32 107.632 155.62 102.856 159.647L106.725 164.234ZM116.043 143.446C116.043 137.307 114.556 131.769 111.504 126.931L106.429 130.132C108.813 133.911 110.043 138.316 110.043 143.446H116.043ZM111.504 126.931C108.459 122.103 104.135 118.364 98.6464 115.692L96.02 121.087C100.608 123.32 104.039 126.342 106.429 130.132L111.504 126.931ZM98.6605 115.699C93.1879 112.999 86.7795 111.71 79.5349 111.71V117.71C86.0781 117.71 91.5353 118.874 96.0059 121.08L98.6605 115.699ZM79.5349 111.71H43.4411V117.71H79.5349V111.71ZM40.4411 114.71V168.801H46.4411V114.71H40.4411ZM43.4411 88.5767H75.3587V82.5767H43.4411V88.5767ZM75.3587 88.5767C81.6082 88.5767 87.2757 87.4874 92.2984 85.2308L89.8395 79.7578C85.7145 81.6111 80.9085 82.5767 75.3587 82.5767V88.5767ZM92.3163 85.2227C97.4019 82.8979 101.489 79.5798 104.476 75.2487L99.5368 71.8423C97.2208 75.2005 94.0163 77.8484 89.8217 79.7659L92.3163 85.2227ZM104.456 75.2772C107.581 70.8569 109.083 65.6237 109.083 59.7244H103.083C103.083 64.5638 101.868 68.5446 99.5567 71.8137L104.456 75.2772ZM109.083 59.7244C109.083 51.5573 106.131 44.7706 100.185 39.6524L96.271 44.1998C100.798 48.0968 103.083 53.1756 103.083 59.7244H109.083ZM100.199 39.6648C94.3017 34.5231 86.1415 32.1648 76.1542 32.1648V38.1648C85.2578 38.1648 91.8136 40.314 96.2567 44.1874L100.199 39.6648ZM76.1542 32.1648H43.4411V38.1648H76.1542V32.1648ZM40.4411 35.1648V85.5767H46.4411V35.1648H40.4411ZM294.486 0.36363V-2.63637H291.486V0.36363H294.486ZM337.54 0.36363H340.54V-2.63637H337.54V0.36363ZM326.9 171.585L324.37 169.974L324.363 169.984L326.9 171.585ZM297.369 197.636L298.682 200.334L298.694 200.328L297.369 197.636ZM208.775 197.636L207.451 200.328L207.462 200.334L208.775 197.636ZM179.244 171.585L176.707 173.186L176.707 173.186L179.244 171.585ZM168.704 0.36363V-2.63637H165.704V0.36363H168.704ZM211.758 0.36363H214.758V-2.63637H211.758V0.36363ZM216.829 149.611L214.212 151.077L214.218 151.088L214.225 151.099L216.829 149.611ZM231.346 163.83L229.894 166.455L229.894 166.455L231.346 163.83ZM274.898 163.83L273.445 161.204L273.433 161.211L274.898 163.83ZM289.315 149.611L286.71 148.122L286.704 148.133L286.698 148.144L289.315 149.611ZM294.486 3.36363H337.54V-2.63637H294.486V3.36363ZM334.54 0.36363V132.608H340.54V0.36363H334.54ZM334.54 132.608C334.54 146.959 331.119 159.377 324.37 169.974L329.431 173.197C336.867 161.521 340.54 147.954 340.54 132.608H334.54ZM324.363 169.984C317.654 180.618 308.245 188.94 296.044 194.945L298.694 200.328C311.815 193.871 322.094 184.825 329.438 173.186L324.363 169.984ZM296.056 194.939C283.876 200.869 269.592 203.884 253.122 203.884V209.884C270.326 209.884 285.54 206.733 298.682 200.334L296.056 194.939ZM253.122 203.884C236.584 203.884 222.267 200.869 210.089 194.939L207.462 200.334C220.606 206.734 235.854 209.884 253.122 209.884V203.884ZM210.1 194.945C197.899 188.94 188.491 180.618 181.781 169.984L176.707 173.186C184.05 184.825 194.33 193.871 207.451 200.328L210.1 194.945ZM181.781 169.984C175.095 159.386 171.704 146.964 171.704 132.608H165.704C165.704 147.949 169.341 161.511 176.707 173.186L181.781 169.984ZM171.704 132.608V0.36363H165.704V132.608H171.704ZM168.704 3.36363H211.758V-2.63637H168.704V3.36363ZM208.758 0.36363V128.929H214.758V0.36363H208.758ZM208.758 128.929C208.758 137.135 210.551 144.545 214.212 151.077L219.446 148.144C216.346 142.612 214.758 136.235 214.758 128.929H208.758ZM214.225 151.099C217.951 157.621 223.195 162.749 229.894 166.455L232.799 161.204C227.036 158.017 222.601 153.665 219.434 148.122L214.225 151.099ZM229.894 166.455C236.638 170.185 244.412 172 253.122 172V166C245.26 166 238.517 164.368 232.799 161.204L229.894 166.455ZM253.122 172C261.893 172 269.674 170.187 276.362 166.448L273.433 161.211C267.791 164.366 261.055 166 253.122 166V172ZM276.35 166.455C283.054 162.746 288.27 157.612 291.932 151.077L286.698 148.144C283.599 153.674 279.203 158.019 273.445 161.204L276.35 166.455ZM291.92 151.099C295.655 144.563 297.486 137.145 297.486 128.929H291.486C291.486 136.225 289.869 142.594 286.71 148.122L291.92 151.099ZM297.486 128.929V0.36363H291.486V128.929H297.486ZM356.162 204H353.162V207H356.162V204ZM356.162 0.36363V-2.63637H353.162V0.36363H356.162ZM475.878 8.61647L474.523 11.2932L474.533 11.2981L474.543 11.303L475.878 8.61647ZM500.835 31.7841L498.229 33.2688L498.234 33.279L498.24 33.2892L500.835 31.7841ZM500.736 101.784L503.305 103.333L503.31 103.325L500.736 101.784ZM475.381 124.057L474.111 121.339L474.105 121.342L475.381 124.057ZM381.617 131.812H378.617V134.812H381.617V131.812ZM381.617 97.2102V94.2102H378.617V97.2102H381.617ZM448.932 93.8295L450.081 96.6008L450.081 96.6008L448.932 93.8295ZM461.063 83.6875L458.494 82.1385L458.485 82.1524L458.477 82.1664L461.063 83.6875ZM461.063 49.7812L458.458 51.2697L458.466 51.2836L458.474 51.2975L461.063 49.7812ZM448.833 39.2415L447.599 41.976L447.619 41.985L447.639 41.9937L448.833 39.2415ZM399.216 35.5625V32.5625H396.216V35.5625H399.216ZM399.216 204V207H402.216V204H399.216ZM466.134 111.33L468.767 109.892L467.914 108.33H466.134V111.33ZM516.745 204V207H521.801L519.377 202.562L516.745 204ZM469.216 204L466.57 205.414L467.418 207H469.216V204ZM419.699 111.33V108.33H414.695L417.053 112.743L419.699 111.33ZM359.162 204V0.36363H353.162V204H359.162ZM356.162 3.36363H436.503V-2.63637H356.162V3.36363ZM436.503 3.36363C451.531 3.36363 464.168 6.0522 474.523 11.2932L477.233 5.93975C465.846 0.176954 452.232 -2.63637 436.503 -2.63637V3.36363ZM474.543 11.303C484.98 16.4901 492.841 23.8093 498.229 33.2688L503.442 30.2994C497.428 19.7399 488.651 11.614 477.213 5.92994L474.543 11.303ZM498.24 33.2892C503.7 42.7023 506.486 53.8647 506.486 66.8835H512.486C512.486 52.9895 509.505 40.7522 503.431 30.2789L498.24 33.2892ZM506.486 66.8835C506.486 79.9677 503.667 91.0464 498.162 100.243L503.31 103.325C509.471 93.0331 512.486 80.8448 512.486 66.8835H506.486ZM498.167 100.235C492.666 109.361 484.688 116.399 474.111 121.339L476.65 126.775C488.214 121.374 497.139 113.563 503.305 103.333L498.167 100.235ZM474.105 121.342C463.598 126.279 450.734 128.812 435.409 128.812V134.812C451.372 134.812 465.156 132.176 476.657 126.772L474.105 121.342ZM435.409 128.812H381.617V134.812H435.409V128.812ZM384.617 131.812V97.2102H378.617V131.812H384.617ZM381.617 100.21H428.449V94.2102H381.617V100.21ZM428.449 100.21C436.918 100.21 444.167 99.0528 450.081 96.6008L447.783 91.0583C442.825 93.1139 436.42 94.2102 428.449 94.2102V100.21ZM450.081 96.6008C456.04 94.1302 460.626 90.3474 463.648 85.2086L458.477 82.1664C456.197 86.0427 452.696 89.0213 447.783 91.0583L450.081 96.6008ZM463.632 85.2365C466.699 80.1502 468.139 73.9781 468.139 66.8835H462.139C462.139 73.1791 460.862 78.2096 458.494 82.1385L463.632 85.2365ZM468.139 66.8835C468.139 59.7246 466.7 53.4693 463.651 48.265L458.474 51.2975C460.861 55.3735 462.139 60.5197 462.139 66.8835H468.139ZM463.667 48.2928C460.656 43.022 456.047 39.1004 450.026 36.4892L447.639 41.9937C452.622 44.1553 456.167 47.2602 458.458 51.2697L463.667 48.2928ZM450.066 36.507C444.123 33.8251 436.807 32.5625 428.25 32.5625V38.5625C436.266 38.5625 442.671 39.7525 447.599 41.976L450.066 36.507ZM428.25 32.5625H399.216V38.5625H428.25V32.5625ZM396.216 35.5625V204H402.216V35.5625H396.216ZM399.216 201H356.162V207H399.216V201ZM463.501 112.767L514.112 205.438L519.377 202.562L468.767 109.892L463.501 112.767ZM516.745 201H469.216V207H516.745V201ZM471.862 202.586L422.345 109.916L417.053 112.743L466.57 205.414L471.862 202.586ZM419.699 114.33H466.134V108.33H419.699V114.33ZM693.439 0.36363H696.439V-2.63637H693.439V0.36363ZM693.439 204V207H696.439V204H693.439ZM656.251 204L653.784 205.706L654.678 207H656.251V204ZM567.658 75.8324L570.125 74.1265L569.231 72.8324H567.658V75.8324ZM566.166 75.8324V72.8324H563.166V75.8324H566.166ZM566.166 204V207H569.166V204H566.166ZM523.112 204H520.112V207H523.112V204ZM523.112 0.36363V-2.63637H520.112V0.36363H523.112ZM560.896 0.36363L563.37 -1.334L562.476 -2.63637H560.896V0.36363ZM648.794 128.432L646.32 130.129L647.214 131.432H648.794V128.432ZM650.584 128.432V131.432H653.584V128.432H650.584ZM650.584 0.36363V-2.63637H647.584V0.36363H650.584ZM690.439 0.36363V204H696.439V0.36363H690.439ZM693.439 201H656.251V207H693.439V201ZM658.719 202.294L570.125 74.1265L565.19 77.5382L653.784 205.706L658.719 202.294ZM567.658 72.8324H566.166V78.8324H567.658V72.8324ZM563.166 75.8324V204H569.166V75.8324H563.166ZM566.166 201H523.112V207H566.166V201ZM526.112 204V0.36363H520.112V204H526.112ZM523.112 3.36363H560.896V-2.63637H523.112V3.36363ZM558.423 2.06126L646.32 130.129L651.267 126.734L563.37 -1.334L558.423 2.06126ZM648.794 131.432H650.584V125.432H648.794V131.432ZM653.584 128.432V0.36363H647.584V128.432H653.584ZM650.584 3.36363H693.439V-2.63637H650.584V3.36363Z" fill="white" mask="url(#path-1-outside-1_1_26)"/>
</svg>
