<svg width="1500" height="341" viewBox="0 0 1500 341" fill="none" xmlns="http://www.w3.org/2000/svg">
<mask id="path-1-outside-1_94_2" maskUnits="userSpaceOnUse" x="44" y="14" width="1417" height="314" fill="black">
<rect fill="white" x="44" y="14" width="1417" height="314"/>
<path d="M47.2773 320V21.8182H164.919C187.438 21.8182 206.657 25.8463 222.576 33.9027C238.591 41.862 250.773 53.17 259.12 67.8267C267.565 82.3864 271.787 99.5182 271.787 119.222C271.787 139.023 267.516 156.058 258.975 170.327C250.433 184.498 238.057 195.369 221.848 202.94C205.735 210.511 186.225 214.297 163.318 214.297H84.5501V163.629H153.126C165.162 163.629 175.16 161.979 183.119 158.679C191.078 155.379 196.999 150.429 200.882 143.828C204.861 137.228 206.851 129.026 206.851 119.222C206.851 109.322 204.861 100.974 200.882 94.1797C196.999 87.3852 191.03 82.2408 182.973 78.7464C175.014 75.1551 164.968 73.3594 152.835 73.3594H110.321V320H47.2773ZM208.307 184.304L282.416 320H212.821L140.314 184.304H208.307ZM404.635 320H337.079L440.015 21.8182H521.258L624.05 320H556.493L481.802 89.9574H479.472L404.635 320ZM400.413 202.795H559.987V252.006H400.413V202.795ZM802.542 320H696.839V21.8182H803.416C833.409 21.8182 859.228 27.7876 880.873 39.7266C902.519 51.5684 919.165 68.6032 930.813 90.831C942.558 113.059 948.43 139.654 948.43 170.618C948.43 201.678 942.558 228.371 930.813 250.696C919.165 273.021 902.421 290.153 880.582 302.092C858.84 314.031 832.826 320 802.542 320ZM759.882 265.984H799.921C818.558 265.984 834.234 262.683 846.949 256.083C859.762 249.386 869.371 239.048 875.777 225.071C882.281 210.997 885.532 192.846 885.532 170.618C885.532 148.584 882.281 130.579 875.777 116.602C869.371 102.624 859.81 92.3355 847.095 85.7351C834.379 79.1347 818.703 75.8345 800.067 75.8345H759.882V265.984ZM1095.07 21.8182V320H1032.03V21.8182H1095.07ZM1457.86 170.909C1457.86 203.426 1451.69 231.089 1439.36 253.899C1427.13 276.709 1410.44 294.132 1389.28 306.168C1368.22 318.107 1344.53 324.077 1318.23 324.077C1291.73 324.077 1267.95 318.059 1246.89 306.023C1225.82 293.987 1209.18 276.564 1196.95 253.754C1184.72 230.943 1178.6 203.329 1178.6 170.909C1178.6 138.393 1184.72 110.729 1196.95 87.919C1209.18 65.1089 1225.82 47.7344 1246.89 35.7955C1267.95 23.7595 1291.73 17.7415 1318.23 17.7415C1344.53 17.7415 1368.22 23.7595 1389.28 35.7955C1410.44 47.7344 1427.13 65.1089 1439.36 87.919C1451.69 110.729 1457.86 138.393 1457.86 170.909ZM1393.94 170.909C1393.94 149.846 1390.78 132.083 1384.47 117.621C1378.26 103.158 1369.48 92.1899 1358.12 84.7159C1346.76 77.242 1333.47 73.505 1318.23 73.505C1302.99 73.505 1289.69 77.242 1278.33 84.7159C1266.98 92.1899 1258.15 103.158 1251.84 117.621C1245.62 132.083 1242.52 149.846 1242.52 170.909C1242.52 191.972 1245.62 209.735 1251.84 224.197C1258.15 238.66 1266.98 249.628 1278.33 257.102C1289.69 264.576 1302.99 268.313 1318.23 268.313C1333.47 268.313 1346.76 264.576 1358.12 257.102C1369.48 249.628 1378.26 238.66 1384.47 224.197C1390.78 209.735 1393.94 191.972 1393.94 170.909Z"/>
</mask>
<path d="M47.2773 320V21.8182H164.919C187.438 21.8182 206.657 25.8463 222.576 33.9027C238.591 41.862 250.773 53.17 259.12 67.8267C267.565 82.3864 271.787 99.5182 271.787 119.222C271.787 139.023 267.516 156.058 258.975 170.327C250.433 184.498 238.057 195.369 221.848 202.94C205.735 210.511 186.225 214.297 163.318 214.297H84.5501V163.629H153.126C165.162 163.629 175.16 161.979 183.119 158.679C191.078 155.379 196.999 150.429 200.882 143.828C204.861 137.228 206.851 129.026 206.851 119.222C206.851 109.322 204.861 100.974 200.882 94.1797C196.999 87.3852 191.03 82.2408 182.973 78.7464C175.014 75.1551 164.968 73.3594 152.835 73.3594H110.321V320H47.2773ZM208.307 184.304L282.416 320H212.821L140.314 184.304H208.307ZM404.635 320H337.079L440.015 21.8182H521.258L624.05 320H556.493L481.802 89.9574H479.472L404.635 320ZM400.413 202.795H559.987V252.006H400.413V202.795ZM802.542 320H696.839V21.8182H803.416C833.409 21.8182 859.228 27.7876 880.873 39.7266C902.519 51.5684 919.165 68.6032 930.813 90.831C942.558 113.059 948.43 139.654 948.43 170.618C948.43 201.678 942.558 228.371 930.813 250.696C919.165 273.021 902.421 290.153 880.582 302.092C858.84 314.031 832.826 320 802.542 320ZM759.882 265.984H799.921C818.558 265.984 834.234 262.683 846.949 256.083C859.762 249.386 869.371 239.048 875.777 225.071C882.281 210.997 885.532 192.846 885.532 170.618C885.532 148.584 882.281 130.579 875.777 116.602C869.371 102.624 859.81 92.3355 847.095 85.7351C834.379 79.1347 818.703 75.8345 800.067 75.8345H759.882V265.984ZM1095.07 21.8182V320H1032.03V21.8182H1095.07ZM1457.86 170.909C1457.86 203.426 1451.69 231.089 1439.36 253.899C1427.13 276.709 1410.44 294.132 1389.28 306.168C1368.22 318.107 1344.53 324.077 1318.23 324.077C1291.73 324.077 1267.95 318.059 1246.89 306.023C1225.82 293.987 1209.18 276.564 1196.95 253.754C1184.72 230.943 1178.6 203.329 1178.6 170.909C1178.6 138.393 1184.72 110.729 1196.95 87.919C1209.18 65.1089 1225.82 47.7344 1246.89 35.7955C1267.95 23.7595 1291.73 17.7415 1318.23 17.7415C1344.53 17.7415 1368.22 23.7595 1389.28 35.7955C1410.44 47.7344 1427.13 65.1089 1439.36 87.919C1451.69 110.729 1457.86 138.393 1457.86 170.909ZM1393.94 170.909C1393.94 149.846 1390.78 132.083 1384.47 117.621C1378.26 103.158 1369.48 92.1899 1358.12 84.7159C1346.76 77.242 1333.47 73.505 1318.23 73.505C1302.99 73.505 1289.69 77.242 1278.33 84.7159C1266.98 92.1899 1258.15 103.158 1251.84 117.621C1245.62 132.083 1242.52 149.846 1242.52 170.909C1242.52 191.972 1245.62 209.735 1251.84 224.197C1258.15 238.66 1266.98 249.628 1278.33 257.102C1289.69 264.576 1302.99 268.313 1318.23 268.313C1333.47 268.313 1346.76 264.576 1358.12 257.102C1369.48 249.628 1378.26 238.66 1384.47 224.197C1390.78 209.735 1393.94 191.972 1393.94 170.909Z" fill="white"/>
<path d="M47.2773 320H44.2773V323H47.2773V320ZM47.2773 21.8182V18.8182H44.2773V21.8182H47.2773ZM222.576 33.9027L221.221 36.5794L221.231 36.5844L221.241 36.5892L222.576 33.9027ZM259.12 67.8267L256.514 69.3114L256.519 69.3217L256.525 69.3319L259.12 67.8267ZM258.975 170.327L261.544 171.875L261.549 171.868L258.975 170.327ZM221.848 202.94L220.578 200.222L220.572 200.225L221.848 202.94ZM84.5501 214.297H81.5501V217.297H84.5501V214.297ZM84.5501 163.629V160.629H81.5501V163.629H84.5501ZM183.119 158.679L184.268 161.45L184.268 161.45L183.119 158.679ZM200.882 143.828L198.313 142.279L198.304 142.293L198.296 142.307L200.882 143.828ZM200.882 94.1797L198.277 95.6681L198.285 95.682L198.293 95.6959L200.882 94.1797ZM182.973 78.7464L181.74 81.481L181.759 81.49L181.78 81.4987L182.973 78.7464ZM110.321 73.3594V70.3594H107.321V73.3594H110.321ZM110.321 320V323H113.321V320H110.321ZM208.307 184.304L210.94 182.866L210.087 181.304H208.307V184.304ZM282.416 320V323H287.472L285.049 318.562L282.416 320ZM212.821 320L210.175 321.414L211.022 323H212.821V320ZM140.314 184.304V181.304H135.309L137.668 185.718L140.314 184.304ZM50.2773 320V21.8182H44.2773V320H50.2773ZM47.2773 24.8182H164.919V18.8182H47.2773V24.8182ZM164.919 24.8182C187.088 24.8182 205.818 28.784 221.221 36.5794L223.93 31.226C207.496 22.9087 187.789 18.8182 164.919 18.8182V24.8182ZM221.241 36.5892C236.756 44.3 248.479 55.2047 256.514 69.3114L261.727 66.342C253.066 51.1352 240.426 39.4239 223.911 31.2162L221.241 36.5892ZM256.525 69.3319C264.662 83.3614 268.787 99.9558 268.787 119.222H274.787C274.787 99.0806 270.468 81.4113 261.715 66.3215L256.525 69.3319ZM268.787 119.222C268.787 138.585 264.615 155.065 256.401 168.786L261.549 171.868C270.418 157.052 274.787 139.462 274.787 119.222H268.787ZM256.405 168.778C248.196 182.397 236.294 192.882 220.578 200.222L223.117 205.658C239.821 197.857 252.67 186.599 261.544 171.875L256.405 168.778ZM220.572 200.225C204.956 207.563 185.906 211.297 163.318 211.297V217.297C186.544 217.297 206.514 213.46 223.123 205.656L220.572 200.225ZM163.318 211.297H84.5501V217.297H163.318V211.297ZM87.5501 214.297V163.629H81.5501V214.297H87.5501ZM84.5501 166.629H153.126V160.629H84.5501V166.629ZM153.126 166.629C165.411 166.629 175.831 164.949 184.268 161.45L181.97 155.908C174.489 159.01 164.913 160.629 153.126 160.629V166.629ZM184.268 161.45C192.75 157.933 199.214 152.581 203.468 145.349L198.296 142.307C194.785 148.276 189.406 152.824 181.97 155.908L184.268 161.45ZM203.451 145.377C207.779 138.198 209.851 129.425 209.851 119.222H203.851C203.851 128.626 201.943 136.257 198.313 142.279L203.451 145.377ZM209.851 119.222C209.851 108.924 207.78 100.022 203.47 92.6635L198.293 95.6959C201.942 101.926 203.851 109.719 203.851 119.222H209.851ZM203.486 92.6913C199.244 85.2661 192.742 79.7133 184.167 75.9942L181.78 81.4987C189.318 84.7682 194.755 89.5043 198.277 95.6681L203.486 92.6913ZM184.207 76.0119C175.74 72.1914 165.238 70.3594 152.835 70.3594V76.3594C164.698 76.3594 174.288 78.1187 181.74 81.481L184.207 76.0119ZM152.835 70.3594H110.321V76.3594H152.835V70.3594ZM107.321 73.3594V320H113.321V73.3594H107.321ZM110.321 317H47.2773V323H110.321V317ZM205.674 185.742L279.783 321.438L285.049 318.562L210.94 182.866L205.674 185.742ZM282.416 317H212.821V323H282.416V317ZM215.467 318.586L142.96 182.89L137.668 185.718L210.175 321.414L215.467 318.586ZM140.314 187.304H208.307V181.304H140.314V187.304ZM404.635 320V323H406.814L407.488 320.928L404.635 320ZM337.079 320L334.243 319.021L332.869 323H337.079V320ZM440.015 21.8182V18.8182H437.877L437.18 20.8392L440.015 21.8182ZM521.258 21.8182L524.095 20.8405L523.397 18.8182H521.258V21.8182ZM624.05 320V323H628.257L626.886 319.022L624.05 320ZM556.493 320L553.639 320.926L554.313 323H556.493V320ZM481.802 89.9574L484.655 89.0309L483.982 86.9574H481.802V89.9574ZM479.472 89.9574V86.9574H477.293L476.619 89.0293L479.472 89.9574ZM400.413 202.795V199.795H397.413V202.795H400.413ZM559.987 202.795H562.987V199.795H559.987V202.795ZM559.987 252.006V255.006H562.987V252.006H559.987ZM400.413 252.006H397.413V255.006H400.413V252.006ZM404.635 317H337.079V323H404.635V317ZM339.914 320.979L442.851 22.7971L437.18 20.8392L334.243 319.021L339.914 320.979ZM440.015 24.8182H521.258V18.8182H440.015V24.8182ZM518.422 22.7959L621.213 320.978L626.886 319.022L524.095 20.8405L518.422 22.7959ZM624.05 317H556.493V323H624.05V317ZM559.346 319.074L484.655 89.0309L478.948 90.8838L553.639 320.926L559.346 319.074ZM481.802 86.9574H479.472V92.9574H481.802V86.9574ZM476.619 89.0293L401.783 319.072L407.488 320.928L482.325 90.8855L476.619 89.0293ZM400.413 205.795H559.987V199.795H400.413V205.795ZM556.987 202.795V252.006H562.987V202.795H556.987ZM559.987 249.006H400.413V255.006H559.987V249.006ZM403.413 252.006V202.795H397.413V252.006H403.413ZM696.839 320H693.839V323H696.839V320ZM696.839 21.8182V18.8182H693.839V21.8182H696.839ZM880.873 39.7266L879.424 42.3535L879.433 42.3584L880.873 39.7266ZM930.813 90.831L928.155 92.2234L928.16 92.2325L930.813 90.831ZM930.813 250.696L928.158 249.299L928.153 249.308L930.813 250.696ZM880.582 302.092L879.143 299.459L879.138 299.462L880.582 302.092ZM759.882 265.984H756.882V268.984H759.882V265.984ZM846.949 256.083L848.331 258.746L848.339 258.742L846.949 256.083ZM875.777 225.071L873.054 223.813L873.05 223.821L875.777 225.071ZM875.777 116.602L873.05 117.852L873.054 117.859L873.057 117.867L875.777 116.602ZM847.095 85.7351L848.477 83.0724L848.477 83.0724L847.095 85.7351ZM759.882 75.8345V72.8345H756.882V75.8345H759.882ZM802.542 317H696.839V323H802.542V317ZM699.839 320V21.8182H693.839V320H699.839ZM696.839 24.8182H803.416V18.8182H696.839V24.8182ZM803.416 24.8182C833.009 24.8182 858.308 30.7064 879.424 42.3535L882.322 37.0997C860.148 24.8689 833.808 18.8182 803.416 18.8182V24.8182ZM879.433 42.3584C900.55 53.9111 916.777 70.5103 928.156 92.2234L933.47 89.4385C921.553 66.6961 904.487 49.2257 882.313 37.0947L879.433 42.3584ZM928.16 92.2325C939.63 113.939 945.43 140.031 945.43 170.618H951.43C951.43 139.277 945.485 112.178 933.465 89.4294L928.16 92.2325ZM945.43 170.618C945.43 201.303 939.629 227.494 928.158 249.299L933.468 252.093C945.486 229.249 951.43 202.054 951.43 170.618H945.43ZM928.153 249.308C916.777 271.113 900.455 287.809 879.143 299.459L882.021 304.724C904.388 292.497 921.553 274.929 933.473 252.084L928.153 249.308ZM879.138 299.462C857.926 311.11 832.432 317 802.542 317V323C833.221 323 859.753 316.951 882.026 304.721L879.138 299.462ZM759.882 268.984H799.921V262.984H759.882V268.984ZM799.921 268.984C818.899 268.984 835.08 265.624 848.331 258.746L845.567 253.42C833.388 259.743 818.217 262.984 799.921 262.984V268.984ZM848.339 258.742C861.78 251.716 871.84 240.862 878.504 226.321L873.05 223.821C866.902 237.235 857.743 247.056 845.559 253.424L848.339 258.742ZM878.501 226.329C885.247 211.728 888.532 193.106 888.532 170.618H882.532C882.532 192.586 879.314 210.265 873.054 223.813L878.501 226.329ZM888.532 170.618C888.532 148.321 885.247 129.842 878.497 115.336L873.057 117.867C879.315 131.316 882.532 148.847 882.532 170.618H888.532ZM878.504 115.352C871.842 100.814 861.83 90.004 848.477 83.0724L845.713 88.3977C857.79 94.6669 866.901 104.434 873.05 117.852L878.504 115.352ZM848.477 83.0724C835.225 76.1939 819.045 72.8345 800.067 72.8345V78.8345C818.362 78.8345 833.533 82.0756 845.713 88.3977L848.477 83.0724ZM800.067 72.8345H759.882V78.8345H800.067V72.8345ZM756.882 75.8345V265.984H762.882V75.8345H756.882ZM1095.07 21.8182H1098.07V18.8182H1095.07V21.8182ZM1095.07 320V323H1098.07V320H1095.07ZM1032.03 320H1029.03V323H1032.03V320ZM1032.03 21.8182V18.8182H1029.03V21.8182H1032.03ZM1092.07 21.8182V320H1098.07V21.8182H1092.07ZM1095.07 317H1032.03V323H1095.07V317ZM1035.03 320V21.8182H1029.03V320H1035.03ZM1032.03 24.8182H1095.07V18.8182H1032.03V24.8182ZM1439.36 253.899L1436.72 252.473L1436.72 252.482L1439.36 253.899ZM1389.28 306.168L1390.76 308.778L1390.76 308.776L1389.28 306.168ZM1246.89 306.023L1248.37 303.418L1248.37 303.418L1246.89 306.023ZM1196.95 253.754L1194.3 255.171L1194.3 255.171L1196.95 253.754ZM1196.95 87.919L1199.59 89.3366L1199.59 89.3366L1196.95 87.919ZM1246.89 35.7955L1248.36 38.4054L1248.37 38.4002L1246.89 35.7955ZM1389.28 35.7955L1387.79 38.4002L1387.8 38.4042L1387.8 38.4083L1389.28 35.7955ZM1439.36 87.919L1436.72 89.3366L1436.73 89.3454L1439.36 87.919ZM1384.47 117.621L1381.72 118.805L1381.72 118.813L1381.72 118.82L1384.47 117.621ZM1358.12 84.7159L1356.47 87.2219L1356.47 87.2219L1358.12 84.7159ZM1278.33 84.7159L1279.98 87.2219L1279.98 87.2219L1278.33 84.7159ZM1251.84 117.621L1249.09 116.421L1249.08 116.429L1249.08 116.437L1251.84 117.621ZM1251.84 224.197L1249.08 225.381L1249.08 225.389L1249.09 225.397L1251.84 224.197ZM1278.33 257.102L1279.98 254.596L1279.98 254.596L1278.33 257.102ZM1358.12 257.102L1356.47 254.596L1356.47 254.596L1358.12 257.102ZM1384.47 224.197L1381.72 222.998L1381.72 223.006L1381.72 223.013L1384.47 224.197ZM1454.86 170.909C1454.86 203.052 1448.76 230.198 1436.73 252.473L1442 255.325C1454.62 231.98 1460.86 203.799 1460.86 170.909H1454.86ZM1436.72 252.482C1424.74 274.826 1408.43 291.822 1387.8 303.561L1390.76 308.776C1412.45 296.443 1429.53 278.592 1442.01 255.317L1436.72 252.482ZM1387.8 303.558C1367.23 315.22 1344.06 321.077 1318.23 321.077V327.077C1345 327.077 1369.21 320.995 1390.76 308.778L1387.8 303.558ZM1318.23 321.077C1292.2 321.077 1268.94 315.171 1248.37 303.418L1245.4 308.627C1266.95 320.946 1291.26 327.077 1318.23 327.077V321.077ZM1248.37 303.418C1227.83 291.68 1211.57 274.684 1199.59 252.336L1194.3 255.171C1206.78 278.443 1223.81 296.293 1245.4 308.627L1248.37 303.418ZM1199.59 252.336C1187.65 230.058 1181.6 202.957 1181.6 170.909H1175.6C1175.6 203.701 1181.79 231.828 1194.3 255.171L1199.59 252.336ZM1181.6 170.909C1181.6 138.763 1187.65 111.613 1199.59 89.3366L1194.3 86.5014C1181.79 109.845 1175.6 138.022 1175.6 170.909H1181.6ZM1199.59 89.3366C1211.57 66.99 1227.83 50.0453 1248.36 38.4054L1245.41 33.1856C1223.82 45.4234 1206.78 63.2278 1194.3 86.5014L1199.59 89.3366ZM1248.37 38.4002C1268.94 26.6467 1292.2 20.7415 1318.23 20.7415V14.7415C1291.26 14.7415 1266.95 20.8722 1245.4 33.1907L1248.37 38.4002ZM1318.23 20.7415C1344.06 20.7415 1367.22 26.6448 1387.79 38.4002L1390.77 33.1907C1369.21 20.8741 1345.01 14.7415 1318.23 14.7415V20.7415ZM1387.8 38.4083C1408.44 50.0492 1424.74 66.9935 1436.72 89.3366L1442.01 86.5014C1429.53 63.2243 1412.44 45.4195 1390.75 33.1827L1387.8 38.4083ZM1436.73 89.3454C1448.76 111.62 1454.86 138.766 1454.86 170.909H1460.86C1460.86 138.019 1454.62 109.839 1442 86.4927L1436.73 89.3454ZM1396.94 170.909C1396.94 149.564 1393.74 131.366 1387.22 116.421L1381.72 118.82C1387.82 132.801 1390.94 150.128 1390.94 170.909H1396.94ZM1387.23 116.437C1380.82 101.522 1371.69 90.0552 1359.77 82.2099L1356.47 87.2219C1367.26 94.3245 1375.7 104.794 1381.72 118.805L1387.23 116.437ZM1359.77 82.2099C1347.87 74.3756 1333.98 70.505 1318.23 70.505V76.505C1332.95 76.505 1345.66 80.1083 1356.47 87.2219L1359.77 82.2099ZM1318.23 70.505C1302.48 70.505 1288.59 74.3756 1276.69 82.2099L1279.98 87.2219C1290.79 80.1083 1303.5 76.505 1318.23 76.505V70.505ZM1276.69 82.2099C1264.77 90.0523 1255.59 101.513 1249.09 116.421L1254.59 118.82C1260.7 104.803 1269.19 94.3275 1279.98 87.2219L1276.69 82.2099ZM1249.08 116.437C1242.66 131.377 1239.52 149.569 1239.52 170.909H1245.52C1245.52 150.123 1248.59 132.79 1254.59 118.805L1249.08 116.437ZM1239.52 170.909C1239.52 192.249 1242.66 210.441 1249.08 225.381L1254.59 223.013C1248.59 209.028 1245.52 191.695 1245.52 170.909H1239.52ZM1249.09 225.397C1255.59 240.305 1264.77 251.766 1276.69 259.608L1279.98 254.596C1269.19 247.491 1260.7 237.015 1254.59 222.998L1249.09 225.397ZM1276.69 259.608C1288.59 267.443 1302.48 271.313 1318.23 271.313V265.313C1303.5 265.313 1290.79 261.71 1279.98 254.596L1276.69 259.608ZM1318.23 271.313C1333.98 271.313 1347.87 267.443 1359.77 259.608L1356.47 254.596C1345.66 261.71 1332.95 265.313 1318.23 265.313V271.313ZM1359.77 259.608C1371.69 251.763 1380.82 240.296 1387.23 225.381L1381.72 223.013C1375.7 237.024 1367.26 247.494 1356.47 254.596L1359.77 259.608ZM1387.22 225.397C1393.74 210.452 1396.94 192.254 1396.94 170.909H1390.94C1390.94 191.69 1387.82 209.018 1381.72 222.998L1387.22 225.397Z" fill="white" fill-opacity="0.64" mask="url(#path-1-outside-1_94_2)"/>
</svg>
