<svg width="1424" height="210" viewBox="0 0 1424 210" fill="none" xmlns="http://www.w3.org/2000/svg">
<mask id="path-1-outside-1_1_18" maskUnits="userSpaceOnUse" x="-3" y="-3" width="1430" height="216" fill="black">
<rect fill="white" x="-3" y="-3" width="1430" height="216"/>
<path d="M0.733226 207V3.36363H81.0741C96.5192 3.36363 109.677 6.31344 120.549 12.2131C131.42 18.0464 139.706 26.1667 145.407 36.5739C151.174 46.9148 154.057 58.8466 154.057 72.3693C154.057 85.892 151.14 97.8239 145.307 108.165C139.474 118.506 131.022 126.56 119.952 132.327C108.948 138.094 95.6243 140.977 79.9804 140.977H28.773V106.474H73.0202C81.3061 106.474 88.1338 105.049 93.5031 102.199C98.9387 99.2822 102.982 95.2718 105.634 90.1676C108.352 84.9972 109.711 79.0644 109.711 72.3693C109.711 65.6079 108.352 59.7083 105.634 54.6704C102.982 49.5663 98.9387 45.6222 93.5031 42.8381C88.0675 39.9877 81.1736 38.5625 72.8213 38.5625H43.7872V207H0.733226ZM352.353 105.182C352.353 127.388 348.144 146.28 339.725 161.858C331.373 177.436 319.971 189.334 305.521 197.554C291.136 205.707 274.962 209.784 256.998 209.784C238.901 209.784 222.661 205.674 208.276 197.455C193.892 189.235 182.523 177.336 174.171 161.759C165.819 146.181 161.643 127.322 161.643 105.182C161.643 82.9754 165.819 64.0833 174.171 48.5057C182.523 32.928 193.892 21.0625 208.276 12.9091C222.661 4.68939 238.901 0.579538 256.998 0.579538C274.962 0.579538 291.136 4.68939 305.521 12.9091C319.971 21.0625 331.373 32.928 339.725 48.5057C348.144 64.0833 352.353 82.9754 352.353 105.182ZM308.702 105.182C308.702 90.7973 306.548 78.6667 302.239 68.7898C297.997 58.9129 291.998 51.4224 284.242 46.3182C276.486 41.214 267.405 38.6619 256.998 38.6619C246.591 38.6619 237.509 41.214 229.754 46.3182C221.998 51.4224 215.966 58.9129 211.657 68.7898C207.415 78.6667 205.293 90.7973 205.293 105.182C205.293 119.566 207.415 131.697 211.657 141.574C215.966 151.451 221.998 158.941 229.754 164.045C237.509 169.15 246.591 171.702 256.998 171.702C267.405 171.702 276.486 169.15 284.242 164.045C291.998 158.941 297.997 151.451 302.239 141.574C306.548 131.697 308.702 119.566 308.702 105.182ZM439.633 207H367.446V3.36363H440.23C460.713 3.36363 478.345 7.44034 493.128 15.5938C507.91 23.6809 519.278 35.3144 527.233 50.4943C535.253 65.6742 539.264 83.8371 539.264 104.983C539.264 126.195 535.253 144.424 527.233 159.67C519.278 174.917 507.843 186.616 492.929 194.77C478.08 202.923 460.315 207 439.633 207ZM410.5 170.111H437.843C450.571 170.111 461.276 167.857 469.96 163.349C478.71 158.776 485.272 151.716 489.647 142.17C494.089 132.559 496.309 120.163 496.309 104.983C496.309 89.9356 494.089 77.6392 489.647 68.0938C485.272 58.5483 478.743 51.5218 470.059 47.0142C461.376 42.5066 450.67 40.2528 437.943 40.2528H410.5V170.111ZM734.03 74.6562H690.479C689.683 69.0218 688.059 64.017 685.607 59.642C683.154 55.2007 680.005 51.4223 676.161 48.3068C672.316 45.1913 667.875 42.8049 662.837 41.1477C657.865 39.4905 652.463 38.6619 646.629 38.6619C636.09 38.6619 626.909 41.2803 619.087 46.517C611.265 51.6875 605.199 59.2443 600.891 69.1875C596.582 79.0644 594.428 91.0625 594.428 105.182C594.428 119.699 596.582 131.896 600.891 141.773C605.266 151.65 611.364 159.107 619.186 164.145C627.008 169.183 636.056 171.702 646.331 171.702C652.098 171.702 657.434 170.939 662.34 169.415C667.311 167.89 671.719 165.67 675.564 162.753C679.409 159.77 682.591 156.157 685.109 151.915C687.695 147.672 689.484 142.833 690.479 137.398L734.03 137.597C732.903 146.943 730.086 155.958 725.578 164.642C721.137 173.259 715.138 180.982 707.581 187.81C700.091 194.571 691.142 199.94 680.734 203.918C670.394 207.829 658.694 209.784 645.635 209.784C627.472 209.784 611.232 205.674 596.913 197.455C582.662 189.235 571.393 177.336 563.107 161.759C554.887 146.181 550.777 127.322 550.777 105.182C550.777 82.9754 554.953 64.0833 563.306 48.5057C571.658 32.928 582.993 21.0625 597.311 12.9091C611.629 4.68939 627.737 0.579538 645.635 0.579538C657.434 0.579538 668.372 2.23674 678.448 5.55113C688.59 8.86553 697.572 13.7045 705.394 20.0682C713.216 26.3655 719.579 34.0881 724.484 43.2358C729.456 52.3835 732.638 62.857 734.03 74.6562ZM779.375 207H733.238L803.537 3.36363H859.02L929.219 207H883.082L832.074 49.8977H830.483L779.375 207ZM776.491 126.957H885.469V160.565H776.491V126.957ZM1042.75 61.929C1041.95 53.9081 1038.54 47.6771 1032.51 43.2358C1026.48 38.7945 1018.29 36.5739 1007.95 36.5739C1000.92 36.5739 994.988 37.5682 990.149 39.5568C985.31 41.4792 981.598 44.1638 979.013 47.6108C976.494 51.0578 975.235 54.9688 975.235 59.3438C975.102 62.9896 975.864 66.1714 977.522 68.8892C979.245 71.607 981.598 73.9602 984.581 75.9489C987.564 77.8712 991.011 79.5615 994.922 81.0199C998.833 82.4119 1003.01 83.6051 1007.45 84.5994L1025.75 88.9744C1034.63 90.9631 1042.78 93.6146 1050.21 96.929C1057.63 100.243 1064.06 104.32 1069.5 109.159C1074.93 113.998 1079.14 119.699 1082.12 126.261C1085.17 132.824 1086.73 140.348 1086.8 148.832C1086.73 161.295 1083.55 172.099 1077.25 181.247C1071.02 190.329 1062.01 197.388 1050.21 202.426C1038.47 207.398 1024.32 209.884 1007.75 209.884C991.309 209.884 976.991 207.365 964.794 202.327C952.664 197.289 943.184 189.831 936.357 179.955C929.595 170.011 926.049 157.715 925.718 143.065H967.38C967.844 149.893 969.799 155.594 973.246 160.168C976.759 164.675 981.433 168.089 987.266 170.409C993.166 172.663 999.827 173.79 1007.25 173.79C1014.54 173.79 1020.87 172.729 1026.24 170.608C1031.68 168.487 1035.89 165.537 1038.87 161.759C1041.85 157.98 1043.35 153.638 1043.35 148.733C1043.35 144.159 1041.99 140.314 1039.27 137.199C1036.62 134.083 1032.71 131.432 1027.54 129.244C1022.43 127.057 1016.17 125.068 1008.74 123.278L986.57 117.71C969.401 113.534 955.845 107.005 945.902 98.1222C935.959 89.2396 931.021 77.2746 931.087 62.2273C931.021 49.8977 934.302 39.1259 940.931 29.9119C947.626 20.6979 956.807 13.5057 968.473 8.33522C980.14 3.16477 993.398 0.579538 1008.25 0.579538C1023.36 0.579538 1036.55 3.16477 1047.82 8.33522C1059.16 13.5057 1067.97 20.6979 1074.27 29.9119C1080.57 39.1259 1083.81 49.7983 1084.01 61.929H1042.75ZM1091.2 38.8608V3.36363H1258.45V38.8608H1196.1V207H1153.54V38.8608H1091.2ZM1379.66 61.929C1378.86 53.9081 1375.45 47.6771 1369.42 43.2358C1363.38 38.7945 1355.2 36.5739 1344.86 36.5739C1337.83 36.5739 1331.9 37.5682 1327.06 39.5568C1322.22 41.4792 1318.51 44.1638 1315.92 47.6108C1313.4 51.0578 1312.14 54.9688 1312.14 59.3438C1312.01 62.9896 1312.77 66.1714 1314.43 68.8892C1316.15 71.607 1318.51 73.9602 1321.49 75.9489C1324.47 77.8712 1327.92 79.5615 1331.83 81.0199C1335.74 82.4119 1339.92 83.6051 1344.36 84.5994L1362.65 88.9744C1371.54 90.9631 1379.69 93.6146 1387.11 96.929C1394.54 100.243 1400.97 104.32 1406.4 109.159C1411.84 113.998 1416.05 119.699 1419.03 126.261C1422.08 132.824 1423.64 140.348 1423.7 148.832C1423.64 161.295 1420.46 172.099 1414.16 181.247C1407.93 190.329 1398.91 197.388 1387.11 202.426C1375.38 207.398 1361.23 209.884 1344.66 209.884C1328.22 209.884 1313.9 207.365 1301.7 202.327C1289.57 197.289 1280.09 189.831 1273.26 179.955C1266.5 170.011 1262.96 157.715 1262.63 143.065H1304.29C1304.75 149.893 1306.71 155.594 1310.15 160.168C1313.67 164.675 1318.34 168.089 1324.17 170.409C1330.07 172.663 1336.74 173.79 1344.16 173.79C1351.45 173.79 1357.78 172.729 1363.15 170.608C1368.59 168.487 1372.8 165.537 1375.78 161.759C1378.76 157.98 1380.25 153.638 1380.25 148.733C1380.25 144.159 1378.89 140.314 1376.18 137.199C1373.53 134.083 1369.61 131.432 1364.44 129.244C1359.34 127.057 1353.08 125.068 1345.65 123.278L1323.48 117.71C1306.31 113.534 1292.75 107.005 1282.81 98.1222C1272.87 89.2396 1267.93 77.2746 1267.99 62.2273C1267.93 49.8977 1271.21 39.1259 1277.84 29.9119C1284.53 20.6979 1293.71 13.5057 1305.38 8.33522C1317.05 3.16477 1330.31 0.579538 1345.15 0.579538C1360.27 0.579538 1373.46 3.16477 1384.73 8.33522C1396.06 13.5057 1404.88 20.6979 1411.18 29.9119C1417.47 39.1259 1420.72 49.7983 1420.92 61.929H1379.66Z"/>
</mask>
<path d="M0.733226 207V3.36363H81.0741C96.5192 3.36363 109.677 6.31344 120.549 12.2131C131.42 18.0464 139.706 26.1667 145.407 36.5739C151.174 46.9148 154.057 58.8466 154.057 72.3693C154.057 85.892 151.14 97.8239 145.307 108.165C139.474 118.506 131.022 126.56 119.952 132.327C108.948 138.094 95.6243 140.977 79.9804 140.977H28.773V106.474H73.0202C81.3061 106.474 88.1338 105.049 93.5031 102.199C98.9387 99.2822 102.982 95.2718 105.634 90.1676C108.352 84.9972 109.711 79.0644 109.711 72.3693C109.711 65.6079 108.352 59.7083 105.634 54.6704C102.982 49.5663 98.9387 45.6222 93.5031 42.8381C88.0675 39.9877 81.1736 38.5625 72.8213 38.5625H43.7872V207H0.733226ZM352.353 105.182C352.353 127.388 348.144 146.28 339.725 161.858C331.373 177.436 319.971 189.334 305.521 197.554C291.136 205.707 274.962 209.784 256.998 209.784C238.901 209.784 222.661 205.674 208.276 197.455C193.892 189.235 182.523 177.336 174.171 161.759C165.819 146.181 161.643 127.322 161.643 105.182C161.643 82.9754 165.819 64.0833 174.171 48.5057C182.523 32.928 193.892 21.0625 208.276 12.9091C222.661 4.68939 238.901 0.579538 256.998 0.579538C274.962 0.579538 291.136 4.68939 305.521 12.9091C319.971 21.0625 331.373 32.928 339.725 48.5057C348.144 64.0833 352.353 82.9754 352.353 105.182ZM308.702 105.182C308.702 90.7973 306.548 78.6667 302.239 68.7898C297.997 58.9129 291.998 51.4224 284.242 46.3182C276.486 41.214 267.405 38.6619 256.998 38.6619C246.591 38.6619 237.509 41.214 229.754 46.3182C221.998 51.4224 215.966 58.9129 211.657 68.7898C207.415 78.6667 205.293 90.7973 205.293 105.182C205.293 119.566 207.415 131.697 211.657 141.574C215.966 151.451 221.998 158.941 229.754 164.045C237.509 169.15 246.591 171.702 256.998 171.702C267.405 171.702 276.486 169.15 284.242 164.045C291.998 158.941 297.997 151.451 302.239 141.574C306.548 131.697 308.702 119.566 308.702 105.182ZM439.633 207H367.446V3.36363H440.23C460.713 3.36363 478.345 7.44034 493.128 15.5938C507.91 23.6809 519.278 35.3144 527.233 50.4943C535.253 65.6742 539.264 83.8371 539.264 104.983C539.264 126.195 535.253 144.424 527.233 159.67C519.278 174.917 507.843 186.616 492.929 194.77C478.08 202.923 460.315 207 439.633 207ZM410.5 170.111H437.843C450.571 170.111 461.276 167.857 469.96 163.349C478.71 158.776 485.272 151.716 489.647 142.17C494.089 132.559 496.309 120.163 496.309 104.983C496.309 89.9356 494.089 77.6392 489.647 68.0938C485.272 58.5483 478.743 51.5218 470.059 47.0142C461.376 42.5066 450.67 40.2528 437.943 40.2528H410.5V170.111ZM734.03 74.6562H690.479C689.683 69.0218 688.059 64.017 685.607 59.642C683.154 55.2007 680.005 51.4223 676.161 48.3068C672.316 45.1913 667.875 42.8049 662.837 41.1477C657.865 39.4905 652.463 38.6619 646.629 38.6619C636.09 38.6619 626.909 41.2803 619.087 46.517C611.265 51.6875 605.199 59.2443 600.891 69.1875C596.582 79.0644 594.428 91.0625 594.428 105.182C594.428 119.699 596.582 131.896 600.891 141.773C605.266 151.65 611.364 159.107 619.186 164.145C627.008 169.183 636.056 171.702 646.331 171.702C652.098 171.702 657.434 170.939 662.34 169.415C667.311 167.89 671.719 165.67 675.564 162.753C679.409 159.77 682.591 156.157 685.109 151.915C687.695 147.672 689.484 142.833 690.479 137.398L734.03 137.597C732.903 146.943 730.086 155.958 725.578 164.642C721.137 173.259 715.138 180.982 707.581 187.81C700.091 194.571 691.142 199.94 680.734 203.918C670.394 207.829 658.694 209.784 645.635 209.784C627.472 209.784 611.232 205.674 596.913 197.455C582.662 189.235 571.393 177.336 563.107 161.759C554.887 146.181 550.777 127.322 550.777 105.182C550.777 82.9754 554.953 64.0833 563.306 48.5057C571.658 32.928 582.993 21.0625 597.311 12.9091C611.629 4.68939 627.737 0.579538 645.635 0.579538C657.434 0.579538 668.372 2.23674 678.448 5.55113C688.59 8.86553 697.572 13.7045 705.394 20.0682C713.216 26.3655 719.579 34.0881 724.484 43.2358C729.456 52.3835 732.638 62.857 734.03 74.6562ZM779.375 207H733.238L803.537 3.36363H859.02L929.219 207H883.082L832.074 49.8977H830.483L779.375 207ZM776.491 126.957H885.469V160.565H776.491V126.957ZM1042.75 61.929C1041.95 53.9081 1038.54 47.6771 1032.51 43.2358C1026.48 38.7945 1018.29 36.5739 1007.95 36.5739C1000.92 36.5739 994.988 37.5682 990.149 39.5568C985.31 41.4792 981.598 44.1638 979.013 47.6108C976.494 51.0578 975.235 54.9688 975.235 59.3438C975.102 62.9896 975.864 66.1714 977.522 68.8892C979.245 71.607 981.598 73.9602 984.581 75.9489C987.564 77.8712 991.011 79.5615 994.922 81.0199C998.833 82.4119 1003.01 83.6051 1007.45 84.5994L1025.75 88.9744C1034.63 90.9631 1042.78 93.6146 1050.21 96.929C1057.63 100.243 1064.06 104.32 1069.5 109.159C1074.93 113.998 1079.14 119.699 1082.12 126.261C1085.17 132.824 1086.73 140.348 1086.8 148.832C1086.73 161.295 1083.55 172.099 1077.25 181.247C1071.02 190.329 1062.01 197.388 1050.21 202.426C1038.47 207.398 1024.32 209.884 1007.75 209.884C991.309 209.884 976.991 207.365 964.794 202.327C952.664 197.289 943.184 189.831 936.357 179.955C929.595 170.011 926.049 157.715 925.718 143.065H967.38C967.844 149.893 969.799 155.594 973.246 160.168C976.759 164.675 981.433 168.089 987.266 170.409C993.166 172.663 999.827 173.79 1007.25 173.79C1014.54 173.79 1020.87 172.729 1026.24 170.608C1031.68 168.487 1035.89 165.537 1038.87 161.759C1041.85 157.98 1043.35 153.638 1043.35 148.733C1043.35 144.159 1041.99 140.314 1039.27 137.199C1036.62 134.083 1032.71 131.432 1027.54 129.244C1022.43 127.057 1016.17 125.068 1008.74 123.278L986.57 117.71C969.401 113.534 955.845 107.005 945.902 98.1222C935.959 89.2396 931.021 77.2746 931.087 62.2273C931.021 49.8977 934.302 39.1259 940.931 29.9119C947.626 20.6979 956.807 13.5057 968.473 8.33522C980.14 3.16477 993.398 0.579538 1008.25 0.579538C1023.36 0.579538 1036.55 3.16477 1047.82 8.33522C1059.16 13.5057 1067.97 20.6979 1074.27 29.9119C1080.57 39.1259 1083.81 49.7983 1084.01 61.929H1042.75ZM1091.2 38.8608V3.36363H1258.45V38.8608H1196.1V207H1153.54V38.8608H1091.2ZM1379.66 61.929C1378.86 53.9081 1375.45 47.6771 1369.42 43.2358C1363.38 38.7945 1355.2 36.5739 1344.86 36.5739C1337.83 36.5739 1331.9 37.5682 1327.06 39.5568C1322.22 41.4792 1318.51 44.1638 1315.92 47.6108C1313.4 51.0578 1312.14 54.9688 1312.14 59.3438C1312.01 62.9896 1312.77 66.1714 1314.43 68.8892C1316.15 71.607 1318.51 73.9602 1321.49 75.9489C1324.47 77.8712 1327.92 79.5615 1331.83 81.0199C1335.74 82.4119 1339.92 83.6051 1344.36 84.5994L1362.65 88.9744C1371.54 90.9631 1379.69 93.6146 1387.11 96.929C1394.54 100.243 1400.97 104.32 1406.4 109.159C1411.84 113.998 1416.05 119.699 1419.03 126.261C1422.08 132.824 1423.64 140.348 1423.7 148.832C1423.64 161.295 1420.46 172.099 1414.16 181.247C1407.93 190.329 1398.91 197.388 1387.11 202.426C1375.38 207.398 1361.23 209.884 1344.66 209.884C1328.22 209.884 1313.9 207.365 1301.7 202.327C1289.57 197.289 1280.09 189.831 1273.26 179.955C1266.5 170.011 1262.96 157.715 1262.63 143.065H1304.29C1304.75 149.893 1306.71 155.594 1310.15 160.168C1313.67 164.675 1318.34 168.089 1324.17 170.409C1330.07 172.663 1336.74 173.79 1344.16 173.79C1351.45 173.79 1357.78 172.729 1363.15 170.608C1368.59 168.487 1372.8 165.537 1375.78 161.759C1378.76 157.98 1380.25 153.638 1380.25 148.733C1380.25 144.159 1378.89 140.314 1376.18 137.199C1373.53 134.083 1369.61 131.432 1364.44 129.244C1359.34 127.057 1353.08 125.068 1345.65 123.278L1323.48 117.71C1306.31 113.534 1292.75 107.005 1282.81 98.1222C1272.87 89.2396 1267.93 77.2746 1267.99 62.2273C1267.93 49.8977 1271.21 39.1259 1277.84 29.9119C1284.53 20.6979 1293.71 13.5057 1305.38 8.33522C1317.05 3.16477 1330.31 0.579538 1345.15 0.579538C1360.27 0.579538 1373.46 3.16477 1384.73 8.33522C1396.06 13.5057 1404.88 20.6979 1411.18 29.9119C1417.47 39.1259 1420.72 49.7983 1420.92 61.929H1379.66Z" fill="white" fill-opacity="0.88"/>
<path d="M0.733226 207H-2.26677V210H0.733226V207ZM0.733226 3.36363V0.36363H-2.26677V3.36363H0.733226ZM120.549 12.2131L119.118 14.8498L119.124 14.8532L119.13 14.8565L120.549 12.2131ZM145.407 36.5739L142.775 38.0151L142.781 38.0251L142.786 38.0351L145.407 36.5739ZM119.952 132.327L118.566 129.666L118.559 129.67L119.952 132.327ZM28.773 140.977H25.773V143.977H28.773V140.977ZM28.773 106.474V103.474H25.773V106.474H28.773ZM93.5031 102.199L94.9098 104.849L94.9216 104.842L93.5031 102.199ZM105.634 90.1676L102.978 88.7718L102.975 88.7782L102.972 88.7846L105.634 90.1676ZM105.634 54.6704L102.972 56.0534L102.982 56.0742L102.994 56.0948L105.634 54.6704ZM93.5031 42.8381L92.1099 45.4949L92.1227 45.5016L92.1355 45.5082L93.5031 42.8381ZM43.7872 38.5625V35.5625H40.7872V38.5625H43.7872ZM43.7872 207V210H46.7872V207H43.7872ZM3.73323 207V3.36363H-2.26677V207H3.73323ZM0.733226 6.36363H81.0741V0.36363H0.733226V6.36363ZM81.0741 6.36363C96.1417 6.36363 108.782 9.24077 119.118 14.8498L121.979 9.57631C110.573 3.38612 96.8968 0.36363 81.0741 0.36363V6.36363ZM119.13 14.8565C129.511 20.4266 137.365 28.1386 142.775 38.0151L148.038 35.1326C142.046 24.1947 133.329 15.6662 121.967 9.56958L119.13 14.8565ZM142.786 38.0351C148.271 47.8691 151.057 59.2844 151.057 72.3693H157.057C157.057 58.4087 154.076 45.9605 148.027 35.1126L142.786 38.0351ZM151.057 72.3693C151.057 85.4484 148.24 96.8592 142.694 106.691L147.92 109.639C154.041 98.7886 157.057 86.3356 157.057 72.3693H151.057ZM142.694 106.691C137.161 116.499 129.149 124.153 118.566 129.666L121.338 134.987C132.896 128.966 141.786 120.512 147.92 109.639L142.694 106.691ZM118.559 129.67C108.082 135.16 95.2622 137.977 79.9804 137.977V143.977C95.9864 143.977 109.814 141.027 121.345 134.984L118.559 129.67ZM79.9804 137.977H28.773V143.977H79.9804V137.977ZM31.773 140.977V106.474H25.773V140.977H31.773ZM28.773 109.474H73.0202V103.474H28.773V109.474ZM73.0202 109.474C81.627 109.474 88.9788 107.997 94.9098 104.849L92.0964 99.5491C87.2888 102.101 80.9853 103.474 73.0202 103.474V109.474ZM94.9216 104.842C100.849 101.662 105.346 97.2299 108.296 91.5506L102.972 88.7846C100.619 93.3136 97.0288 96.9024 92.0847 99.5554L94.9216 104.842ZM108.289 91.5634C111.264 85.9033 112.711 79.4791 112.711 72.3693H106.711C106.711 78.6497 105.439 84.091 102.978 88.7718L108.289 91.5634ZM112.711 72.3693C112.711 65.2008 111.267 58.7946 108.274 53.2461L102.994 56.0948C105.436 60.6221 106.711 66.0151 106.711 72.3693H112.711ZM108.296 53.2875C105.339 47.5951 100.825 43.2176 94.8707 40.1679L92.1355 45.5082C97.0526 48.0267 100.626 51.5375 102.972 56.0534L108.296 53.2875ZM94.8963 40.1812C88.9042 37.039 81.4921 35.5625 72.8213 35.5625V41.5625C80.855 41.5625 87.2308 42.9364 92.1099 45.4949L94.8963 40.1812ZM72.8213 35.5625H43.7872V41.5625H72.8213V35.5625ZM40.7872 38.5625V207H46.7872V38.5625H40.7872ZM43.7872 204H0.733226V210H43.7872V204ZM339.725 161.858L337.086 160.432L337.081 160.44L339.725 161.858ZM305.521 197.554L307 200.164L307.004 200.162L305.521 197.554ZM208.276 197.455L209.765 194.85L208.276 197.455ZM174.171 161.759L171.527 163.176L171.527 163.176L174.171 161.759ZM174.171 48.5057L176.815 49.9233L176.815 49.9233L174.171 48.5057ZM208.276 12.9091L209.756 15.519L209.765 15.5138L208.276 12.9091ZM305.521 12.9091L304.032 15.5138L304.039 15.5179L304.046 15.5219L305.521 12.9091ZM339.725 48.5057L337.081 49.9233L337.086 49.932L339.725 48.5057ZM302.239 68.7898L299.483 69.9738L299.486 69.9816L299.49 69.9893L302.239 68.7898ZM284.242 46.3182L282.593 48.8242L282.593 48.8242L284.242 46.3182ZM229.754 46.3182L231.403 48.8242L231.403 48.8242L229.754 46.3182ZM211.657 68.7898L208.907 67.5902L208.904 67.598L208.9 67.6058L211.657 68.7898ZM211.657 141.574L208.9 142.758L208.904 142.766L208.907 142.773L211.657 141.574ZM229.754 164.045L231.403 161.539L231.403 161.539L229.754 164.045ZM284.242 164.045L282.593 161.539L282.593 161.539L284.242 164.045ZM302.239 141.574L299.49 140.374L299.486 140.382L299.483 140.39L302.239 141.574ZM349.353 105.182C349.353 127.014 345.215 145.39 337.086 160.432L342.364 163.284C351.072 147.171 355.353 127.762 355.353 105.182H349.353ZM337.081 160.44C328.978 175.553 317.965 187.024 304.037 194.946L307.004 200.162C321.977 191.645 333.767 179.318 342.369 163.276L337.081 160.44ZM304.041 194.944C290.146 202.82 274.489 206.784 256.998 206.784V212.784C275.434 212.784 292.126 208.595 307 200.164L304.041 194.944ZM256.998 206.784C239.374 206.784 223.655 202.787 209.765 194.85L206.788 200.059C221.667 208.562 238.429 212.784 256.998 212.784V206.784ZM209.765 194.85C195.902 186.928 184.92 175.457 176.815 160.341L171.527 163.176C180.127 179.215 191.881 191.541 206.788 200.059L209.765 194.85ZM176.815 160.341C168.748 145.296 164.643 126.95 164.643 105.182H158.643C158.643 127.694 162.889 147.066 171.527 163.176L176.815 160.341ZM164.643 105.182C164.643 83.3457 168.749 64.9672 176.815 49.9233L171.527 47.0881C162.889 63.1995 158.643 82.605 158.643 105.182H164.643ZM176.815 49.9233C184.919 34.8091 195.899 23.3735 209.756 15.519L206.797 10.2992C191.885 18.7515 180.128 31.047 171.527 47.0881L176.815 49.9233ZM209.765 15.5138C223.655 7.57667 239.374 3.57954 256.998 3.57954V-2.42046C238.429 -2.42046 221.667 1.80211 206.788 10.3044L209.765 15.5138ZM256.998 3.57954C274.485 3.57954 290.139 7.57475 304.032 15.5138L307.009 10.3044C292.133 1.80403 275.439 -2.42046 256.998 -2.42046V3.57954ZM304.046 15.5219C317.969 23.3773 328.979 34.8126 337.081 49.9233L342.369 47.0881C333.766 31.0434 321.974 18.7476 306.995 10.2963L304.046 15.5219ZM337.086 49.932C345.215 64.9739 349.353 83.3492 349.353 105.182H355.353C355.353 82.6016 351.072 63.1928 342.364 47.0794L337.086 49.932ZM311.702 105.182C311.702 90.5155 309.508 77.9495 304.989 67.5902L299.49 69.9893C303.588 79.3839 305.702 91.0792 305.702 105.182H311.702ZM304.996 67.6058C300.559 57.2766 294.211 49.2877 285.891 43.8122L282.593 48.8242C289.784 53.557 295.435 60.5492 299.483 69.9738L304.996 67.6058ZM285.891 43.8122C277.588 38.3477 267.918 35.6619 256.998 35.6619V41.6619C266.892 41.6619 275.385 44.0804 282.593 48.8242L285.891 43.8122ZM256.998 35.6619C246.078 35.6619 236.408 38.3477 228.104 43.8122L231.403 48.8242C238.611 44.0804 247.104 41.6619 256.998 41.6619V35.6619ZM228.104 43.8122C219.789 49.2847 213.41 57.268 208.907 67.5902L214.407 69.9893C218.521 60.5578 224.207 53.56 231.403 48.8242L228.104 43.8122ZM208.9 67.6058C204.453 77.9602 202.293 90.5204 202.293 105.182H208.293C208.293 91.0742 210.376 79.3731 214.413 69.9738L208.9 67.6058ZM202.293 105.182C202.293 119.843 204.453 132.403 208.9 142.758L214.413 140.39C210.376 130.991 208.293 119.289 208.293 105.182H202.293ZM208.907 142.773C213.41 153.096 219.789 161.079 228.104 166.551L231.403 161.539C224.207 156.804 218.521 149.806 214.407 140.374L208.907 142.773ZM228.104 166.551C236.408 172.016 246.078 174.702 256.998 174.702V168.702C247.104 168.702 238.611 166.283 231.403 161.539L228.104 166.551ZM256.998 174.702C267.918 174.702 277.588 172.016 285.891 166.551L282.593 161.539C275.385 166.283 266.892 168.702 256.998 168.702V174.702ZM285.891 166.551C294.211 161.076 300.559 153.087 304.996 142.758L299.483 140.39C295.435 149.814 289.784 156.807 282.593 161.539L285.891 166.551ZM304.989 142.773C309.508 132.414 311.702 119.848 311.702 105.182H305.702C305.702 119.284 303.588 130.98 299.49 140.374L304.989 142.773ZM367.446 207H364.446V210H367.446V207ZM367.446 3.36363V0.36363H364.446V3.36363H367.446ZM493.128 15.5938L491.679 18.2207L491.688 18.2256L493.128 15.5938ZM527.233 50.4943L524.575 51.8868L524.58 51.8958L527.233 50.4943ZM527.233 159.67L524.578 158.274L524.573 158.283L527.233 159.67ZM492.929 194.77L491.49 192.138L491.485 192.14L492.929 194.77ZM410.5 170.111H407.5V173.111H410.5V170.111ZM469.96 163.349L471.342 166.012L471.35 166.008L469.96 163.349ZM489.647 142.17L486.924 140.912L486.92 140.92L489.647 142.17ZM489.647 68.0938L486.92 69.3437L486.924 69.3515L486.927 69.3593L489.647 68.0938ZM470.059 47.0142L471.441 44.3515L471.441 44.3515L470.059 47.0142ZM410.5 40.2528V37.2528H407.5V40.2528H410.5ZM439.633 204H367.446V210H439.633V204ZM370.446 207V3.36363H364.446V207H370.446ZM367.446 6.36363H440.23V0.36363H367.446V6.36363ZM440.23 6.36363C460.313 6.36363 477.426 10.3591 491.679 18.2207L494.576 12.9668C479.265 4.52158 461.112 0.36363 440.23 0.36363V6.36363ZM491.688 18.2256C505.941 26.0236 516.891 37.2215 524.575 51.8868L529.89 49.1019C521.666 33.4073 509.878 21.3381 494.567 12.9619L491.688 18.2256ZM524.58 51.8958C532.326 66.555 536.264 84.2141 536.264 104.983H542.264C542.264 83.4602 538.181 64.7935 529.885 49.0928L524.58 51.8958ZM536.264 104.983C536.264 125.819 532.325 143.547 524.578 158.274L529.888 161.067C538.182 145.302 542.264 126.571 542.264 104.983H536.264ZM524.573 158.283C516.89 173.009 505.877 184.273 491.49 192.138L494.368 197.402C509.81 188.96 521.667 176.824 529.892 161.058L524.573 158.283ZM491.485 192.14C477.166 200.003 459.921 204 439.633 204V210C460.709 210 478.994 205.844 494.373 197.4L491.485 192.14ZM410.5 173.111H437.843V167.111H410.5V173.111ZM437.843 173.111C450.912 173.111 462.122 170.798 471.342 166.012L468.578 160.687C460.43 164.916 450.23 167.111 437.843 167.111V173.111ZM471.35 166.008C480.728 161.106 487.741 153.53 492.375 143.42L486.92 140.92C482.804 149.902 476.692 156.445 468.57 160.691L471.35 166.008ZM492.371 143.429C497.056 133.29 499.309 120.423 499.309 104.983H493.309C493.309 119.903 491.122 131.827 486.924 140.912L492.371 143.429ZM499.309 104.983C499.309 89.6726 497.055 76.9023 492.367 66.8282L486.927 69.3593C491.123 78.3761 493.309 90.1986 493.309 104.983H499.309ZM492.375 66.8438C487.743 56.7383 480.763 49.1903 471.441 44.3515L468.677 49.6768C476.723 53.8533 482.802 60.3583 486.92 69.3437L492.375 66.8438ZM471.441 44.3515C462.222 39.5658 451.011 37.2528 437.943 37.2528V43.2528C450.329 43.2528 460.529 45.4475 468.677 49.6768L471.441 44.3515ZM437.943 37.2528H410.5V43.2528H437.943V37.2528ZM407.5 40.2528V170.111H413.5V40.2528H407.5ZM734.03 74.6562V77.6562H737.405L737.009 74.3048L734.03 74.6562ZM690.479 74.6562L687.508 75.0756L687.873 77.6562H690.479V74.6562ZM685.607 59.642L682.98 61.0923L682.985 61.1007L682.99 61.1091L685.607 59.642ZM676.161 48.3068L674.272 50.6376L674.272 50.6376L676.161 48.3068ZM662.837 41.1477L661.888 43.9938L661.899 43.9975L662.837 41.1477ZM619.087 46.517L620.741 49.0197L620.748 49.0148L620.756 49.0099L619.087 46.517ZM600.891 69.1875L603.64 70.3871L603.643 70.3803L600.891 69.1875ZM600.891 141.773L598.141 142.972L598.144 142.98L598.148 142.988L600.891 141.773ZM619.186 164.145L617.562 166.667L617.562 166.667L619.186 164.145ZM662.34 169.415L661.46 166.547L661.449 166.55L662.34 169.415ZM675.564 162.753L677.377 165.143L677.39 165.133L677.403 165.123L675.564 162.753ZM685.109 151.915L682.548 150.354L682.539 150.368L682.53 150.383L685.109 151.915ZM690.479 137.398L690.493 134.398L687.98 134.386L687.528 136.858L690.479 137.398ZM734.03 137.597L737.008 137.956L737.412 134.612L734.044 134.597L734.03 137.597ZM725.578 164.642L722.916 163.26L722.912 163.268L725.578 164.642ZM707.581 187.81L709.591 190.037L709.592 190.036L707.581 187.81ZM680.734 203.918L681.796 206.724L681.805 206.72L680.734 203.918ZM596.913 197.455L595.415 200.053L595.42 200.056L596.913 197.455ZM563.107 161.759L560.453 163.159L560.458 163.167L563.107 161.759ZM563.306 48.5057L565.949 49.9233L565.949 49.9233L563.306 48.5057ZM597.311 12.9091L598.796 15.5161L598.805 15.5109L597.311 12.9091ZM678.448 5.55113L677.51 8.40091L677.516 8.40272L678.448 5.55113ZM705.394 20.0682L703.5 22.3953L703.506 22.4002L703.512 22.405L705.394 20.0682ZM724.484 43.2358L721.841 44.6535L721.845 44.6609L721.849 44.6683L724.484 43.2358ZM734.03 71.6562H690.479V77.6562H734.03V71.6562ZM693.449 74.2369C692.609 68.2834 690.881 62.9149 688.223 58.175L682.99 61.1091C685.238 65.1191 686.758 69.7601 687.508 75.0756L693.449 74.2369ZM688.233 58.1918C685.598 53.4209 682.202 49.341 678.049 45.976L674.272 50.6376C677.809 53.5037 680.71 56.9805 682.98 61.0923L688.233 58.1918ZM678.049 45.976C673.902 42.6152 669.133 40.0607 663.774 38.2979L661.899 43.9975C666.616 45.5491 670.73 47.7674 674.272 50.6376L678.049 45.976ZM663.785 38.3017C658.475 36.5317 652.749 35.6619 646.629 35.6619V41.6619C652.176 41.6619 657.255 42.4494 661.888 43.9938L663.785 38.3017ZM646.629 35.6619C635.569 35.6619 625.791 38.418 617.418 44.0241L620.756 49.0099C628.026 44.1426 636.61 41.6619 646.629 41.6619V35.6619ZM617.432 44.0144C609.053 49.5533 602.641 57.6028 598.138 67.9947L603.643 70.3803C607.758 60.8859 613.477 53.8217 620.741 49.0197L617.432 44.0144ZM598.141 67.9879C593.625 78.3411 591.428 90.7718 591.428 105.182H597.428C597.428 91.3532 599.54 79.7877 603.64 70.3871L598.141 67.9879ZM591.428 105.182C591.428 119.976 593.621 132.61 598.141 142.972L603.64 140.573C599.543 131.182 597.428 119.421 597.428 105.182H591.428ZM598.148 142.988C602.721 153.312 609.172 161.263 617.562 166.667L620.811 161.623C613.556 156.951 607.811 149.987 603.634 140.558L598.148 142.988ZM617.562 166.667C625.918 172.049 635.543 174.702 646.331 174.702V168.702C636.57 168.702 628.098 166.317 620.811 161.623L617.562 166.667ZM646.331 174.702C652.364 174.702 658.003 173.904 663.23 172.28L661.449 166.55C656.865 167.975 651.833 168.702 646.331 168.702V174.702ZM663.219 172.283C668.501 170.663 673.231 168.288 677.377 165.143L673.751 160.363C670.208 163.051 666.121 165.117 661.46 166.547L663.219 172.283ZM677.403 165.123C681.549 161.906 684.981 158.008 687.689 153.446L682.53 150.383C680.2 154.307 677.268 157.634 673.725 160.383L677.403 165.123ZM687.671 153.476C690.468 148.886 692.377 143.694 693.43 137.938L687.528 136.858C686.592 141.973 684.921 146.458 682.548 150.354L687.671 153.476ZM690.465 140.398L734.016 140.597L734.044 134.597L690.493 134.398L690.465 140.398ZM731.052 137.237C729.969 146.213 727.264 154.883 722.916 163.26L728.241 166.024C732.908 157.034 735.837 147.673 737.008 137.956L731.052 137.237ZM722.912 163.268C718.644 171.548 712.872 178.986 705.57 185.584L709.592 190.036C717.403 182.978 723.63 174.971 728.245 166.016L722.912 163.268ZM705.571 185.583C698.382 192.071 689.761 197.256 679.664 201.115L681.805 206.72C692.523 202.624 701.799 197.071 709.591 190.037L705.571 185.583ZM679.673 201.112C669.727 204.873 658.395 206.784 645.635 206.784V212.784C658.992 212.784 671.06 210.784 681.796 206.724L679.673 201.112ZM645.635 206.784C627.942 206.784 612.226 202.786 598.407 194.853L595.42 200.056C610.237 208.563 627.002 212.784 645.635 212.784V206.784ZM598.412 194.856C584.683 186.938 573.797 175.468 565.755 160.35L560.458 163.167C568.988 179.204 580.64 191.532 595.415 200.053L598.412 194.856ZM565.76 160.358C557.819 145.309 553.777 126.957 553.777 105.182H547.777C547.777 127.687 551.955 147.052 560.453 163.159L565.76 160.358ZM553.777 105.182C553.777 83.3457 557.883 64.9672 565.949 49.9233L560.662 47.0881C552.023 63.1995 547.777 82.605 547.777 105.182H553.777ZM565.949 49.9233C574.055 34.8056 585.004 23.3696 598.796 15.516L595.827 10.3021C580.982 18.7554 569.26 31.0505 560.662 47.0881L565.949 49.9233ZM598.805 15.5109C612.631 7.5738 628.216 3.57954 645.635 3.57954V-2.42046C627.259 -2.42046 610.628 1.80498 595.818 10.3073L598.805 15.5109ZM645.635 3.57954C657.151 3.57954 667.769 5.19653 677.51 8.40091L679.385 2.70135C668.975 -0.723063 657.717 -2.42046 645.635 -2.42046V3.57954ZM677.516 8.40272C687.328 11.6095 695.98 16.2773 703.5 22.3953L707.287 17.741C699.163 11.1318 689.851 6.12157 679.379 2.69954L677.516 8.40272ZM703.512 22.405C711.01 28.4416 717.119 35.848 721.841 44.6535L727.128 41.8181C722.04 32.3282 715.421 24.2894 707.275 17.7314L703.512 22.405ZM721.849 44.6683C726.614 53.4369 729.697 63.5344 731.051 75.0077L737.009 74.3048C735.579 62.1796 732.298 51.3301 727.12 41.8032L721.849 44.6683ZM779.375 207V210H781.554L782.228 207.928L779.375 207ZM733.238 207L730.403 206.021L729.029 210H733.238V207ZM803.537 3.36363V0.36363H801.399L800.701 2.38468L803.537 3.36363ZM859.02 3.36363L861.856 2.38591L861.159 0.36363H859.02V3.36363ZM929.219 207V210H933.426L932.055 206.022L929.219 207ZM883.082 207L880.229 207.926L880.902 210H883.082V207ZM832.074 49.8977L834.927 48.9713L834.254 46.8977H832.074V49.8977ZM830.483 49.8977V46.8977H828.304L827.63 48.9696L830.483 49.8977ZM776.491 126.957V123.957H773.491V126.957H776.491ZM885.469 126.957H888.469V123.957H885.469V126.957ZM885.469 160.565V163.565H888.469V160.565H885.469ZM776.491 160.565H773.491V163.565H776.491V160.565ZM779.375 204H733.238V210H779.375V204ZM736.074 207.979L806.373 4.34258L800.701 2.38468L730.403 206.021L736.074 207.979ZM803.537 6.36363H859.02V0.36363H803.537V6.36363ZM856.184 4.34135L926.382 207.978L932.055 206.022L861.856 2.38591L856.184 4.34135ZM929.219 204H883.082V210H929.219V204ZM885.936 206.074L834.927 48.9713L829.22 50.8242L880.229 207.926L885.936 206.074ZM832.074 46.8977H830.483V52.8977H832.074V46.8977ZM827.63 48.9696L776.522 206.072L782.228 207.928L833.336 50.8258L827.63 48.9696ZM776.491 129.957H885.469V123.957H776.491V129.957ZM882.469 126.957V160.565H888.469V126.957H882.469ZM885.469 157.565H776.491V163.565H885.469V157.565ZM779.491 160.565V126.957H773.491V160.565H779.491ZM1042.75 61.929L1039.76 62.225L1040.03 64.929H1042.75V61.929ZM990.149 39.5568L991.257 42.3449L991.273 42.3383L991.29 42.3316L990.149 39.5568ZM979.013 47.6108L976.613 45.8108L976.602 45.8257L976.591 45.8407L979.013 47.6108ZM975.235 59.3438L978.233 59.4528L978.235 59.3983V59.3438H975.235ZM977.522 68.8892L974.96 70.451L974.974 70.4736L974.988 70.4958L977.522 68.8892ZM984.581 75.9489L982.917 78.445L982.937 78.4579L982.956 78.4706L984.581 75.9489ZM994.922 81.0199L993.874 83.8308L993.895 83.8387L993.916 83.8462L994.922 81.0199ZM1007.45 84.5994L1008.15 81.6817L1008.13 81.6766L1008.11 81.6719L1007.45 84.5994ZM1025.75 88.9744L1025.05 91.8922L1025.07 91.8972L1025.09 91.902L1025.75 88.9744ZM1050.21 96.929L1048.98 99.6684L1048.98 99.6684L1050.21 96.929ZM1069.5 109.159L1071.49 106.918L1071.49 106.918L1069.5 109.159ZM1082.12 126.261L1079.39 127.503L1079.4 127.514L1079.4 127.526L1082.12 126.261ZM1086.8 148.832L1089.8 148.848L1089.8 148.829L1089.8 148.809L1086.8 148.832ZM1077.25 181.247L1074.78 179.546L1074.78 179.55L1077.25 181.247ZM1050.21 202.426L1051.38 205.188L1051.38 205.185L1050.21 202.426ZM964.794 202.327L963.644 205.097L963.649 205.099L964.794 202.327ZM936.357 179.955L933.876 181.641L933.882 181.651L933.889 181.66L936.357 179.955ZM925.718 143.065V140.065H922.649L922.718 143.133L925.718 143.065ZM967.38 143.065L970.373 142.862L970.183 140.065H967.38V143.065ZM973.246 160.168L970.85 161.973L970.865 161.993L970.88 162.012L973.246 160.168ZM987.266 170.409L986.157 173.197L986.176 173.204L986.195 173.212L987.266 170.409ZM1026.24 170.608L1025.15 167.813L1025.14 167.818L1026.24 170.608ZM1038.87 161.759L1041.23 163.617L1041.23 163.617L1038.87 161.759ZM1039.27 137.199L1036.98 139.143L1037 139.157L1037.01 139.171L1039.27 137.199ZM1027.54 129.244L1026.35 132.002L1026.37 132.007L1027.54 129.244ZM1008.74 123.278L1008.01 126.188L1008.03 126.192L1008.04 126.195L1008.74 123.278ZM986.57 117.71L987.301 114.801L987.29 114.798L987.279 114.795L986.57 117.71ZM945.902 98.1222L943.904 100.359L943.904 100.359L945.902 98.1222ZM931.087 62.2273L934.087 62.2405L934.087 62.2258L934.087 62.2111L931.087 62.2273ZM940.931 29.9119L938.504 28.1485L938.5 28.1542L938.495 28.1599L940.931 29.9119ZM1047.82 8.33522L1046.57 11.0619L1046.57 11.0647L1047.82 8.33522ZM1074.27 29.9119L1071.79 31.6047L1071.79 31.6047L1074.27 29.9119ZM1084.01 61.929V64.929H1087.06L1087.01 61.8798L1084.01 61.929ZM1045.73 61.6329C1044.86 52.8387 1041.06 45.8066 1034.29 40.82L1030.73 45.6516C1036.02 49.5476 1039.04 54.9775 1039.76 62.225L1045.73 61.6329ZM1034.29 40.82C1027.57 35.8788 1018.69 33.5739 1007.95 33.5739V39.5739C1017.89 39.5739 1025.38 41.7102 1030.73 45.6516L1034.29 40.82ZM1007.95 33.5739C1000.66 33.5739 994.311 34.6032 989.009 36.782L991.29 42.3316C995.666 40.5332 1001.19 39.5739 1007.95 39.5739V33.5739ZM989.042 36.7688C983.797 38.8524 979.593 41.8375 976.613 45.8108L981.413 49.4108C983.604 46.4901 986.824 44.1059 991.257 42.3449L989.042 36.7688ZM976.591 45.8407C973.687 49.815 972.235 54.3493 972.235 59.3438H978.235C978.235 55.5882 979.302 52.3005 981.435 49.3808L976.591 45.8407ZM972.237 59.2347C972.086 63.38 972.954 67.1607 974.96 70.451L980.083 67.3274C978.775 65.1822 978.118 62.5992 978.233 59.4528L972.237 59.2347ZM974.988 70.4958C976.96 73.606 979.625 76.2505 982.917 78.445L986.245 73.4527C983.571 71.67 981.53 69.608 980.055 67.2826L974.988 70.4958ZM982.956 78.4706C986.149 80.5281 989.795 82.3099 993.874 83.8308L995.97 78.2089C992.227 76.8132 988.98 75.2143 986.206 73.4271L982.956 78.4706ZM993.916 83.8462C997.952 85.2827 1002.25 86.5086 1006.8 87.527L1008.11 81.6719C1003.77 80.7017 999.714 79.5411 995.928 78.1936L993.916 83.8462ZM1006.75 87.5172L1025.05 91.8922L1026.44 86.0567L1008.15 81.6817L1006.75 87.5172ZM1025.09 91.902C1033.8 93.852 1041.76 96.4444 1048.98 99.6684L1051.43 94.1896C1043.8 90.7847 1035.46 88.0741 1026.4 86.0469L1025.09 91.902ZM1048.98 99.6684C1056.16 102.872 1062.32 106.788 1067.5 111.4L1071.49 106.918C1065.8 101.852 1059.1 97.615 1051.43 94.1896L1048.98 99.6684ZM1067.5 111.4C1072.63 115.963 1076.58 121.325 1079.39 127.503L1084.85 125.02C1081.7 118.073 1077.24 112.033 1071.49 106.918L1067.5 111.4ZM1079.4 127.526C1082.24 133.638 1083.73 140.726 1083.8 148.856L1089.8 148.809C1089.73 139.969 1088.1 132.01 1084.84 124.997L1079.4 127.526ZM1083.8 148.816C1083.73 160.753 1080.7 170.954 1074.78 179.546L1079.72 182.948C1086.4 173.245 1089.73 161.836 1089.8 148.848L1083.8 148.816ZM1074.78 179.55C1068.92 188.088 1060.39 194.815 1049.03 199.667L1051.38 205.185C1063.62 199.961 1073.12 192.569 1079.73 182.944L1074.78 179.55ZM1049.04 199.664C1037.77 204.439 1024.03 206.884 1007.75 206.884V212.884C1024.61 212.884 1039.18 210.356 1051.38 205.188L1049.04 199.664ZM1007.75 206.884C991.609 206.884 977.696 204.41 965.94 199.554L963.649 205.099C976.287 210.319 991.01 212.884 1007.75 212.884V206.884ZM965.945 199.556C954.294 194.718 945.294 187.607 938.825 178.249L933.889 181.66C941.075 192.056 951.033 199.86 963.644 205.097L965.945 199.556ZM938.838 178.268C932.466 168.898 929.038 157.196 928.717 142.997L922.718 143.133C923.06 158.234 926.724 171.124 933.876 181.641L938.838 178.268ZM925.718 146.065H967.38V140.065H925.718V146.065ZM964.386 143.269C964.882 150.562 966.99 156.85 970.85 161.973L975.642 158.362C972.608 154.337 970.805 149.224 970.373 142.862L964.386 143.269ZM970.88 162.012C974.753 166.981 979.879 170.699 986.157 173.197L988.375 167.621C982.987 165.479 978.766 162.37 975.612 158.323L970.88 162.012ZM986.195 173.212C992.491 175.617 999.525 176.79 1007.25 176.79V170.79C1000.13 170.79 993.84 169.709 988.336 167.607L986.195 173.212ZM1007.25 176.79C1014.83 176.79 1021.55 175.689 1027.35 173.398L1025.14 167.818C1020.2 169.769 1014.26 170.79 1007.25 170.79V176.79ZM1027.33 173.403C1033.16 171.129 1037.85 167.895 1041.23 163.617L1036.52 159.9C1033.93 163.179 1030.2 165.845 1025.15 167.813L1027.33 173.403ZM1041.23 163.617C1044.64 159.299 1046.35 154.299 1046.35 148.733H1040.35C1040.35 152.978 1039.07 156.661 1036.52 159.9L1041.23 163.617ZM1046.35 148.733C1046.35 143.517 1044.78 138.948 1041.53 135.227L1037.01 139.171C1039.2 141.681 1040.35 144.801 1040.35 148.733H1046.35ZM1041.55 135.255C1038.51 131.676 1034.15 128.787 1028.7 126.481L1026.37 132.007C1031.26 134.077 1034.73 136.491 1036.98 139.143L1041.55 135.255ZM1028.72 126.487C1023.41 124.214 1016.98 122.178 1009.45 120.362L1008.04 126.195C1015.36 127.959 1021.45 129.9 1026.35 132.002L1028.72 126.487ZM1009.47 120.369L987.301 114.801L985.839 120.62L1008.01 126.188L1009.47 120.369ZM987.279 114.795C970.439 110.699 957.376 104.35 947.901 95.8849L943.904 100.359C954.315 109.66 968.363 116.369 985.861 120.625L987.279 114.795ZM947.901 95.8849C938.685 87.6516 934.024 76.5518 934.087 62.2405L928.087 62.214C928.017 77.9974 933.234 90.8276 943.904 100.359L947.901 95.8849ZM934.087 62.2111C934.024 50.4581 937.14 40.3181 943.366 31.6639L938.495 28.1599C931.464 37.9338 928.018 49.3373 928.087 62.2434L934.087 62.2111ZM943.358 31.6754C949.706 22.9385 958.446 16.0607 969.689 11.0779L967.258 5.5925C955.168 10.9507 945.545 18.4574 938.504 28.1485L943.358 31.6754ZM969.689 11.0779C980.915 6.10263 993.748 3.57954 1008.25 3.57954V-2.42046C993.047 -2.42046 979.365 0.226901 967.258 5.5925L969.689 11.0779ZM1008.25 3.57954C1023.02 3.57954 1035.77 6.10653 1046.57 11.0619L1049.07 5.60853C1037.33 0.223006 1023.7 -2.42046 1008.25 -2.42046V3.57954ZM1046.57 11.0647C1057.47 16.0354 1065.84 22.8931 1071.79 31.6047L1076.75 28.2192C1070.1 18.5028 1060.84 10.976 1049.06 5.60577L1046.57 11.0647ZM1071.79 31.6047C1077.73 40.2916 1080.82 50.3813 1081.01 61.9781L1087.01 61.8798C1086.81 49.2153 1083.4 37.9603 1076.75 28.2192L1071.79 31.6047ZM1084.01 58.929H1042.75V64.929H1084.01V58.929ZM1091.2 38.8608H1088.2V41.8608H1091.2V38.8608ZM1091.2 3.36363V0.36363H1088.2V3.36363H1091.2ZM1258.45 3.36363H1261.45V0.36363H1258.45V3.36363ZM1258.45 38.8608V41.8608H1261.45V38.8608H1258.45ZM1196.1 38.8608V35.8608H1193.1V38.8608H1196.1ZM1196.1 207V210H1199.1V207H1196.1ZM1153.54 207H1150.54V210H1153.54V207ZM1153.54 38.8608H1156.54V35.8608H1153.54V38.8608ZM1094.2 38.8608V3.36363H1088.2V38.8608H1094.2ZM1091.2 6.36363H1258.45V0.36363H1091.2V6.36363ZM1255.45 3.36363V38.8608H1261.45V3.36363H1255.45ZM1258.45 35.8608H1196.1V41.8608H1258.45V35.8608ZM1193.1 38.8608V207H1199.1V38.8608H1193.1ZM1196.1 204H1153.54V210H1196.1V204ZM1156.54 207V38.8608H1150.54V207H1156.54ZM1153.54 35.8608H1091.2V41.8608H1153.54V35.8608ZM1379.66 61.929L1376.67 62.225L1376.94 64.929H1379.66V61.929ZM1327.06 39.5568L1328.16 42.3449L1328.18 42.3383L1328.2 42.3316L1327.06 39.5568ZM1315.92 47.6108L1313.52 45.8108L1313.51 45.8257L1313.5 45.8407L1315.92 47.6108ZM1312.14 59.3438L1315.14 59.4528L1315.14 59.3983V59.3438H1312.14ZM1314.43 68.8892L1311.87 70.451L1311.88 70.4736L1311.9 70.4958L1314.43 68.8892ZM1321.49 75.9489L1319.82 78.445L1319.84 78.4579L1319.86 78.4706L1321.49 75.9489ZM1331.83 81.0199L1330.78 83.8308L1330.8 83.8387L1330.82 83.8462L1331.83 81.0199ZM1344.36 84.5994L1345.06 81.6817L1345.03 81.6766L1345.01 81.6719L1344.36 84.5994ZM1362.65 88.9744L1361.96 91.8922L1361.98 91.8972L1362 91.902L1362.65 88.9744ZM1387.11 96.929L1385.89 99.6684L1385.89 99.6684L1387.11 96.929ZM1406.4 109.159L1408.4 106.918L1408.4 106.918L1406.4 109.159ZM1419.03 126.261L1416.3 127.503L1416.31 127.514L1416.31 127.526L1419.03 126.261ZM1423.7 148.832L1426.7 148.848L1426.7 148.829L1426.7 148.809L1423.7 148.832ZM1414.16 181.247L1411.69 179.546L1411.69 179.55L1414.16 181.247ZM1387.11 202.426L1388.28 205.188L1388.29 205.185L1387.11 202.426ZM1301.7 202.327L1300.55 205.097L1300.56 205.099L1301.7 202.327ZM1273.26 179.955L1270.78 181.641L1270.79 181.651L1270.8 181.66L1273.26 179.955ZM1262.63 143.065V140.065H1259.56L1259.63 143.133L1262.63 143.065ZM1304.29 143.065L1307.28 142.862L1307.09 140.065H1304.29V143.065ZM1310.15 160.168L1307.76 161.973L1307.77 161.993L1307.79 162.012L1310.15 160.168ZM1324.17 170.409L1323.06 173.197L1323.08 173.204L1323.1 173.212L1324.17 170.409ZM1363.15 170.608L1362.06 167.813L1362.05 167.818L1363.15 170.608ZM1375.78 161.759L1378.13 163.617L1378.13 163.617L1375.78 161.759ZM1376.18 137.199L1373.89 139.143L1373.9 139.157L1373.92 139.171L1376.18 137.199ZM1364.44 129.244L1363.26 132.002L1363.27 132.007L1364.44 129.244ZM1345.65 123.278L1344.92 126.188L1344.93 126.192L1344.95 126.195L1345.65 123.278ZM1323.48 117.71L1324.21 114.801L1324.2 114.798L1324.19 114.795L1323.48 117.71ZM1282.81 98.1222L1280.81 100.359L1280.81 100.359L1282.81 98.1222ZM1267.99 62.2273L1270.99 62.2405L1270.99 62.2258L1270.99 62.2111L1267.99 62.2273ZM1277.84 29.9119L1275.41 28.1485L1275.41 28.1542L1275.4 28.1599L1277.84 29.9119ZM1384.73 8.33522L1383.48 11.0619L1383.48 11.0647L1384.73 8.33522ZM1411.18 29.9119L1408.7 31.6047L1408.7 31.6047L1411.18 29.9119ZM1420.92 61.929V64.929H1423.97L1423.92 61.8798L1420.92 61.929ZM1382.64 61.6329C1381.77 52.8387 1377.97 45.8066 1371.19 40.82L1367.64 45.6516C1372.93 49.5476 1375.95 54.9775 1376.67 62.225L1382.64 61.6329ZM1371.19 40.82C1364.48 35.8788 1355.6 33.5739 1344.86 33.5739V39.5739C1354.79 39.5739 1362.28 41.7102 1367.64 45.6516L1371.19 40.82ZM1344.86 33.5739C1337.56 33.5739 1331.22 34.6032 1325.92 36.782L1328.2 42.3316C1332.57 40.5332 1338.09 39.5739 1344.86 39.5739V33.5739ZM1325.95 36.7688C1320.7 38.8524 1316.5 41.8375 1313.52 45.8108L1318.32 49.4108C1320.51 46.4901 1323.73 44.1059 1328.16 42.3449L1325.95 36.7688ZM1313.5 45.8407C1310.59 49.815 1309.14 54.3493 1309.14 59.3438H1315.14C1315.14 55.5882 1316.21 52.3005 1318.34 49.3808L1313.5 45.8407ZM1309.14 59.2347C1308.99 63.38 1309.86 67.1607 1311.87 70.451L1316.99 67.3274C1315.68 65.1822 1315.03 62.5992 1315.14 59.4528L1309.14 59.2347ZM1311.9 70.4958C1313.87 73.606 1316.53 76.2505 1319.82 78.445L1323.15 73.4527C1320.48 71.67 1318.44 69.608 1316.96 67.2826L1311.9 70.4958ZM1319.86 78.4706C1323.06 80.5281 1326.7 82.3099 1330.78 83.8308L1332.88 78.2089C1329.13 76.8132 1325.89 75.2143 1323.11 73.4271L1319.86 78.4706ZM1330.82 83.8462C1334.86 85.2827 1339.15 86.5086 1343.7 87.527L1345.01 81.6719C1340.68 80.7017 1336.62 79.5411 1332.84 78.1936L1330.82 83.8462ZM1343.66 87.5172L1361.96 91.8922L1363.35 86.0567L1345.06 81.6817L1343.66 87.5172ZM1362 91.902C1370.71 93.852 1378.67 96.4444 1385.89 99.6684L1388.34 94.1896C1380.71 90.7847 1372.36 88.0741 1363.31 86.0469L1362 91.902ZM1385.89 99.6684C1393.07 102.872 1399.23 106.788 1404.41 111.4L1408.4 106.918C1402.71 101.852 1396.01 97.615 1388.34 94.1896L1385.89 99.6684ZM1404.41 111.4C1409.54 115.963 1413.49 121.325 1416.3 127.503L1421.76 125.02C1418.6 118.073 1414.14 112.033 1408.4 106.918L1404.41 111.4ZM1416.31 127.526C1419.15 133.638 1420.64 140.726 1420.71 148.856L1426.7 148.809C1426.64 139.969 1425.01 132.01 1421.75 124.997L1416.31 127.526ZM1420.7 148.816C1420.64 160.753 1417.6 170.954 1411.69 179.546L1416.63 182.948C1423.31 173.245 1426.64 161.836 1426.7 148.848L1420.7 148.816ZM1411.69 179.55C1405.83 188.088 1397.3 194.815 1385.94 199.667L1388.29 205.185C1400.53 199.961 1410.03 192.569 1416.63 182.944L1411.69 179.55ZM1385.94 199.664C1374.67 204.439 1360.94 206.884 1344.66 206.884V212.884C1361.52 212.884 1376.09 210.356 1388.28 205.188L1385.94 199.664ZM1344.66 206.884C1328.52 206.884 1314.6 204.41 1302.85 199.554L1300.56 205.099C1313.19 210.319 1327.92 212.884 1344.66 212.884V206.884ZM1302.85 199.556C1291.2 194.718 1282.2 187.607 1275.73 178.249L1270.8 181.66C1277.98 192.056 1287.94 199.86 1300.55 205.097L1302.85 199.556ZM1275.75 178.268C1269.37 168.898 1265.95 157.196 1265.62 142.997L1259.63 143.133C1259.97 158.234 1263.63 171.124 1270.78 181.641L1275.75 178.268ZM1262.63 146.065H1304.29V140.065H1262.63V146.065ZM1301.29 143.269C1301.79 150.562 1303.9 156.85 1307.76 161.973L1312.55 158.362C1309.52 154.337 1307.71 149.224 1307.28 142.862L1301.29 143.269ZM1307.79 162.012C1311.66 166.981 1316.79 170.699 1323.06 173.197L1325.28 167.621C1319.89 165.479 1315.67 162.37 1312.52 158.323L1307.79 162.012ZM1323.1 173.212C1329.4 175.617 1336.43 176.79 1344.16 176.79V170.79C1337.04 170.79 1330.75 169.709 1325.24 167.607L1323.1 173.212ZM1344.16 176.79C1351.73 176.79 1358.45 175.689 1364.25 173.398L1362.05 167.818C1357.11 169.769 1351.17 170.79 1344.16 170.79V176.79ZM1364.24 173.403C1370.07 171.129 1374.76 167.895 1378.13 163.617L1373.42 159.9C1370.84 163.179 1367.1 165.845 1362.06 167.813L1364.24 173.403ZM1378.13 163.617C1381.54 159.299 1383.25 154.299 1383.25 148.733H1377.25C1377.25 152.978 1375.98 156.661 1373.42 159.9L1378.13 163.617ZM1383.25 148.733C1383.25 143.517 1381.68 138.948 1378.44 135.227L1373.92 139.171C1376.11 141.681 1377.25 144.801 1377.25 148.733H1383.25ZM1378.46 135.255C1375.42 131.676 1371.06 128.787 1365.61 126.481L1363.27 132.007C1368.17 134.077 1371.63 136.491 1373.89 139.143L1378.46 135.255ZM1365.63 126.487C1360.32 124.214 1353.89 122.178 1346.35 120.362L1344.95 126.195C1352.26 127.959 1358.36 129.9 1363.26 132.002L1365.63 126.487ZM1346.38 120.369L1324.21 114.801L1322.75 120.62L1344.92 126.188L1346.38 120.369ZM1324.19 114.795C1307.35 110.699 1294.28 104.35 1284.81 95.8849L1280.81 100.359C1291.22 109.66 1305.27 116.369 1322.77 120.625L1324.19 114.795ZM1284.81 95.8849C1275.59 87.6516 1270.93 76.5518 1270.99 62.2405L1264.99 62.214C1264.93 77.9974 1270.14 90.8276 1280.81 100.359L1284.81 95.8849ZM1270.99 62.2111C1270.93 50.4581 1274.05 40.3181 1280.27 31.6639L1275.4 28.1599C1268.37 37.9338 1264.93 49.3373 1264.99 62.2434L1270.99 62.2111ZM1280.27 31.6754C1286.61 22.9385 1295.35 16.0607 1306.6 11.0779L1304.17 5.5925C1292.08 10.9507 1282.45 18.4574 1275.41 28.1485L1280.27 31.6754ZM1306.6 11.0779C1317.82 6.10263 1330.66 3.57954 1345.15 3.57954V-2.42046C1329.95 -2.42046 1316.27 0.226901 1304.17 5.5925L1306.6 11.0779ZM1345.15 3.57954C1359.93 3.57954 1372.68 6.10653 1383.48 11.0619L1385.98 5.60853C1374.24 0.223006 1360.61 -2.42046 1345.15 -2.42046V3.57954ZM1383.48 11.0647C1394.38 16.0354 1402.75 22.8931 1408.7 31.6047L1413.65 28.2192C1407.01 18.5028 1397.75 10.976 1385.97 5.60577L1383.48 11.0647ZM1408.7 31.6047C1414.64 40.2916 1417.73 50.3813 1417.92 61.9781L1423.92 61.8798C1423.71 49.2153 1420.31 37.9603 1413.65 28.2192L1408.7 31.6047ZM1420.92 58.929H1379.66V64.929H1420.92V58.929Z" fill="white" mask="url(#path-1-outside-1_1_18)"/>
</svg>
