<svg width="1018" height="106" viewBox="0 0 1018 106" fill="none" xmlns="http://www.w3.org/2000/svg">
<mask id="path-1-outside-1_1_20" maskUnits="userSpaceOnUse" x="-3" y="-3" width="1024" height="112" fill="black">
<rect fill="white" x="-3" y="-3" width="1024" height="112"/>
<path d="M36.9248 104H0.83106V2.18182H37.2231C47.4646 2.18182 56.2809 4.22017 63.672 8.29688C71.0631 12.3404 76.7473 18.1572 80.7245 25.7472C84.7349 33.3371 86.7402 42.4186 86.7402 52.9915C86.7402 63.5975 84.7349 72.7121 80.7245 80.3352C76.7473 87.9583 71.0299 93.8082 63.5725 97.8849C56.1483 101.962 47.2657 104 36.9248 104ZM22.358 85.5554H36.0299C42.3936 85.5554 47.7463 84.4285 52.0882 82.1747C56.4632 79.8878 59.7444 76.358 61.9319 71.5852C64.1526 66.7794 65.2629 60.5814 65.2629 52.9915C65.2629 45.4678 64.1526 39.3196 61.9319 34.5469C59.7444 29.7741 56.4797 26.2609 52.1379 24.0071C47.796 21.7533 42.4433 20.6264 36.0796 20.6264H22.358V85.5554ZM111.694 104H88.6259L123.775 2.18182H151.517L186.616 104H163.548L138.044 25.4489H137.248L111.694 104ZM110.252 63.9787H164.741V80.7827H110.252V63.9787ZM217.598 2.18182V104H196.071V2.18182H217.598ZM232.509 104V2.18182H254.036V86.2514H297.687V104H232.509ZM290.189 2.18182H314.301L337.518 46.0312H338.512L361.73 2.18182H385.842L348.704 68.0057V104H327.326V68.0057L290.189 2.18182ZM479.637 31.4645C479.239 27.4541 477.532 24.3385 474.516 22.1179C471.5 19.8972 467.406 18.7869 462.236 18.7869C458.723 18.7869 455.756 19.2841 453.337 20.2784C450.917 21.2396 449.061 22.5819 447.769 24.3054C446.509 26.0289 445.879 27.9844 445.879 30.1719C445.813 31.9948 446.194 33.5857 447.023 34.9446C447.885 36.3035 449.061 37.4801 450.553 38.4744C452.044 39.4356 453.768 40.2808 455.723 41.0099C457.679 41.706 459.767 42.3026 461.987 42.7997L471.135 44.9872C475.576 45.9815 479.653 47.3073 483.365 48.9645C487.077 50.6217 490.292 52.66 493.01 55.0795C495.728 57.4991 497.833 60.3494 499.324 63.6307C500.849 66.9119 501.628 70.6738 501.661 74.9162C501.628 81.1473 500.037 86.5497 496.888 91.1236C493.772 95.6643 489.265 99.1941 483.365 101.713C477.499 104.199 470.423 105.442 462.137 105.442C453.917 105.442 446.758 104.182 440.659 101.663C434.594 99.1444 429.854 95.4157 426.441 90.4773C423.06 85.5057 421.287 79.3575 421.121 72.0327H441.952C442.184 75.4465 443.162 78.2969 444.885 80.5838C446.642 82.8376 448.978 84.5445 451.895 85.7045C454.845 86.8314 458.176 87.3949 461.888 87.3949C465.534 87.3949 468.699 86.8646 471.384 85.804C474.102 84.7434 476.206 83.2685 477.698 81.3793C479.189 79.4901 479.935 77.3191 479.935 74.8665C479.935 72.5795 479.255 70.6572 477.896 69.0994C476.571 67.5417 474.615 66.2159 472.03 65.1222C469.478 64.0284 466.346 63.0341 462.634 62.1392L451.547 59.3551C442.963 57.267 436.185 54.0024 431.213 49.5611C426.242 45.1198 423.772 39.1373 423.806 31.6136C423.772 25.4489 425.413 20.063 428.727 15.456C432.075 10.849 436.665 7.25284 442.499 4.66761C448.332 2.08238 454.961 0.789769 462.385 0.789769C469.942 0.789769 476.538 2.08238 482.172 4.66761C487.84 7.25284 492.248 10.849 495.396 15.456C498.545 20.063 500.169 25.3991 500.269 31.4645H479.637ZM513.34 104V2.18182H534.867V44.1918H578.568V2.18182H600.045V104H578.568V61.9403H534.867V104H513.34ZM677.884 2.18182H699.411V68.304C699.411 75.7282 697.638 82.2244 694.092 87.7926C690.578 93.3608 685.656 97.7027 679.326 100.818C672.995 103.901 665.621 105.442 657.202 105.442C648.751 105.442 641.36 103.901 635.029 100.818C628.699 97.7027 623.777 93.3608 620.263 87.7926C616.75 82.2244 614.994 75.7282 614.994 68.304V2.18182H636.521V66.4645C636.521 70.3423 637.366 73.7893 639.056 76.8054C640.78 79.8215 643.199 82.1913 646.315 83.9148C649.43 85.6383 653.059 86.5 657.202 86.5C661.378 86.5 665.008 85.6383 668.09 83.9148C671.206 82.1913 673.609 79.8215 675.299 76.8054C677.022 73.7893 677.884 70.3423 677.884 66.4645V2.18182ZM714.322 104V2.18182H781.737V19.9304H735.849V44.1918H777.263V61.9403H735.849V104H714.322ZM793.417 104V2.18182H860.832V19.9304H814.944V44.1918H856.357V61.9403H814.944V104H793.417ZM872.512 104V2.18182H894.039V86.2514H937.689V104H872.512ZM949.145 104V2.18182H1017.75V19.9304H970.672V44.1918H1014.22V61.9403H970.672V86.2514H1017.95V104H949.145Z"/>
</mask>
<path d="M36.9248 104H0.83106V2.18182H37.2231C47.4646 2.18182 56.2809 4.22017 63.672 8.29688C71.0631 12.3404 76.7473 18.1572 80.7245 25.7472C84.7349 33.3371 86.7402 42.4186 86.7402 52.9915C86.7402 63.5975 84.7349 72.7121 80.7245 80.3352C76.7473 87.9583 71.0299 93.8082 63.5725 97.8849C56.1483 101.962 47.2657 104 36.9248 104ZM22.358 85.5554H36.0299C42.3936 85.5554 47.7463 84.4285 52.0882 82.1747C56.4632 79.8878 59.7444 76.358 61.9319 71.5852C64.1526 66.7794 65.2629 60.5814 65.2629 52.9915C65.2629 45.4678 64.1526 39.3196 61.9319 34.5469C59.7444 29.7741 56.4797 26.2609 52.1379 24.0071C47.796 21.7533 42.4433 20.6264 36.0796 20.6264H22.358V85.5554ZM111.694 104H88.6259L123.775 2.18182H151.517L186.616 104H163.548L138.044 25.4489H137.248L111.694 104ZM110.252 63.9787H164.741V80.7827H110.252V63.9787ZM217.598 2.18182V104H196.071V2.18182H217.598ZM232.509 104V2.18182H254.036V86.2514H297.687V104H232.509ZM290.189 2.18182H314.301L337.518 46.0312H338.512L361.73 2.18182H385.842L348.704 68.0057V104H327.326V68.0057L290.189 2.18182ZM479.637 31.4645C479.239 27.4541 477.532 24.3385 474.516 22.1179C471.5 19.8972 467.406 18.7869 462.236 18.7869C458.723 18.7869 455.756 19.2841 453.337 20.2784C450.917 21.2396 449.061 22.5819 447.769 24.3054C446.509 26.0289 445.879 27.9844 445.879 30.1719C445.813 31.9948 446.194 33.5857 447.023 34.9446C447.885 36.3035 449.061 37.4801 450.553 38.4744C452.044 39.4356 453.768 40.2808 455.723 41.0099C457.679 41.706 459.767 42.3026 461.987 42.7997L471.135 44.9872C475.576 45.9815 479.653 47.3073 483.365 48.9645C487.077 50.6217 490.292 52.66 493.01 55.0795C495.728 57.4991 497.833 60.3494 499.324 63.6307C500.849 66.9119 501.628 70.6738 501.661 74.9162C501.628 81.1473 500.037 86.5497 496.888 91.1236C493.772 95.6643 489.265 99.1941 483.365 101.713C477.499 104.199 470.423 105.442 462.137 105.442C453.917 105.442 446.758 104.182 440.659 101.663C434.594 99.1444 429.854 95.4157 426.441 90.4773C423.06 85.5057 421.287 79.3575 421.121 72.0327H441.952C442.184 75.4465 443.162 78.2969 444.885 80.5838C446.642 82.8376 448.978 84.5445 451.895 85.7045C454.845 86.8314 458.176 87.3949 461.888 87.3949C465.534 87.3949 468.699 86.8646 471.384 85.804C474.102 84.7434 476.206 83.2685 477.698 81.3793C479.189 79.4901 479.935 77.3191 479.935 74.8665C479.935 72.5795 479.255 70.6572 477.896 69.0994C476.571 67.5417 474.615 66.2159 472.03 65.1222C469.478 64.0284 466.346 63.0341 462.634 62.1392L451.547 59.3551C442.963 57.267 436.185 54.0024 431.213 49.5611C426.242 45.1198 423.772 39.1373 423.806 31.6136C423.772 25.4489 425.413 20.063 428.727 15.456C432.075 10.849 436.665 7.25284 442.499 4.66761C448.332 2.08238 454.961 0.789769 462.385 0.789769C469.942 0.789769 476.538 2.08238 482.172 4.66761C487.84 7.25284 492.248 10.849 495.396 15.456C498.545 20.063 500.169 25.3991 500.269 31.4645H479.637ZM513.34 104V2.18182H534.867V44.1918H578.568V2.18182H600.045V104H578.568V61.9403H534.867V104H513.34ZM677.884 2.18182H699.411V68.304C699.411 75.7282 697.638 82.2244 694.092 87.7926C690.578 93.3608 685.656 97.7027 679.326 100.818C672.995 103.901 665.621 105.442 657.202 105.442C648.751 105.442 641.36 103.901 635.029 100.818C628.699 97.7027 623.777 93.3608 620.263 87.7926C616.75 82.2244 614.994 75.7282 614.994 68.304V2.18182H636.521V66.4645C636.521 70.3423 637.366 73.7893 639.056 76.8054C640.78 79.8215 643.199 82.1913 646.315 83.9148C649.43 85.6383 653.059 86.5 657.202 86.5C661.378 86.5 665.008 85.6383 668.09 83.9148C671.206 82.1913 673.609 79.8215 675.299 76.8054C677.022 73.7893 677.884 70.3423 677.884 66.4645V2.18182ZM714.322 104V2.18182H781.737V19.9304H735.849V44.1918H777.263V61.9403H735.849V104H714.322ZM793.417 104V2.18182H860.832V19.9304H814.944V44.1918H856.357V61.9403H814.944V104H793.417ZM872.512 104V2.18182H894.039V86.2514H937.689V104H872.512ZM949.145 104V2.18182H1017.75V19.9304H970.672V44.1918H1014.22V61.9403H970.672V86.2514H1017.95V104H949.145Z" fill="white" fill-opacity="0.88"/>
<path d="M0.83106 104H-2.16894V107H0.83106V104ZM0.83106 2.18182V-0.818185H-2.16894V2.18182H0.83106ZM63.672 8.29688L62.223 10.9238L62.2321 10.9288L63.672 8.29688ZM80.7245 25.7472L78.0672 27.1396L78.072 27.1487L80.7245 25.7472ZM80.7245 80.3352L78.0695 78.9385L78.0648 78.9475L80.7245 80.3352ZM63.5725 97.8849L62.1335 95.2526L62.1286 95.2553L63.5725 97.8849ZM22.358 85.5554H19.358V88.5554H22.358V85.5554ZM52.0882 82.1747L53.4703 84.8374L53.4779 84.8334L52.0882 82.1747ZM61.9319 71.5852L59.2086 70.3269L59.2047 70.3353L61.9319 71.5852ZM61.9319 34.5469L59.2047 35.7968L59.2083 35.8046L59.2119 35.8124L61.9319 34.5469ZM52.1379 24.0071L53.52 21.3444L53.52 21.3444L52.1379 24.0071ZM22.358 20.6264V17.6264H19.358V20.6264H22.358ZM36.9248 101H0.83106V107H36.9248V101ZM3.83106 104V2.18182H-2.16894V104H3.83106ZM0.83106 5.18182H37.2231V-0.818185H0.83106V5.18182ZM37.2231 5.18182C47.0653 5.18182 55.3611 7.13892 62.223 10.9238L65.1209 5.66997C57.2007 1.30142 47.8639 -0.818185 37.2231 -0.818185V5.18182ZM62.2321 10.9288C69.0947 14.6832 74.3597 20.0643 78.0673 27.1396L83.3818 24.3547C79.1348 16.2501 73.0315 9.9977 65.1118 5.66499L62.2321 10.9288ZM78.072 27.1487C81.8073 34.2179 83.7402 42.7955 83.7402 52.9915H89.7402C89.7402 42.0416 87.6626 32.4564 83.377 24.3456L78.072 27.1487ZM83.7402 52.9915C83.7402 63.2218 81.8068 71.8346 78.0695 78.9385L83.3795 81.732C87.6631 73.5897 89.7402 63.9733 89.7402 52.9915H83.7402ZM78.0648 78.9475C74.3588 86.0506 69.0633 91.4643 62.1335 95.2526L65.0116 100.517C72.9965 96.1522 79.1357 89.866 83.3843 81.7229L78.0648 78.9475ZM62.1286 95.2553C55.2346 99.0409 46.8715 101 36.9248 101V107C47.66 107 57.062 104.882 65.0165 100.515L62.1286 95.2553ZM22.358 88.5554H36.0299V82.5554H22.358V88.5554ZM36.0299 88.5554C42.7347 88.5554 48.5925 87.3694 53.4703 84.8374L50.706 79.5121C46.9001 81.4877 42.0524 82.5554 36.0299 82.5554V88.5554ZM53.4779 84.8334C58.4815 82.2179 62.2132 78.1717 64.6591 72.8352L59.2047 70.3353C57.2756 74.5442 54.4449 77.5577 50.6984 79.516L53.4779 84.8334ZM64.6552 72.8436C67.1194 67.5107 68.2629 60.8414 68.2629 52.9915H62.2629C62.2629 60.3215 61.1857 66.048 59.2086 70.3269L64.6552 72.8436ZM68.2629 52.9915C68.2629 45.2048 67.1185 38.5827 64.6519 33.2813L59.2119 35.8124C61.1866 40.0565 62.2629 45.7308 62.2629 52.9915H68.2629ZM64.6591 33.2969C62.2149 27.9641 58.4998 23.9294 53.52 21.3444L50.7557 26.6697C54.4596 28.5924 57.2739 31.5842 59.2047 35.7968L64.6591 33.2969ZM53.52 21.3444C48.6422 18.8125 42.7845 17.6264 36.0796 17.6264V23.6264C42.1021 23.6264 46.9498 24.6942 50.7557 26.6697L53.52 21.3444ZM36.0796 17.6264H22.358V23.6264H36.0796V17.6264ZM19.358 20.6264V85.5554H25.358V20.6264H19.358ZM111.694 104V107H113.873L114.547 104.928L111.694 104ZM88.6259 104L85.7901 103.021L84.4165 107H88.6259V104ZM123.775 2.18182V-0.818185H121.637L120.939 1.20286L123.775 2.18182ZM151.517 2.18182L154.353 1.2041L153.656 -0.818185H151.517V2.18182ZM186.616 104V107H190.823L189.452 103.022L186.616 104ZM163.548 104L160.694 104.926L161.368 107H163.548V104ZM138.044 25.4489L140.897 24.5224L140.224 22.4489H138.044V25.4489ZM137.248 25.4489V22.4489H135.069L134.395 24.5208L137.248 25.4489ZM110.252 63.9787V60.9787H107.252V63.9787H110.252ZM164.741 63.9787H167.741V60.9787H164.741V63.9787ZM164.741 80.7827V83.7827H167.741V80.7827H164.741ZM110.252 80.7827H107.252V83.7827H110.252V80.7827ZM111.694 101H88.6259V107H111.694V101ZM91.4617 104.979L126.611 3.16077L120.939 1.20286L85.7901 103.021L91.4617 104.979ZM123.775 5.18182H151.517V-0.818185H123.775V5.18182ZM148.68 3.15953L183.78 104.978L189.452 103.022L154.353 1.2041L148.68 3.15953ZM186.616 101H163.548V107H186.616V101ZM166.401 103.074L140.897 24.5224L135.19 26.3753L160.694 104.926L166.401 103.074ZM138.044 22.4489H137.248V28.4489H138.044V22.4489ZM134.395 24.5208L108.841 103.072L114.547 104.928L140.101 26.3769L134.395 24.5208ZM110.252 66.9787H164.741V60.9787H110.252V66.9787ZM161.741 63.9787V80.7827H167.741V63.9787H161.741ZM164.741 77.7827H110.252V83.7827H164.741V77.7827ZM113.252 80.7827V63.9787H107.252V80.7827H113.252ZM217.598 2.18182H220.598V-0.818185H217.598V2.18182ZM217.598 104V107H220.598V104H217.598ZM196.071 104H193.071V107H196.071V104ZM196.071 2.18182V-0.818185H193.071V2.18182H196.071ZM214.598 2.18182V104H220.598V2.18182H214.598ZM217.598 101H196.071V107H217.598V101ZM199.071 104V2.18182H193.071V104H199.071ZM196.071 5.18182H217.598V-0.818185H196.071V5.18182ZM232.509 104H229.509V107H232.509V104ZM232.509 2.18182V-0.818185H229.509V2.18182H232.509ZM254.036 2.18182H257.036V-0.818185H254.036V2.18182ZM254.036 86.2514H251.036V89.2514H254.036V86.2514ZM297.687 86.2514H300.687V83.2514H297.687V86.2514ZM297.687 104V107H300.687V104H297.687ZM235.509 104V2.18182H229.509V104H235.509ZM232.509 5.18182H254.036V-0.818185H232.509V5.18182ZM251.036 2.18182V86.2514H257.036V2.18182H251.036ZM254.036 89.2514H297.687V83.2514H254.036V89.2514ZM294.687 86.2514V104H300.687V86.2514H294.687ZM297.687 101H232.509V107H297.687V101ZM290.189 2.18182V-0.818185H285.051L287.576 3.65597L290.189 2.18182ZM314.301 2.18182L316.952 0.778014L316.107 -0.818185H314.301V2.18182ZM337.518 46.0312L334.867 47.4351L335.712 49.0312H337.518V46.0312ZM338.512 46.0312V49.0312H340.319L341.164 47.4351L338.512 46.0312ZM361.73 2.18182V-0.818185H359.924L359.078 0.778014L361.73 2.18182ZM385.842 2.18182L388.455 3.65597L390.979 -0.818185H385.842V2.18182ZM348.704 68.0057L346.091 66.5315L345.704 67.2178V68.0057H348.704ZM348.704 104V107H351.704V104H348.704ZM327.326 104H324.326V107H327.326V104ZM327.326 68.0057H330.326V67.2178L329.939 66.5315L327.326 68.0057ZM290.189 5.18182H314.301V-0.818185H290.189V5.18182ZM311.65 3.58562L334.867 47.4351L340.169 44.6274L316.952 0.778014L311.65 3.58562ZM337.518 49.0312H338.512V43.0312H337.518V49.0312ZM341.164 47.4351L364.381 3.58562L359.078 0.778014L335.861 44.6274L341.164 47.4351ZM361.73 5.18182H385.842V-0.818185H361.73V5.18182ZM383.229 0.70766L346.091 66.5315L351.317 69.4798L388.455 3.65597L383.229 0.70766ZM345.704 68.0057V104H351.704V68.0057H345.704ZM348.704 101H327.326V107H348.704V101ZM330.326 104V68.0057H324.326V104H330.326ZM329.939 66.5315L292.801 0.70766L287.576 3.65597L324.714 69.4798L329.939 66.5315ZM479.637 31.4645L476.651 31.7606L476.919 34.4645H479.637V31.4645ZM453.337 20.2784L454.444 23.0665L454.461 23.0599L454.477 23.0532L453.337 20.2784ZM447.769 24.3054L445.369 22.5054L445.357 22.5203L445.346 22.5353L447.769 24.3054ZM445.879 30.1719L448.877 30.2809L448.879 30.2264V30.1719H445.879ZM447.023 34.9446L444.462 36.5064L444.475 36.5289L444.489 36.5512L447.023 34.9446ZM450.553 38.4744L448.889 40.9706L448.908 40.9835L448.928 40.9961L450.553 38.4744ZM455.723 41.0099L454.675 43.8209L454.696 43.8287L454.717 43.8362L455.723 41.0099ZM461.987 42.7997L462.685 39.882L462.664 39.8769L462.643 39.8722L461.987 42.7997ZM471.135 44.9872L470.437 47.9049L470.459 47.91L470.48 47.9147L471.135 44.9872ZM483.365 48.9645L482.142 51.7039L482.142 51.7039L483.365 48.9645ZM493.01 55.0795L495.005 52.8388L495.005 52.8388L493.01 55.0795ZM499.324 63.6307L496.593 64.8721L496.598 64.8835L496.603 64.8948L499.324 63.6307ZM501.661 74.9162L504.661 74.9321L504.661 74.9125L504.661 74.8928L501.661 74.9162ZM496.888 91.1236L494.417 89.4225L494.414 89.4263L496.888 91.1236ZM483.365 101.713L484.536 104.475L484.543 104.472L483.365 101.713ZM440.659 101.663L439.509 104.434L439.514 104.436L440.659 101.663ZM426.441 90.4773L423.96 92.1642L423.966 92.1737L423.973 92.1832L426.441 90.4773ZM421.121 72.0327V69.0327H418.052L418.122 72.1005L421.121 72.0327ZM441.952 72.0327L444.945 71.8293L444.755 69.0327H441.952V72.0327ZM444.885 80.5838L442.489 82.3894L442.504 82.4088L442.519 82.428L444.885 80.5838ZM451.895 85.7045L450.786 88.4922L450.805 88.4997L450.824 88.507L451.895 85.7045ZM471.384 85.804L470.293 83.0092L470.281 83.0138L471.384 85.804ZM477.698 81.3793L480.052 83.2382L480.052 83.2382L477.698 81.3793ZM477.896 69.0994L475.612 71.0438L475.624 71.0577L475.636 71.0715L477.896 69.0994ZM472.03 65.1222L470.848 67.8796L470.861 67.8851L472.03 65.1222ZM462.634 62.1392L461.903 65.0489L461.917 65.0523L461.931 65.0557L462.634 62.1392ZM451.547 59.3551L452.278 56.4455L452.267 56.4427L452.256 56.4401L451.547 59.3551ZM431.213 49.5611L429.215 51.7984L429.215 51.7984L431.213 49.5611ZM423.806 31.6136L426.806 31.6268L426.806 31.6122L426.806 31.5975L423.806 31.6136ZM428.727 15.456L426.3 13.6925L426.296 13.6982L426.292 13.704L428.727 15.456ZM482.172 4.66761L480.921 7.39431L480.927 7.39707L482.172 4.66761ZM495.396 15.456L492.92 17.1487L492.92 17.1487L495.396 15.456ZM500.269 31.4645V34.4645H503.318L503.268 31.4153L500.269 31.4645ZM482.622 31.1684C482.147 26.3847 480.051 22.468 476.294 19.7021L472.737 24.5337C475.013 26.2091 476.33 28.5235 476.651 31.7606L482.622 31.1684ZM476.294 19.7021C472.599 16.9815 467.808 15.7869 462.236 15.7869V21.7869C467.005 21.7869 470.4 22.813 472.737 24.5337L476.294 19.7021ZM462.236 15.7869C458.458 15.7869 455.079 16.3191 452.196 17.5036L454.477 23.0532C456.434 22.2491 458.987 21.7869 462.236 21.7869V15.7869ZM452.229 17.4904C449.404 18.6129 447.056 20.2556 445.369 22.5054L450.169 26.1054C451.067 24.9082 452.431 23.8663 454.444 23.0665L452.229 17.4904ZM445.346 22.5353C443.702 24.7861 442.879 27.3649 442.879 30.1719H448.879C448.879 28.6038 449.317 27.2716 450.191 26.0754L445.346 22.5353ZM442.881 30.0629C442.797 32.3852 443.284 34.5749 444.462 36.5064L449.584 33.3828C449.105 32.5965 448.829 31.6044 448.877 30.2809L442.881 30.0629ZM444.489 36.5512C445.6 38.3025 447.088 39.7704 448.889 40.9706L452.217 35.9783C451.034 35.1899 450.169 34.3045 449.556 33.338L444.489 36.5512ZM448.928 40.9961C450.629 42.0925 452.552 43.0291 454.675 43.8209L456.771 38.199C454.984 37.5324 453.46 36.7787 452.178 35.9527L448.928 40.9961ZM454.717 43.8362C456.798 44.5768 459.004 45.206 461.332 45.7272L462.643 39.8722C460.53 39.3991 458.56 38.8352 456.729 38.1836L454.717 43.8362ZM461.29 45.7174L470.437 47.9049L471.833 42.0695L462.685 39.882L461.29 45.7174ZM470.48 47.9147C474.749 48.8705 478.633 50.1371 482.142 51.7039L484.588 46.2251C480.673 44.4774 476.404 43.0926 471.791 42.0597L470.48 47.9147ZM482.142 51.7039C485.606 53.25 488.553 55.1281 491.015 57.3203L495.005 52.8388C492.032 50.192 488.549 47.9933 484.588 46.2251L482.142 51.7039ZM491.015 57.3203C493.424 59.4644 495.276 61.9754 496.593 64.8721L502.055 62.3893C500.389 58.7235 498.032 55.5337 495.005 52.8388L491.015 57.3203ZM496.603 64.8948C497.919 67.7258 498.63 71.0527 498.661 74.9396L504.661 74.8928C504.625 70.2949 503.779 66.098 502.045 62.3665L496.603 64.8948ZM498.661 74.9002C498.63 80.6056 497.183 85.4039 494.417 89.4225L499.359 92.8247C502.89 87.6955 504.625 81.6889 504.661 74.9321L498.661 74.9002ZM494.414 89.4263C491.671 93.4241 487.651 96.6212 482.187 98.954L484.543 104.472C490.879 101.767 495.874 97.9045 499.362 92.8209L494.414 89.4263ZM482.195 98.9508C476.792 101.24 470.136 102.442 462.137 102.442V108.442C470.709 108.442 478.206 107.157 484.536 104.475L482.195 98.9508ZM462.137 102.442C454.216 102.442 447.463 101.228 441.805 98.8906L439.514 104.436C446.053 107.137 453.617 108.442 462.137 108.442V102.442ZM441.81 98.8928C436.225 96.5733 431.964 93.1915 428.908 88.7714L423.973 92.1832C427.745 97.6399 432.963 101.716 439.509 104.434L441.81 98.8928ZM428.921 88.7903C425.931 84.3926 424.276 78.8386 424.12 71.9648L418.122 72.1005C418.298 79.8764 420.189 86.6188 423.96 92.1642L428.921 88.7903ZM421.121 75.0327H441.952V69.0327H421.121V75.0327ZM438.959 72.2361C439.222 76.1158 440.352 79.5536 442.489 82.3894L447.281 78.7783C445.971 77.0402 445.145 74.7771 444.945 71.8293L438.959 72.2361ZM442.519 82.428C444.635 85.1431 447.424 87.155 450.786 88.4922L453.004 82.9169C450.532 81.934 448.648 80.5321 447.251 78.7396L442.519 82.428ZM450.824 88.507C454.17 89.7852 457.873 90.3949 461.888 90.3949V84.3949C458.479 84.3949 455.519 83.8776 452.966 82.9021L450.824 88.507ZM461.888 90.3949C465.816 90.3949 469.371 89.8246 472.486 88.5941L470.281 83.0138C468.027 83.9046 465.252 84.3949 461.888 84.3949V90.3949ZM472.474 88.5987C475.584 87.3852 478.167 85.6268 480.052 83.2382L475.343 79.5203C474.246 80.9101 472.619 82.1015 470.293 83.0092L472.474 88.5987ZM480.052 83.2382C481.97 80.8087 482.935 77.9798 482.935 74.8665H476.935C476.935 76.6584 476.408 78.1714 475.343 79.5203L480.052 83.2382ZM482.935 74.8665C482.935 71.9373 482.045 69.2909 480.157 67.1273L475.636 71.0715C476.466 72.0235 476.935 73.2218 476.935 74.8665H482.935ZM480.181 67.1551C478.461 65.134 476.063 63.571 473.199 62.3593L470.861 67.8851C473.167 68.8608 474.68 69.9493 475.612 71.0438L480.181 67.1551ZM473.212 62.3647C470.46 61.1852 467.157 60.1436 463.337 59.2228L461.931 65.0557C465.535 65.9246 468.496 66.8716 470.848 67.8796L473.212 62.3647ZM463.364 59.2295L452.278 56.4455L450.816 62.2648L461.903 65.0489L463.364 59.2295ZM452.256 56.4401C444.001 54.4321 437.716 51.3473 433.212 47.3238L429.215 51.7984C434.654 56.6575 441.925 60.102 450.838 62.2701L452.256 56.4401ZM433.212 47.3238C428.967 43.5318 426.776 38.4145 426.806 31.6268L420.806 31.6004C420.769 39.8601 423.516 46.7078 429.215 51.7984L433.212 47.3238ZM426.806 31.5975C426.775 26.0092 428.251 21.2551 431.163 17.208L426.292 13.704C422.575 18.8708 420.769 24.8885 420.806 31.6298L426.806 31.5975ZM431.154 17.2194C434.155 13.0895 438.304 9.80785 443.714 7.41033L441.283 1.92489C435.026 4.69783 429.995 8.6084 426.3 13.6925L431.154 17.2194ZM443.714 7.41033C449.107 5.02025 455.312 3.78977 462.385 3.78977V-2.21023C454.61 -2.21023 447.557 -0.855482 441.283 1.92489L443.714 7.41033ZM462.385 3.78977C469.603 3.78977 475.755 5.02414 480.921 7.3943L483.423 1.94092C477.32 -0.859377 470.281 -2.21023 462.385 -2.21023V3.78977ZM480.927 7.39707C486.157 9.78253 490.114 13.0441 492.92 17.1487L497.873 13.7632C494.381 8.65381 489.523 4.72315 483.417 1.93815L480.927 7.39707ZM492.92 17.1487C495.708 21.2286 497.178 25.9822 497.269 31.5137L503.268 31.4153C503.16 24.8161 501.382 18.8974 497.873 13.7632L492.92 17.1487ZM500.269 28.4645H479.637V34.4645H500.269V28.4645ZM513.34 104H510.34V107H513.34V104ZM513.34 2.18182V-0.818185H510.34V2.18182H513.34ZM534.867 2.18182H537.867V-0.818185H534.867V2.18182ZM534.867 44.1918H531.867V47.1918H534.867V44.1918ZM578.568 44.1918V47.1918H581.568V44.1918H578.568ZM578.568 2.18182V-0.818185H575.568V2.18182H578.568ZM600.045 2.18182H603.045V-0.818185H600.045V2.18182ZM600.045 104V107H603.045V104H600.045ZM578.568 104H575.568V107H578.568V104ZM578.568 61.9403H581.568V58.9403H578.568V61.9403ZM534.867 61.9403V58.9403H531.867V61.9403H534.867ZM534.867 104V107H537.867V104H534.867ZM516.34 104V2.18182H510.34V104H516.34ZM513.34 5.18182H534.867V-0.818185H513.34V5.18182ZM531.867 2.18182V44.1918H537.867V2.18182H531.867ZM534.867 47.1918H578.568V41.1918H534.867V47.1918ZM581.568 44.1918V2.18182H575.568V44.1918H581.568ZM578.568 5.18182H600.045V-0.818185H578.568V5.18182ZM597.045 2.18182V104H603.045V2.18182H597.045ZM600.045 101H578.568V107H600.045V101ZM581.568 104V61.9403H575.568V104H581.568ZM578.568 58.9403H534.867V64.9403H578.568V58.9403ZM531.867 61.9403V104H537.867V61.9403H531.867ZM534.867 101H513.34V107H534.867V101ZM677.884 2.18182V-0.818185H674.884V2.18182H677.884ZM699.411 2.18182H702.411V-0.818185H699.411V2.18182ZM694.092 87.7926L691.561 86.181L691.554 86.1918L694.092 87.7926ZM679.326 100.818L680.639 103.515L680.651 103.51L679.326 100.818ZM635.029 100.818L633.704 103.51L633.716 103.515L635.029 100.818ZM620.263 87.7926L617.726 89.3935L617.726 89.3935L620.263 87.7926ZM614.994 2.18182V-0.818185H611.994V2.18182H614.994ZM636.521 2.18182H639.521V-0.818185H636.521V2.18182ZM639.056 76.8054L636.439 78.2721L636.445 78.283L636.451 78.2938L639.056 76.8054ZM646.315 83.9148L644.862 86.5399L644.862 86.5399L646.315 83.9148ZM668.09 83.9148L666.638 81.2896L666.626 81.2963L668.09 83.9148ZM675.299 76.8054L672.694 75.317L672.688 75.3278L672.682 75.3387L675.299 76.8054ZM677.884 5.18182H699.411V-0.818185H677.884V5.18182ZM696.411 2.18182V68.304H702.411V2.18182H696.411ZM696.411 68.304C696.411 75.2306 694.764 81.1527 691.561 86.181L696.622 89.4042C700.512 83.2962 702.411 76.2259 702.411 68.304H696.411ZM691.554 86.1918C688.358 91.2576 683.872 95.2374 678.001 98.1265L680.651 103.51C687.441 100.168 692.799 95.464 696.629 89.3935L691.554 86.1918ZM678.013 98.1209C672.164 100.969 665.254 102.442 657.202 102.442V108.442C665.988 108.442 673.827 106.832 680.639 103.515L678.013 98.1209ZM657.202 102.442C649.116 102.442 642.19 100.968 636.342 98.1209L633.716 103.515C640.529 106.833 648.386 108.442 657.202 108.442V102.442ZM636.354 98.1265C630.483 95.2374 625.997 91.2576 622.801 86.1918L617.726 89.3935C621.556 95.464 626.914 100.168 633.704 103.51L636.354 98.1265ZM622.801 86.1918C619.627 81.162 617.994 75.236 617.994 68.304H611.994C611.994 76.2205 613.873 83.2868 617.726 89.3935L622.801 86.1918ZM617.994 68.304V2.18182H611.994V68.304H617.994ZM614.994 5.18182H636.521V-0.818185H614.994V5.18182ZM633.521 2.18182V66.4645H639.521V2.18182H633.521ZM633.521 66.4645C633.521 70.7923 634.468 74.7555 636.439 78.2721L641.673 75.3387C640.263 72.8231 639.521 69.8923 639.521 66.4645H633.521ZM636.451 78.2938C638.455 81.7996 641.278 84.5572 644.862 86.5399L647.767 81.2897C645.12 79.8253 643.104 77.8434 641.661 75.317L636.451 78.2938ZM644.862 86.5399C648.49 88.5468 652.635 89.5 657.202 89.5V83.5C653.484 83.5 650.37 82.7297 647.767 81.2897L644.862 86.5399ZM657.202 89.5C661.797 89.5 665.949 88.549 669.554 86.5333L666.626 81.2963C664.066 82.7275 660.96 83.5 657.202 83.5V89.5ZM669.542 86.5399C673.131 84.5546 675.944 81.7902 677.916 78.2721L672.682 75.3387C671.273 77.8528 669.28 79.8279 666.638 81.2897L669.542 86.5399ZM677.904 78.2938C679.915 74.7734 680.884 70.8024 680.884 66.4645H674.884C674.884 69.8823 674.13 72.8052 672.694 75.317L677.904 78.2938ZM680.884 66.4645V2.18182H674.884V66.4645H680.884ZM714.322 104H711.322V107H714.322V104ZM714.322 2.18182V-0.818185H711.322V2.18182H714.322ZM781.737 2.18182H784.737V-0.818185H781.737V2.18182ZM781.737 19.9304V22.9304H784.737V19.9304H781.737ZM735.849 19.9304V16.9304H732.849V19.9304H735.849ZM735.849 44.1918H732.849V47.1918H735.849V44.1918ZM777.263 44.1918H780.263V41.1918H777.263V44.1918ZM777.263 61.9403V64.9403H780.263V61.9403H777.263ZM735.849 61.9403V58.9403H732.849V61.9403H735.849ZM735.849 104V107H738.849V104H735.849ZM717.322 104V2.18182H711.322V104H717.322ZM714.322 5.18182H781.737V-0.818185H714.322V5.18182ZM778.737 2.18182V19.9304H784.737V2.18182H778.737ZM781.737 16.9304H735.849V22.9304H781.737V16.9304ZM732.849 19.9304V44.1918H738.849V19.9304H732.849ZM735.849 47.1918H777.263V41.1918H735.849V47.1918ZM774.263 44.1918V61.9403H780.263V44.1918H774.263ZM777.263 58.9403H735.849V64.9403H777.263V58.9403ZM732.849 61.9403V104H738.849V61.9403H732.849ZM735.849 101H714.322V107H735.849V101ZM793.417 104H790.417V107H793.417V104ZM793.417 2.18182V-0.818185H790.417V2.18182H793.417ZM860.832 2.18182H863.832V-0.818185H860.832V2.18182ZM860.832 19.9304V22.9304H863.832V19.9304H860.832ZM814.944 19.9304V16.9304H811.944V19.9304H814.944ZM814.944 44.1918H811.944V47.1918H814.944V44.1918ZM856.357 44.1918H859.357V41.1918H856.357V44.1918ZM856.357 61.9403V64.9403H859.357V61.9403H856.357ZM814.944 61.9403V58.9403H811.944V61.9403H814.944ZM814.944 104V107H817.944V104H814.944ZM796.417 104V2.18182H790.417V104H796.417ZM793.417 5.18182H860.832V-0.818185H793.417V5.18182ZM857.832 2.18182V19.9304H863.832V2.18182H857.832ZM860.832 16.9304H814.944V22.9304H860.832V16.9304ZM811.944 19.9304V44.1918H817.944V19.9304H811.944ZM814.944 47.1918H856.357V41.1918H814.944V47.1918ZM853.357 44.1918V61.9403H859.357V44.1918H853.357ZM856.357 58.9403H814.944V64.9403H856.357V58.9403ZM811.944 61.9403V104H817.944V61.9403H811.944ZM814.944 101H793.417V107H814.944V101ZM872.512 104H869.512V107H872.512V104ZM872.512 2.18182V-0.818185H869.512V2.18182H872.512ZM894.039 2.18182H897.039V-0.818185H894.039V2.18182ZM894.039 86.2514H891.039V89.2514H894.039V86.2514ZM937.689 86.2514H940.689V83.2514H937.689V86.2514ZM937.689 104V107H940.689V104H937.689ZM875.512 104V2.18182H869.512V104H875.512ZM872.512 5.18182H894.039V-0.818185H872.512V5.18182ZM891.039 2.18182V86.2514H897.039V2.18182H891.039ZM894.039 89.2514H937.689V83.2514H894.039V89.2514ZM934.689 86.2514V104H940.689V86.2514H934.689ZM937.689 101H872.512V107H937.689V101ZM949.145 104H946.145V107H949.145V104ZM949.145 2.18182V-0.818185H946.145V2.18182H949.145ZM1017.75 2.18182H1020.75V-0.818185H1017.75V2.18182ZM1017.75 19.9304V22.9304H1020.75V19.9304H1017.75ZM970.672 19.9304V16.9304H967.672V19.9304H970.672ZM970.672 44.1918H967.672V47.1918H970.672V44.1918ZM1014.22 44.1918H1017.22V41.1918H1014.22V44.1918ZM1014.22 61.9403V64.9403H1017.22V61.9403H1014.22ZM970.672 61.9403V58.9403H967.672V61.9403H970.672ZM970.672 86.2514H967.672V89.2514H970.672V86.2514ZM1017.95 86.2514H1020.95V83.2514H1017.95V86.2514ZM1017.95 104V107H1020.95V104H1017.95ZM952.145 104V2.18182H946.145V104H952.145ZM949.145 5.18182H1017.75V-0.818185H949.145V5.18182ZM1014.75 2.18182V19.9304H1020.75V2.18182H1014.75ZM1017.75 16.9304H970.672V22.9304H1017.75V16.9304ZM967.672 19.9304V44.1918H973.672V19.9304H967.672ZM970.672 47.1918H1014.22V41.1918H970.672V47.1918ZM1011.22 44.1918V61.9403H1017.22V44.1918H1011.22ZM1014.22 58.9403H970.672V64.9403H1014.22V58.9403ZM967.672 61.9403V86.2514H973.672V61.9403H967.672ZM970.672 89.2514H1017.95V83.2514H970.672V89.2514ZM1014.95 86.2514V104H1020.95V86.2514H1014.95ZM1017.95 101H949.145V107H1017.95V101Z" fill="white" mask="url(#path-1-outside-1_1_20)"/>
</svg>
