<svg width="1509" height="490" viewBox="0 0 1509 490" fill="none" xmlns="http://www.w3.org/2000/svg">
<g clip-path="url(#clip0_53_628)">
<rect width="1509" height="490" fill="black"/>
<path d="M42.2376 81.7273H127.571L217.699 301.614H221.534L311.662 81.7273H396.996V409H329.88V195.985H327.163L242.468 407.402H196.765L112.071 195.186H109.354V409H42.2376V81.7273ZM651.654 81.7273H720.847V294.263C720.847 318.126 715.148 339.007 703.749 356.905C692.456 374.803 676.636 388.759 656.288 398.773C635.94 408.68 612.236 413.634 585.176 413.634C558.01 413.634 534.253 408.68 513.905 398.773C493.557 388.759 477.737 374.803 466.444 356.905C455.151 339.007 449.505 318.126 449.505 294.263V81.7273H518.699V288.35C518.699 300.815 521.416 311.894 526.849 321.589C532.389 331.283 540.166 338.901 550.18 344.44C560.194 349.98 571.86 352.75 585.176 352.75C598.6 352.75 610.265 349.98 620.173 344.44C630.187 338.901 637.911 331.283 643.344 321.589C648.884 311.894 651.654 300.815 651.654 288.35V81.7273ZM950.816 175.85C949.537 162.96 944.051 152.945 934.356 145.808C924.662 138.67 911.505 135.101 894.885 135.101C883.593 135.101 874.058 136.699 866.281 139.895C858.504 142.984 852.538 147.299 848.383 152.839C844.335 158.379 842.311 164.664 842.311 171.695C842.098 177.555 843.323 182.668 845.986 187.036C848.756 191.404 852.538 195.186 857.332 198.382C862.126 201.472 867.666 204.188 873.951 206.532C880.237 208.769 886.949 210.687 894.086 212.285L923.49 219.316C937.765 222.512 950.869 226.773 962.801 232.1C974.733 237.427 985.066 243.979 993.802 251.756C1002.54 259.533 1009.3 268.695 1014.1 279.241C1019 289.788 1021.5 301.88 1021.61 315.516C1021.5 335.545 1016.39 352.91 1006.27 367.612C996.252 382.207 981.764 393.553 962.801 401.649C943.944 409.639 921.199 413.634 894.566 413.634C868.145 413.634 845.134 409.586 825.532 401.489C806.036 393.393 790.801 381.408 779.828 365.534C768.962 349.554 763.262 329.792 762.73 306.248H829.686C830.432 317.221 833.575 326.383 839.115 333.734C844.761 340.978 852.272 346.464 861.647 350.193C871.128 353.815 881.835 355.626 893.767 355.626C905.485 355.626 915.659 353.922 924.289 350.513C933.025 347.104 939.789 342.363 944.583 336.29C949.377 330.218 951.775 323.24 951.775 315.357C951.775 308.006 949.591 301.827 945.223 296.82C940.961 291.812 934.676 287.551 926.366 284.036C918.163 280.52 908.096 277.324 896.164 274.447L860.528 265.499C832.936 258.787 811.15 248.293 795.169 234.018C779.189 219.742 771.252 200.513 771.359 176.33C771.252 156.514 776.526 139.202 787.179 124.394C797.939 109.586 812.694 98.027 831.444 89.7173C850.194 81.4077 871.501 77.2528 895.365 77.2528C919.654 77.2528 940.855 81.4077 958.966 89.7173C977.183 98.027 991.352 109.586 1001.47 124.394C1011.59 139.202 1016.81 156.354 1017.13 175.85H950.816ZM1132.84 81.7273V409H1063.65V81.7273H1132.84ZM1474.03 196.305H1404.04C1402.76 187.249 1400.15 179.206 1396.21 172.175C1392.27 165.037 1387.21 158.964 1381.03 153.957C1374.85 148.95 1367.71 145.115 1359.62 142.452C1351.63 139.788 1342.94 138.457 1333.57 138.457C1316.63 138.457 1301.87 142.665 1289.3 151.081C1276.73 159.391 1266.98 171.536 1260.06 187.516C1253.13 203.389 1249.67 222.672 1249.67 245.364C1249.67 268.695 1253.13 288.297 1260.06 304.17C1267.09 320.044 1276.89 332.029 1289.46 340.126C1302.03 348.222 1316.58 352.271 1333.09 352.271C1342.36 352.271 1350.93 351.045 1358.82 348.595C1366.81 346.145 1373.89 342.576 1380.07 337.888C1386.25 333.094 1391.36 327.288 1395.41 320.47C1399.57 313.652 1402.44 305.875 1404.04 297.139L1474.03 297.459C1472.22 312.48 1467.69 326.969 1460.45 340.925C1453.31 354.774 1443.67 367.185 1431.53 378.158C1419.49 389.025 1405.11 397.654 1388.38 404.046C1371.76 410.332 1352.96 413.474 1331.97 413.474C1302.78 413.474 1276.68 406.869 1253.67 393.659C1230.76 380.449 1212.65 361.326 1199.34 336.29C1186.12 311.255 1179.52 280.946 1179.52 245.364C1179.52 209.675 1186.23 179.313 1199.65 154.277C1213.08 129.241 1231.3 110.172 1254.31 97.0682C1277.32 83.8579 1303.21 77.2528 1331.97 77.2528C1350.93 77.2528 1368.51 79.9162 1384.7 85.2429C1401 90.5696 1415.44 98.3466 1428.01 108.574C1440.58 118.695 1450.81 131.106 1458.69 145.808C1466.68 160.509 1471.8 177.342 1474.03 196.305Z" fill="white"/>
</g>
<defs>
<clipPath id="clip0_53_628">
<rect width="1509" height="490" fill="white"/>
</clipPath>
</defs>
</svg>
