<svg width="829" height="204" viewBox="0 0 829 204" fill="none" xmlns="http://www.w3.org/2000/svg">
<mask id="path-1-outside-1_1_24" maskUnits="userSpaceOnUse" x="-3" y="-3" width="836" height="210" fill="black">
<rect fill="white" x="-3" y="-3" width="836" height="210"/>
<path d="M0.650432 0.36363H53.747L109.827 137.182H112.213L168.292 0.36363H221.389V204H179.628V71.4574H177.937L125.239 203.006H96.801L44.1021 70.9602H42.4118V204H0.650432V0.36363ZM240.061 204V0.36363H377.277V35.8608H283.115V84.3835H370.218V119.881H283.115V168.503H377.675V204H240.061ZM466.894 204H394.707V0.36363H467.491C487.974 0.36363 505.606 4.44034 520.388 12.5938C535.171 20.6809 546.539 32.3144 554.494 47.4943C562.514 62.6742 566.525 80.8371 566.525 101.983C566.525 123.195 562.514 141.424 554.494 156.67C546.539 171.917 535.104 183.616 520.19 191.77C505.341 199.923 487.576 204 466.894 204ZM437.761 167.111H465.104C477.832 167.111 488.537 164.857 497.221 160.349C505.971 155.776 512.533 148.716 516.908 139.17C521.35 129.559 523.57 117.163 523.57 101.983C523.57 86.9356 521.35 74.6392 516.908 65.0938C512.533 55.5483 506.004 48.5218 497.32 44.0142C488.637 39.5066 477.931 37.2528 465.204 37.2528H437.761V167.111ZM624.672 0.36363V204H581.618V0.36363H624.672ZM678.394 204H632.257L702.556 0.36363H758.039L828.237 204H782.101L731.093 46.8977H729.502L678.394 204ZM675.51 123.957H784.487V157.565H675.51V123.957Z"/>
</mask>
<path d="M0.650432 0.36363H53.747L109.827 137.182H112.213L168.292 0.36363H221.389V204H179.628V71.4574H177.937L125.239 203.006H96.801L44.1021 70.9602H42.4118V204H0.650432V0.36363ZM240.061 204V0.36363H377.277V35.8608H283.115V84.3835H370.218V119.881H283.115V168.503H377.675V204H240.061ZM466.894 204H394.707V0.36363H467.491C487.974 0.36363 505.606 4.44034 520.388 12.5938C535.171 20.6809 546.539 32.3144 554.494 47.4943C562.514 62.6742 566.525 80.8371 566.525 101.983C566.525 123.195 562.514 141.424 554.494 156.67C546.539 171.917 535.104 183.616 520.19 191.77C505.341 199.923 487.576 204 466.894 204ZM437.761 167.111H465.104C477.832 167.111 488.537 164.857 497.221 160.349C505.971 155.776 512.533 148.716 516.908 139.17C521.35 129.559 523.57 117.163 523.57 101.983C523.57 86.9356 521.35 74.6392 516.908 65.0938C512.533 55.5483 506.004 48.5218 497.32 44.0142C488.637 39.5066 477.931 37.2528 465.204 37.2528H437.761V167.111ZM624.672 0.36363V204H581.618V0.36363H624.672ZM678.394 204H632.257L702.556 0.36363H758.039L828.237 204H782.101L731.093 46.8977H729.502L678.394 204ZM675.51 123.957H784.487V157.565H675.51V123.957Z" fill="white" fill-opacity="0.88"/>
<path d="M0.650432 0.36363V-2.63637H-2.34957V0.36363H0.650432ZM53.747 0.36363L56.5229 -0.774153L55.7596 -2.63637H53.747V0.36363ZM109.827 137.182L107.051 138.32L107.814 140.182H109.827V137.182ZM112.213 137.182V140.182H114.226L114.989 138.32L112.213 137.182ZM168.292 0.36363V-2.63637H166.28L165.517 -0.774153L168.292 0.36363ZM221.389 0.36363H224.389V-2.63637H221.389V0.36363ZM221.389 204V207H224.389V204H221.389ZM179.628 204H176.628V207H179.628V204ZM179.628 71.4574H182.628V68.4574H179.628V71.4574ZM177.937 71.4574V68.4574H175.907L175.153 70.3418L177.937 71.4574ZM125.239 203.006V206.006H127.268L128.023 204.121L125.239 203.006ZM96.801 203.006L94.0147 204.118L94.7682 206.006H96.801V203.006ZM44.1021 70.9602L46.8884 69.8482L46.1349 67.9602H44.1021V70.9602ZM42.4118 70.9602V67.9602H39.4118V70.9602H42.4118ZM42.4118 204V207H45.4118V204H42.4118ZM0.650432 204H-2.34957V207H0.650432V204ZM0.650432 3.36363H53.747V-2.63637H0.650432V3.36363ZM50.9712 1.50141L107.051 138.32L112.602 136.044L56.5229 -0.774153L50.9712 1.50141ZM109.827 140.182H112.213V134.182H109.827V140.182ZM114.989 138.32L171.068 1.50141L165.517 -0.774153L109.437 136.044L114.989 138.32ZM168.292 3.36363H221.389V-2.63637H168.292V3.36363ZM218.389 0.36363V204H224.389V0.36363H218.389ZM221.389 201H179.628V207H221.389V201ZM182.628 204V71.4574H176.628V204H182.628ZM179.628 68.4574H177.937V74.4574H179.628V68.4574ZM175.153 70.3418L122.454 201.89L128.023 204.121L180.722 72.573L175.153 70.3418ZM125.239 200.006H96.801V206.006H125.239V200.006ZM99.5873 201.894L46.8884 69.8482L41.3158 72.0722L94.0147 204.118L99.5873 201.894ZM44.1021 67.9602H42.4118V73.9602H44.1021V67.9602ZM39.4118 70.9602V204H45.4118V70.9602H39.4118ZM42.4118 201H0.650432V207H42.4118V201ZM3.65043 204V0.36363H-2.34957V204H3.65043ZM240.061 204H237.061V207H240.061V204ZM240.061 0.36363V-2.63637H237.061V0.36363H240.061ZM377.277 0.36363H380.277V-2.63637H377.277V0.36363ZM377.277 35.8608V38.8608H380.277V35.8608H377.277ZM283.115 35.8608V32.8608H280.115V35.8608H283.115ZM283.115 84.3835H280.115V87.3835H283.115V84.3835ZM370.218 84.3835H373.218V81.3835H370.218V84.3835ZM370.218 119.881V122.881H373.218V119.881H370.218ZM283.115 119.881V116.881H280.115V119.881H283.115ZM283.115 168.503H280.115V171.503H283.115V168.503ZM377.675 168.503H380.675V165.503H377.675V168.503ZM377.675 204V207H380.675V204H377.675ZM243.061 204V0.36363H237.061V204H243.061ZM240.061 3.36363H377.277V-2.63637H240.061V3.36363ZM374.277 0.36363V35.8608H380.277V0.36363H374.277ZM377.277 32.8608H283.115V38.8608H377.277V32.8608ZM280.115 35.8608V84.3835H286.115V35.8608H280.115ZM283.115 87.3835H370.218V81.3835H283.115V87.3835ZM367.218 84.3835V119.881H373.218V84.3835H367.218ZM370.218 116.881H283.115V122.881H370.218V116.881ZM280.115 119.881V168.503H286.115V119.881H280.115ZM283.115 171.503H377.675V165.503H283.115V171.503ZM374.675 168.503V204H380.675V168.503H374.675ZM377.675 201H240.061V207H377.675V201ZM394.707 204H391.707V207H394.707V204ZM394.707 0.36363V-2.63637H391.707V0.36363H394.707ZM520.388 12.5938L518.94 15.2207L518.949 15.2256L520.388 12.5938ZM554.494 47.4943L551.836 48.8868L551.841 48.8958L554.494 47.4943ZM554.494 156.67L551.839 155.274L551.834 155.283L554.494 156.67ZM520.19 191.77L518.751 189.138L518.746 189.14L520.19 191.77ZM437.761 167.111H434.761V170.111H437.761V167.111ZM497.221 160.349L498.603 163.012L498.611 163.008L497.221 160.349ZM516.908 139.17L514.185 137.912L514.181 137.92L516.908 139.17ZM516.908 65.0938L514.181 66.3437L514.185 66.3515L514.188 66.3593L516.908 65.0938ZM497.32 44.0142L498.702 41.3515L498.702 41.3515L497.32 44.0142ZM437.761 37.2528V34.2528H434.761V37.2528H437.761ZM466.894 201H394.707V207H466.894V201ZM397.707 204V0.36363H391.707V204H397.707ZM394.707 3.36363H467.491V-2.63637H394.707V3.36363ZM467.491 3.36363C487.574 3.36363 504.687 7.35909 518.94 15.2207L521.837 9.96685C506.526 1.52158 488.373 -2.63637 467.491 -2.63637V3.36363ZM518.949 15.2256C533.202 23.0236 544.151 34.2215 551.836 48.8868L557.151 46.1019C548.927 30.4073 537.139 18.3381 521.828 9.96187L518.949 15.2256ZM551.841 48.8958C559.587 63.555 563.525 81.2141 563.525 101.983H569.525C569.525 80.4602 565.442 61.7935 557.146 46.0928L551.841 48.8958ZM563.525 101.983C563.525 122.819 559.586 140.547 551.839 155.274L557.149 158.067C565.443 142.302 569.525 123.571 569.525 101.983H563.525ZM551.834 155.283C544.151 170.009 533.138 181.273 518.751 189.138L521.629 194.402C537.071 185.96 548.928 173.824 557.153 158.058L551.834 155.283ZM518.746 189.14C504.427 197.003 487.182 201 466.894 201V207C487.97 207 506.255 202.844 521.634 194.4L518.746 189.14ZM437.761 170.111H465.104V164.111H437.761V170.111ZM465.104 170.111C478.173 170.111 489.383 167.798 498.603 163.012L495.839 157.687C487.691 161.916 477.49 164.111 465.104 164.111V170.111ZM498.611 163.008C507.989 158.106 515.002 150.53 519.636 140.42L514.181 137.92C510.065 146.902 503.953 153.445 495.831 157.691L498.611 163.008ZM519.632 140.429C524.317 130.29 526.57 117.423 526.57 101.983H520.57C520.57 116.903 518.383 128.827 514.185 137.912L519.632 140.429ZM526.57 101.983C526.57 86.6726 524.316 73.9023 519.628 63.8282L514.188 66.3593C518.384 75.3761 520.57 87.1986 520.57 101.983H526.57ZM519.636 63.8438C515.004 53.7383 508.024 46.1903 498.702 41.3515L495.938 46.6768C503.984 50.8533 510.063 57.3583 514.181 66.3437L519.636 63.8438ZM498.702 41.3515C489.483 36.5658 478.272 34.2528 465.204 34.2528V40.2528C477.59 40.2528 487.79 42.4475 495.938 46.6768L498.702 41.3515ZM465.204 34.2528H437.761V40.2528H465.204V34.2528ZM434.761 37.2528V167.111H440.761V37.2528H434.761ZM624.672 0.36363H627.672V-2.63637H624.672V0.36363ZM624.672 204V207H627.672V204H624.672ZM581.618 204H578.618V207H581.618V204ZM581.618 0.36363V-2.63637H578.618V0.36363H581.618ZM621.672 0.36363V204H627.672V0.36363H621.672ZM624.672 201H581.618V207H624.672V201ZM584.618 204V0.36363H578.618V204H584.618ZM581.618 3.36363H624.672V-2.63637H581.618V3.36363ZM678.394 204V207H680.572L681.246 204.928L678.394 204ZM632.257 204L629.421 203.021L628.048 207H632.257V204ZM702.556 0.36363V-2.63637H700.417L699.72 -0.615323L702.556 0.36363ZM758.039 0.36363L760.875 -0.614086L760.178 -2.63637H758.039V0.36363ZM828.237 204V207H832.445L831.074 203.022L828.237 204ZM782.101 204L779.248 204.926L779.921 207H782.101V204ZM731.093 46.8977L733.946 45.9713L733.273 43.8977H731.093V46.8977ZM729.502 46.8977V43.8977H727.323L726.649 45.9696L729.502 46.8977ZM675.51 123.957V120.957H672.51V123.957H675.51ZM784.487 123.957H787.487V120.957H784.487V123.957ZM784.487 157.565V160.565H787.487V157.565H784.487ZM675.51 157.565H672.51V160.565H675.51V157.565ZM678.394 201H632.257V207H678.394V201ZM635.093 204.979L705.391 1.34258L699.72 -0.615323L629.421 203.021L635.093 204.979ZM702.556 3.36363H758.039V-2.63637H702.556V3.36363ZM755.202 1.34135L825.401 204.978L831.074 203.022L760.875 -0.614086L755.202 1.34135ZM828.237 201H782.101V207H828.237V201ZM784.954 203.074L733.946 45.9713L728.239 47.8242L779.248 204.926L784.954 203.074ZM731.093 43.8977H729.502V49.8977H731.093V43.8977ZM726.649 45.9696L675.541 203.072L681.246 204.928L732.354 47.8258L726.649 45.9696ZM675.51 126.957H784.487V120.957H675.51V126.957ZM781.487 123.957V157.565H787.487V123.957H781.487ZM784.487 154.565H675.51V160.565H784.487V154.565ZM678.51 157.565V123.957H672.51V157.565H678.51Z" fill="white" mask="url(#path-1-outside-1_1_24)"/>
</svg>
