<svg width="1300" height="106" viewBox="0 0 1300 106" fill="none" xmlns="http://www.w3.org/2000/svg">
<mask id="path-1-outside-1_1_28" maskUnits="userSpaceOnUse" x="-3" y="-3" width="1306" height="112" fill="black">
<rect fill="white" x="-3" y="-3" width="1306" height="112"/>
<path d="M59.1994 31.4645C58.8017 27.4541 57.0948 24.3385 54.0787 22.1179C51.0626 19.8972 46.9693 18.7869 41.7988 18.7869C38.2856 18.7869 35.3192 19.2841 32.8997 20.2784C30.4802 21.2396 28.6241 22.5819 27.3315 24.3054C26.072 26.0289 25.4423 27.9844 25.4423 30.1719C25.376 31.9948 25.7572 33.5857 26.5858 34.9446C27.4475 36.3035 28.6241 37.4801 30.1156 38.4744C31.6071 39.4356 33.3306 40.2808 35.2861 41.0099C37.2415 41.706 39.3296 42.3026 41.5503 42.7997L50.698 44.9872C55.1393 45.9815 59.216 47.3073 62.9281 48.9645C66.6402 50.6217 69.8552 52.66 72.573 55.0795C75.2908 57.4991 77.3954 60.3494 78.8869 63.6307C80.4115 66.9119 81.1904 70.6738 81.2236 74.9162C81.1904 81.1473 79.5995 86.5497 76.4508 91.1236C73.3353 95.6643 68.8277 99.1941 62.9281 101.713C57.0616 104.199 49.9854 105.442 41.6994 105.442C33.4797 105.442 26.3206 104.182 20.2221 101.663C14.1568 99.1444 9.41721 95.4157 6.00339 90.4773C2.6227 85.5057 0.849502 79.3575 0.683782 72.0327H21.5147C21.7468 75.4465 22.7245 78.2969 24.448 80.5838C26.2046 82.8376 28.5413 84.5445 31.4579 85.7045C34.4077 86.8314 37.7387 87.3949 41.4508 87.3949C45.0967 87.3949 48.2619 86.8646 50.9466 85.804C53.6644 84.7434 55.769 83.2685 57.2605 81.3793C58.752 79.4901 59.4977 77.3191 59.4977 74.8665C59.4977 72.5795 58.8183 70.6572 57.4594 69.0994C56.1336 67.5417 54.1781 66.2159 51.5929 65.1222C49.0408 64.0284 45.9087 63.0341 42.1966 62.1392L31.1099 59.3551C22.5256 57.267 15.7477 54.0024 10.7761 49.5611C5.80452 45.1198 3.3353 39.1373 3.36844 31.6136C3.3353 25.4489 4.97592 20.063 8.29032 15.456C11.6379 10.849 16.2283 7.25284 22.0616 4.66761C27.895 2.08238 34.5237 0.789769 41.948 0.789769C49.5048 0.789769 56.1005 2.08238 61.7349 4.66761C67.4025 7.25284 71.8107 10.849 74.9594 15.456C78.108 20.063 79.7321 25.3991 79.8315 31.4645H59.1994ZM186.469 53.0909C186.469 64.1941 184.364 73.6402 180.155 81.429C175.979 89.2178 170.278 95.1671 163.052 99.277C155.86 103.354 147.773 105.392 138.791 105.392C129.743 105.392 121.623 103.337 114.43 99.2273C107.238 95.1174 101.554 89.1681 97.3777 81.3793C93.2016 73.5904 91.1135 64.161 91.1135 53.0909C91.1135 41.9877 93.2016 32.5417 97.3777 24.7528C101.554 16.964 107.238 11.0312 114.43 6.95455C121.623 2.84469 129.743 0.789769 138.791 0.789769C147.773 0.789769 155.86 2.84469 163.052 6.95455C170.278 11.0312 175.979 16.964 180.155 24.7528C184.364 32.5417 186.469 41.9877 186.469 53.0909ZM164.643 53.0909C164.643 45.8987 163.566 39.8333 161.412 34.8949C159.291 29.9564 156.291 26.2112 152.413 23.6591C148.535 21.107 143.995 19.831 138.791 19.831C133.587 19.831 129.047 21.107 125.169 23.6591C121.291 26.2112 118.275 29.9564 116.121 34.8949C113.999 39.8333 112.939 45.8987 112.939 53.0909C112.939 60.2831 113.999 66.3485 116.121 71.2869C118.275 76.2254 121.291 79.9706 125.169 82.5227C129.047 85.0748 133.587 86.3509 138.791 86.3509C143.995 86.3509 148.535 85.0748 152.413 82.5227C156.291 79.9706 159.291 76.2254 161.412 71.2869C163.566 66.3485 164.643 60.2831 164.643 53.0909ZM284.778 2.18182V104H266.185L221.888 39.9162H221.142V104H199.615V2.18182H218.507L262.456 66.2159H263.351V2.18182H284.778ZM367.278 35.0938C366.582 32.6742 365.605 30.5365 364.345 28.6804C363.086 26.7912 361.545 25.2003 359.722 23.9077C357.932 22.5819 355.877 21.571 353.557 20.875C351.27 20.179 348.734 19.831 345.95 19.831C340.747 19.831 336.173 21.1236 332.229 23.7088C328.318 26.294 325.269 30.0559 323.081 34.9943C320.894 39.8996 319.8 45.8987 319.8 52.9915C319.8 60.0843 320.877 66.1165 323.031 71.0881C325.186 76.0597 328.235 79.8546 332.179 82.473C336.123 85.0582 340.78 86.3509 346.149 86.3509C351.021 86.3509 355.181 85.4891 358.628 83.7656C362.108 82.009 364.76 79.5398 366.582 76.358C368.439 73.1761 369.367 69.4143 369.367 65.0724L373.742 65.7188H347.492V49.5114H390.098V62.3381C390.098 71.2869 388.209 78.9763 384.43 85.4062C380.652 91.803 375.448 96.7415 368.82 100.222C362.191 103.669 354.601 105.392 346.05 105.392C336.504 105.392 328.119 103.287 320.894 99.0781C313.668 94.8357 308.034 88.8201 303.99 81.0312C299.98 73.2093 297.974 63.929 297.974 53.1903C297.974 44.9375 299.168 37.5795 301.554 31.1165C303.974 24.6203 307.354 19.1184 311.696 14.6108C316.038 10.1032 321.092 6.67282 326.859 4.3196C332.626 1.96638 338.874 0.789769 345.602 0.789769C351.369 0.789769 356.739 1.63494 361.71 3.32528C366.682 4.98248 371.09 7.3357 374.935 10.3849C378.813 13.4342 381.978 17.0634 384.43 21.2727C386.883 25.4489 388.457 30.0559 389.153 35.0938H367.278ZM522.907 37.8281H501.132C500.734 35.0109 499.922 32.5085 498.696 30.321C497.469 28.1004 495.895 26.2112 493.972 24.6534C492.05 23.0956 489.829 21.9025 487.311 21.0739C484.825 20.2453 482.124 19.831 479.207 19.831C473.937 19.831 469.347 21.1402 465.436 23.7585C461.525 26.3437 458.492 30.1222 456.338 35.0938C454.183 40.0322 453.106 46.0312 453.106 53.0909C453.106 60.3494 454.183 66.4479 456.338 71.3864C458.525 76.3248 461.574 80.0535 465.485 82.5724C469.396 85.0914 473.92 86.3509 479.058 86.3509C481.941 86.3509 484.609 85.9697 487.062 85.2074C489.548 84.4451 491.752 83.3348 493.674 81.8764C495.597 80.3849 497.187 78.5786 498.447 76.4574C499.74 74.3362 500.634 71.9167 501.132 69.1989L522.907 69.2983C522.344 73.9716 520.935 78.4792 518.681 82.821C516.461 87.1297 513.461 90.991 509.683 94.4048C505.937 97.7855 501.463 100.47 496.259 102.459C491.089 104.414 485.239 105.392 478.71 105.392C469.628 105.392 461.508 103.337 454.349 99.2273C447.223 95.1174 441.588 89.1681 437.446 81.3793C433.336 73.5904 431.281 64.161 431.281 53.0909C431.281 41.9877 433.369 32.5417 437.545 24.7528C441.721 16.964 447.389 11.0312 454.548 6.95455C461.707 2.84469 469.761 0.789769 478.71 0.789769C484.609 0.789769 490.078 1.61837 495.116 3.27557C500.187 4.93276 504.678 7.35227 508.589 10.5341C512.5 13.6828 515.682 17.544 518.134 22.1179C520.62 26.6918 522.211 31.9285 522.907 37.8281ZM629.109 53.0909C629.109 64.1941 627.005 73.6402 622.795 81.429C618.619 89.2178 612.918 95.1671 605.693 99.277C598.501 103.354 590.414 105.392 581.432 105.392C572.383 105.392 564.263 103.337 557.071 99.2273C549.879 95.1174 544.195 89.1681 540.018 81.3793C535.842 73.5904 533.754 64.161 533.754 53.0909C533.754 41.9877 535.842 32.5417 540.018 24.7528C544.195 16.964 549.879 11.0312 557.071 6.95455C564.263 2.84469 572.383 0.789769 581.432 0.789769C590.414 0.789769 598.501 2.84469 605.693 6.95455C612.918 11.0312 618.619 16.964 622.795 24.7528C627.005 32.5417 629.109 41.9877 629.109 53.0909ZM607.284 53.0909C607.284 45.8987 606.207 39.8333 604.052 34.8949C601.931 29.9564 598.932 26.2112 595.054 23.6591C591.176 21.107 586.635 19.831 581.432 19.831C576.228 19.831 571.687 21.107 567.81 23.6591C563.932 26.2112 560.916 29.9564 558.761 34.8949C556.64 39.8333 555.579 45.8987 555.579 53.0909C555.579 60.2831 556.64 66.3485 558.761 71.2869C560.916 76.2254 563.932 79.9706 567.81 82.5227C571.687 85.0748 576.228 86.3509 581.432 86.3509C586.635 86.3509 591.176 85.0748 595.054 82.5227C598.932 79.9706 601.931 76.2254 604.052 71.2869C606.207 66.3485 607.284 60.2831 607.284 53.0909ZM642.256 104V2.18182H663.783V86.2514H707.433V104H642.256ZM718.889 104V2.18182H740.416V86.2514H784.067V104H718.889ZM795.523 104V2.18182H864.131V19.9304H817.05V44.1918H860.601V61.9403H817.05V86.2514H864.33V104H795.523ZM968.282 37.8281H946.507C946.109 35.0109 945.297 32.5085 944.071 30.321C942.844 28.1004 941.27 26.2112 939.347 24.6534C937.425 23.0956 935.204 21.9025 932.686 21.0739C930.2 20.2453 927.499 19.831 924.582 19.831C919.312 19.831 914.722 21.1402 910.811 23.7585C906.9 26.3437 903.867 30.1222 901.713 35.0938C899.558 40.0322 898.481 46.0312 898.481 53.0909C898.481 60.3494 899.558 66.4479 901.713 71.3864C903.9 76.3248 906.949 80.0535 910.86 82.5724C914.771 85.0914 919.295 86.3509 924.433 86.3509C927.316 86.3509 929.984 85.9697 932.437 85.2074C934.923 84.4451 937.127 83.3348 939.049 81.8764C940.972 80.3849 942.562 78.5786 943.822 76.4574C945.115 74.3362 946.009 71.9167 946.507 69.1989L968.282 69.2983C967.719 73.9716 966.31 78.4792 964.056 82.821C961.836 87.1297 958.836 90.991 955.058 94.4048C951.312 97.7855 946.838 100.47 941.634 102.459C936.464 104.414 930.614 105.392 924.085 105.392C915.003 105.392 906.883 103.337 899.724 99.2273C892.598 95.1174 886.963 89.1681 882.821 81.3793C878.711 73.5904 876.656 64.161 876.656 53.0909C876.656 41.9877 878.744 32.5417 882.92 24.7528C887.096 16.964 892.764 11.0312 899.923 6.95455C907.082 2.84469 915.136 0.789769 924.085 0.789769C929.984 0.789769 935.453 1.61837 940.491 3.27557C945.562 4.93276 950.053 7.35227 953.964 10.5341C957.875 13.6828 961.057 17.544 963.509 22.1179C965.995 26.6918 967.586 31.9285 968.282 37.8281ZM977.041 19.9304V2.18182H1060.66V19.9304H1029.49V104H1008.21V19.9304H977.041ZM1093.16 2.18182V104H1071.63V2.18182H1093.16ZM1201.64 53.0909C1201.64 64.1941 1199.53 73.6402 1195.32 81.429C1191.15 89.2178 1185.45 95.1671 1178.22 99.277C1171.03 103.354 1162.94 105.392 1153.96 105.392C1144.91 105.392 1136.79 103.337 1129.6 99.2273C1122.41 95.1174 1116.72 89.1681 1112.55 81.3793C1108.37 73.5904 1106.28 64.161 1106.28 53.0909C1106.28 41.9877 1108.37 32.5417 1112.55 24.7528C1116.72 16.964 1122.41 11.0312 1129.6 6.95455C1136.79 2.84469 1144.91 0.789769 1153.96 0.789769C1162.94 0.789769 1171.03 2.84469 1178.22 6.95455C1185.45 11.0312 1191.15 16.964 1195.32 24.7528C1199.53 32.5417 1201.64 41.9877 1201.64 53.0909ZM1179.81 53.0909C1179.81 45.8987 1178.74 39.8333 1176.58 34.8949C1174.46 29.9564 1171.46 26.2112 1167.58 23.6591C1163.7 21.107 1159.16 19.831 1153.96 19.831C1148.76 19.831 1144.22 21.107 1140.34 23.6591C1136.46 26.2112 1133.44 29.9564 1131.29 34.8949C1129.17 39.8333 1128.11 45.8987 1128.11 53.0909C1128.11 60.2831 1129.17 66.3485 1131.29 71.2869C1133.44 76.2254 1136.46 79.9706 1140.34 82.5227C1144.22 85.0748 1148.76 86.3509 1153.96 86.3509C1159.16 86.3509 1163.7 85.0748 1167.58 82.5227C1171.46 79.9706 1174.46 76.2254 1176.58 71.2869C1178.74 66.3485 1179.81 60.2831 1179.81 53.0909ZM1299.95 2.18182V104H1281.35L1237.06 39.9162H1236.31V104H1214.78V2.18182H1233.68L1277.63 66.2159H1278.52V2.18182H1299.95Z"/>
</mask>
<path d="M59.1994 31.4645C58.8017 27.4541 57.0948 24.3385 54.0787 22.1179C51.0626 19.8972 46.9693 18.7869 41.7988 18.7869C38.2856 18.7869 35.3192 19.2841 32.8997 20.2784C30.4802 21.2396 28.6241 22.5819 27.3315 24.3054C26.072 26.0289 25.4423 27.9844 25.4423 30.1719C25.376 31.9948 25.7572 33.5857 26.5858 34.9446C27.4475 36.3035 28.6241 37.4801 30.1156 38.4744C31.6071 39.4356 33.3306 40.2808 35.2861 41.0099C37.2415 41.706 39.3296 42.3026 41.5503 42.7997L50.698 44.9872C55.1393 45.9815 59.216 47.3073 62.9281 48.9645C66.6402 50.6217 69.8552 52.66 72.573 55.0795C75.2908 57.4991 77.3954 60.3494 78.8869 63.6307C80.4115 66.9119 81.1904 70.6738 81.2236 74.9162C81.1904 81.1473 79.5995 86.5497 76.4508 91.1236C73.3353 95.6643 68.8277 99.1941 62.9281 101.713C57.0616 104.199 49.9854 105.442 41.6994 105.442C33.4797 105.442 26.3206 104.182 20.2221 101.663C14.1568 99.1444 9.41721 95.4157 6.00339 90.4773C2.6227 85.5057 0.849502 79.3575 0.683782 72.0327H21.5147C21.7468 75.4465 22.7245 78.2969 24.448 80.5838C26.2046 82.8376 28.5413 84.5445 31.4579 85.7045C34.4077 86.8314 37.7387 87.3949 41.4508 87.3949C45.0967 87.3949 48.2619 86.8646 50.9466 85.804C53.6644 84.7434 55.769 83.2685 57.2605 81.3793C58.752 79.4901 59.4977 77.3191 59.4977 74.8665C59.4977 72.5795 58.8183 70.6572 57.4594 69.0994C56.1336 67.5417 54.1781 66.2159 51.5929 65.1222C49.0408 64.0284 45.9087 63.0341 42.1966 62.1392L31.1099 59.3551C22.5256 57.267 15.7477 54.0024 10.7761 49.5611C5.80452 45.1198 3.3353 39.1373 3.36844 31.6136C3.3353 25.4489 4.97592 20.063 8.29032 15.456C11.6379 10.849 16.2283 7.25284 22.0616 4.66761C27.895 2.08238 34.5237 0.789769 41.948 0.789769C49.5048 0.789769 56.1005 2.08238 61.7349 4.66761C67.4025 7.25284 71.8107 10.849 74.9594 15.456C78.108 20.063 79.7321 25.3991 79.8315 31.4645H59.1994ZM186.469 53.0909C186.469 64.1941 184.364 73.6402 180.155 81.429C175.979 89.2178 170.278 95.1671 163.052 99.277C155.86 103.354 147.773 105.392 138.791 105.392C129.743 105.392 121.623 103.337 114.43 99.2273C107.238 95.1174 101.554 89.1681 97.3777 81.3793C93.2016 73.5904 91.1135 64.161 91.1135 53.0909C91.1135 41.9877 93.2016 32.5417 97.3777 24.7528C101.554 16.964 107.238 11.0312 114.43 6.95455C121.623 2.84469 129.743 0.789769 138.791 0.789769C147.773 0.789769 155.86 2.84469 163.052 6.95455C170.278 11.0312 175.979 16.964 180.155 24.7528C184.364 32.5417 186.469 41.9877 186.469 53.0909ZM164.643 53.0909C164.643 45.8987 163.566 39.8333 161.412 34.8949C159.291 29.9564 156.291 26.2112 152.413 23.6591C148.535 21.107 143.995 19.831 138.791 19.831C133.587 19.831 129.047 21.107 125.169 23.6591C121.291 26.2112 118.275 29.9564 116.121 34.8949C113.999 39.8333 112.939 45.8987 112.939 53.0909C112.939 60.2831 113.999 66.3485 116.121 71.2869C118.275 76.2254 121.291 79.9706 125.169 82.5227C129.047 85.0748 133.587 86.3509 138.791 86.3509C143.995 86.3509 148.535 85.0748 152.413 82.5227C156.291 79.9706 159.291 76.2254 161.412 71.2869C163.566 66.3485 164.643 60.2831 164.643 53.0909ZM284.778 2.18182V104H266.185L221.888 39.9162H221.142V104H199.615V2.18182H218.507L262.456 66.2159H263.351V2.18182H284.778ZM367.278 35.0938C366.582 32.6742 365.605 30.5365 364.345 28.6804C363.086 26.7912 361.545 25.2003 359.722 23.9077C357.932 22.5819 355.877 21.571 353.557 20.875C351.27 20.179 348.734 19.831 345.95 19.831C340.747 19.831 336.173 21.1236 332.229 23.7088C328.318 26.294 325.269 30.0559 323.081 34.9943C320.894 39.8996 319.8 45.8987 319.8 52.9915C319.8 60.0843 320.877 66.1165 323.031 71.0881C325.186 76.0597 328.235 79.8546 332.179 82.473C336.123 85.0582 340.78 86.3509 346.149 86.3509C351.021 86.3509 355.181 85.4891 358.628 83.7656C362.108 82.009 364.76 79.5398 366.582 76.358C368.439 73.1761 369.367 69.4143 369.367 65.0724L373.742 65.7188H347.492V49.5114H390.098V62.3381C390.098 71.2869 388.209 78.9763 384.43 85.4062C380.652 91.803 375.448 96.7415 368.82 100.222C362.191 103.669 354.601 105.392 346.05 105.392C336.504 105.392 328.119 103.287 320.894 99.0781C313.668 94.8357 308.034 88.8201 303.99 81.0312C299.98 73.2093 297.974 63.929 297.974 53.1903C297.974 44.9375 299.168 37.5795 301.554 31.1165C303.974 24.6203 307.354 19.1184 311.696 14.6108C316.038 10.1032 321.092 6.67282 326.859 4.3196C332.626 1.96638 338.874 0.789769 345.602 0.789769C351.369 0.789769 356.739 1.63494 361.71 3.32528C366.682 4.98248 371.09 7.3357 374.935 10.3849C378.813 13.4342 381.978 17.0634 384.43 21.2727C386.883 25.4489 388.457 30.0559 389.153 35.0938H367.278ZM522.907 37.8281H501.132C500.734 35.0109 499.922 32.5085 498.696 30.321C497.469 28.1004 495.895 26.2112 493.972 24.6534C492.05 23.0956 489.829 21.9025 487.311 21.0739C484.825 20.2453 482.124 19.831 479.207 19.831C473.937 19.831 469.347 21.1402 465.436 23.7585C461.525 26.3437 458.492 30.1222 456.338 35.0938C454.183 40.0322 453.106 46.0312 453.106 53.0909C453.106 60.3494 454.183 66.4479 456.338 71.3864C458.525 76.3248 461.574 80.0535 465.485 82.5724C469.396 85.0914 473.92 86.3509 479.058 86.3509C481.941 86.3509 484.609 85.9697 487.062 85.2074C489.548 84.4451 491.752 83.3348 493.674 81.8764C495.597 80.3849 497.187 78.5786 498.447 76.4574C499.74 74.3362 500.634 71.9167 501.132 69.1989L522.907 69.2983C522.344 73.9716 520.935 78.4792 518.681 82.821C516.461 87.1297 513.461 90.991 509.683 94.4048C505.937 97.7855 501.463 100.47 496.259 102.459C491.089 104.414 485.239 105.392 478.71 105.392C469.628 105.392 461.508 103.337 454.349 99.2273C447.223 95.1174 441.588 89.1681 437.446 81.3793C433.336 73.5904 431.281 64.161 431.281 53.0909C431.281 41.9877 433.369 32.5417 437.545 24.7528C441.721 16.964 447.389 11.0312 454.548 6.95455C461.707 2.84469 469.761 0.789769 478.71 0.789769C484.609 0.789769 490.078 1.61837 495.116 3.27557C500.187 4.93276 504.678 7.35227 508.589 10.5341C512.5 13.6828 515.682 17.544 518.134 22.1179C520.62 26.6918 522.211 31.9285 522.907 37.8281ZM629.109 53.0909C629.109 64.1941 627.005 73.6402 622.795 81.429C618.619 89.2178 612.918 95.1671 605.693 99.277C598.501 103.354 590.414 105.392 581.432 105.392C572.383 105.392 564.263 103.337 557.071 99.2273C549.879 95.1174 544.195 89.1681 540.018 81.3793C535.842 73.5904 533.754 64.161 533.754 53.0909C533.754 41.9877 535.842 32.5417 540.018 24.7528C544.195 16.964 549.879 11.0312 557.071 6.95455C564.263 2.84469 572.383 0.789769 581.432 0.789769C590.414 0.789769 598.501 2.84469 605.693 6.95455C612.918 11.0312 618.619 16.964 622.795 24.7528C627.005 32.5417 629.109 41.9877 629.109 53.0909ZM607.284 53.0909C607.284 45.8987 606.207 39.8333 604.052 34.8949C601.931 29.9564 598.932 26.2112 595.054 23.6591C591.176 21.107 586.635 19.831 581.432 19.831C576.228 19.831 571.687 21.107 567.81 23.6591C563.932 26.2112 560.916 29.9564 558.761 34.8949C556.64 39.8333 555.579 45.8987 555.579 53.0909C555.579 60.2831 556.64 66.3485 558.761 71.2869C560.916 76.2254 563.932 79.9706 567.81 82.5227C571.687 85.0748 576.228 86.3509 581.432 86.3509C586.635 86.3509 591.176 85.0748 595.054 82.5227C598.932 79.9706 601.931 76.2254 604.052 71.2869C606.207 66.3485 607.284 60.2831 607.284 53.0909ZM642.256 104V2.18182H663.783V86.2514H707.433V104H642.256ZM718.889 104V2.18182H740.416V86.2514H784.067V104H718.889ZM795.523 104V2.18182H864.131V19.9304H817.05V44.1918H860.601V61.9403H817.05V86.2514H864.33V104H795.523ZM968.282 37.8281H946.507C946.109 35.0109 945.297 32.5085 944.071 30.321C942.844 28.1004 941.27 26.2112 939.347 24.6534C937.425 23.0956 935.204 21.9025 932.686 21.0739C930.2 20.2453 927.499 19.831 924.582 19.831C919.312 19.831 914.722 21.1402 910.811 23.7585C906.9 26.3437 903.867 30.1222 901.713 35.0938C899.558 40.0322 898.481 46.0312 898.481 53.0909C898.481 60.3494 899.558 66.4479 901.713 71.3864C903.9 76.3248 906.949 80.0535 910.86 82.5724C914.771 85.0914 919.295 86.3509 924.433 86.3509C927.316 86.3509 929.984 85.9697 932.437 85.2074C934.923 84.4451 937.127 83.3348 939.049 81.8764C940.972 80.3849 942.562 78.5786 943.822 76.4574C945.115 74.3362 946.009 71.9167 946.507 69.1989L968.282 69.2983C967.719 73.9716 966.31 78.4792 964.056 82.821C961.836 87.1297 958.836 90.991 955.058 94.4048C951.312 97.7855 946.838 100.47 941.634 102.459C936.464 104.414 930.614 105.392 924.085 105.392C915.003 105.392 906.883 103.337 899.724 99.2273C892.598 95.1174 886.963 89.1681 882.821 81.3793C878.711 73.5904 876.656 64.161 876.656 53.0909C876.656 41.9877 878.744 32.5417 882.92 24.7528C887.096 16.964 892.764 11.0312 899.923 6.95455C907.082 2.84469 915.136 0.789769 924.085 0.789769C929.984 0.789769 935.453 1.61837 940.491 3.27557C945.562 4.93276 950.053 7.35227 953.964 10.5341C957.875 13.6828 961.057 17.544 963.509 22.1179C965.995 26.6918 967.586 31.9285 968.282 37.8281ZM977.041 19.9304V2.18182H1060.66V19.9304H1029.49V104H1008.21V19.9304H977.041ZM1093.16 2.18182V104H1071.63V2.18182H1093.16ZM1201.64 53.0909C1201.64 64.1941 1199.53 73.6402 1195.32 81.429C1191.15 89.2178 1185.45 95.1671 1178.22 99.277C1171.03 103.354 1162.94 105.392 1153.96 105.392C1144.91 105.392 1136.79 103.337 1129.6 99.2273C1122.41 95.1174 1116.72 89.1681 1112.55 81.3793C1108.37 73.5904 1106.28 64.161 1106.28 53.0909C1106.28 41.9877 1108.37 32.5417 1112.55 24.7528C1116.72 16.964 1122.41 11.0312 1129.6 6.95455C1136.79 2.84469 1144.91 0.789769 1153.96 0.789769C1162.94 0.789769 1171.03 2.84469 1178.22 6.95455C1185.45 11.0312 1191.15 16.964 1195.32 24.7528C1199.53 32.5417 1201.64 41.9877 1201.64 53.0909ZM1179.81 53.0909C1179.81 45.8987 1178.74 39.8333 1176.58 34.8949C1174.46 29.9564 1171.46 26.2112 1167.58 23.6591C1163.7 21.107 1159.16 19.831 1153.96 19.831C1148.76 19.831 1144.22 21.107 1140.34 23.6591C1136.46 26.2112 1133.44 29.9564 1131.29 34.8949C1129.17 39.8333 1128.11 45.8987 1128.11 53.0909C1128.11 60.2831 1129.17 66.3485 1131.29 71.2869C1133.44 76.2254 1136.46 79.9706 1140.34 82.5227C1144.22 85.0748 1148.76 86.3509 1153.96 86.3509C1159.16 86.3509 1163.7 85.0748 1167.58 82.5227C1171.46 79.9706 1174.46 76.2254 1176.58 71.2869C1178.74 66.3485 1179.81 60.2831 1179.81 53.0909ZM1299.95 2.18182V104H1281.35L1237.06 39.9162H1236.31V104H1214.78V2.18182H1233.68L1277.63 66.2159H1278.52V2.18182H1299.95Z" fill="white" fill-opacity="0.88"/>
<path d="M59.1994 31.4645L56.2141 31.7606L56.4822 34.4645H59.1994V31.4645ZM32.8997 20.2784L34.0073 23.0665L34.0237 23.0599L34.04 23.0532L32.8997 20.2784ZM27.3315 24.3054L24.9315 22.5054L24.9203 22.5203L24.9093 22.5353L27.3315 24.3054ZM25.4423 30.1719L28.4403 30.2809L28.4423 30.2264V30.1719H25.4423ZM26.5858 34.9446L24.0244 36.5064L24.0381 36.5289L24.0522 36.5512L26.5858 34.9446ZM30.1156 38.4744L28.4515 40.9706L28.4709 40.9835L28.4905 40.9961L30.1156 38.4744ZM35.2861 41.0099L34.2379 43.8209L34.2589 43.8287L34.2801 43.8362L35.2861 41.0099ZM41.5503 42.7997L42.248 39.882L42.2269 39.8769L42.2057 39.8722L41.5503 42.7997ZM50.698 44.9872L50.0003 47.9049L50.0214 47.91L50.0426 47.9147L50.698 44.9872ZM62.9281 48.9645L61.7051 51.7039L61.7051 51.7039L62.9281 48.9645ZM72.573 55.0795L74.5678 52.8388L74.5678 52.8388L72.573 55.0795ZM78.8869 63.6307L76.1558 64.8721L76.161 64.8835L76.1663 64.8948L78.8869 63.6307ZM81.2236 74.9162L84.2235 74.9321L84.2236 74.9125L84.2235 74.8928L81.2236 74.9162ZM76.4508 91.1236L73.9797 89.4225L73.9771 89.4263L76.4508 91.1236ZM62.9281 101.713L64.0986 104.475L64.1061 104.472L62.9281 101.713ZM20.2221 101.663L19.0715 104.434L19.0769 104.436L20.2221 101.663ZM6.00339 90.4773L3.52261 92.1642L3.52907 92.1737L3.53562 92.1832L6.00339 90.4773ZM0.683782 72.0327V69.0327H-2.38486L-2.31545 72.1005L0.683782 72.0327ZM21.5147 72.0327L24.5078 71.8293L24.3178 69.0327H21.5147V72.0327ZM24.448 80.5838L22.0522 82.3894L22.0668 82.4088L22.0818 82.428L24.448 80.5838ZM31.4579 85.7045L30.3492 88.4922L30.3682 88.4997L30.3873 88.507L31.4579 85.7045ZM50.9466 85.804L49.8559 83.0092L49.8443 83.0138L50.9466 85.804ZM57.2605 81.3793L59.6151 83.2382L59.6151 83.2382L57.2605 81.3793ZM57.4594 69.0994L55.1747 71.0438L55.1866 71.0577L55.1986 71.0715L57.4594 69.0994ZM51.5929 65.1222L50.4111 67.8796L50.424 67.8851L51.5929 65.1222ZM42.1966 62.1392L41.4659 65.0489L41.4797 65.0523L41.4935 65.0557L42.1966 62.1392ZM31.1099 59.3551L31.8406 56.4455L31.8298 56.4427L31.819 56.4401L31.1099 59.3551ZM10.7761 49.5611L8.77747 51.7984L8.77747 51.7984L10.7761 49.5611ZM3.36844 31.6136L6.36841 31.6268L6.36848 31.6122L6.3684 31.5975L3.36844 31.6136ZM8.29032 15.456L5.86335 13.6925L5.85919 13.6982L5.85505 13.704L8.29032 15.456ZM61.7349 4.66761L60.4838 7.39431L60.4899 7.39707L61.7349 4.66761ZM74.9594 15.456L72.4826 17.1487L72.4826 17.1487L74.9594 15.456ZM79.8315 31.4645V34.4645H82.8811L82.8311 31.4153L79.8315 31.4645ZM62.1848 31.1684C61.7103 26.3847 59.6141 22.468 55.8574 19.7021L52.3 24.5337C54.5754 26.2091 55.893 28.5235 56.2141 31.7606L62.1848 31.1684ZM55.8574 19.7021C52.1623 16.9815 47.371 15.7869 41.7988 15.7869V21.7869C46.5676 21.7869 49.9628 22.813 52.3 24.5337L55.8574 19.7021ZM41.7988 15.7869C38.0209 15.7869 34.6417 16.3191 31.7594 17.5036L34.04 23.0532C35.9967 22.2491 38.5503 21.7869 41.7988 21.7869V15.7869ZM31.7921 17.4904C28.9665 18.6129 26.6188 20.2556 24.9315 22.5054L29.7315 26.1054C30.6294 24.9082 31.9939 23.8663 34.0073 23.0665L31.7921 17.4904ZM24.9093 22.5353C23.2645 24.7861 22.4423 27.3649 22.4423 30.1719H28.4423C28.4423 28.6038 28.8795 27.2716 29.7537 26.0754L24.9093 22.5353ZM22.4443 30.0629C22.3598 32.3852 22.8467 34.5749 24.0244 36.5064L29.1472 33.3828C28.6677 32.5965 28.3922 31.6044 28.4403 30.2809L22.4443 30.0629ZM24.0522 36.5512C25.1628 38.3025 26.6512 39.7704 28.4515 40.9706L31.7797 35.9783C30.5971 35.1899 29.7322 34.3045 29.1193 33.338L24.0522 36.5512ZM28.4905 40.9961C30.1918 42.0925 32.1146 43.0291 34.2379 43.8209L36.3342 38.199C34.5465 37.5324 33.0224 36.7787 31.7407 35.9527L28.4905 40.9961ZM34.2801 43.8362C36.3606 44.5768 38.5666 45.206 40.8948 45.7272L42.2057 39.8722C40.0926 39.3991 38.1225 38.8352 36.292 38.1836L34.2801 43.8362ZM40.8525 45.7174L50.0003 47.9049L51.3957 42.0695L42.248 39.882L40.8525 45.7174ZM50.0426 47.9147C54.3117 48.8705 58.1956 50.1371 61.7051 51.7039L64.1511 46.2251C60.2363 44.4774 55.9669 43.0926 51.3534 42.0597L50.0426 47.9147ZM61.7051 51.7039C65.1685 53.25 68.1158 55.1281 70.5782 57.3203L74.5678 52.8388C71.5946 50.192 68.1119 47.9933 64.1511 46.2251L61.7051 51.7039ZM70.5782 57.3203C72.9867 59.4644 74.8391 61.9754 76.1558 64.8721L81.618 62.3893C79.9517 58.7235 77.5949 55.5337 74.5678 52.8388L70.5782 57.3203ZM76.1663 64.8948C77.4817 67.7258 78.1933 71.0527 78.2236 74.9396L84.2235 74.8928C84.1875 70.2949 83.3414 66.098 81.6076 62.3665L76.1663 64.8948ZM78.2236 74.9002C78.1933 80.6056 76.7462 85.4039 73.9798 89.4225L78.9219 92.8247C82.4528 87.6955 84.1876 81.6889 84.2235 74.9321L78.2236 74.9002ZM73.9771 89.4263C71.2341 93.4241 67.2138 96.6212 61.7501 98.954L64.1061 104.472C70.4416 101.767 75.4365 97.9045 78.9245 92.8209L73.9771 89.4263ZM61.7577 98.9508C56.3546 101.24 49.6986 102.442 41.6994 102.442V108.442C50.2722 108.442 57.7686 107.157 64.0985 104.475L61.7577 98.9508ZM41.6994 102.442C33.7793 102.442 27.0254 101.228 21.3674 98.8906L19.0769 104.436C25.6159 107.137 33.1801 108.442 41.6994 108.442V102.442ZM21.3728 98.8928C15.7876 96.5733 11.5267 93.1915 8.47115 88.7714L3.53562 92.1832C7.30772 97.6399 12.526 101.716 19.0715 104.434L21.3728 98.8928ZM8.48416 88.7903C5.4937 84.3926 3.83853 78.8386 3.68301 71.9648L-2.31545 72.1005C-2.13953 79.8764 -0.248293 86.6188 3.52261 92.1642L8.48416 88.7903ZM0.683782 75.0327H21.5147V69.0327H0.683782V75.0327ZM18.5217 72.2361C18.7853 76.1158 19.9151 79.5536 22.0522 82.3894L26.8438 78.7783C25.5339 77.0402 24.7082 74.7771 24.5078 71.8293L18.5217 72.2361ZM22.0818 82.428C24.198 85.1431 26.9872 87.155 30.3492 88.4922L32.5666 82.9169C30.0953 81.934 28.2112 80.5321 26.8142 78.7396L22.0818 82.428ZM30.3873 88.507C33.7333 89.7852 37.4358 90.3949 41.4508 90.3949V84.3949C38.0416 84.3949 35.0822 83.8776 32.5285 82.9021L30.3873 88.507ZM41.4508 90.3949C45.3787 90.3949 48.9343 89.8246 52.0489 88.5941L49.8443 83.0138C47.5895 83.9046 44.8146 84.3949 41.4508 84.3949V90.3949ZM52.0372 88.5987C55.1467 87.3852 57.7294 85.6268 59.6151 83.2382L54.9058 79.5203C53.8086 80.9101 52.182 82.1015 49.8559 83.0092L52.0372 88.5987ZM59.6151 83.2382C61.5331 80.8087 62.4977 77.9798 62.4977 74.8665H56.4977C56.4977 76.6584 55.9708 78.1714 54.9058 79.5203L59.6151 83.2382ZM62.4977 74.8665C62.4977 71.9373 61.6074 69.2909 59.7201 67.1273L55.1986 71.0715C56.0291 72.0235 56.4977 73.2218 56.4977 74.8665H62.4977ZM59.744 67.1551C58.0239 65.134 55.6259 63.571 52.7618 62.3593L50.424 67.8851C52.7303 68.8608 54.2433 69.9493 55.1747 71.0438L59.744 67.1551ZM52.7746 62.3647C50.0224 61.1852 46.7194 60.1436 42.8996 59.2228L41.4935 65.0557C45.098 65.9246 48.0591 66.8716 50.4111 67.8796L52.7746 62.3647ZM42.9272 59.2295L31.8406 56.4455L30.3792 62.2648L41.4659 65.0489L42.9272 59.2295ZM31.819 56.4401C23.5637 54.4321 17.2786 51.3473 12.7748 47.3238L8.77747 51.7984C14.2168 56.6575 21.4875 60.102 30.4009 62.2701L31.819 56.4401ZM12.7748 47.3238C8.52998 43.5318 6.33851 38.4145 6.36841 31.6268L0.368471 31.6004C0.332084 39.8601 3.07906 46.7078 8.77747 51.7984L12.7748 47.3238ZM6.3684 31.5975C6.33835 26.0092 7.81395 21.2551 10.7256 17.208L5.85505 13.704C2.1379 18.8708 0.332242 24.8885 0.368485 31.6298L6.3684 31.5975ZM10.7173 17.2194C13.7182 13.0895 17.8674 9.80785 23.2771 7.41033L20.8461 1.92489C14.5892 4.69783 9.55755 8.6084 5.86335 13.6925L10.7173 17.2194ZM23.2771 7.41033C28.6701 5.02025 34.8745 3.78977 41.948 3.78977V-2.21023C34.173 -2.21023 27.1198 -0.855482 20.8461 1.92489L23.2771 7.41033ZM41.948 3.78977C49.1656 3.78977 55.3181 5.02414 60.4839 7.3943L62.986 1.94092C56.8828 -0.859377 49.844 -2.21023 41.948 -2.21023V3.78977ZM60.4899 7.39707C65.7196 9.78253 69.6772 13.0441 72.4826 17.1487L77.4361 13.7632C73.9441 8.65381 69.0855 4.72315 62.9799 1.93815L60.4899 7.39707ZM72.4826 17.1487C75.2709 21.2286 76.7412 25.9822 76.8319 31.5137L82.8311 31.4153C82.7229 24.8161 80.9451 18.8974 77.4361 13.7632L72.4826 17.1487ZM79.8315 28.4645H59.1994V34.4645H79.8315V28.4645ZM180.155 81.429L177.515 80.0027L177.511 80.0114L180.155 81.429ZM163.052 99.277L164.532 101.887L164.536 101.885L163.052 99.277ZM114.43 99.2273L115.919 96.6225L114.43 99.2273ZM97.3777 81.3793L94.7338 82.7969L94.7338 82.7969L97.3777 81.3793ZM97.3777 24.7528L100.022 26.1704L100.022 26.1704L97.3777 24.7528ZM114.43 6.95455L115.91 9.56446L115.919 9.55928L114.43 6.95455ZM163.052 6.95455L161.564 9.55927L161.571 9.56333L161.578 9.56735L163.052 6.95455ZM180.155 24.7528L177.511 26.1705L177.515 26.1792L180.155 24.7528ZM161.412 34.8949L158.655 36.0789L158.659 36.0867L158.662 36.0944L161.412 34.8949ZM152.413 23.6591L150.764 26.1651L150.764 26.1651L152.413 23.6591ZM125.169 23.6591L126.818 26.1651L126.818 26.1651L125.169 23.6591ZM116.121 34.8949L113.371 33.6953L113.368 33.7031L113.364 33.7109L116.121 34.8949ZM116.121 71.2869L113.364 72.4709L113.368 72.4787L113.371 72.4865L116.121 71.2869ZM125.169 82.5227L126.818 80.0167L126.818 80.0167L125.169 82.5227ZM152.413 82.5227L150.764 80.0167L150.764 80.0167L152.413 82.5227ZM161.412 71.2869L158.662 70.0874L158.659 70.0951L158.655 70.1029L161.412 71.2869ZM183.469 53.0909C183.469 63.8203 181.435 72.7496 177.515 80.0027L182.794 82.8553C187.293 74.5307 189.469 64.5679 189.469 53.0909H183.469ZM177.511 80.0114C173.584 87.335 168.272 92.8568 161.569 96.6693L164.536 101.885C172.284 97.4775 178.373 91.1006 182.799 82.8466L177.511 80.0114ZM161.573 96.6671C154.871 100.466 147.301 102.392 138.791 102.392V108.392C148.246 108.392 156.85 106.241 164.532 101.887L161.573 96.6671ZM138.791 102.392C130.215 102.392 122.616 100.45 115.919 96.6225L112.942 101.832C120.629 106.224 129.27 108.392 138.791 108.392V102.392ZM115.919 96.6225C109.248 92.811 103.95 87.2888 100.022 79.9617L94.7338 82.7969C99.1575 91.0474 105.228 97.4239 112.942 101.832L115.919 96.6225ZM100.022 79.9617C96.1311 72.7054 94.1135 63.7889 94.1135 53.0909H88.1135C88.1135 64.533 90.2721 74.4755 94.7338 82.7969L100.022 79.9617ZM94.1135 53.0909C94.1135 42.358 96.1317 33.4255 100.022 26.1704L94.7338 23.3352C90.2715 31.6578 88.1135 41.6173 88.1135 53.0909H94.1135ZM100.022 26.1704C103.949 18.8451 109.245 13.3422 115.91 9.56444L112.951 4.34465C105.231 8.72028 99.1584 15.0829 94.7338 23.3352L100.022 26.1704ZM115.919 9.55928C122.616 5.73197 130.215 3.78977 138.791 3.78977V-2.21023C129.27 -2.21023 120.629 -0.0425836 112.942 4.34982L115.919 9.55928ZM138.791 3.78977C147.296 3.78977 154.863 5.73006 161.564 9.55927L164.541 4.34982C156.858 -0.0406674 148.25 -2.21023 138.791 -2.21023V3.78977ZM161.578 9.56735C168.276 13.3461 173.585 18.8486 177.511 26.1704L182.799 23.3352C178.372 15.0794 172.28 8.71639 164.527 4.34174L161.578 9.56735ZM177.515 26.1792C181.435 33.4322 183.469 42.3615 183.469 53.0909H189.469C189.469 41.6139 187.293 31.6511 182.794 23.3265L177.515 26.1792ZM167.643 53.0909C167.643 45.6168 166.526 39.1161 164.162 33.6953L158.662 36.0944C160.606 40.5505 161.643 46.1805 161.643 53.0909H167.643ZM164.168 33.7109C161.853 28.3202 158.505 24.0765 154.062 21.1531L150.764 26.1651C154.078 28.3458 156.728 31.5927 158.655 36.0789L164.168 33.7109ZM154.062 21.1531C149.637 18.2407 144.508 16.831 138.791 16.831V22.831C143.482 22.831 147.434 23.9733 150.764 26.1651L154.062 21.1531ZM138.791 16.831C133.075 16.831 127.945 18.2407 123.52 21.1531L126.818 26.1651C130.148 23.9733 134.1 22.831 138.791 22.831V16.831ZM123.52 21.1531C119.082 24.0736 115.72 28.3115 113.371 33.6953L118.87 36.0944C120.83 31.6014 123.5 28.3488 126.818 26.1651L123.52 21.1531ZM113.364 33.7109C111.038 39.1269 109.939 45.6218 109.939 53.0909H115.939C115.939 46.1756 116.961 40.5398 118.877 36.0789L113.364 33.7109ZM109.939 53.0909C109.939 60.56 111.038 67.0549 113.364 72.4709L118.877 70.1029C116.961 65.642 115.939 60.0062 115.939 53.0909H109.939ZM113.371 72.4865C115.72 77.8703 119.082 82.1083 123.52 85.0287L126.818 80.0167C123.5 77.833 120.83 74.5805 118.87 70.0874L113.371 72.4865ZM123.52 85.0287C127.945 87.9411 133.075 89.3509 138.791 89.3509V83.3509C134.1 83.3509 130.148 82.2085 126.818 80.0167L123.52 85.0287ZM138.791 89.3509C144.508 89.3509 149.637 87.9411 154.062 85.0287L150.764 80.0167C147.434 82.2085 143.482 83.3509 138.791 83.3509V89.3509ZM154.062 85.0287C158.505 82.1053 161.853 77.8617 164.168 72.4709L158.655 70.1029C156.728 74.5891 154.078 77.836 150.764 80.0167L154.062 85.0287ZM164.162 72.4865C166.526 67.0657 167.643 60.565 167.643 53.0909H161.643C161.643 60.0013 160.606 65.6313 158.662 70.0874L164.162 72.4865ZM284.778 2.18182H287.778V-0.818185H284.778V2.18182ZM284.778 104V107H287.778V104H284.778ZM266.185 104L263.717 105.706L264.611 107H266.185V104ZM221.888 39.9162L224.356 38.2104L223.461 36.9162H221.888V39.9162ZM221.142 39.9162V36.9162H218.142V39.9162H221.142ZM221.142 104V107H224.142V104H221.142ZM199.615 104H196.615V107H199.615V104ZM199.615 2.18182V-0.818185H196.615V2.18182H199.615ZM218.507 2.18182L220.981 0.484185L220.087 -0.818185H218.507V2.18182ZM262.456 66.2159L259.982 67.9135L260.876 69.2159H262.456V66.2159ZM263.351 66.2159V69.2159H266.351V66.2159H263.351ZM263.351 2.18182V-0.818185H260.351V2.18182H263.351ZM281.778 2.18182V104H287.778V2.18182H281.778ZM284.778 101H266.185V107H284.778V101ZM268.652 102.294L224.356 38.2104L219.42 41.622L263.717 105.706L268.652 102.294ZM221.888 36.9162H221.142V42.9162H221.888V36.9162ZM218.142 39.9162V104H224.142V39.9162H218.142ZM221.142 101H199.615V107H221.142V101ZM202.615 104V2.18182H196.615V104H202.615ZM199.615 5.18182H218.507V-0.818185H199.615V5.18182ZM216.034 3.87944L259.982 67.9135L264.929 64.5183L220.981 0.484185L216.034 3.87944ZM262.456 69.2159H263.351V63.2159H262.456V69.2159ZM266.351 66.2159V2.18182H260.351V66.2159H266.351ZM263.351 5.18182H284.778V-0.818185H263.351V5.18182ZM367.278 35.0938L364.395 35.9231L365.02 38.0938H367.278V35.0938ZM364.345 28.6804L361.849 30.3445L361.856 30.3547L361.863 30.3649L364.345 28.6804ZM359.722 23.9077L357.936 26.3183L357.961 26.3369L357.986 26.3549L359.722 23.9077ZM353.557 20.875L352.683 23.745L352.695 23.7485L353.557 20.875ZM332.229 23.7088L330.584 21.1997L330.574 21.2061L332.229 23.7088ZM323.081 34.9943L325.821 36.2162L325.824 36.2093L323.081 34.9943ZM323.031 71.0881L325.784 69.8952L323.031 71.0881ZM332.179 82.473L330.52 84.9724L330.527 84.9772L330.534 84.9821L332.179 82.473ZM358.628 83.7656L359.97 86.4489L359.98 86.4438L358.628 83.7656ZM366.582 76.358L363.991 74.8463L363.985 74.8565L363.979 74.8666L366.582 76.358ZM369.367 65.0724L369.805 62.1046L366.367 61.5967V65.0724H369.367ZM373.742 65.7188V68.7188L374.18 62.751L373.742 65.7188ZM347.492 65.7188H344.492V68.7188H347.492V65.7188ZM347.492 49.5114V46.5114H344.492V49.5114H347.492ZM390.098 49.5114H393.098V46.5114H390.098V49.5114ZM384.43 85.4062L387.014 86.932L387.017 86.9261L384.43 85.4062ZM368.82 100.222L370.204 102.883L370.214 102.878L368.82 100.222ZM320.894 99.0781L319.375 101.665L319.383 101.67L320.894 99.0781ZM303.99 81.0312L301.321 82.4L301.324 82.4068L301.328 82.4135L303.99 81.0312ZM301.554 31.1165L298.743 30.0694L298.74 30.0774L301.554 31.1165ZM311.696 14.6108L313.857 16.692L313.857 16.692L311.696 14.6108ZM326.859 4.3196L325.726 1.54194L325.726 1.54194L326.859 4.3196ZM361.71 3.32528L360.745 6.1656L360.753 6.16849L360.762 6.17133L361.71 3.32528ZM374.935 10.3849L373.071 12.7355L373.08 12.7432L374.935 10.3849ZM384.43 21.2727L381.838 22.7831L381.844 22.792L384.43 21.2727ZM389.153 35.0938V38.0938H392.596L392.125 34.6832L389.153 35.0938ZM370.162 34.2644C369.389 31.5773 368.285 29.144 366.828 26.9959L361.863 30.3649C362.924 31.9289 363.776 33.7712 364.395 35.9231L370.162 34.2644ZM366.841 27.0163C365.382 24.8267 363.584 22.9688 361.457 21.4605L357.986 26.3549C359.505 27.4317 360.79 28.7557 361.849 30.3445L366.841 27.0163ZM361.507 21.497C359.415 19.9474 357.042 18.7885 354.419 18.0015L352.695 23.7485C354.712 24.3535 356.448 25.2164 357.936 26.3183L361.507 21.497ZM354.43 18.005C351.818 17.21 348.983 16.831 345.95 16.831V22.831C348.486 22.831 350.722 23.148 352.683 23.745L354.43 18.005ZM345.95 16.831C340.225 16.831 335.067 18.2615 330.584 21.1997L333.873 26.2179C337.279 23.9857 341.268 22.831 345.95 22.831V16.831ZM330.574 21.2061C326.116 24.1536 322.722 28.398 320.338 33.7793L325.824 36.2093C327.815 31.7137 330.52 28.4345 333.883 26.2115L330.574 21.2061ZM320.341 33.7725C317.937 39.1645 316.8 45.6062 316.8 52.9915H322.8C322.8 46.1912 323.85 40.6347 325.821 36.2162L320.341 33.7725ZM316.8 52.9915C316.8 60.3737 317.919 66.8358 320.279 72.2809L325.784 69.8952C323.835 65.3972 322.8 59.7948 322.8 52.9915H316.8ZM320.279 72.2809C322.629 77.7056 326.026 81.9888 330.52 84.9724L333.838 79.9736C330.444 77.7204 327.742 74.4138 325.784 69.8952L320.279 72.2809ZM330.534 84.9821C335.033 87.9304 340.279 89.3509 346.149 89.3509V83.3509C341.281 83.3509 337.214 82.1861 333.824 79.964L330.534 84.9821ZM346.149 89.3509C351.367 89.3509 356.011 88.4283 359.97 86.4489L357.286 81.0823C354.351 82.5499 350.675 83.3509 346.149 83.3509V89.3509ZM359.98 86.4438C363.949 84.4401 367.052 81.5734 369.186 77.8493L363.979 74.8666C362.467 77.5062 360.267 79.5779 357.276 81.0875L359.98 86.4438ZM369.174 77.8696C371.342 74.1528 372.367 69.8498 372.367 65.0724H366.367C366.367 68.9788 365.535 72.1994 363.991 74.8463L369.174 77.8696ZM368.928 68.0402L373.303 68.6865L374.18 62.751L369.805 62.1046L368.928 68.0402ZM373.742 62.7188H347.492V68.7188H373.742V62.7188ZM350.492 65.7188V49.5114H344.492V65.7188H350.492ZM347.492 52.5114H390.098V46.5114H347.492V52.5114ZM387.098 49.5114V62.3381H393.098V49.5114H387.098ZM387.098 62.3381C387.098 70.8596 385.302 78.0015 381.844 83.8864L387.017 86.9261C391.116 79.9511 393.098 71.7142 393.098 62.3381H387.098ZM381.847 83.8805C378.355 89.7935 373.564 94.3423 367.425 97.5654L370.214 102.878C377.332 99.1407 382.949 93.8126 387.013 86.932L381.847 83.8805ZM367.436 97.5599C361.292 100.754 354.189 102.392 346.05 102.392V108.392C355.013 108.392 363.089 106.583 370.204 102.883L367.436 97.5599ZM346.05 102.392C336.959 102.392 329.109 100.392 322.404 96.4859L319.383 101.67C327.129 106.183 336.05 108.392 346.05 108.392V102.392ZM322.413 96.4911C315.698 92.5485 310.449 86.9615 306.653 79.649L301.328 82.4135C305.618 90.6786 311.639 97.1229 319.375 101.665L322.413 96.4911ZM306.66 79.6625C302.909 72.3479 300.974 63.557 300.974 53.1903H294.974C294.974 64.3009 297.05 74.0707 301.321 82.4L306.66 79.6625ZM300.974 53.1903C300.974 45.2238 302.126 38.2274 304.368 32.1556L298.74 30.0774C296.209 36.9317 294.974 44.6512 294.974 53.1903H300.974ZM304.365 32.1636C306.657 26.0113 309.83 20.8727 313.857 16.692L309.535 12.5296C304.879 17.364 301.29 23.2292 298.743 30.0694L304.365 32.1636ZM313.857 16.692C317.91 12.4842 322.615 9.29169 327.993 7.09725L325.726 1.54194C319.57 4.05394 314.166 7.72227 309.535 12.5296L313.857 16.692ZM327.993 7.09725C333.372 4.90229 339.231 3.78977 345.602 3.78977V-2.21023C338.517 -2.21023 331.881 -0.96953 325.726 1.54194L327.993 7.09725ZM345.602 3.78977C351.073 3.78977 356.113 4.59086 360.745 6.1656L362.676 0.484965C357.364 -1.32098 351.666 -2.21023 345.602 -2.21023V3.78977ZM360.762 6.17133C365.424 7.72552 369.518 9.91784 373.071 12.7354L376.799 8.03445C372.662 4.75356 367.94 2.23944 362.659 0.479233L360.762 6.17133ZM373.08 12.7432C376.665 15.5618 379.578 18.9046 381.838 22.7831L387.023 19.7624C384.377 15.2223 380.96 11.3065 376.789 8.02668L373.08 12.7432ZM381.844 22.792C384.086 26.6106 385.537 30.8378 386.182 35.5043L392.125 34.6832C391.378 29.2739 389.68 24.2871 387.017 19.7535L381.844 22.792ZM389.153 32.0938H367.278V38.0938H389.153V32.0938ZM522.907 37.8281V40.8281H526.282L525.886 37.4766L522.907 37.8281ZM501.132 37.8281L498.161 38.2475L498.525 40.8281H501.132V37.8281ZM498.696 30.321L496.069 31.7713L496.074 31.7797L496.079 31.788L498.696 30.321ZM493.972 24.6534L492.084 26.9842L492.084 26.9842L493.972 24.6534ZM487.311 21.0739L486.362 23.9199L486.373 23.9236L487.311 21.0739ZM465.436 23.7585L467.09 26.2612L467.097 26.2563L467.105 26.2514L465.436 23.7585ZM456.338 35.0938L459.087 36.2933L459.09 36.2866L456.338 35.0938ZM456.338 71.3864L453.588 72.5859L453.591 72.5936L453.595 72.6014L456.338 71.3864ZM465.485 82.5724L463.861 85.0946L463.861 85.0946L465.485 82.5724ZM487.062 85.2074L486.182 82.3392L486.172 82.3426L487.062 85.2074ZM493.674 81.8764L495.487 84.2665L495.5 84.2567L495.513 84.2467L493.674 81.8764ZM498.447 76.4574L495.885 74.8963L495.876 74.911L495.867 74.9258L498.447 76.4574ZM501.132 69.1989L501.145 66.1989L498.633 66.1874L498.181 68.659L501.132 69.1989ZM522.907 69.2983L525.886 69.6574L526.289 66.3137L522.921 66.2983L522.907 69.2983ZM518.681 82.821L516.019 81.4389L516.015 81.4467L518.681 82.821ZM509.683 94.4048L511.693 96.6318L511.694 96.6308L509.683 94.4048ZM496.259 102.459L497.321 105.265L497.33 105.261L496.259 102.459ZM454.349 99.2273L452.85 101.826L452.855 101.829L454.349 99.2273ZM437.446 81.3793L434.792 82.7793L434.797 82.7881L437.446 81.3793ZM437.545 24.7528L440.189 26.1704L440.189 26.1704L437.545 24.7528ZM454.548 6.95455L456.032 9.56152L456.041 9.55631L454.548 6.95455ZM495.116 3.27557L494.179 6.12535L494.184 6.12716L495.116 3.27557ZM508.589 10.5341L506.696 12.8612L506.702 12.8661L506.708 12.8709L508.589 10.5341ZM518.134 22.1179L515.491 23.5356L515.495 23.543L515.499 23.5504L518.134 22.1179ZM522.907 34.8281H501.132V40.8281H522.907V34.8281ZM504.102 37.4088C503.659 34.2725 502.743 31.4064 501.312 28.854L496.079 31.788C497.1 33.6106 497.808 35.7493 498.161 38.2475L504.102 37.4088ZM501.322 28.8708C499.913 26.3206 498.091 24.1298 495.861 22.3226L492.084 26.9842C493.698 28.2925 495.025 29.8802 496.069 31.7713L501.322 28.8708ZM495.861 22.3226C493.636 20.5195 491.088 19.1583 488.248 18.2241L486.373 23.9236C488.571 24.6466 490.464 25.6717 492.084 26.9842L495.861 22.3226ZM488.259 18.2278C485.435 17.2864 482.41 16.831 479.207 16.831V22.831C481.837 22.831 484.214 23.2041 486.362 23.9199L488.259 18.2278ZM479.207 16.831C473.416 16.831 468.229 18.2779 463.767 21.2656L467.105 26.2514C470.464 24.0024 474.458 22.831 479.207 22.831V16.831ZM463.781 21.2559C459.313 24.2096 455.934 28.4806 453.585 33.9009L459.09 36.2866C461.05 31.7637 463.736 28.4779 467.09 26.2612L463.781 21.2559ZM453.588 33.8942C451.226 39.3089 450.106 45.7406 450.106 53.0909H456.106C456.106 46.3219 457.141 40.7555 459.087 36.2933L453.588 33.8942ZM450.106 53.0909C450.106 60.6269 451.222 67.1621 453.588 72.5859L459.087 70.1868C457.145 65.7337 456.106 60.072 456.106 53.0909H450.106ZM453.595 72.6014C455.98 77.9871 459.382 82.2099 463.861 85.0946L467.11 80.0503C463.767 77.8971 461.07 74.6626 459.08 70.1714L453.595 72.6014ZM463.861 85.0946C468.306 87.9576 473.407 89.3509 479.058 89.3509V83.3509C474.434 83.3509 470.486 82.2252 467.11 80.0503L463.861 85.0946ZM479.058 89.3509C482.207 89.3509 485.179 88.9344 487.952 88.0722L486.172 82.3426C484.04 83.005 481.676 83.3509 479.058 83.3509V89.3509ZM487.942 88.0755C490.738 87.218 493.263 85.9537 495.487 84.2665L491.861 79.4863C490.24 80.7158 488.358 81.6722 486.182 82.3392L487.942 88.0755ZM495.513 84.2467C497.737 82.5213 499.578 80.4291 501.026 77.989L495.867 74.9258C494.797 76.7281 493.456 78.2486 491.835 79.5062L495.513 84.2467ZM501.009 78.0185C502.513 75.5503 503.527 72.7774 504.083 69.7387L498.181 68.659C497.742 71.0559 496.966 73.1221 495.885 74.8963L501.009 78.0185ZM501.118 72.1988L522.893 72.2983L522.921 66.2983L501.145 66.1989L501.118 72.1988ZM519.929 68.9392C519.41 73.2413 518.113 77.4036 516.019 81.4389L521.344 84.2032C523.757 79.5547 525.277 74.7018 525.886 69.6574L519.929 68.9392ZM516.015 81.4467C513.968 85.4183 511.196 88.9947 507.672 92.1788L511.694 96.6308C515.727 92.9873 518.954 88.8411 521.348 84.1954L516.015 81.4467ZM507.673 92.1779C504.229 95.2859 500.082 97.7863 495.188 99.6565L497.33 105.261C502.844 103.154 507.646 100.285 511.693 96.6318L507.673 92.1779ZM495.198 99.6528C490.422 101.459 484.941 102.392 478.71 102.392V108.392C485.537 108.392 491.756 107.37 497.321 105.265L495.198 99.6528ZM478.71 102.392C470.098 102.392 462.503 100.449 455.843 96.6255L452.855 101.829C460.513 106.225 469.158 108.392 478.71 108.392V102.392ZM455.848 96.6285C449.245 92.8202 443.993 87.3002 440.094 79.9704L434.797 82.7881C439.184 91.036 445.201 97.4147 452.85 101.826L455.848 96.6285ZM440.099 79.9792C436.268 72.7188 434.281 63.7958 434.281 53.0909H428.281C428.281 64.5261 430.404 74.462 434.792 82.7793L440.099 79.9792ZM434.281 53.0909C434.281 42.358 436.299 33.4255 440.189 26.1704L434.901 23.3352C430.439 31.6578 428.281 41.6173 428.281 53.0909H434.281ZM440.189 26.1704C444.118 18.8415 449.4 13.3383 456.032 9.5615L453.063 4.34759C445.378 8.72418 439.324 15.0865 434.901 23.3352L440.189 26.1704ZM456.041 9.55631C462.708 5.72911 470.24 3.78977 478.71 3.78977V-2.21023C469.282 -2.21023 460.706 -0.039719 453.054 4.35279L456.041 9.55631ZM478.71 3.78977C484.326 3.78977 489.475 4.57817 494.179 6.12534L496.053 0.425788C490.681 -1.34143 484.892 -2.21023 478.71 -2.21023V3.78977ZM494.184 6.12716C498.926 7.67672 503.087 9.925 506.696 12.8612L510.482 8.20695C506.269 4.77954 501.448 2.1888 496.048 0.423973L494.184 6.12716ZM506.708 12.8709C510.295 15.7589 513.221 19.3039 515.491 23.5356L520.778 20.7002C518.142 15.7841 514.705 11.6067 510.47 8.19729L506.708 12.8709ZM515.499 23.5504C517.778 27.7451 519.27 32.6059 519.928 38.1796L525.886 37.4766C525.152 31.2511 523.462 25.6384 520.77 20.6854L515.499 23.5504ZM622.795 81.429L620.156 80.0027L620.151 80.0114L622.795 81.429ZM605.693 99.277L607.172 101.887L607.176 101.885L605.693 99.277ZM557.071 99.2273L558.559 96.6225L557.071 99.2273ZM540.018 81.3793L537.374 82.7969L537.374 82.7969L540.018 81.3793ZM540.018 24.7528L542.662 26.1704L542.662 26.1704L540.018 24.7528ZM557.071 6.95455L558.55 9.56446L558.559 9.55928L557.071 6.95455ZM605.693 6.95455L604.205 9.55927L604.212 9.56333L604.219 9.56735L605.693 6.95455ZM622.795 24.7528L620.151 26.1705L620.156 26.1792L622.795 24.7528ZM604.052 34.8949L601.296 36.0789L601.299 36.0867L601.303 36.0944L604.052 34.8949ZM595.054 23.6591L593.405 26.1651L593.405 26.1651L595.054 23.6591ZM567.81 23.6591L569.459 26.1651L569.459 26.1651L567.81 23.6591ZM558.761 34.8949L556.012 33.6953L556.008 33.7031L556.005 33.7109L558.761 34.8949ZM558.761 71.2869L556.005 72.4709L556.008 72.4787L556.012 72.4865L558.761 71.2869ZM567.81 82.5227L569.459 80.0167L569.459 80.0167L567.81 82.5227ZM595.054 82.5227L593.405 80.0167L593.405 80.0167L595.054 82.5227ZM604.052 71.2869L601.303 70.0874L601.299 70.0951L601.296 70.1029L604.052 71.2869ZM626.109 53.0909C626.109 63.8203 624.076 72.7496 620.156 80.0027L625.435 82.8553C629.933 74.5307 632.109 64.5679 632.109 53.0909H626.109ZM620.151 80.0114C616.225 87.335 610.912 92.8568 604.21 96.6693L607.176 101.885C614.924 97.4775 621.014 91.1006 625.439 82.8466L620.151 80.0114ZM604.214 96.6671C597.511 100.466 589.941 102.392 581.432 102.392V108.392C590.886 108.392 599.491 106.241 607.172 101.887L604.214 96.6671ZM581.432 102.392C572.856 102.392 565.257 100.45 558.559 96.6225L555.583 101.832C563.269 106.224 571.911 108.392 581.432 108.392V102.392ZM558.559 96.6225C551.889 92.811 546.591 87.2888 542.662 79.9617L537.374 82.7969C541.798 91.0474 547.868 97.4239 555.583 101.832L558.559 96.6225ZM542.662 79.9617C538.772 72.7054 536.754 63.7889 536.754 53.0909H530.754C530.754 64.533 532.913 74.4755 537.374 82.7969L542.662 79.9617ZM536.754 53.0909C536.754 42.358 538.772 33.4255 542.662 26.1704L537.374 23.3352C532.912 31.6578 530.754 41.6173 530.754 53.0909H536.754ZM542.662 26.1704C546.59 18.8451 551.885 13.3422 558.55 9.56444L555.592 4.34465C547.872 8.72028 541.799 15.0829 537.374 23.3352L542.662 26.1704ZM558.559 9.55928C565.257 5.73197 572.856 3.78977 581.432 3.78977V-2.21023C571.911 -2.21023 563.269 -0.0425836 555.583 4.34982L558.559 9.55928ZM581.432 3.78977C589.937 3.78977 597.504 5.73006 604.205 9.55927L607.182 4.34982C599.498 -0.0406674 590.89 -2.21023 581.432 -2.21023V3.78977ZM604.219 9.56735C610.916 13.3461 616.226 18.8486 620.151 26.1704L625.439 23.3352C621.013 15.0794 614.921 8.71639 607.167 4.34174L604.219 9.56735ZM620.156 26.1792C624.076 33.4322 626.109 42.3615 626.109 53.0909H632.109C632.109 41.6139 629.933 31.6511 625.435 23.3265L620.156 26.1792ZM610.284 53.0909C610.284 45.6168 609.167 39.1161 606.802 33.6953L601.303 36.0944C603.247 40.5505 604.284 46.1805 604.284 53.0909H610.284ZM606.809 33.7109C604.493 28.3202 601.145 24.0765 596.703 21.1531L593.405 26.1651C596.718 28.3458 599.369 31.5927 601.296 36.0789L606.809 33.7109ZM596.703 21.1531C592.278 18.2407 587.148 16.831 581.432 16.831V22.831C586.122 22.831 590.074 23.9733 593.405 26.1651L596.703 21.1531ZM581.432 16.831C575.715 16.831 570.586 18.2407 566.16 21.1531L569.459 26.1651C572.789 23.9733 576.741 22.831 581.432 22.831V16.831ZM566.16 21.1531C561.723 24.0736 558.36 28.3115 556.012 33.6953L561.511 36.0944C563.471 31.6014 566.141 28.3488 569.459 26.1651L566.16 21.1531ZM556.005 33.7109C553.678 39.1269 552.579 45.6218 552.579 53.0909H558.579C558.579 46.1756 559.602 40.5398 561.518 36.0789L556.005 33.7109ZM552.579 53.0909C552.579 60.56 553.678 67.0549 556.005 72.4709L561.518 70.1029C559.602 65.642 558.579 60.0062 558.579 53.0909H552.579ZM556.012 72.4865C558.36 77.8703 561.723 82.1083 566.16 85.0287L569.459 80.0167C566.141 77.833 563.471 74.5805 561.511 70.0874L556.012 72.4865ZM566.16 85.0287C570.586 87.9411 575.715 89.3509 581.432 89.3509V83.3509C576.741 83.3509 572.789 82.2085 569.459 80.0167L566.16 85.0287ZM581.432 89.3509C587.148 89.3509 592.278 87.9411 596.703 85.0287L593.405 80.0167C590.074 82.2085 586.122 83.3509 581.432 83.3509V89.3509ZM596.703 85.0287C601.145 82.1053 604.493 77.8617 606.809 72.4709L601.296 70.1029C599.369 74.5891 596.718 77.836 593.405 80.0167L596.703 85.0287ZM606.802 72.4865C609.167 67.0657 610.284 60.565 610.284 53.0909H604.284C604.284 60.0013 603.247 65.6313 601.303 70.0874L606.802 72.4865ZM642.256 104H639.256V107H642.256V104ZM642.256 2.18182V-0.818185H639.256V2.18182H642.256ZM663.783 2.18182H666.783V-0.818185H663.783V2.18182ZM663.783 86.2514H660.783V89.2514H663.783V86.2514ZM707.433 86.2514H710.433V83.2514H707.433V86.2514ZM707.433 104V107H710.433V104H707.433ZM645.256 104V2.18182H639.256V104H645.256ZM642.256 5.18182H663.783V-0.818185H642.256V5.18182ZM660.783 2.18182V86.2514H666.783V2.18182H660.783ZM663.783 89.2514H707.433V83.2514H663.783V89.2514ZM704.433 86.2514V104H710.433V86.2514H704.433ZM707.433 101H642.256V107H707.433V101ZM718.889 104H715.889V107H718.889V104ZM718.889 2.18182V-0.818185H715.889V2.18182H718.889ZM740.416 2.18182H743.416V-0.818185H740.416V2.18182ZM740.416 86.2514H737.416V89.2514H740.416V86.2514ZM784.067 86.2514H787.067V83.2514H784.067V86.2514ZM784.067 104V107H787.067V104H784.067ZM721.889 104V2.18182H715.889V104H721.889ZM718.889 5.18182H740.416V-0.818185H718.889V5.18182ZM737.416 2.18182V86.2514H743.416V2.18182H737.416ZM740.416 89.2514H784.067V83.2514H740.416V89.2514ZM781.067 86.2514V104H787.067V86.2514H781.067ZM784.067 101H718.889V107H784.067V101ZM795.523 104H792.523V107H795.523V104ZM795.523 2.18182V-0.818185H792.523V2.18182H795.523ZM864.131 2.18182H867.131V-0.818185H864.131V2.18182ZM864.131 19.9304V22.9304H867.131V19.9304H864.131ZM817.05 19.9304V16.9304H814.05V19.9304H817.05ZM817.05 44.1918H814.05V47.1918H817.05V44.1918ZM860.601 44.1918H863.601V41.1918H860.601V44.1918ZM860.601 61.9403V64.9403H863.601V61.9403H860.601ZM817.05 61.9403V58.9403H814.05V61.9403H817.05ZM817.05 86.2514H814.05V89.2514H817.05V86.2514ZM864.33 86.2514H867.33V83.2514H864.33V86.2514ZM864.33 104V107H867.33V104H864.33ZM798.523 104V2.18182H792.523V104H798.523ZM795.523 5.18182H864.131V-0.818185H795.523V5.18182ZM861.131 2.18182V19.9304H867.131V2.18182H861.131ZM864.131 16.9304H817.05V22.9304H864.131V16.9304ZM814.05 19.9304V44.1918H820.05V19.9304H814.05ZM817.05 47.1918H860.601V41.1918H817.05V47.1918ZM857.601 44.1918V61.9403H863.601V44.1918H857.601ZM860.601 58.9403H817.05V64.9403H860.601V58.9403ZM814.05 61.9403V86.2514H820.05V61.9403H814.05ZM817.05 89.2514H864.33V83.2514H817.05V89.2514ZM861.33 86.2514V104H867.33V86.2514H861.33ZM864.33 101H795.523V107H864.33V101ZM968.282 37.8281V40.8281H971.657L971.261 37.4766L968.282 37.8281ZM946.507 37.8281L943.536 38.2475L943.9 40.8281H946.507V37.8281ZM944.071 30.321L941.444 31.7713L941.449 31.7797L941.454 31.788L944.071 30.321ZM939.347 24.6534L937.459 26.9842L937.459 26.9842L939.347 24.6534ZM932.686 21.0739L931.737 23.9199L931.748 23.9236L932.686 21.0739ZM910.811 23.7585L912.465 26.2612L912.472 26.2563L912.48 26.2514L910.811 23.7585ZM901.713 35.0938L904.462 36.2933L904.465 36.2866L901.713 35.0938ZM901.713 71.3864L898.963 72.5859L898.966 72.5936L898.97 72.6014L901.713 71.3864ZM910.86 82.5724L909.236 85.0946L909.236 85.0946L910.86 82.5724ZM932.437 85.2074L931.557 82.3392L931.547 82.3426L932.437 85.2074ZM939.049 81.8764L940.862 84.2665L940.875 84.2567L940.888 84.2467L939.049 81.8764ZM943.822 76.4574L941.26 74.8963L941.251 74.911L941.242 74.9258L943.822 76.4574ZM946.507 69.1989L946.52 66.1989L944.008 66.1874L943.556 68.659L946.507 69.1989ZM968.282 69.2983L971.261 69.6574L971.664 66.3137L968.296 66.2983L968.282 69.2983ZM964.056 82.821L961.394 81.4389L961.39 81.4467L964.056 82.821ZM955.058 94.4048L957.068 96.6318L957.069 96.6308L955.058 94.4048ZM941.634 102.459L942.696 105.265L942.705 105.261L941.634 102.459ZM899.724 99.2273L898.225 101.826L898.23 101.829L899.724 99.2273ZM882.821 81.3793L880.167 82.7793L880.172 82.7881L882.821 81.3793ZM882.92 24.7528L885.564 26.1704L885.564 26.1704L882.92 24.7528ZM899.923 6.95455L901.407 9.56152L901.416 9.55631L899.923 6.95455ZM940.491 3.27557L939.554 6.12535L939.559 6.12716L940.491 3.27557ZM953.964 10.5341L952.071 12.8612L952.077 12.8661L952.083 12.8709L953.964 10.5341ZM963.509 22.1179L960.866 23.5356L960.87 23.543L960.874 23.5504L963.509 22.1179ZM968.282 34.8281H946.507V40.8281H968.282V34.8281ZM949.477 37.4088C949.034 34.2725 948.118 31.4064 946.687 28.854L941.454 31.788C942.475 33.6106 943.183 35.7493 943.536 38.2475L949.477 37.4088ZM946.697 28.8708C945.288 26.3206 943.466 24.1298 941.236 22.3226L937.459 26.9842C939.073 28.2925 940.4 29.8802 941.444 31.7713L946.697 28.8708ZM941.236 22.3226C939.011 20.5195 936.463 19.1583 933.623 18.2241L931.748 23.9236C933.946 24.6466 935.839 25.6717 937.459 26.9842L941.236 22.3226ZM933.634 18.2278C930.81 17.2864 927.785 16.831 924.582 16.831V22.831C927.212 22.831 929.589 23.2041 931.737 23.9199L933.634 18.2278ZM924.582 16.831C918.791 16.831 913.604 18.2779 909.142 21.2656L912.48 26.2514C915.839 24.0024 919.833 22.831 924.582 22.831V16.831ZM909.156 21.2559C904.688 24.2096 901.309 28.4806 898.96 33.9009L904.465 36.2866C906.425 31.7637 909.111 28.4779 912.465 26.2612L909.156 21.2559ZM898.963 33.8942C896.601 39.3089 895.481 45.7406 895.481 53.0909H901.481C901.481 46.3219 902.516 40.7555 904.462 36.2933L898.963 33.8942ZM895.481 53.0909C895.481 60.6269 896.597 67.1621 898.963 72.5859L904.462 70.1868C902.52 65.7337 901.481 60.072 901.481 53.0909H895.481ZM898.97 72.6014C901.355 77.9871 904.757 82.2099 909.236 85.0946L912.485 80.0503C909.142 77.8971 906.445 74.6626 904.455 70.1714L898.97 72.6014ZM909.236 85.0946C913.681 87.9576 918.782 89.3509 924.433 89.3509V83.3509C919.809 83.3509 915.861 82.2252 912.485 80.0503L909.236 85.0946ZM924.433 89.3509C927.582 89.3509 930.554 88.9344 933.327 88.0722L931.547 82.3426C929.415 83.005 927.051 83.3509 924.433 83.3509V89.3509ZM933.317 88.0755C936.113 87.218 938.638 85.9537 940.862 84.2665L937.236 79.4863C935.615 80.7158 933.733 81.6722 931.557 82.3392L933.317 88.0755ZM940.888 84.2467C943.112 82.5213 944.953 80.4291 946.401 77.989L941.242 74.9258C940.172 76.7281 938.831 78.2486 937.21 79.5062L940.888 84.2467ZM946.384 78.0185C947.888 75.5503 948.902 72.7774 949.458 69.7387L943.556 68.659C943.117 71.0559 942.341 73.1221 941.26 74.8963L946.384 78.0185ZM946.493 72.1988L968.268 72.2983L968.296 66.2983L946.52 66.1989L946.493 72.1988ZM965.304 68.9392C964.785 73.2413 963.488 77.4036 961.394 81.4389L966.719 84.2032C969.132 79.5547 970.652 74.7018 971.261 69.6574L965.304 68.9392ZM961.39 81.4467C959.343 85.4183 956.571 88.9947 953.047 92.1788L957.069 96.6308C961.102 92.9873 964.329 88.8411 966.723 84.1954L961.39 81.4467ZM953.048 92.1779C949.604 95.2859 945.457 97.7863 940.563 99.6565L942.705 105.261C948.219 103.154 953.021 100.285 957.068 96.6318L953.048 92.1779ZM940.573 99.6528C935.797 101.459 930.316 102.392 924.085 102.392V108.392C930.912 108.392 937.131 107.37 942.696 105.265L940.573 99.6528ZM924.085 102.392C915.473 102.392 907.878 100.449 901.218 96.6255L898.23 101.829C905.888 106.225 914.533 108.392 924.085 108.392V102.392ZM901.223 96.6285C894.62 92.8202 889.368 87.3002 885.469 79.9704L880.172 82.7881C884.559 91.036 890.576 97.4147 898.225 101.826L901.223 96.6285ZM885.474 79.9792C881.643 72.7188 879.656 63.7958 879.656 53.0909H873.656C873.656 64.5261 875.779 74.462 880.167 82.7793L885.474 79.9792ZM879.656 53.0909C879.656 42.358 881.674 33.4255 885.564 26.1704L880.276 23.3352C875.814 31.6578 873.656 41.6173 873.656 53.0909H879.656ZM885.564 26.1704C889.493 18.8415 894.775 13.3383 901.407 9.5615L898.438 4.34759C890.753 8.72418 884.699 15.0865 880.276 23.3352L885.564 26.1704ZM901.416 9.55631C908.083 5.72911 915.615 3.78977 924.085 3.78977V-2.21023C914.657 -2.21023 906.081 -0.039719 898.429 4.35279L901.416 9.55631ZM924.085 3.78977C929.701 3.78977 934.85 4.57817 939.554 6.12534L941.428 0.425788C936.056 -1.34143 930.267 -2.21023 924.085 -2.21023V3.78977ZM939.559 6.12716C944.301 7.67672 948.462 9.925 952.071 12.8612L955.857 8.20695C951.644 4.77954 946.823 2.1888 941.423 0.423973L939.559 6.12716ZM952.083 12.8709C955.67 15.7589 958.596 19.3039 960.866 23.5356L966.153 20.7002C963.517 15.7841 960.08 11.6067 955.845 8.19729L952.083 12.8709ZM960.874 23.5504C963.153 27.7451 964.645 32.6059 965.303 38.1796L971.261 37.4766C970.527 31.2511 968.837 25.6384 966.145 20.6854L960.874 23.5504ZM977.041 19.9304H974.041V22.9304H977.041V19.9304ZM977.041 2.18182V-0.818185H974.041V2.18182H977.041ZM1060.66 2.18182H1063.66V-0.818185H1060.66V2.18182ZM1060.66 19.9304V22.9304H1063.66V19.9304H1060.66ZM1029.49 19.9304V16.9304H1026.49V19.9304H1029.49ZM1029.49 104V107H1032.49V104H1029.49ZM1008.21 104H1005.21V107H1008.21V104ZM1008.21 19.9304H1011.21V16.9304H1008.21V19.9304ZM980.041 19.9304V2.18182H974.041V19.9304H980.041ZM977.041 5.18182H1060.66V-0.818185H977.041V5.18182ZM1057.66 2.18182V19.9304H1063.66V2.18182H1057.66ZM1060.66 16.9304H1029.49V22.9304H1060.66V16.9304ZM1026.49 19.9304V104H1032.49V19.9304H1026.49ZM1029.49 101H1008.21V107H1029.49V101ZM1011.21 104V19.9304H1005.21V104H1011.21ZM1008.21 16.9304H977.041V22.9304H1008.21V16.9304ZM1093.16 2.18182H1096.16V-0.818185H1093.16V2.18182ZM1093.16 104V107H1096.16V104H1093.16ZM1071.63 104H1068.63V107H1071.63V104ZM1071.63 2.18182V-0.818185H1068.63V2.18182H1071.63ZM1090.16 2.18182V104H1096.16V2.18182H1090.16ZM1093.16 101H1071.63V107H1093.16V101ZM1074.63 104V2.18182H1068.63V104H1074.63ZM1071.63 5.18182H1093.16V-0.818185H1071.63V5.18182ZM1195.32 81.429L1192.68 80.0027L1192.68 80.0114L1195.32 81.429ZM1178.22 99.277L1179.7 101.887L1179.71 101.885L1178.22 99.277ZM1129.6 99.2273L1131.09 96.6225L1129.6 99.2273ZM1112.55 81.3793L1109.9 82.7969L1109.9 82.7969L1112.55 81.3793ZM1112.55 24.7528L1115.19 26.1704L1115.19 26.1704L1112.55 24.7528ZM1129.6 6.95455L1131.08 9.56446L1131.09 9.55928L1129.6 6.95455ZM1178.22 6.95455L1176.73 9.55927L1176.74 9.56333L1176.75 9.56735L1178.22 6.95455ZM1195.32 24.7528L1192.68 26.1705L1192.68 26.1792L1195.32 24.7528ZM1176.58 34.8949L1173.82 36.0789L1173.83 36.0867L1173.83 36.0944L1176.58 34.8949ZM1167.58 23.6591L1165.93 26.1651L1165.93 26.1651L1167.58 23.6591ZM1140.34 23.6591L1141.99 26.1651L1141.99 26.1651L1140.34 23.6591ZM1131.29 34.8949L1128.54 33.6953L1128.54 33.7031L1128.53 33.7109L1131.29 34.8949ZM1131.29 71.2869L1128.53 72.4709L1128.54 72.4787L1128.54 72.4865L1131.29 71.2869ZM1140.34 82.5227L1141.99 80.0167L1141.99 80.0167L1140.34 82.5227ZM1167.58 82.5227L1165.93 80.0167L1165.93 80.0167L1167.58 82.5227ZM1176.58 71.2869L1173.83 70.0874L1173.83 70.0951L1173.82 70.1029L1176.58 71.2869ZM1198.64 53.0909C1198.64 63.8203 1196.6 72.7496 1192.68 80.0027L1197.96 82.8553C1202.46 74.5307 1204.64 64.5679 1204.64 53.0909H1198.64ZM1192.68 80.0114C1188.75 87.335 1183.44 92.8568 1176.74 96.6693L1179.71 101.885C1187.45 97.4775 1193.54 91.1006 1197.97 82.8466L1192.68 80.0114ZM1176.74 96.6671C1170.04 100.466 1162.47 102.392 1153.96 102.392V108.392C1163.42 108.392 1172.02 106.241 1179.7 101.887L1176.74 96.6671ZM1153.96 102.392C1145.38 102.392 1137.79 100.45 1131.09 96.6225L1128.11 101.832C1135.8 106.224 1144.44 108.392 1153.96 108.392V102.392ZM1131.09 96.6225C1124.42 92.811 1119.12 87.2888 1115.19 79.9617L1109.9 82.7969C1114.33 91.0474 1120.4 97.4239 1128.11 101.832L1131.09 96.6225ZM1115.19 79.9617C1111.3 72.7054 1109.28 63.7889 1109.28 53.0909H1103.28C1103.28 64.533 1105.44 74.4755 1109.9 82.7969L1115.19 79.9617ZM1109.28 53.0909C1109.28 42.358 1111.3 33.4255 1115.19 26.1704L1109.9 23.3352C1105.44 31.6578 1103.28 41.6173 1103.28 53.0909H1109.28ZM1115.19 26.1704C1119.12 18.8451 1124.41 13.3422 1131.08 9.56444L1128.12 4.34465C1120.4 8.72028 1114.33 15.0829 1109.9 23.3352L1115.19 26.1704ZM1131.09 9.55928C1137.79 5.73197 1145.38 3.78977 1153.96 3.78977V-2.21023C1144.44 -2.21023 1135.8 -0.0425836 1128.11 4.34982L1131.09 9.55928ZM1153.96 3.78977C1162.47 3.78977 1170.03 5.73006 1176.73 9.55927L1179.71 4.34982C1172.03 -0.0406674 1163.42 -2.21023 1153.96 -2.21023V3.78977ZM1176.75 9.56735C1183.45 13.3461 1188.75 18.8486 1192.68 26.1704L1197.97 23.3352C1193.54 15.0794 1187.45 8.71639 1179.7 4.34174L1176.75 9.56735ZM1192.68 26.1792C1196.6 33.4322 1198.64 42.3615 1198.64 53.0909H1204.64C1204.64 41.6139 1202.46 31.6511 1197.96 23.3265L1192.68 26.1792ZM1182.81 53.0909C1182.81 45.6168 1181.7 39.1161 1179.33 33.6953L1173.83 36.0944C1175.78 40.5505 1176.81 46.1805 1176.81 53.0909H1182.81ZM1179.34 33.7109C1177.02 28.3202 1173.67 24.0765 1169.23 21.1531L1165.93 26.1651C1169.25 28.3458 1171.9 31.5927 1173.82 36.0789L1179.34 33.7109ZM1169.23 21.1531C1164.81 18.2407 1159.68 16.831 1153.96 16.831V22.831C1158.65 22.831 1162.6 23.9733 1165.93 26.1651L1169.23 21.1531ZM1153.96 16.831C1148.24 16.831 1143.11 18.2407 1138.69 21.1531L1141.99 26.1651C1145.32 23.9733 1149.27 22.831 1153.96 22.831V16.831ZM1138.69 21.1531C1134.25 24.0736 1130.89 28.3115 1128.54 33.6953L1134.04 36.0944C1136 31.6014 1138.67 28.3488 1141.99 26.1651L1138.69 21.1531ZM1128.53 33.7109C1126.21 39.1269 1125.11 45.6218 1125.11 53.0909H1131.11C1131.11 46.1756 1132.13 40.5398 1134.05 36.0789L1128.53 33.7109ZM1125.11 53.0909C1125.11 60.56 1126.21 67.0549 1128.53 72.4709L1134.05 70.1029C1132.13 65.642 1131.11 60.0062 1131.11 53.0909H1125.11ZM1128.54 72.4865C1130.89 77.8703 1134.25 82.1083 1138.69 85.0287L1141.99 80.0167C1138.67 77.833 1136 74.5805 1134.04 70.0874L1128.54 72.4865ZM1138.69 85.0287C1143.11 87.9411 1148.24 89.3509 1153.96 89.3509V83.3509C1149.27 83.3509 1145.32 82.2085 1141.99 80.0167L1138.69 85.0287ZM1153.96 89.3509C1159.68 89.3509 1164.81 87.9411 1169.23 85.0287L1165.93 80.0167C1162.6 82.2085 1158.65 83.3509 1153.96 83.3509V89.3509ZM1169.23 85.0287C1173.67 82.1053 1177.02 77.8617 1179.34 72.4709L1173.82 70.1029C1171.9 74.5891 1169.25 77.836 1165.93 80.0167L1169.23 85.0287ZM1179.33 72.4865C1181.7 67.0657 1182.81 60.565 1182.81 53.0909H1176.81C1176.81 60.0013 1175.78 65.6313 1173.83 70.0874L1179.33 72.4865ZM1299.95 2.18182H1302.95V-0.818185H1299.95V2.18182ZM1299.95 104V107H1302.95V104H1299.95ZM1281.35 104L1278.89 105.706L1279.78 107H1281.35V104ZM1237.06 39.9162L1239.53 38.2104L1238.63 36.9162H1237.06V39.9162ZM1236.31 39.9162V36.9162H1233.31V39.9162H1236.31ZM1236.31 104V107H1239.31V104H1236.31ZM1214.78 104H1211.78V107H1214.78V104ZM1214.78 2.18182V-0.818185H1211.78V2.18182H1214.78ZM1233.68 2.18182L1236.15 0.484185L1235.26 -0.818185H1233.68V2.18182ZM1277.63 66.2159L1275.15 67.9135L1276.05 69.2159H1277.63V66.2159ZM1278.52 66.2159V69.2159H1281.52V66.2159H1278.52ZM1278.52 2.18182V-0.818185H1275.52V2.18182H1278.52ZM1296.95 2.18182V104H1302.95V2.18182H1296.95ZM1299.95 101H1281.35V107H1299.95V101ZM1283.82 102.294L1239.53 38.2104L1234.59 41.622L1278.89 105.706L1283.82 102.294ZM1237.06 36.9162H1236.31V42.9162H1237.06V36.9162ZM1233.31 39.9162V104H1239.31V39.9162H1233.31ZM1236.31 101H1214.78V107H1236.31V101ZM1217.78 104V2.18182H1211.78V104H1217.78ZM1214.78 5.18182H1233.68V-0.818185H1214.78V5.18182ZM1231.2 3.87944L1275.15 67.9135L1280.1 64.5183L1236.15 0.484185L1231.2 3.87944ZM1277.63 69.2159H1278.52V63.2159H1277.63V69.2159ZM1281.52 66.2159V2.18182H1275.52V66.2159H1281.52ZM1278.52 5.18182H1299.95V-0.818185H1278.52V5.18182Z" fill="white" mask="url(#path-1-outside-1_1_28)"/>
</svg>
