<svg width="1509" height="490" viewBox="0 0 1509 490" fill="none" xmlns="http://www.w3.org/2000/svg">
<g clip-path="url(#clip0_53_630)">
<rect width="1509" height="490" fill="black"/>
<path d="M108.254 225V54.0909H221.415V83.8832H144.389V124.608H213.904V154.4H144.389V225H108.254ZM348.936 54.0909H385.071V165.082C385.071 177.544 382.094 188.448 376.142 197.795C370.244 207.141 361.983 214.429 351.356 219.659C340.73 224.833 328.352 227.42 314.22 227.42C300.034 227.42 287.627 224.833 277.001 219.659C266.375 214.429 258.113 207.141 252.216 197.795C246.319 188.448 243.37 177.544 243.37 165.082V54.0909H279.505V161.994C279.505 168.503 280.923 174.289 283.761 179.352C286.654 184.415 290.715 188.393 295.945 191.286C301.174 194.179 307.266 195.625 314.22 195.625C321.23 195.625 327.322 194.179 332.496 191.286C337.726 188.393 341.759 184.415 344.597 179.352C347.49 174.289 348.936 168.503 348.936 161.994V54.0909ZM412.451 225V54.0909H448.585V195.208H521.856V225H412.451ZM543.436 225V54.0909H579.57V195.208H652.841V225H543.436ZM819.175 103.244C818.507 96.5122 815.642 91.2825 810.579 87.555C805.517 83.8275 798.646 81.9638 789.967 81.9638C784.07 81.9638 779.09 82.7983 775.029 84.4673C770.968 86.0807 767.852 88.3339 765.682 91.2269C763.568 94.1199 762.511 97.4023 762.511 101.074C762.4 104.134 763.04 106.805 764.431 109.086C765.877 111.367 767.852 113.342 770.356 115.011C772.859 116.624 775.752 118.043 779.035 119.267C782.317 120.435 785.822 121.436 789.55 122.271L804.905 125.943C812.36 127.612 819.203 129.837 825.434 132.619C831.665 135.401 837.062 138.822 841.624 142.884C846.186 146.945 849.718 151.729 852.222 157.237C854.781 162.745 856.088 169.06 856.144 176.181C856.088 186.64 853.418 195.708 848.133 203.386C842.903 211.008 835.337 216.933 825.434 221.161C815.587 225.334 803.709 227.42 789.8 227.42C776.003 227.42 763.986 225.306 753.749 221.078C743.568 216.85 735.612 210.591 729.882 202.301C724.207 193.956 721.231 183.636 720.952 171.341H755.919C756.308 177.071 757.949 181.855 760.842 185.694C763.791 189.477 767.713 192.343 772.609 194.29C777.56 196.181 783.152 197.127 789.383 197.127C795.503 197.127 800.816 196.237 805.322 194.457C809.884 192.676 813.417 190.201 815.92 187.029C818.424 183.858 819.676 180.214 819.676 176.097C819.676 172.259 818.535 169.032 816.254 166.417C814.029 163.802 810.746 161.577 806.407 159.741C802.123 157.905 796.866 156.236 790.635 154.734L772.025 150.06C757.615 146.555 746.238 141.075 737.893 133.62C729.548 126.165 725.403 116.123 725.459 103.494C725.403 93.1463 728.157 84.1057 733.72 76.3725C739.34 68.6393 747.045 62.603 756.837 58.2635C766.628 53.924 777.755 51.7543 790.217 51.7543C802.902 51.7543 813.973 53.924 823.431 58.2635C832.945 62.603 840.344 68.6393 845.629 76.3725C850.914 84.1057 853.641 93.0628 853.807 103.244H819.175ZM1035.16 139.545C1035.16 158.183 1031.62 174.039 1024.56 187.113C1017.55 200.187 1007.98 210.173 995.85 217.072C983.777 223.915 970.202 227.337 955.125 227.337C939.937 227.337 926.307 223.887 914.234 216.989C902.161 210.09 892.62 200.104 885.61 187.029C878.6 173.955 875.095 158.127 875.095 139.545C875.095 120.908 878.6 105.052 885.61 91.978C892.62 78.9039 902.161 68.9453 914.234 62.1023C926.307 55.2036 939.937 51.7543 955.125 51.7543C970.202 51.7543 983.777 55.2036 995.85 62.1023C1007.98 68.9453 1017.55 78.9039 1024.56 91.978C1031.62 105.052 1035.16 120.908 1035.16 139.545ZM998.52 139.545C998.52 127.473 996.712 117.292 993.096 109.002C989.535 100.713 984.5 94.4259 977.991 90.142C971.482 85.8582 963.86 83.7163 955.125 83.7163C946.391 83.7163 938.769 85.8582 932.26 90.142C925.75 94.4259 920.688 100.713 917.071 109.002C913.511 117.292 911.73 127.473 911.73 139.545C911.73 151.618 913.511 161.799 917.071 170.089C920.688 178.378 925.75 184.665 932.26 188.949C938.769 193.233 946.391 195.375 955.125 195.375C963.86 195.375 971.482 193.233 977.991 188.949C984.5 184.665 989.535 178.378 993.096 170.089C996.712 161.799 998.52 151.618 998.52 139.545ZM1202.53 54.0909V225H1171.31L1096.96 117.431H1095.71V225H1059.57V54.0909H1091.28L1165.06 161.577H1166.56V54.0909H1202.53ZM1343.36 109.336C1342.19 105.275 1340.55 101.686 1338.43 98.5707C1336.32 95.3995 1333.73 92.7291 1330.67 90.5593C1327.67 88.3339 1324.22 86.6371 1320.32 85.4688C1316.49 84.3004 1312.23 83.7163 1307.56 83.7163C1298.82 83.7163 1291.14 85.886 1284.52 90.2255C1277.96 94.565 1272.84 100.879 1269.17 109.169C1265.5 117.403 1263.66 127.473 1263.66 139.379C1263.66 151.284 1265.47 161.41 1269.09 169.755C1272.7 178.1 1277.82 184.47 1284.44 188.865C1291.06 193.205 1298.88 195.375 1307.89 195.375C1316.07 195.375 1323.05 193.928 1328.84 191.035C1334.68 188.087 1339.13 183.942 1342.19 178.601C1345.3 173.26 1346.86 166.945 1346.86 159.657L1354.21 160.742H1310.14V133.537H1381.66V155.067C1381.66 170.089 1378.49 182.996 1372.15 193.789C1365.81 204.527 1357.07 212.816 1345.94 218.658C1334.82 224.444 1322.08 227.337 1307.72 227.337C1291.7 227.337 1277.63 223.804 1265.5 216.738C1253.37 209.617 1243.91 199.519 1237.12 186.445C1230.39 173.316 1227.03 157.738 1227.03 139.712C1227.03 125.859 1229.03 113.509 1233.03 102.66C1237.1 91.7554 1242.77 82.5201 1250.06 74.9538C1257.35 67.3875 1265.83 61.6294 1275.51 57.6793C1285.19 53.7293 1295.68 51.7543 1306.97 51.7543C1316.65 51.7543 1325.67 53.1729 1334.01 56.0103C1342.36 58.792 1349.76 62.7421 1356.21 67.8604C1362.72 72.9788 1368.03 79.0708 1372.15 86.1364C1376.27 93.1463 1378.91 100.879 1380.08 109.336H1343.36ZM165.666 324.926H129.115C128.447 320.197 127.084 315.996 125.025 312.325C122.967 308.597 120.324 305.426 117.098 302.811C113.871 300.196 110.143 298.193 105.915 296.803C101.742 295.412 97.2082 294.716 92.3124 294.716C83.4665 294.716 75.7611 296.914 69.1962 301.309C62.6314 305.648 57.5408 311.991 53.9246 320.336C50.3083 328.625 48.5002 338.695 48.5002 350.545C48.5002 362.729 50.3083 372.966 53.9246 381.256C57.5964 389.545 62.7148 395.804 69.2797 400.032C75.8446 404.261 83.4387 406.375 92.062 406.375C96.9022 406.375 101.381 405.735 105.498 404.455C109.67 403.176 113.37 401.312 116.597 398.864C119.824 396.36 122.494 393.328 124.608 389.768C126.778 386.207 128.28 382.146 129.115 377.584L165.666 377.751C164.721 385.595 162.356 393.161 158.573 400.45C154.846 407.682 149.811 414.163 143.468 419.894C137.182 425.569 129.671 430.075 120.936 433.413C112.257 436.695 102.438 438.337 91.4778 438.337C76.234 438.337 62.6035 434.887 50.5865 427.989C38.6251 421.09 29.1672 411.104 22.2129 398.029C15.3142 384.955 11.8649 369.127 11.8649 350.545C11.8649 331.908 15.3699 316.052 22.3798 302.978C29.3898 289.904 38.9033 279.945 50.9203 273.102C62.9374 266.204 76.4565 262.754 91.4778 262.754C101.381 262.754 110.56 264.145 119.017 266.927C127.529 269.709 135.067 273.77 141.632 279.111C148.197 284.396 153.538 290.877 157.655 298.555C161.828 306.233 164.498 315.023 165.666 324.926ZM343.934 350.545C343.934 369.183 340.401 385.039 333.336 398.113C326.326 411.187 316.757 421.173 304.629 428.072C292.556 434.915 278.981 438.337 263.904 438.337C248.716 438.337 235.085 434.887 223.013 427.989C210.94 421.09 201.399 411.104 194.389 398.029C187.379 384.955 183.874 369.127 183.874 350.545C183.874 331.908 187.379 316.052 194.389 302.978C201.399 289.904 210.94 279.945 223.013 273.102C235.085 266.204 248.716 262.754 263.904 262.754C278.981 262.754 292.556 266.204 304.629 273.102C316.757 279.945 326.326 289.904 333.336 302.978C340.401 316.052 343.934 331.908 343.934 350.545ZM307.299 350.545C307.299 338.473 305.491 328.292 301.875 320.002C298.314 311.713 293.279 305.426 286.77 301.142C280.261 296.858 272.639 294.716 263.904 294.716C255.169 294.716 247.548 296.858 241.038 301.142C234.529 305.426 229.466 311.713 225.85 320.002C222.29 328.292 220.509 338.473 220.509 350.545C220.509 362.618 222.29 372.799 225.85 381.089C229.466 389.378 234.529 395.665 241.038 399.949C247.548 404.233 255.169 406.375 263.904 406.375C272.639 406.375 280.261 404.233 286.77 399.949C293.279 395.665 298.314 389.378 301.875 381.089C305.491 372.799 307.299 362.618 307.299 350.545ZM366.001 436V265.091H402.136V406.208H475.407V436H366.001ZM494.636 436V265.091H530.771V406.208H604.042V436H494.636ZM623.271 436V265.091H738.435V294.883H659.406V335.608H732.51V365.4H659.406V406.208H738.768V436H623.271ZM913.26 324.926H876.708C876.041 320.197 874.678 315.996 872.619 312.325C870.561 308.597 867.918 305.426 864.691 302.811C861.464 300.196 857.737 298.193 853.509 296.803C849.336 295.412 844.802 294.716 839.906 294.716C831.06 294.716 823.355 296.914 816.79 301.309C810.225 305.648 805.135 311.991 801.518 320.336C797.902 328.625 796.094 338.695 796.094 350.545C796.094 362.729 797.902 372.966 801.518 381.256C805.19 389.545 810.309 395.804 816.873 400.032C823.438 404.261 831.032 406.375 839.656 406.375C844.496 406.375 848.975 405.735 853.091 404.455C857.264 403.176 860.964 401.312 864.191 398.864C867.417 396.36 870.088 393.328 872.202 389.768C874.372 386.207 875.874 382.146 876.708 377.584L913.26 377.751C912.314 385.595 909.95 393.161 906.167 400.45C902.439 407.682 897.404 414.163 891.062 419.894C884.775 425.569 877.265 430.075 868.53 433.413C859.851 436.695 850.032 438.337 839.072 438.337C823.828 438.337 810.197 434.887 798.18 427.989C786.219 421.09 776.761 411.104 769.807 398.029C762.908 384.955 759.459 369.127 759.459 350.545C759.459 331.908 762.964 316.052 769.974 302.978C776.984 289.904 786.497 279.945 798.514 273.102C810.531 266.204 824.05 262.754 839.072 262.754C848.975 262.754 858.154 264.145 866.611 266.927C875.123 269.709 882.661 273.77 889.226 279.111C895.791 284.396 901.132 290.877 905.249 298.555C909.421 306.233 912.092 315.023 913.26 324.926ZM927.963 294.883V265.091H1068.33V294.883H1016V436H980.287V294.883H927.963ZM1122.88 265.091V436H1086.74V265.091H1122.88ZM1304.96 350.545C1304.96 369.183 1301.43 385.039 1294.37 398.113C1287.36 411.187 1277.79 421.173 1265.66 428.072C1253.59 434.915 1240.01 438.337 1224.93 438.337C1209.75 438.337 1196.12 434.887 1184.04 427.989C1171.97 421.09 1162.43 411.104 1155.42 398.029C1148.41 384.955 1144.9 369.127 1144.9 350.545C1144.9 331.908 1148.41 316.052 1155.42 302.978C1162.43 289.904 1171.97 279.945 1184.04 273.102C1196.12 266.204 1209.75 262.754 1224.93 262.754C1240.01 262.754 1253.59 266.204 1265.66 273.102C1277.79 279.945 1287.36 289.904 1294.37 302.978C1301.43 316.052 1304.96 331.908 1304.96 350.545ZM1268.33 350.545C1268.33 338.473 1266.52 328.292 1262.91 320.002C1259.34 311.713 1254.31 305.426 1247.8 301.142C1241.29 296.858 1233.67 294.716 1224.93 294.716C1216.2 294.716 1208.58 296.858 1202.07 301.142C1195.56 305.426 1190.5 311.713 1186.88 320.002C1183.32 328.292 1181.54 338.473 1181.54 350.545C1181.54 362.618 1183.32 372.799 1186.88 381.089C1190.5 389.378 1195.56 395.665 1202.07 399.949C1208.58 404.233 1216.2 406.375 1224.93 406.375C1233.67 406.375 1241.29 404.233 1247.8 399.949C1254.31 395.665 1259.34 389.378 1262.91 381.089C1266.52 372.799 1268.33 362.618 1268.33 350.545ZM1469.98 265.091V436H1438.77L1364.42 328.431H1363.17V436H1327.03V265.091H1358.74L1432.51 372.577H1434.02V265.091H1469.98Z" fill="white"/>
</g>
<defs>
<clipPath id="clip0_53_630">
<rect width="1509" height="490" fill="white"/>
</clipPath>
</defs>
</svg>
