<svg width="1517" height="498" viewBox="0 0 1517 498" fill="none" xmlns="http://www.w3.org/2000/svg">
<g clip-path="url(#clip0_54_634)" filter="url(#filter0_d_54_634)">
<rect width="1509" height="490" transform="translate(4)" fill="black"/>
<path d="M56.119 336V154.182H127.852C141.642 154.182 153.391 156.816 163.097 162.083C172.803 167.291 180.202 174.542 185.292 183.834C190.441 193.067 193.015 203.72 193.015 215.794C193.015 227.868 190.411 238.521 185.203 247.754C179.994 256.987 172.448 264.178 162.564 269.327C152.739 274.477 140.843 277.051 126.875 277.051H81.1545V246.245H120.661C128.059 246.245 134.155 244.973 138.949 242.428C143.802 239.823 147.413 236.243 149.78 231.685C152.207 227.069 153.42 221.772 153.42 215.794C153.42 209.757 152.207 204.49 149.78 199.991C147.413 195.434 143.802 191.913 138.949 189.427C134.096 186.882 127.941 185.609 120.483 185.609H94.56V336H56.119ZM390.065 245.091C390.065 264.918 386.307 281.786 378.79 295.695C371.333 309.603 361.153 320.227 348.251 327.566C335.407 334.846 320.966 338.486 304.927 338.486C288.769 338.486 274.269 334.816 261.425 327.477C248.582 320.138 238.432 309.514 230.974 295.606C223.517 281.697 219.788 264.859 219.788 245.091C219.788 225.264 223.517 208.396 230.974 194.487C238.432 180.579 248.582 169.984 261.425 162.705C274.269 155.366 288.769 151.696 304.927 151.696C320.966 151.696 335.407 155.366 348.251 162.705C361.153 169.984 371.333 180.579 378.79 194.487C386.307 208.396 390.065 225.264 390.065 245.091ZM351.091 245.091C351.091 232.248 349.168 221.417 345.321 212.598C341.533 203.779 336.177 197.091 329.252 192.534C322.327 187.977 314.219 185.698 304.927 185.698C295.635 185.698 287.526 187.977 280.601 192.534C273.677 197.091 268.291 203.779 264.444 212.598C260.656 221.417 258.762 232.248 258.762 245.091C258.762 257.934 260.656 268.765 264.444 277.584C268.291 286.402 273.677 293.09 280.601 297.648C287.526 302.205 295.635 304.484 304.927 304.484C314.219 304.484 322.327 302.205 329.252 297.648C336.177 293.09 341.533 286.402 345.321 277.584C349.168 268.765 351.091 257.934 351.091 245.091ZM487.994 336H423.541V154.182H488.527C506.815 154.182 522.558 157.822 535.757 165.102C548.955 172.322 559.105 182.709 566.208 196.263C573.369 209.816 576.95 226.033 576.95 244.913C576.95 263.853 573.369 280.129 566.208 293.741C559.105 307.354 548.896 317.8 535.579 325.08C522.322 332.36 506.46 336 487.994 336ZM461.982 303.063H486.396C497.76 303.063 507.318 301.051 515.071 297.026C522.884 292.942 528.743 286.639 532.65 278.116C536.615 269.535 538.598 258.467 538.598 244.913C538.598 231.478 536.615 220.499 532.65 211.977C528.743 203.454 522.913 197.18 515.16 193.156C507.407 189.131 497.848 187.119 486.485 187.119H461.982V303.063ZM770.848 217.836H731.963C731.253 212.805 729.803 208.337 727.613 204.43C725.423 200.465 722.612 197.091 719.179 194.31C715.746 191.528 711.781 189.397 707.283 187.918C702.844 186.438 698.02 185.698 692.812 185.698C683.401 185.698 675.204 188.036 668.22 192.712C661.236 197.328 655.821 204.075 651.974 212.953C648.127 221.772 646.203 232.484 646.203 245.091C646.203 258.053 648.127 268.943 651.974 277.761C655.88 286.58 661.325 293.238 668.309 297.737C675.293 302.235 683.372 304.484 692.546 304.484C697.695 304.484 702.459 303.803 706.839 302.442C711.278 301.08 715.214 299.098 718.646 296.494C722.079 293.83 724.92 290.605 727.169 286.817C729.477 283.029 731.075 278.708 731.963 273.855L770.848 274.033C769.842 282.378 767.327 290.427 763.302 298.18C759.337 305.875 753.98 312.77 747.233 318.866C740.545 324.903 732.555 329.697 723.263 333.248C714.03 336.74 703.584 338.486 691.924 338.486C675.707 338.486 661.207 334.816 648.423 327.477C635.698 320.138 625.636 309.514 618.238 295.606C610.899 281.697 607.23 264.859 607.23 245.091C607.23 225.264 610.958 208.396 618.416 194.487C625.873 180.579 635.994 169.984 648.778 162.705C661.562 155.366 675.944 151.696 691.924 151.696C702.459 151.696 712.225 153.176 721.221 156.135C730.276 159.094 738.296 163.415 745.28 169.097C752.264 174.719 757.946 181.614 762.325 189.782C766.764 197.95 769.605 207.301 770.848 217.836ZM831.335 336H790.142L852.908 154.182H902.446L965.124 336H923.931L878.387 195.73H876.967L831.335 336ZM828.76 264.533H926.061V294.54H828.76V264.533ZM1086.49 206.472C1085.78 199.311 1082.73 193.747 1077.35 189.782C1071.96 185.817 1064.65 183.834 1055.42 183.834C1049.14 183.834 1043.85 184.722 1039.53 186.497C1035.21 188.214 1031.89 190.611 1029.58 193.688C1027.33 196.766 1026.21 200.258 1026.21 204.164C1026.09 207.419 1026.77 210.26 1028.25 212.687C1029.79 215.113 1031.89 217.214 1034.55 218.99C1037.22 220.706 1040.3 222.216 1043.79 223.518C1047.28 224.761 1051.01 225.826 1054.97 226.714L1071.31 230.62C1079.24 232.396 1086.52 234.763 1093.15 237.722C1099.78 240.682 1105.52 244.321 1110.37 248.642C1115.22 252.963 1118.98 258.053 1121.65 263.912C1124.37 269.771 1125.76 276.489 1125.82 284.065C1125.76 295.192 1122.92 304.839 1117.3 313.006C1111.73 321.115 1103.68 327.418 1093.15 331.916C1082.67 336.355 1070.04 338.575 1055.24 338.575C1040.56 338.575 1027.78 336.326 1016.89 331.827C1006.06 327.329 997.593 320.671 991.497 311.852C985.46 302.974 982.294 291.996 981.998 278.915H1019.2C1019.61 285.012 1021.36 290.102 1024.43 294.185C1027.57 298.21 1031.74 301.258 1036.95 303.33C1042.22 305.342 1048.17 306.348 1054.8 306.348C1061.31 306.348 1066.96 305.401 1071.75 303.507C1076.61 301.613 1080.36 298.979 1083.03 295.606C1085.69 292.232 1087.02 288.356 1087.02 283.976C1087.02 279.892 1085.81 276.459 1083.38 273.678C1081.02 270.896 1077.52 268.528 1072.91 266.575C1068.35 264.622 1062.76 262.847 1056.13 261.249L1036.33 256.277C1021 252.548 1008.9 246.719 1000.02 238.788C991.142 230.857 986.733 220.174 986.792 206.739C986.733 195.73 989.662 186.112 995.581 177.886C1001.56 169.659 1009.76 163.237 1020.17 158.621C1030.59 154.004 1042.43 151.696 1055.68 151.696C1069.18 151.696 1080.96 154.004 1091.02 158.621C1101.14 163.237 1109.01 169.659 1114.63 177.886C1120.26 186.112 1123.16 195.641 1123.33 206.472H1086.49ZM1149.75 185.876V154.182H1299.08V185.876H1243.41V336H1205.41V185.876H1149.75ZM1427.3 206.472C1426.59 199.311 1423.54 193.747 1418.16 189.782C1412.77 185.817 1405.46 183.834 1396.23 183.834C1389.95 183.834 1384.66 184.722 1380.34 186.497C1376.02 188.214 1372.7 190.611 1370.39 193.688C1368.14 196.766 1367.02 200.258 1367.02 204.164C1366.9 207.419 1367.58 210.26 1369.06 212.687C1370.6 215.113 1372.7 217.214 1375.37 218.99C1378.03 220.706 1381.11 222.216 1384.6 223.518C1388.09 224.761 1391.82 225.826 1395.78 226.714L1412.12 230.62C1420.05 232.396 1427.33 234.763 1433.96 237.722C1440.59 240.682 1446.33 244.321 1451.18 248.642C1456.04 252.963 1459.79 258.053 1462.46 263.912C1465.18 269.771 1466.57 276.489 1466.63 284.065C1466.57 295.192 1463.73 304.839 1458.11 313.006C1452.54 321.115 1444.49 327.418 1433.96 331.916C1423.48 336.355 1410.85 338.575 1396.05 338.575C1381.37 338.575 1368.59 336.326 1357.7 331.827C1346.87 327.329 1338.4 320.671 1332.31 311.852C1326.27 302.974 1323.1 291.996 1322.81 278.915H1360.01C1360.42 285.012 1362.17 290.102 1365.24 294.185C1368.38 298.21 1372.55 301.258 1377.76 303.33C1383.03 305.342 1388.98 306.348 1395.61 306.348C1402.12 306.348 1407.77 305.401 1412.56 303.507C1417.42 301.613 1421.17 298.979 1423.84 295.606C1426.5 292.232 1427.83 288.356 1427.83 283.976C1427.83 279.892 1426.62 276.459 1424.19 273.678C1421.83 270.896 1418.33 268.528 1413.72 266.575C1409.16 264.622 1403.57 262.847 1396.94 261.249L1377.14 256.277C1361.81 252.548 1349.71 246.719 1340.83 238.788C1331.95 230.857 1327.54 220.174 1327.6 206.739C1327.54 195.73 1330.47 186.112 1336.39 177.886C1342.37 169.659 1350.57 163.237 1360.98 158.621C1371.4 154.004 1383.24 151.696 1396.49 151.696C1409.99 151.696 1421.77 154.004 1431.83 158.621C1441.95 163.237 1449.82 169.659 1455.44 177.886C1461.07 186.112 1463.97 195.641 1464.14 206.472H1427.3Z" fill="white"/>
</g>
<defs>
<filter id="filter0_d_54_634" x="0" y="0" width="1517" height="498" filterUnits="userSpaceOnUse" color-interpolation-filters="sRGB">
<feFlood flood-opacity="0" result="BackgroundImageFix"/>
<feColorMatrix in="SourceAlpha" type="matrix" values="0 0 0 0 0 0 0 0 0 0 0 0 0 0 0 0 0 0 127 0" result="hardAlpha"/>
<feOffset dy="4"/>
<feGaussianBlur stdDeviation="2"/>
<feComposite in2="hardAlpha" operator="out"/>
<feColorMatrix type="matrix" values="0 0 0 0 0 0 0 0 0 0 0 0 0 0 0 0 0 0 0.25 0"/>
<feBlend mode="normal" in2="BackgroundImageFix" result="effect1_dropShadow_54_634"/>
<feBlend mode="normal" in="SourceGraphic" in2="effect1_dropShadow_54_634" result="shape"/>
</filter>
<clipPath id="clip0_54_634">
<rect width="1509" height="490" fill="white" transform="translate(4)"/>
</clipPath>
</defs>
</svg>
