<svg width="1509" height="490" viewBox="0 0 1509 490" fill="none" xmlns="http://www.w3.org/2000/svg">
<g clip-path="url(#clip0_54_636)" filter="url(#filter0_d_54_636)">
<g filter="url(#filter1_d_54_636)">
<path d="M96.2829 343H51.7943L119.582 146.636H173.083L240.775 343H196.286L147.1 191.509H145.566L96.2829 343ZM93.5024 265.816H198.588V298.224H93.5024V265.816ZM433.838 215.383H391.842C391.075 209.95 389.509 205.124 387.144 200.905C384.779 196.622 381.742 192.979 378.035 189.974C374.328 186.97 370.045 184.669 365.187 183.071C360.393 181.473 355.183 180.674 349.558 180.674C339.395 180.674 330.542 183.199 323 188.249C315.457 193.234 309.608 200.521 305.453 210.109C301.299 219.634 299.221 231.203 299.221 244.818C299.221 258.817 301.299 270.578 305.453 280.102C309.672 289.626 315.553 296.817 323.095 301.675C330.638 306.533 339.363 308.962 349.271 308.962C354.832 308.962 359.978 308.227 364.708 306.757C369.502 305.287 373.752 303.146 377.46 300.333C381.167 297.457 384.235 293.973 386.664 289.882C389.157 285.791 390.883 281.125 391.842 275.884L433.838 276.075C432.751 285.088 430.034 293.781 425.688 302.155C421.405 310.464 415.62 317.911 408.333 324.495C401.11 331.015 392.481 336.192 382.446 340.028C372.474 343.799 361.192 345.685 348.6 345.685C331.085 345.685 315.425 341.722 301.618 333.795C287.875 325.869 277.009 314.396 269.019 299.374C261.093 284.353 257.129 266.168 257.129 244.818C257.129 223.405 261.156 205.188 269.21 190.166C277.264 175.145 288.195 163.703 302.002 155.841C315.808 147.915 331.341 143.952 348.6 143.952C359.978 143.952 370.524 145.55 380.24 148.746C390.02 151.942 398.681 156.608 406.224 162.744C413.767 168.817 419.903 176.263 424.633 185.085C429.427 193.906 432.495 204.005 433.838 215.383ZM642.265 215.383H600.269C599.502 209.95 597.936 205.124 595.571 200.905C593.206 196.622 590.17 192.979 586.462 189.974C582.755 186.97 578.472 184.669 573.614 183.071C568.82 181.473 563.611 180.674 557.986 180.674C547.822 180.674 538.969 183.199 531.427 188.249C523.884 193.234 518.036 200.521 513.881 210.109C509.726 219.634 507.648 231.203 507.648 244.818C507.648 258.817 509.726 270.578 513.881 280.102C518.099 289.626 523.98 296.817 531.523 301.675C539.065 306.533 547.79 308.962 557.698 308.962C563.259 308.962 568.405 308.227 573.135 306.757C577.929 305.287 582.18 303.146 585.887 300.333C589.594 297.457 592.663 293.973 595.092 289.882C597.585 285.791 599.31 281.125 600.269 275.884L642.265 276.075C641.178 285.088 638.462 293.781 634.115 302.155C629.832 310.464 624.048 317.911 616.761 324.495C609.538 331.015 600.908 336.192 590.873 340.028C580.901 343.799 569.619 345.685 557.027 345.685C539.513 345.685 523.852 341.722 510.045 333.795C496.303 325.869 485.436 314.396 477.446 299.374C469.52 284.353 465.557 266.168 465.557 244.818C465.557 223.405 469.584 205.188 477.638 190.166C485.692 175.145 496.622 163.703 510.429 155.841C524.236 147.915 539.768 143.952 557.027 143.952C568.405 143.952 578.952 145.55 588.668 148.746C598.447 151.942 607.109 156.608 614.651 162.744C622.194 168.817 628.33 176.263 633.06 185.085C637.854 193.906 640.923 204.005 642.265 215.383ZM857.883 244.818C857.883 266.232 853.824 284.449 845.707 299.47C837.653 314.491 826.658 325.965 812.724 333.891C798.853 341.754 783.256 345.685 765.934 345.685C748.483 345.685 732.823 341.722 718.952 333.795C705.082 325.869 694.119 314.396 686.065 299.374C678.011 284.353 673.984 266.168 673.984 244.818C673.984 223.405 678.011 205.188 686.065 190.166C694.119 175.145 705.082 163.703 718.952 155.841C732.823 147.915 748.483 143.952 765.934 143.952C783.256 143.952 798.853 147.915 812.724 155.841C826.658 163.703 837.653 175.145 845.707 190.166C853.824 205.188 857.883 223.405 857.883 244.818ZM815.792 244.818C815.792 230.947 813.714 219.25 809.559 209.726C805.469 200.202 799.684 192.979 792.205 188.057C784.726 183.135 775.969 180.674 765.934 180.674C755.898 180.674 747.141 183.135 739.662 188.057C732.184 192.979 726.367 200.202 722.212 209.726C718.121 219.25 716.076 230.947 716.076 244.818C716.076 258.689 718.121 270.386 722.212 279.911C726.367 289.435 732.184 296.658 739.662 301.58C747.141 306.501 755.898 308.962 765.934 308.962C775.969 308.962 784.726 306.501 792.205 301.58C799.684 296.658 805.469 289.435 809.559 279.911C813.714 270.386 815.792 258.689 815.792 244.818ZM1015.33 146.636H1056.84V274.158C1056.84 288.476 1053.42 301.004 1046.58 311.743C1039.81 322.482 1030.32 330.855 1018.11 336.864C1005.9 342.808 991.676 345.781 975.44 345.781C959.14 345.781 944.886 342.808 932.677 336.864C920.468 330.855 910.976 322.482 904.2 311.743C897.425 301.004 894.037 288.476 894.037 274.158V146.636H935.553V270.61C935.553 278.089 937.183 284.737 940.443 290.553C943.767 296.37 948.433 300.94 954.442 304.264C960.45 307.588 967.45 309.25 975.44 309.25C983.494 309.25 990.493 307.588 996.438 304.264C1002.45 300.94 1007.08 296.37 1010.34 290.553C1013.66 284.737 1015.33 278.089 1015.33 270.61V146.636ZM1260.64 146.636V343H1224.78L1139.35 219.41H1137.92V343H1096.4V146.636H1132.83L1217.59 270.131H1219.32V146.636H1260.64ZM1292.87 180.866V146.636H1454.14V180.866H1394.02V343H1352.98V180.866H1292.87Z" fill="white"/>
</g>
</g>
<defs>
<filter id="filter0_d_54_636" x="-4" y="0" width="1517" height="498" filterUnits="userSpaceOnUse" color-interpolation-filters="sRGB">
<feFlood flood-opacity="0" result="BackgroundImageFix"/>
<feColorMatrix in="SourceAlpha" type="matrix" values="0 0 0 0 0 0 0 0 0 0 0 0 0 0 0 0 0 0 127 0" result="hardAlpha"/>
<feOffset dy="4"/>
<feGaussianBlur stdDeviation="2"/>
<feComposite in2="hardAlpha" operator="out"/>
<feColorMatrix type="matrix" values="0 0 0 0 0 0 0 0 0 0 0 0 0 0 0 0 0 0 0.25 0"/>
<feBlend mode="normal" in2="BackgroundImageFix" result="effect1_dropShadow_54_636"/>
<feBlend mode="normal" in="SourceGraphic" in2="effect1_dropShadow_54_636" result="shape"/>
</filter>
<filter id="filter1_d_54_636" x="47.7939" y="143.952" width="1410.34" height="209.829" filterUnits="userSpaceOnUse" color-interpolation-filters="sRGB">
<feFlood flood-opacity="0" result="BackgroundImageFix"/>
<feColorMatrix in="SourceAlpha" type="matrix" values="0 0 0 0 0 0 0 0 0 0 0 0 0 0 0 0 0 0 127 0" result="hardAlpha"/>
<feOffset dy="4"/>
<feGaussianBlur stdDeviation="2"/>
<feComposite in2="hardAlpha" operator="out"/>
<feColorMatrix type="matrix" values="0 0 0 0 0 0 0 0 0 0 0 0 0 0 0 0 0 0 0.25 0"/>
<feBlend mode="normal" in2="BackgroundImageFix" result="effect1_dropShadow_54_636"/>
<feBlend mode="normal" in="SourceGraphic" in2="effect1_dropShadow_54_636" result="shape"/>
</filter>
<clipPath id="clip0_54_636">
<rect width="1509" height="490" fill="white"/>
</clipPath>
</defs>
</svg>
