<svg width="1210" height="106" viewBox="0 0 1210 106" fill="none" xmlns="http://www.w3.org/2000/svg">
<mask id="path-1-outside-1_1_22" maskUnits="userSpaceOnUse" x="-3" y="-3" width="1216" height="112" fill="black">
<rect fill="white" x="-3" y="-3" width="1216" height="112"/>
<path d="M0.36585 104V2.18182H40.5363C48.2257 2.18182 54.7882 3.55729 60.2238 6.30824C65.6926 9.02604 69.8521 12.8873 72.7025 17.892C75.586 22.8636 77.0278 28.7135 77.0278 35.4418C77.0278 42.2031 75.5695 48.0199 72.6528 52.892C69.7361 57.7311 65.5103 61.4432 59.9752 64.0284C54.4733 66.6136 47.8114 67.9062 39.9894 67.9062H13.0931V50.6051H36.5093C40.6192 50.6051 44.033 50.0417 46.7508 48.9148C49.4686 47.7879 51.4904 46.0975 52.8161 43.8438C54.175 41.59 54.8545 38.7893 54.8545 35.4418C54.8545 32.0611 54.175 29.2107 52.8161 26.8906C51.4904 24.5705 49.452 22.8139 46.7011 21.6207C43.9833 20.3944 40.5529 19.7812 36.4099 19.7812H21.8928V104H0.36585ZM55.3516 57.6648L80.657 104H56.8928L32.1343 57.6648H55.3516ZM89.4408 104V2.18182H158.049V19.9304H110.968V44.1918H154.519V61.9403H110.968V86.2514H158.248V104H89.4408ZM262.2 37.8281H240.425C240.027 35.0109 239.215 32.5085 237.989 30.321C236.762 28.1004 235.188 26.2112 233.265 24.6534C231.343 23.0956 229.122 21.9025 226.604 21.0739C224.118 20.2453 221.417 19.831 218.5 19.831C213.23 19.831 208.64 21.1402 204.729 23.7585C200.818 26.3437 197.785 30.1222 195.631 35.0938C193.476 40.0322 192.399 46.0312 192.399 53.0909C192.399 60.3494 193.476 66.4479 195.631 71.3864C197.818 76.3248 200.867 80.0535 204.778 82.5724C208.689 85.0914 213.213 86.3509 218.351 86.3509C221.234 86.3509 223.902 85.9697 226.355 85.2074C228.841 84.4451 231.045 83.3348 232.967 81.8764C234.89 80.3849 236.48 78.5786 237.74 76.4574C239.033 74.3362 239.927 71.9167 240.425 69.1989L262.2 69.2983C261.637 73.9716 260.228 78.4792 257.974 82.821C255.754 87.1297 252.754 90.991 248.976 94.4048C245.23 97.7855 240.756 100.47 235.552 102.459C230.382 104.414 224.532 105.392 218.003 105.392C208.921 105.392 200.801 103.337 193.642 99.2273C186.516 95.1174 180.881 89.1681 176.739 81.3793C172.629 73.5904 170.574 64.161 170.574 53.0909C170.574 41.9877 172.662 32.5417 176.838 24.7528C181.014 16.964 186.682 11.0312 193.841 6.95455C201 2.84469 209.054 0.789769 218.003 0.789769C223.902 0.789769 229.371 1.61837 234.409 3.27557C239.48 4.93276 243.971 7.35227 247.882 10.5341C251.793 13.6828 254.975 17.544 257.427 22.1179C259.913 26.6918 261.504 31.9285 262.2 37.8281ZM274.837 104V2.18182H343.445V19.9304H296.364V44.1918H339.915V61.9403H296.364V86.2514H343.644V104H274.837ZM442.923 2.18182V104H424.329L380.032 39.9162H379.287V104H357.76V2.18182H376.652L420.6 66.2159H421.495V2.18182H442.923ZM454.031 19.9304V2.18182H537.653V19.9304H506.481V104H485.203V19.9304H454.031ZM548.624 104V2.18182H570.151V86.2514H613.802V104H548.624ZM606.304 2.18182H630.416L653.633 46.0312H654.628L677.845 2.18182H701.957L664.819 68.0057V104H643.442V68.0057L606.304 2.18182ZM758.067 104H734.999L770.148 2.18182H797.89L832.989 104H809.921L784.417 25.4489H783.621L758.067 104ZM756.625 63.9787H811.114V80.7827H756.625V63.9787ZM878.538 104H842.444V2.18182H878.836C889.077 2.18182 897.894 4.22017 905.285 8.29688C912.676 12.3404 918.36 18.1572 922.337 25.7472C926.348 33.3371 928.353 42.4186 928.353 52.9915C928.353 63.5975 926.348 72.7121 922.337 80.3352C918.36 87.9583 912.643 93.8082 905.185 97.8849C897.761 101.962 888.879 104 878.538 104ZM863.971 85.5554H877.643C884.006 85.5554 889.359 84.4285 893.701 82.1747C898.076 79.8878 901.357 76.358 903.545 71.5852C905.765 66.7794 906.876 60.5814 906.876 52.9915C906.876 45.4678 905.765 39.3196 903.545 34.5469C901.357 29.7741 898.093 26.2609 893.751 24.0071C889.409 21.7533 884.056 20.6264 877.693 20.6264H863.971V85.5554ZM977.593 104H941.499V2.18182H977.892C988.133 2.18182 996.949 4.22017 1004.34 8.29688C1011.73 12.3404 1017.42 18.1572 1021.39 25.7472C1025.4 33.3371 1027.41 42.4186 1027.41 52.9915C1027.41 63.5975 1025.4 72.7121 1021.39 80.3352C1017.42 87.9583 1011.7 93.8082 1004.24 97.8849C996.817 101.962 987.934 104 977.593 104ZM963.026 85.5554H976.698C983.062 85.5554 988.415 84.4285 992.757 82.1747C997.132 79.8878 1000.41 76.358 1002.6 71.5852C1004.82 66.7794 1005.93 60.5814 1005.93 52.9915C1005.93 45.4678 1004.82 39.3196 1002.6 34.5469C1000.41 29.7741 997.148 26.2609 992.806 24.0071C988.464 21.7533 983.112 20.6264 976.748 20.6264H963.026V85.5554ZM1040.55 104V2.18182H1109.16V19.9304H1062.08V44.1918H1105.63V61.9403H1062.08V86.2514H1109.36V104H1040.55ZM1159.57 104H1123.48V2.18182H1159.87C1170.11 2.18182 1178.93 4.22017 1186.32 8.29688C1193.71 12.3404 1199.39 18.1572 1203.37 25.7472C1207.38 33.3371 1209.39 42.4186 1209.39 52.9915C1209.39 63.5975 1207.38 72.7121 1203.37 80.3352C1199.39 87.9583 1193.68 93.8082 1186.22 97.8849C1178.79 101.962 1169.91 104 1159.57 104ZM1145 85.5554H1158.68C1165.04 85.5554 1170.39 84.4285 1174.73 82.1747C1179.11 79.8878 1182.39 76.358 1184.58 71.5852C1186.8 66.7794 1187.91 60.5814 1187.91 52.9915C1187.91 45.4678 1186.8 39.3196 1184.58 34.5469C1182.39 29.7741 1179.13 26.2609 1174.78 24.0071C1170.44 21.7533 1165.09 20.6264 1158.73 20.6264H1145V85.5554Z"/>
</mask>
<path d="M0.36585 104V2.18182H40.5363C48.2257 2.18182 54.7882 3.55729 60.2238 6.30824C65.6926 9.02604 69.8521 12.8873 72.7025 17.892C75.586 22.8636 77.0278 28.7135 77.0278 35.4418C77.0278 42.2031 75.5695 48.0199 72.6528 52.892C69.7361 57.7311 65.5103 61.4432 59.9752 64.0284C54.4733 66.6136 47.8114 67.9062 39.9894 67.9062H13.0931V50.6051H36.5093C40.6192 50.6051 44.033 50.0417 46.7508 48.9148C49.4686 47.7879 51.4904 46.0975 52.8161 43.8438C54.175 41.59 54.8545 38.7893 54.8545 35.4418C54.8545 32.0611 54.175 29.2107 52.8161 26.8906C51.4904 24.5705 49.452 22.8139 46.7011 21.6207C43.9833 20.3944 40.5529 19.7812 36.4099 19.7812H21.8928V104H0.36585ZM55.3516 57.6648L80.657 104H56.8928L32.1343 57.6648H55.3516ZM89.4408 104V2.18182H158.049V19.9304H110.968V44.1918H154.519V61.9403H110.968V86.2514H158.248V104H89.4408ZM262.2 37.8281H240.425C240.027 35.0109 239.215 32.5085 237.989 30.321C236.762 28.1004 235.188 26.2112 233.265 24.6534C231.343 23.0956 229.122 21.9025 226.604 21.0739C224.118 20.2453 221.417 19.831 218.5 19.831C213.23 19.831 208.64 21.1402 204.729 23.7585C200.818 26.3437 197.785 30.1222 195.631 35.0938C193.476 40.0322 192.399 46.0312 192.399 53.0909C192.399 60.3494 193.476 66.4479 195.631 71.3864C197.818 76.3248 200.867 80.0535 204.778 82.5724C208.689 85.0914 213.213 86.3509 218.351 86.3509C221.234 86.3509 223.902 85.9697 226.355 85.2074C228.841 84.4451 231.045 83.3348 232.967 81.8764C234.89 80.3849 236.48 78.5786 237.74 76.4574C239.033 74.3362 239.927 71.9167 240.425 69.1989L262.2 69.2983C261.637 73.9716 260.228 78.4792 257.974 82.821C255.754 87.1297 252.754 90.991 248.976 94.4048C245.23 97.7855 240.756 100.47 235.552 102.459C230.382 104.414 224.532 105.392 218.003 105.392C208.921 105.392 200.801 103.337 193.642 99.2273C186.516 95.1174 180.881 89.1681 176.739 81.3793C172.629 73.5904 170.574 64.161 170.574 53.0909C170.574 41.9877 172.662 32.5417 176.838 24.7528C181.014 16.964 186.682 11.0312 193.841 6.95455C201 2.84469 209.054 0.789769 218.003 0.789769C223.902 0.789769 229.371 1.61837 234.409 3.27557C239.48 4.93276 243.971 7.35227 247.882 10.5341C251.793 13.6828 254.975 17.544 257.427 22.1179C259.913 26.6918 261.504 31.9285 262.2 37.8281ZM274.837 104V2.18182H343.445V19.9304H296.364V44.1918H339.915V61.9403H296.364V86.2514H343.644V104H274.837ZM442.923 2.18182V104H424.329L380.032 39.9162H379.287V104H357.76V2.18182H376.652L420.6 66.2159H421.495V2.18182H442.923ZM454.031 19.9304V2.18182H537.653V19.9304H506.481V104H485.203V19.9304H454.031ZM548.624 104V2.18182H570.151V86.2514H613.802V104H548.624ZM606.304 2.18182H630.416L653.633 46.0312H654.628L677.845 2.18182H701.957L664.819 68.0057V104H643.442V68.0057L606.304 2.18182ZM758.067 104H734.999L770.148 2.18182H797.89L832.989 104H809.921L784.417 25.4489H783.621L758.067 104ZM756.625 63.9787H811.114V80.7827H756.625V63.9787ZM878.538 104H842.444V2.18182H878.836C889.077 2.18182 897.894 4.22017 905.285 8.29688C912.676 12.3404 918.36 18.1572 922.337 25.7472C926.348 33.3371 928.353 42.4186 928.353 52.9915C928.353 63.5975 926.348 72.7121 922.337 80.3352C918.36 87.9583 912.643 93.8082 905.185 97.8849C897.761 101.962 888.879 104 878.538 104ZM863.971 85.5554H877.643C884.006 85.5554 889.359 84.4285 893.701 82.1747C898.076 79.8878 901.357 76.358 903.545 71.5852C905.765 66.7794 906.876 60.5814 906.876 52.9915C906.876 45.4678 905.765 39.3196 903.545 34.5469C901.357 29.7741 898.093 26.2609 893.751 24.0071C889.409 21.7533 884.056 20.6264 877.693 20.6264H863.971V85.5554ZM977.593 104H941.499V2.18182H977.892C988.133 2.18182 996.949 4.22017 1004.34 8.29688C1011.73 12.3404 1017.42 18.1572 1021.39 25.7472C1025.4 33.3371 1027.41 42.4186 1027.41 52.9915C1027.41 63.5975 1025.4 72.7121 1021.39 80.3352C1017.42 87.9583 1011.7 93.8082 1004.24 97.8849C996.817 101.962 987.934 104 977.593 104ZM963.026 85.5554H976.698C983.062 85.5554 988.415 84.4285 992.757 82.1747C997.132 79.8878 1000.41 76.358 1002.6 71.5852C1004.82 66.7794 1005.93 60.5814 1005.93 52.9915C1005.93 45.4678 1004.82 39.3196 1002.6 34.5469C1000.41 29.7741 997.148 26.2609 992.806 24.0071C988.464 21.7533 983.112 20.6264 976.748 20.6264H963.026V85.5554ZM1040.55 104V2.18182H1109.16V19.9304H1062.08V44.1918H1105.63V61.9403H1062.08V86.2514H1109.36V104H1040.55ZM1159.57 104H1123.48V2.18182H1159.87C1170.11 2.18182 1178.93 4.22017 1186.32 8.29688C1193.71 12.3404 1199.39 18.1572 1203.37 25.7472C1207.38 33.3371 1209.39 42.4186 1209.39 52.9915C1209.39 63.5975 1207.38 72.7121 1203.37 80.3352C1199.39 87.9583 1193.68 93.8082 1186.22 97.8849C1178.79 101.962 1169.91 104 1159.57 104ZM1145 85.5554H1158.68C1165.04 85.5554 1170.39 84.4285 1174.73 82.1747C1179.11 79.8878 1182.39 76.358 1184.58 71.5852C1186.8 66.7794 1187.91 60.5814 1187.91 52.9915C1187.91 45.4678 1186.8 39.3196 1184.58 34.5469C1182.39 29.7741 1179.13 26.2609 1174.78 24.0071C1170.44 21.7533 1165.09 20.6264 1158.73 20.6264H1145V85.5554Z" fill="white" fill-opacity="0.88"/>
<path d="M0.36585 104H-2.63415V107H0.36585V104ZM0.36585 2.18182V-0.818185H-2.63415V2.18182H0.36585ZM60.2238 6.30824L58.8691 8.98496L58.8789 8.9899L58.8887 8.99477L60.2238 6.30824ZM72.7025 17.892L70.0956 19.3767L70.1015 19.387L70.1074 19.3972L72.7025 17.892ZM72.6528 52.892L75.2222 54.4407L75.2268 54.433L72.6528 52.892ZM59.9752 64.0284L58.7057 61.3103L58.6994 61.3132L59.9752 64.0284ZM13.0931 67.9062H10.0931V70.9062H13.0931V67.9062ZM13.0931 50.6051V47.6051H10.0931V50.6051H13.0931ZM46.7508 48.9148L47.8998 51.686L47.8998 51.686L46.7508 48.9148ZM52.8161 43.8438L50.247 42.2947L50.2386 42.3087L50.2303 42.3227L52.8161 43.8438ZM52.8161 26.8906L50.2114 28.379L50.2194 28.393L50.2275 28.4068L52.8161 26.8906ZM46.7011 21.6207L45.4672 24.3553L45.4872 24.3643L45.5073 24.373L46.7011 21.6207ZM21.8928 19.7812V16.7812H18.8928V19.7812H21.8928ZM21.8928 104V107H24.8928V104H21.8928ZM55.3516 57.6648L57.9846 56.2268L57.1315 54.6648H55.3516V57.6648ZM80.657 104V107H85.7137L83.29 102.562L80.657 104ZM56.8928 104L54.2469 105.414L55.0944 107H56.8928V104ZM32.1343 57.6648V54.6648H27.1299L29.4884 59.0786L32.1343 57.6648ZM3.36585 104V2.18182H-2.63415V104H3.36585ZM0.36585 5.18182H40.5363V-0.818185H0.36585V5.18182ZM40.5363 5.18182C47.8753 5.18182 53.949 6.49491 58.8691 8.98496L61.5785 3.63152C55.6274 0.619666 48.5761 -0.818185 40.5363 -0.818185V5.18182ZM58.8887 8.99477C63.8574 11.4641 67.5585 14.922 70.0956 19.3767L75.3093 16.4074C72.1457 10.8526 67.5277 6.588 61.5589 3.62171L58.8887 8.99477ZM70.1074 19.3972C72.6835 23.8387 74.0278 29.1511 74.0278 35.4418H80.0278C80.0278 28.2759 78.4886 21.8886 75.2976 16.3869L70.1074 19.3972ZM74.0278 35.4418C74.0278 41.7646 72.6676 47.0266 70.0788 51.3511L75.2268 54.433C78.4713 49.0132 80.0278 42.6416 80.0278 35.4418H74.0278ZM70.0834 51.3434C67.4995 55.6304 63.7469 58.9557 58.7057 61.3103L61.2448 66.7465C67.2737 63.9306 71.9728 59.8317 75.2222 54.4407L70.0834 51.3434ZM58.6994 61.3132C53.694 63.6652 47.4922 64.9062 39.9894 64.9062V70.9062C48.1306 70.9062 55.2527 69.5621 61.251 66.7436L58.6994 61.3132ZM39.9894 64.9062H13.0931V70.9062H39.9894V64.9062ZM16.0931 67.9062V50.6051H10.0931V67.9062H16.0931ZM13.0931 53.6051H36.5093V47.6051H13.0931V53.6051ZM36.5093 53.6051C40.868 53.6051 44.7039 53.0111 47.8998 51.686L45.6017 46.1435C43.3621 47.0722 40.3703 47.6051 36.5093 47.6051V53.6051ZM47.8998 51.686C51.1406 50.3423 53.7048 48.2499 55.4019 45.3648L50.2303 42.3227C49.2759 43.9452 47.7966 45.2335 45.6017 46.1435L47.8998 51.686ZM55.3853 45.3928C57.0931 42.5602 57.8545 39.1888 57.8545 35.4418H51.8545C51.8545 38.3898 51.2569 40.6197 50.247 42.2947L55.3853 45.3928ZM57.8545 35.4418C57.8545 31.6635 57.0941 28.2586 55.4048 25.3744L50.2275 28.4068C51.256 30.1628 51.8545 32.4586 51.8545 35.4418H57.8545ZM55.4209 25.4022C53.7347 22.4515 51.1641 20.2865 47.8948 18.8685L45.5073 24.373C47.74 25.3414 49.246 26.6896 50.2114 28.379L55.4209 25.4022ZM47.9349 18.8862C44.7093 17.4307 40.8232 16.7812 36.4099 16.7812V22.7812C40.2825 22.7812 43.2573 23.3581 45.4672 24.3553L47.9349 18.8862ZM36.4099 16.7812H21.8928V22.7812H36.4099V16.7812ZM18.8928 19.7812V104H24.8928V19.7812H18.8928ZM21.8928 101H0.36585V107H21.8928V101ZM52.7187 59.1027L78.0241 105.438L83.29 102.562L57.9846 56.2268L52.7187 59.1027ZM80.657 101H56.8928V107H80.657V101ZM59.5388 102.586L34.7803 56.2509L29.4884 59.0786L54.2469 105.414L59.5388 102.586ZM32.1343 60.6648H55.3516V54.6648H32.1343V60.6648ZM89.4408 104H86.4408V107H89.4408V104ZM89.4408 2.18182V-0.818185H86.4408V2.18182H89.4408ZM158.049 2.18182H161.049V-0.818185H158.049V2.18182ZM158.049 19.9304V22.9304H161.049V19.9304H158.049ZM110.968 19.9304V16.9304H107.968V19.9304H110.968ZM110.968 44.1918H107.968V47.1918H110.968V44.1918ZM154.519 44.1918H157.519V41.1918H154.519V44.1918ZM154.519 61.9403V64.9403H157.519V61.9403H154.519ZM110.968 61.9403V58.9403H107.968V61.9403H110.968ZM110.968 86.2514H107.968V89.2514H110.968V86.2514ZM158.248 86.2514H161.248V83.2514H158.248V86.2514ZM158.248 104V107H161.248V104H158.248ZM92.4408 104V2.18182H86.4408V104H92.4408ZM89.4408 5.18182H158.049V-0.818185H89.4408V5.18182ZM155.049 2.18182V19.9304H161.049V2.18182H155.049ZM158.049 16.9304H110.968V22.9304H158.049V16.9304ZM107.968 19.9304V44.1918H113.968V19.9304H107.968ZM110.968 47.1918H154.519V41.1918H110.968V47.1918ZM151.519 44.1918V61.9403H157.519V44.1918H151.519ZM154.519 58.9403H110.968V64.9403H154.519V58.9403ZM107.968 61.9403V86.2514H113.968V61.9403H107.968ZM110.968 89.2514H158.248V83.2514H110.968V89.2514ZM155.248 86.2514V104H161.248V86.2514H155.248ZM158.248 101H89.4408V107H158.248V101ZM262.2 37.8281V40.8281H265.575L265.179 37.4766L262.2 37.8281ZM240.425 37.8281L237.454 38.2475L237.818 40.8281H240.425V37.8281ZM237.989 30.321L235.362 31.7713L235.367 31.7797L235.372 31.788L237.989 30.321ZM233.265 24.6534L231.377 26.9842L231.377 26.9842L233.265 24.6534ZM226.604 21.0739L225.655 23.9199L225.666 23.9236L226.604 21.0739ZM204.729 23.7585L206.383 26.2612L206.39 26.2563L206.398 26.2514L204.729 23.7585ZM195.631 35.0938L198.38 36.2933L198.383 36.2866L195.631 35.0938ZM195.631 71.3864L192.881 72.5859L192.884 72.5936L192.888 72.6014L195.631 71.3864ZM204.778 82.5724L203.154 85.0946L203.154 85.0946L204.778 82.5724ZM226.355 85.2074L225.475 82.3392L225.465 82.3426L226.355 85.2074ZM232.967 81.8764L234.78 84.2665L234.793 84.2567L234.806 84.2467L232.967 81.8764ZM237.74 76.4574L235.178 74.8963L235.169 74.911L235.16 74.9258L237.74 76.4574ZM240.425 69.1989L240.438 66.1989L237.926 66.1874L237.474 68.659L240.425 69.1989ZM262.2 69.2983L265.179 69.6574L265.582 66.3137L262.214 66.2983L262.2 69.2983ZM257.974 82.821L255.312 81.4389L255.308 81.4467L257.974 82.821ZM248.976 94.4048L250.986 96.6318L250.987 96.6308L248.976 94.4048ZM235.552 102.459L236.614 105.265L236.623 105.261L235.552 102.459ZM193.642 99.2273L192.143 101.826L192.148 101.829L193.642 99.2273ZM176.739 81.3793L174.085 82.7793L174.09 82.7881L176.739 81.3793ZM176.838 24.7528L179.482 26.1704L179.482 26.1704L176.838 24.7528ZM193.841 6.95455L195.325 9.56152L195.334 9.55631L193.841 6.95455ZM234.409 3.27557L233.472 6.12535L233.477 6.12716L234.409 3.27557ZM247.882 10.5341L245.989 12.8612L245.995 12.8661L246.001 12.8709L247.882 10.5341ZM257.427 22.1179L254.784 23.5356L254.788 23.543L254.792 23.5504L257.427 22.1179ZM262.2 34.8281H240.425V40.8281H262.2V34.8281ZM243.395 37.4088C242.952 34.2725 242.036 31.4064 240.605 28.854L235.372 31.788C236.393 33.6106 237.101 35.7493 237.454 38.2475L243.395 37.4088ZM240.615 28.8708C239.206 26.3206 237.384 24.1298 235.154 22.3226L231.377 26.9842C232.991 28.2925 234.318 29.8802 235.362 31.7713L240.615 28.8708ZM235.154 22.3226C232.929 20.5195 230.381 19.1583 227.541 18.2241L225.666 23.9236C227.864 24.6466 229.757 25.6717 231.377 26.9842L235.154 22.3226ZM227.552 18.2278C224.728 17.2864 221.703 16.831 218.5 16.831V22.831C221.13 22.831 223.507 23.2041 225.655 23.9199L227.552 18.2278ZM218.5 16.831C212.709 16.831 207.522 18.2779 203.06 21.2656L206.398 26.2514C209.757 24.0024 213.751 22.831 218.5 22.831V16.831ZM203.074 21.2559C198.606 24.2096 195.227 28.4806 192.878 33.9009L198.383 36.2866C200.343 31.7637 203.029 28.4779 206.383 26.2612L203.074 21.2559ZM192.881 33.8942C190.519 39.3089 189.399 45.7406 189.399 53.0909H195.399C195.399 46.3219 196.434 40.7555 198.38 36.2933L192.881 33.8942ZM189.399 53.0909C189.399 60.6269 190.515 67.1621 192.881 72.5859L198.38 70.1868C196.438 65.7337 195.399 60.072 195.399 53.0909H189.399ZM192.888 72.6014C195.273 77.9871 198.675 82.2099 203.154 85.0946L206.403 80.0503C203.06 77.8971 200.363 74.6626 198.373 70.1714L192.888 72.6014ZM203.154 85.0946C207.599 87.9576 212.7 89.3509 218.351 89.3509V83.3509C213.727 83.3509 209.779 82.2252 206.403 80.0503L203.154 85.0946ZM218.351 89.3509C221.5 89.3509 224.472 88.9344 227.245 88.0722L225.465 82.3426C223.333 83.005 220.969 83.3509 218.351 83.3509V89.3509ZM227.235 88.0755C230.031 87.218 232.556 85.9537 234.78 84.2665L231.154 79.4863C229.533 80.7158 227.651 81.6722 225.475 82.3392L227.235 88.0755ZM234.806 84.2467C237.03 82.5213 238.871 80.4291 240.319 77.989L235.16 74.9258C234.09 76.7281 232.749 78.2486 231.128 79.5062L234.806 84.2467ZM240.302 78.0185C241.806 75.5503 242.82 72.7774 243.376 69.7387L237.474 68.659C237.035 71.0559 236.259 73.1221 235.178 74.8963L240.302 78.0185ZM240.411 72.1988L262.186 72.2983L262.214 66.2983L240.438 66.1989L240.411 72.1988ZM259.222 68.9392C258.703 73.2413 257.406 77.4036 255.312 81.4389L260.637 84.2032C263.05 79.5547 264.57 74.7018 265.179 69.6574L259.222 68.9392ZM255.308 81.4467C253.261 85.4183 250.489 88.9947 246.965 92.1788L250.987 96.6308C255.02 92.9873 258.247 88.8411 260.641 84.1954L255.308 81.4467ZM246.966 92.1779C243.522 95.2859 239.375 97.7863 234.481 99.6565L236.623 105.261C242.137 103.154 246.939 100.285 250.986 96.6318L246.966 92.1779ZM234.491 99.6528C229.715 101.459 224.234 102.392 218.003 102.392V108.392C224.83 108.392 231.049 107.37 236.614 105.265L234.491 99.6528ZM218.003 102.392C209.391 102.392 201.796 100.449 195.136 96.6255L192.148 101.829C199.806 106.225 208.451 108.392 218.003 108.392V102.392ZM195.141 96.6285C188.538 92.8202 183.286 87.3002 179.387 79.9704L174.09 82.7881C178.477 91.036 184.494 97.4147 192.143 101.826L195.141 96.6285ZM179.392 79.9792C175.561 72.7188 173.574 63.7958 173.574 53.0909H167.574C167.574 64.5261 169.697 74.462 174.085 82.7793L179.392 79.9792ZM173.574 53.0909C173.574 42.358 175.592 33.4255 179.482 26.1704L174.194 23.3352C169.732 31.6578 167.574 41.6173 167.574 53.0909H173.574ZM179.482 26.1704C183.411 18.8415 188.693 13.3383 195.325 9.5615L192.356 4.34759C184.671 8.72418 178.617 15.0865 174.194 23.3352L179.482 26.1704ZM195.334 9.55631C202.001 5.72911 209.533 3.78977 218.003 3.78977V-2.21023C208.575 -2.21023 199.999 -0.039719 192.347 4.35279L195.334 9.55631ZM218.003 3.78977C223.619 3.78977 228.768 4.57817 233.472 6.12534L235.346 0.425788C229.974 -1.34143 224.185 -2.21023 218.003 -2.21023V3.78977ZM233.477 6.12716C238.219 7.67672 242.38 9.925 245.989 12.8612L249.775 8.20695C245.562 4.77954 240.741 2.1888 235.341 0.423973L233.477 6.12716ZM246.001 12.8709C249.588 15.7589 252.514 19.3039 254.784 23.5356L260.071 20.7002C257.435 15.7841 253.998 11.6067 249.763 8.19729L246.001 12.8709ZM254.792 23.5504C257.071 27.7451 258.563 32.6059 259.221 38.1796L265.179 37.4766C264.445 31.2511 262.755 25.6384 260.063 20.6854L254.792 23.5504ZM274.837 104H271.837V107H274.837V104ZM274.837 2.18182V-0.818185H271.837V2.18182H274.837ZM343.445 2.18182H346.445V-0.818185H343.445V2.18182ZM343.445 19.9304V22.9304H346.445V19.9304H343.445ZM296.364 19.9304V16.9304H293.364V19.9304H296.364ZM296.364 44.1918H293.364V47.1918H296.364V44.1918ZM339.915 44.1918H342.915V41.1918H339.915V44.1918ZM339.915 61.9403V64.9403H342.915V61.9403H339.915ZM296.364 61.9403V58.9403H293.364V61.9403H296.364ZM296.364 86.2514H293.364V89.2514H296.364V86.2514ZM343.644 86.2514H346.644V83.2514H343.644V86.2514ZM343.644 104V107H346.644V104H343.644ZM277.837 104V2.18182H271.837V104H277.837ZM274.837 5.18182H343.445V-0.818185H274.837V5.18182ZM340.445 2.18182V19.9304H346.445V2.18182H340.445ZM343.445 16.9304H296.364V22.9304H343.445V16.9304ZM293.364 19.9304V44.1918H299.364V19.9304H293.364ZM296.364 47.1918H339.915V41.1918H296.364V47.1918ZM336.915 44.1918V61.9403H342.915V44.1918H336.915ZM339.915 58.9403H296.364V64.9403H339.915V58.9403ZM293.364 61.9403V86.2514H299.364V61.9403H293.364ZM296.364 89.2514H343.644V83.2514H296.364V89.2514ZM340.644 86.2514V104H346.644V86.2514H340.644ZM343.644 101H274.837V107H343.644V101ZM442.923 2.18182H445.923V-0.818185H442.923V2.18182ZM442.923 104V107H445.923V104H442.923ZM424.329 104L421.861 105.706L422.756 107H424.329V104ZM380.032 39.9162L382.5 38.2104L381.606 36.9162H380.032V39.9162ZM379.287 39.9162V36.9162H376.287V39.9162H379.287ZM379.287 104V107H382.287V104H379.287ZM357.76 104H354.76V107H357.76V104ZM357.76 2.18182V-0.818185H354.76V2.18182H357.76ZM376.652 2.18182L379.125 0.484185L378.231 -0.818185H376.652V2.18182ZM420.6 66.2159L418.127 67.9135L419.021 69.2159H420.6V66.2159ZM421.495 66.2159V69.2159H424.495V66.2159H421.495ZM421.495 2.18182V-0.818185H418.495V2.18182H421.495ZM439.923 2.18182V104H445.923V2.18182H439.923ZM442.923 101H424.329V107H442.923V101ZM426.797 102.294L382.5 38.2104L377.564 41.622L421.861 105.706L426.797 102.294ZM380.032 36.9162H379.287V42.9162H380.032V36.9162ZM376.287 39.9162V104H382.287V39.9162H376.287ZM379.287 101H357.76V107H379.287V101ZM360.76 104V2.18182H354.76V104H360.76ZM357.76 5.18182H376.652V-0.818185H357.76V5.18182ZM374.178 3.87944L418.127 67.9135L423.074 64.5183L379.125 0.484185L374.178 3.87944ZM420.6 69.2159H421.495V63.2159H420.6V69.2159ZM424.495 66.2159V2.18182H418.495V66.2159H424.495ZM421.495 5.18182H442.923V-0.818185H421.495V5.18182ZM454.031 19.9304H451.031V22.9304H454.031V19.9304ZM454.031 2.18182V-0.818185H451.031V2.18182H454.031ZM537.653 2.18182H540.653V-0.818185H537.653V2.18182ZM537.653 19.9304V22.9304H540.653V19.9304H537.653ZM506.481 19.9304V16.9304H503.481V19.9304H506.481ZM506.481 104V107H509.481V104H506.481ZM485.203 104H482.203V107H485.203V104ZM485.203 19.9304H488.203V16.9304H485.203V19.9304ZM457.031 19.9304V2.18182H451.031V19.9304H457.031ZM454.031 5.18182H537.653V-0.818185H454.031V5.18182ZM534.653 2.18182V19.9304H540.653V2.18182H534.653ZM537.653 16.9304H506.481V22.9304H537.653V16.9304ZM503.481 19.9304V104H509.481V19.9304H503.481ZM506.481 101H485.203V107H506.481V101ZM488.203 104V19.9304H482.203V104H488.203ZM485.203 16.9304H454.031V22.9304H485.203V16.9304ZM548.624 104H545.624V107H548.624V104ZM548.624 2.18182V-0.818185H545.624V2.18182H548.624ZM570.151 2.18182H573.151V-0.818185H570.151V2.18182ZM570.151 86.2514H567.151V89.2514H570.151V86.2514ZM613.802 86.2514H616.802V83.2514H613.802V86.2514ZM613.802 104V107H616.802V104H613.802ZM551.624 104V2.18182H545.624V104H551.624ZM548.624 5.18182H570.151V-0.818185H548.624V5.18182ZM567.151 2.18182V86.2514H573.151V2.18182H567.151ZM570.151 89.2514H613.802V83.2514H570.151V89.2514ZM610.802 86.2514V104H616.802V86.2514H610.802ZM613.802 101H548.624V107H613.802V101ZM606.304 2.18182V-0.818185H601.167L603.691 3.65597L606.304 2.18182ZM630.416 2.18182L633.067 0.778014L632.222 -0.818185H630.416V2.18182ZM653.633 46.0312L650.982 47.4351L651.827 49.0312H653.633V46.0312ZM654.628 46.0312V49.0312H656.434L657.279 47.4351L654.628 46.0312ZM677.845 2.18182V-0.818185H676.039L675.194 0.778014L677.845 2.18182ZM701.957 2.18182L704.57 3.65597L707.094 -0.818185H701.957V2.18182ZM664.819 68.0057L662.207 66.5315L661.819 67.2178V68.0057H664.819ZM664.819 104V107H667.819V104H664.819ZM643.442 104H640.442V107H643.442V104ZM643.442 68.0057H646.442V67.2178L646.054 66.5315L643.442 68.0057ZM606.304 5.18182H630.416V-0.818185H606.304V5.18182ZM627.765 3.58562L650.982 47.4351L656.285 44.6274L633.067 0.778014L627.765 3.58562ZM653.633 49.0312H654.628V43.0312H653.633V49.0312ZM657.279 47.4351L680.496 3.58562L675.194 0.778014L651.976 44.6274L657.279 47.4351ZM677.845 5.18182H701.957V-0.818185H677.845V5.18182ZM699.344 0.70766L662.207 66.5315L667.432 69.4798L704.57 3.65597L699.344 0.70766ZM661.819 68.0057V104H667.819V68.0057H661.819ZM664.819 101H643.442V107H664.819V101ZM646.442 104V68.0057H640.442V104H646.442ZM646.054 66.5315L608.917 0.70766L603.691 3.65597L640.829 69.4798L646.054 66.5315ZM758.067 104V107H760.246L760.92 104.928L758.067 104ZM734.999 104L732.163 103.021L730.79 107H734.999V104ZM770.148 2.18182V-0.818185H768.01L767.312 1.20286L770.148 2.18182ZM797.89 2.18182L800.726 1.2041L800.029 -0.818185H797.89V2.18182ZM832.989 104V107H837.196L835.825 103.022L832.989 104ZM809.921 104L807.067 104.926L807.741 107H809.921V104ZM784.417 25.4489L787.27 24.5224L786.597 22.4489H784.417V25.4489ZM783.621 25.4489V22.4489H781.442L780.768 24.5208L783.621 25.4489ZM756.625 63.9787V60.9787H753.625V63.9787H756.625ZM811.114 63.9787H814.114V60.9787H811.114V63.9787ZM811.114 80.7827V83.7827H814.114V80.7827H811.114ZM756.625 80.7827H753.625V83.7827H756.625V80.7827ZM758.067 101H734.999V107H758.067V101ZM737.835 104.979L772.984 3.16077L767.312 1.20286L732.163 103.021L737.835 104.979ZM770.148 5.18182H797.89V-0.818185H770.148V5.18182ZM795.053 3.15953L830.153 104.978L835.825 103.022L800.726 1.2041L795.053 3.15953ZM832.989 101H809.921V107H832.989V101ZM812.774 103.074L787.27 24.5224L781.563 26.3753L807.067 104.926L812.774 103.074ZM784.417 22.4489H783.621V28.4489H784.417V22.4489ZM780.768 24.5208L755.214 103.072L760.92 104.928L786.474 26.3769L780.768 24.5208ZM756.625 66.9787H811.114V60.9787H756.625V66.9787ZM808.114 63.9787V80.7827H814.114V63.9787H808.114ZM811.114 77.7827H756.625V83.7827H811.114V77.7827ZM759.625 80.7827V63.9787H753.625V80.7827H759.625ZM842.444 104H839.444V107H842.444V104ZM842.444 2.18182V-0.818185H839.444V2.18182H842.444ZM905.285 8.29688L903.836 10.9238L903.845 10.9288L905.285 8.29688ZM922.337 25.7472L919.68 27.1396L919.685 27.1487L922.337 25.7472ZM922.337 80.3352L919.682 78.9385L919.678 78.9475L922.337 80.3352ZM905.185 97.8849L903.746 95.2526L903.741 95.2553L905.185 97.8849ZM863.971 85.5554H860.971V88.5554H863.971V85.5554ZM893.701 82.1747L895.083 84.8374L895.091 84.8334L893.701 82.1747ZM903.545 71.5852L900.821 70.3269L900.818 70.3353L903.545 71.5852ZM903.545 34.5469L900.818 35.7968L900.821 35.8046L900.825 35.8124L903.545 34.5469ZM893.751 24.0071L895.133 21.3444L895.133 21.3444L893.751 24.0071ZM863.971 20.6264V17.6264H860.971V20.6264H863.971ZM878.538 101H842.444V107H878.538V101ZM845.444 104V2.18182H839.444V104H845.444ZM842.444 5.18182H878.836V-0.818185H842.444V5.18182ZM878.836 5.18182C888.678 5.18182 896.974 7.13892 903.836 10.9238L906.734 5.66997C898.814 1.30142 889.477 -0.818185 878.836 -0.818185V5.18182ZM903.845 10.9288C910.708 14.6832 915.973 20.0643 919.68 27.1396L924.995 24.3547C920.748 16.2501 914.644 9.9977 906.725 5.66499L903.845 10.9288ZM919.685 27.1487C923.42 34.2179 925.353 42.7955 925.353 52.9915H931.353C931.353 42.0416 929.276 32.4564 924.99 24.3456L919.685 27.1487ZM925.353 52.9915C925.353 63.2218 923.42 71.8346 919.682 78.9385L924.992 81.732C929.276 73.5897 931.353 63.9733 931.353 52.9915H925.353ZM919.678 78.9475C915.972 86.0506 910.676 91.4643 903.746 95.2526L906.624 100.517C914.609 96.1522 920.749 89.866 924.997 81.7229L919.678 78.9475ZM903.741 95.2553C896.847 99.0409 888.484 101 878.538 101V107C889.273 107 898.675 104.882 906.629 100.515L903.741 95.2553ZM863.971 88.5554H877.643V82.5554H863.971V88.5554ZM877.643 88.5554C884.348 88.5554 890.205 87.3694 895.083 84.8374L892.319 79.5121C888.513 81.4877 883.665 82.5554 877.643 82.5554V88.5554ZM895.091 84.8334C900.094 82.2179 903.826 78.1717 906.272 72.8352L900.818 70.3353C898.889 74.5442 896.058 77.5577 892.311 79.516L895.091 84.8334ZM906.268 72.8436C908.732 67.5107 909.876 60.8414 909.876 52.9915H903.876C903.876 60.3215 902.799 66.048 900.822 70.3269L906.268 72.8436ZM909.876 52.9915C909.876 45.2048 908.731 38.5827 906.265 33.2813L900.825 35.8124C902.799 40.0565 903.876 45.7308 903.876 52.9915H909.876ZM906.272 33.2969C903.828 27.9641 900.113 23.9294 895.133 21.3444L892.369 26.6697C896.073 28.5924 898.887 31.5842 900.818 35.7968L906.272 33.2969ZM895.133 21.3444C890.255 18.8125 884.397 17.6264 877.693 17.6264V23.6264C883.715 23.6264 888.563 24.6942 892.369 26.6697L895.133 21.3444ZM877.693 17.6264H863.971V23.6264H877.693V17.6264ZM860.971 20.6264V85.5554H866.971V20.6264H860.971ZM941.499 104H938.499V107H941.499V104ZM941.499 2.18182V-0.818185H938.499V2.18182H941.499ZM1004.34 8.29688L1002.89 10.9238L1002.9 10.9288L1004.34 8.29688ZM1021.39 25.7472L1018.74 27.1396L1018.74 27.1487L1021.39 25.7472ZM1021.39 80.3352L1018.74 78.9385L1018.73 78.9475L1021.39 80.3352ZM1004.24 97.8849L1002.8 95.2526L1002.8 95.2553L1004.24 97.8849ZM963.026 85.5554H960.026V88.5554H963.026V85.5554ZM992.757 82.1747L994.139 84.8374L994.146 84.8334L992.757 82.1747ZM1002.6 71.5852L999.877 70.3269L999.873 70.3353L1002.6 71.5852ZM1002.6 34.5469L999.873 35.7968L999.877 35.8046L999.88 35.8124L1002.6 34.5469ZM992.806 24.0071L994.188 21.3444L994.188 21.3444L992.806 24.0071ZM963.026 20.6264V17.6264H960.026V20.6264H963.026ZM977.593 101H941.499V107H977.593V101ZM944.499 104V2.18182H938.499V104H944.499ZM941.499 5.18182H977.892V-0.818185H941.499V5.18182ZM977.892 5.18182C987.734 5.18182 996.029 7.13892 1002.89 10.9238L1005.79 5.66997C997.869 1.30142 988.532 -0.818185 977.892 -0.818185V5.18182ZM1002.9 10.9288C1009.76 14.6832 1015.03 20.0643 1018.74 27.1396L1024.05 24.3547C1019.8 16.2501 1013.7 9.9977 1005.78 5.66499L1002.9 10.9288ZM1018.74 27.1487C1022.48 34.2179 1024.41 42.7955 1024.41 52.9915H1030.41C1030.41 42.0416 1028.33 32.4564 1024.05 24.3456L1018.74 27.1487ZM1024.41 52.9915C1024.41 63.2218 1022.48 71.8346 1018.74 78.9385L1024.05 81.732C1028.33 73.5897 1030.41 63.9733 1030.41 52.9915H1024.41ZM1018.73 78.9475C1015.03 86.0506 1009.73 91.4643 1002.8 95.2526L1005.68 100.517C1013.66 96.1522 1019.8 89.866 1024.05 81.7229L1018.73 78.9475ZM1002.8 95.2553C995.903 99.0409 987.54 101 977.593 101V107C988.328 107 997.73 104.882 1005.68 100.515L1002.8 95.2553ZM963.026 88.5554H976.698V82.5554H963.026V88.5554ZM976.698 88.5554C983.403 88.5554 989.261 87.3694 994.139 84.8374L991.374 79.5121C987.569 81.4877 982.721 82.5554 976.698 82.5554V88.5554ZM994.146 84.8334C999.15 82.2179 1002.88 78.1717 1005.33 72.8352L999.873 70.3353C997.944 74.5442 995.113 77.5577 991.367 79.516L994.146 84.8334ZM1005.32 72.8436C1007.79 67.5107 1008.93 60.8414 1008.93 52.9915H1002.93C1002.93 60.3215 1001.85 66.048 999.877 70.3269L1005.32 72.8436ZM1008.93 52.9915C1008.93 45.2048 1007.79 38.5827 1005.32 33.2813L999.88 35.8124C1001.85 40.0565 1002.93 45.7308 1002.93 52.9915H1008.93ZM1005.33 33.2969C1002.88 27.9641 999.168 23.9294 994.188 21.3444L991.424 26.6697C995.128 28.5924 997.942 31.5842 999.873 35.7968L1005.33 33.2969ZM994.188 21.3444C989.311 18.8125 983.453 17.6264 976.748 17.6264V23.6264C982.77 23.6264 987.618 24.6942 991.424 26.6697L994.188 21.3444ZM976.748 17.6264H963.026V23.6264H976.748V17.6264ZM960.026 20.6264V85.5554H966.026V20.6264H960.026ZM1040.55 104H1037.55V107H1040.55V104ZM1040.55 2.18182V-0.818185H1037.55V2.18182H1040.55ZM1109.16 2.18182H1112.16V-0.818185H1109.16V2.18182ZM1109.16 19.9304V22.9304H1112.16V19.9304H1109.16ZM1062.08 19.9304V16.9304H1059.08V19.9304H1062.08ZM1062.08 44.1918H1059.08V47.1918H1062.08V44.1918ZM1105.63 44.1918H1108.63V41.1918H1105.63V44.1918ZM1105.63 61.9403V64.9403H1108.63V61.9403H1105.63ZM1062.08 61.9403V58.9403H1059.08V61.9403H1062.08ZM1062.08 86.2514H1059.08V89.2514H1062.08V86.2514ZM1109.36 86.2514H1112.36V83.2514H1109.36V86.2514ZM1109.36 104V107H1112.36V104H1109.36ZM1043.55 104V2.18182H1037.55V104H1043.55ZM1040.55 5.18182H1109.16V-0.818185H1040.55V5.18182ZM1106.16 2.18182V19.9304H1112.16V2.18182H1106.16ZM1109.16 16.9304H1062.08V22.9304H1109.16V16.9304ZM1059.08 19.9304V44.1918H1065.08V19.9304H1059.08ZM1062.08 47.1918H1105.63V41.1918H1062.08V47.1918ZM1102.63 44.1918V61.9403H1108.63V44.1918H1102.63ZM1105.63 58.9403H1062.08V64.9403H1105.63V58.9403ZM1059.08 61.9403V86.2514H1065.08V61.9403H1059.08ZM1062.08 89.2514H1109.36V83.2514H1062.08V89.2514ZM1106.36 86.2514V104H1112.36V86.2514H1106.36ZM1109.36 101H1040.55V107H1109.36V101ZM1123.48 104H1120.48V107H1123.48V104ZM1123.48 2.18182V-0.818185H1120.48V2.18182H1123.48ZM1186.32 8.29688L1184.87 10.9238L1184.88 10.9288L1186.32 8.29688ZM1203.37 25.7472L1200.71 27.1396L1200.72 27.1487L1203.37 25.7472ZM1203.37 80.3352L1200.72 78.9385L1200.71 78.9475L1203.37 80.3352ZM1186.22 97.8849L1184.78 95.2526L1184.78 95.2553L1186.22 97.8849ZM1145 85.5554H1142V88.5554H1145V85.5554ZM1174.73 82.1747L1176.12 84.8374L1176.12 84.8334L1174.73 82.1747ZM1184.58 71.5852L1181.86 70.3269L1181.85 70.3353L1184.58 71.5852ZM1184.58 34.5469L1181.85 35.7968L1181.85 35.8046L1181.86 35.8124L1184.58 34.5469ZM1174.78 24.0071L1176.17 21.3444L1176.17 21.3444L1174.78 24.0071ZM1145 20.6264V17.6264H1142V20.6264H1145ZM1159.57 101H1123.48V107H1159.57V101ZM1126.48 104V2.18182H1120.48V104H1126.48ZM1123.48 5.18182H1159.87V-0.818185H1123.48V5.18182ZM1159.87 5.18182C1169.71 5.18182 1178.01 7.13892 1184.87 10.9238L1187.77 5.66997C1179.85 1.30142 1170.51 -0.818185 1159.87 -0.818185V5.18182ZM1184.88 10.9288C1191.74 14.6832 1197.01 20.0643 1200.71 27.1396L1206.03 24.3547C1201.78 16.2501 1195.68 9.9977 1187.76 5.66499L1184.88 10.9288ZM1200.72 27.1487C1204.45 34.2179 1206.39 42.7955 1206.39 52.9915H1212.39C1212.39 42.0416 1210.31 32.4564 1206.02 24.3456L1200.72 27.1487ZM1206.39 52.9915C1206.39 63.2218 1204.45 71.8346 1200.72 78.9385L1206.03 81.732C1210.31 73.5897 1212.39 63.9733 1212.39 52.9915H1206.39ZM1200.71 78.9475C1197.01 86.0506 1191.71 91.4643 1184.78 95.2526L1187.66 100.517C1195.64 96.1522 1201.78 89.866 1206.03 81.7229L1200.71 78.9475ZM1184.78 95.2553C1177.88 99.0409 1169.52 101 1159.57 101V107C1170.31 107 1179.71 104.882 1187.66 100.515L1184.78 95.2553ZM1145 88.5554H1158.68V82.5554H1145V88.5554ZM1158.68 88.5554C1165.38 88.5554 1171.24 87.3694 1176.12 84.8374L1173.35 79.5121C1169.55 81.4877 1164.7 82.5554 1158.68 82.5554V88.5554ZM1176.12 84.8334C1181.13 82.2179 1184.86 78.1717 1187.31 72.8352L1181.85 70.3353C1179.92 74.5442 1177.09 77.5577 1173.34 79.516L1176.12 84.8334ZM1187.3 72.8436C1189.77 67.5107 1190.91 60.8414 1190.91 52.9915H1184.91C1184.91 60.3215 1183.83 66.048 1181.86 70.3269L1187.3 72.8436ZM1190.91 52.9915C1190.91 45.2048 1189.77 38.5827 1187.3 33.2813L1181.86 35.8124C1183.83 40.0565 1184.91 45.7308 1184.91 52.9915H1190.91ZM1187.31 33.2969C1184.86 27.9641 1181.15 23.9294 1176.17 21.3444L1173.4 26.6697C1177.11 28.5924 1179.92 31.5842 1181.85 35.7968L1187.31 33.2969ZM1176.17 21.3444C1171.29 18.8125 1165.43 17.6264 1158.73 17.6264V23.6264C1164.75 23.6264 1169.6 24.6942 1173.4 26.6697L1176.17 21.3444ZM1158.73 17.6264H1145V23.6264H1158.73V17.6264ZM1142 20.6264V85.5554H1148V20.6264H1142Z" fill="white" mask="url(#path-1-outside-1_1_22)"/>
</svg>
