<svg width="836" height="210" viewBox="0 0 836 210" fill="none" xmlns="http://www.w3.org/2000/svg">
<mask id="path-1-outside-1_1_16" maskUnits="userSpaceOnUse" x="-3" y="-3" width="843" height="216" fill="black">
<rect fill="white" x="-3" y="-3" width="843" height="216"/>
<path d="M0.814495 3.36363H53.9111L109.991 140.182H112.377L168.457 3.36363H221.553V207H179.792V74.4574H178.101L125.403 206.006H96.9651L44.2662 73.9602H42.5759V207H0.814495V3.36363ZM366.007 3.36363H409.061V135.608C409.061 150.456 405.514 163.449 398.421 174.585C391.395 185.722 381.551 194.405 368.89 200.636C356.229 206.801 341.48 209.884 324.643 209.884C307.74 209.884 292.957 206.801 280.296 200.636C267.635 194.405 257.792 185.722 250.765 174.585C243.739 163.449 240.225 150.456 240.225 135.608V3.36363H283.279V131.929C283.279 139.685 284.97 146.579 288.35 152.611C291.797 158.643 296.636 163.383 302.867 166.83C309.099 170.277 316.357 172 324.643 172C332.995 172 340.254 170.277 346.419 166.83C352.65 163.383 357.456 158.643 360.836 152.611C364.283 146.579 366.007 139.685 366.007 131.929V3.36363ZM538.152 61.929C537.357 53.9081 533.943 47.6771 527.911 43.2358C521.878 38.7945 513.692 36.5739 503.351 36.5739C496.324 36.5739 490.392 37.5682 485.553 39.5568C480.714 41.4792 477.001 44.1638 474.416 47.6108C471.897 51.0578 470.638 54.9688 470.638 59.3438C470.505 62.9896 471.268 66.1714 472.925 68.8892C474.648 71.607 477.001 73.9602 479.984 75.9489C482.967 77.8712 486.414 79.5615 490.325 81.0199C494.236 82.4119 498.412 83.6051 502.854 84.5994L521.149 88.9744C530.032 90.9631 538.185 93.6146 545.609 96.929C553.034 100.243 559.464 104.32 564.899 109.159C570.335 113.998 574.544 119.699 577.527 126.261C580.576 132.824 582.134 140.348 582.2 148.832C582.134 161.295 578.952 172.099 572.655 181.247C566.424 190.329 557.409 197.388 545.609 202.426C533.876 207.398 519.724 209.884 503.152 209.884C486.713 209.884 472.394 207.365 460.197 202.327C448.067 197.289 438.588 189.831 431.76 179.955C424.999 170.011 421.452 157.715 421.121 143.065H462.783C463.247 149.893 465.202 155.594 468.649 160.168C472.162 164.675 476.836 168.089 482.669 170.409C488.569 172.663 495.231 173.79 502.655 173.79C509.946 173.79 516.277 172.729 521.646 170.608C527.082 168.487 531.291 165.537 534.274 161.759C537.257 157.98 538.749 153.638 538.749 148.733C538.749 144.159 537.39 140.314 534.672 137.199C532.02 134.083 528.109 131.432 522.939 129.244C517.835 127.057 511.571 125.068 504.146 123.278L481.973 117.71C464.804 113.534 451.249 107.005 441.305 98.1222C431.362 89.2396 426.424 77.2746 426.49 62.2273C426.424 49.8977 429.705 39.1259 436.334 29.9119C443.029 20.6979 452.21 13.5057 463.876 8.33522C475.543 3.16477 488.801 0.579538 503.649 0.579538C518.763 0.579538 531.954 3.16477 543.223 8.33522C554.558 13.5057 563.375 20.6979 569.672 29.9119C575.969 39.1259 579.217 49.7983 579.416 61.929H538.152ZM637.414 3.36363V207H594.36V3.36363H637.414ZM835.71 74.6562H792.159C791.363 69.0218 789.739 64.017 787.286 59.642C784.834 55.2007 781.685 51.4223 777.84 48.3068C773.996 45.1913 769.554 42.8049 764.517 41.1477C759.545 39.4905 754.142 38.6619 748.309 38.6619C737.769 38.6619 728.588 41.2803 720.767 46.517C712.945 51.6875 706.879 59.2443 702.57 69.1875C698.262 79.0644 696.107 91.0625 696.107 105.182C696.107 119.699 698.262 131.896 702.57 141.773C706.945 151.65 713.044 159.107 720.866 164.145C728.688 169.183 737.736 171.702 748.011 171.702C753.778 171.702 759.114 170.939 764.019 169.415C768.991 167.89 773.399 165.67 777.244 162.753C781.088 159.77 784.27 156.157 786.789 151.915C789.374 147.672 791.164 142.833 792.159 137.398L835.71 137.597C834.583 146.943 831.766 155.958 827.258 164.642C822.817 173.259 816.818 180.982 809.261 187.81C801.77 194.571 792.821 199.94 782.414 203.918C772.073 207.829 760.374 209.784 747.315 209.784C729.152 209.784 712.911 205.674 698.593 197.455C684.341 189.235 673.072 177.336 664.786 161.759C656.567 146.181 652.457 127.322 652.457 105.182C652.457 82.9754 656.633 64.0833 664.985 48.5057C673.338 32.928 684.673 21.0625 698.991 12.9091C713.309 4.68939 729.417 0.579538 747.315 0.579538C759.114 0.579538 770.052 2.23674 780.127 5.55113C790.269 8.86553 799.251 13.7045 807.073 20.0682C814.895 26.3655 821.259 34.0881 826.164 43.2358C831.136 52.3835 834.318 62.857 835.71 74.6562Z"/>
</mask>
<path d="M0.814495 3.36363H53.9111L109.991 140.182H112.377L168.457 3.36363H221.553V207H179.792V74.4574H178.101L125.403 206.006H96.9651L44.2662 73.9602H42.5759V207H0.814495V3.36363ZM366.007 3.36363H409.061V135.608C409.061 150.456 405.514 163.449 398.421 174.585C391.395 185.722 381.551 194.405 368.89 200.636C356.229 206.801 341.48 209.884 324.643 209.884C307.74 209.884 292.957 206.801 280.296 200.636C267.635 194.405 257.792 185.722 250.765 174.585C243.739 163.449 240.225 150.456 240.225 135.608V3.36363H283.279V131.929C283.279 139.685 284.97 146.579 288.35 152.611C291.797 158.643 296.636 163.383 302.867 166.83C309.099 170.277 316.357 172 324.643 172C332.995 172 340.254 170.277 346.419 166.83C352.65 163.383 357.456 158.643 360.836 152.611C364.283 146.579 366.007 139.685 366.007 131.929V3.36363ZM538.152 61.929C537.357 53.9081 533.943 47.6771 527.911 43.2358C521.878 38.7945 513.692 36.5739 503.351 36.5739C496.324 36.5739 490.392 37.5682 485.553 39.5568C480.714 41.4792 477.001 44.1638 474.416 47.6108C471.897 51.0578 470.638 54.9688 470.638 59.3438C470.505 62.9896 471.268 66.1714 472.925 68.8892C474.648 71.607 477.001 73.9602 479.984 75.9489C482.967 77.8712 486.414 79.5615 490.325 81.0199C494.236 82.4119 498.412 83.6051 502.854 84.5994L521.149 88.9744C530.032 90.9631 538.185 93.6146 545.609 96.929C553.034 100.243 559.464 104.32 564.899 109.159C570.335 113.998 574.544 119.699 577.527 126.261C580.576 132.824 582.134 140.348 582.2 148.832C582.134 161.295 578.952 172.099 572.655 181.247C566.424 190.329 557.409 197.388 545.609 202.426C533.876 207.398 519.724 209.884 503.152 209.884C486.713 209.884 472.394 207.365 460.197 202.327C448.067 197.289 438.588 189.831 431.76 179.955C424.999 170.011 421.452 157.715 421.121 143.065H462.783C463.247 149.893 465.202 155.594 468.649 160.168C472.162 164.675 476.836 168.089 482.669 170.409C488.569 172.663 495.231 173.79 502.655 173.79C509.946 173.79 516.277 172.729 521.646 170.608C527.082 168.487 531.291 165.537 534.274 161.759C537.257 157.98 538.749 153.638 538.749 148.733C538.749 144.159 537.39 140.314 534.672 137.199C532.02 134.083 528.109 131.432 522.939 129.244C517.835 127.057 511.571 125.068 504.146 123.278L481.973 117.71C464.804 113.534 451.249 107.005 441.305 98.1222C431.362 89.2396 426.424 77.2746 426.49 62.2273C426.424 49.8977 429.705 39.1259 436.334 29.9119C443.029 20.6979 452.21 13.5057 463.876 8.33522C475.543 3.16477 488.801 0.579538 503.649 0.579538C518.763 0.579538 531.954 3.16477 543.223 8.33522C554.558 13.5057 563.375 20.6979 569.672 29.9119C575.969 39.1259 579.217 49.7983 579.416 61.929H538.152ZM637.414 3.36363V207H594.36V3.36363H637.414ZM835.71 74.6562H792.159C791.363 69.0218 789.739 64.017 787.286 59.642C784.834 55.2007 781.685 51.4223 777.84 48.3068C773.996 45.1913 769.554 42.8049 764.517 41.1477C759.545 39.4905 754.142 38.6619 748.309 38.6619C737.769 38.6619 728.588 41.2803 720.767 46.517C712.945 51.6875 706.879 59.2443 702.57 69.1875C698.262 79.0644 696.107 91.0625 696.107 105.182C696.107 119.699 698.262 131.896 702.57 141.773C706.945 151.65 713.044 159.107 720.866 164.145C728.688 169.183 737.736 171.702 748.011 171.702C753.778 171.702 759.114 170.939 764.019 169.415C768.991 167.89 773.399 165.67 777.244 162.753C781.088 159.77 784.27 156.157 786.789 151.915C789.374 147.672 791.164 142.833 792.159 137.398L835.71 137.597C834.583 146.943 831.766 155.958 827.258 164.642C822.817 173.259 816.818 180.982 809.261 187.81C801.77 194.571 792.821 199.94 782.414 203.918C772.073 207.829 760.374 209.784 747.315 209.784C729.152 209.784 712.911 205.674 698.593 197.455C684.341 189.235 673.072 177.336 664.786 161.759C656.567 146.181 652.457 127.322 652.457 105.182C652.457 82.9754 656.633 64.0833 664.985 48.5057C673.338 32.928 684.673 21.0625 698.991 12.9091C713.309 4.68939 729.417 0.579538 747.315 0.579538C759.114 0.579538 770.052 2.23674 780.127 5.55113C790.269 8.86553 799.251 13.7045 807.073 20.0682C814.895 26.3655 821.259 34.0881 826.164 43.2358C831.136 52.3835 834.318 62.857 835.71 74.6562Z" fill="white"/>
<path d="M0.814495 3.36363V0.36363H-2.18551V3.36363H0.814495ZM53.9111 3.36363L56.687 2.22585L55.9237 0.36363H53.9111V3.36363ZM109.991 140.182L107.215 141.32L107.978 143.182H109.991V140.182ZM112.377 140.182V143.182H114.39L115.153 141.32L112.377 140.182ZM168.457 3.36363V0.36363H166.444L165.681 2.22585L168.457 3.36363ZM221.553 3.36363H224.553V0.36363H221.553V3.36363ZM221.553 207V210H224.553V207H221.553ZM179.792 207H176.792V210H179.792V207ZM179.792 74.4574H182.792V71.4574H179.792V74.4574ZM178.101 74.4574V71.4574H176.071L175.317 73.3418L178.101 74.4574ZM125.403 206.006V209.006H127.433L128.187 207.121L125.403 206.006ZM96.9651 206.006L94.1788 207.118L94.9323 209.006H96.9651V206.006ZM44.2662 73.9602L47.0525 72.8482L46.299 70.9602H44.2662V73.9602ZM42.5759 73.9602V70.9602H39.5759V73.9602H42.5759ZM42.5759 207V210H45.5759V207H42.5759ZM0.814495 207H-2.18551V210H0.814495V207ZM0.814495 6.36363H53.9111V0.36363H0.814495V6.36363ZM51.1352 4.50141L107.215 141.32L112.767 139.044L56.687 2.22585L51.1352 4.50141ZM109.991 143.182H112.377V137.182H109.991V143.182ZM115.153 141.32L171.232 4.50141L165.681 2.22585L109.601 139.044L115.153 141.32ZM168.457 6.36363H221.553V0.36363H168.457V6.36363ZM218.553 3.36363V207H224.553V3.36363H218.553ZM221.553 204H179.792V210H221.553V204ZM182.792 207V74.4574H176.792V207H182.792ZM179.792 71.4574H178.101V77.4574H179.792V71.4574ZM175.317 73.3418L122.618 204.89L128.187 207.121L180.886 75.573L175.317 73.3418ZM125.403 203.006H96.9651V209.006H125.403V203.006ZM99.7514 204.894L47.0525 72.8482L41.4799 75.0722L94.1788 207.118L99.7514 204.894ZM44.2662 70.9602H42.5759V76.9602H44.2662V70.9602ZM39.5759 73.9602V207H45.5759V73.9602H39.5759ZM42.5759 204H0.814495V210H42.5759V204ZM3.81449 207V3.36363H-2.18551V207H3.81449ZM366.007 3.36363V0.36363H363.007V3.36363H366.007ZM409.061 3.36363H412.061V0.36363H409.061V3.36363ZM398.421 174.585L395.891 172.974L395.884 172.984L398.421 174.585ZM368.89 200.636L370.204 203.334L370.215 203.328L368.89 200.636ZM280.296 200.636L278.972 203.328L278.983 203.334L280.296 200.636ZM250.765 174.585L248.228 176.186L248.228 176.186L250.765 174.585ZM240.225 3.36363V0.36363H237.225V3.36363H240.225ZM283.279 3.36363H286.279V0.36363H283.279V3.36363ZM288.35 152.611L285.733 154.077L285.739 154.088L285.746 154.099L288.35 152.611ZM302.867 166.83L301.415 169.455L301.415 169.455L302.867 166.83ZM346.419 166.83L344.966 164.204L344.955 164.211L346.419 166.83ZM360.836 152.611L358.231 151.122L358.225 151.133L358.219 151.144L360.836 152.611ZM366.007 6.36363H409.061V0.36363H366.007V6.36363ZM406.061 3.36363V135.608H412.061V3.36363H406.061ZM406.061 135.608C406.061 149.959 402.64 162.377 395.891 172.974L400.952 176.197C408.388 164.521 412.061 150.954 412.061 135.608H406.061ZM395.884 172.984C389.175 183.618 379.766 191.94 367.565 197.945L370.215 203.328C383.336 196.871 393.615 187.825 400.959 176.186L395.884 172.984ZM367.577 197.939C355.397 203.869 341.113 206.884 324.643 206.884V212.884C341.847 212.884 357.061 209.733 370.204 203.334L367.577 197.939ZM324.643 206.884C308.105 206.884 293.788 203.869 281.61 197.939L278.983 203.334C292.127 209.734 307.375 212.884 324.643 212.884V206.884ZM281.621 197.945C269.42 191.94 260.012 183.618 253.302 172.984L248.228 176.186C255.571 187.825 265.851 196.871 278.972 203.328L281.621 197.945ZM253.302 172.984C246.616 162.386 243.225 149.964 243.225 135.608H237.225C237.225 150.949 240.862 164.511 248.228 176.186L253.302 172.984ZM243.225 135.608V3.36363H237.225V135.608H243.225ZM240.225 6.36363H283.279V0.36363H240.225V6.36363ZM280.279 3.36363V131.929H286.279V3.36363H280.279ZM280.279 131.929C280.279 140.135 282.072 147.545 285.733 154.077L290.967 151.144C287.867 145.612 286.279 139.235 286.279 131.929H280.279ZM285.746 154.099C289.472 160.621 294.716 165.749 301.415 169.455L304.32 164.204C298.557 161.017 294.122 156.665 290.955 151.122L285.746 154.099ZM301.415 169.455C308.159 173.185 315.933 175 324.643 175V169C316.781 169 310.038 167.368 304.32 164.204L301.415 169.455ZM324.643 175C333.414 175 341.195 173.187 347.883 169.448L344.955 164.211C339.312 167.366 332.577 169 324.643 169V175ZM347.871 169.455C354.575 165.746 359.791 160.612 363.453 154.077L358.219 151.144C355.12 156.674 350.724 161.019 344.966 164.204L347.871 169.455ZM363.441 154.099C367.176 147.563 369.007 140.145 369.007 131.929H363.007C363.007 139.225 361.39 145.594 358.231 151.122L363.441 154.099ZM369.007 131.929V3.36363H363.007V131.929H369.007ZM538.152 61.929L535.167 62.225L535.435 64.929H538.152V61.929ZM485.553 39.5568L486.66 42.3449L486.677 42.3383L486.693 42.3316L485.553 39.5568ZM474.416 47.6108L472.016 45.8108L472.005 45.8257L471.994 45.8407L474.416 47.6108ZM470.638 59.3438L473.636 59.4528L473.638 59.3983V59.3438H470.638ZM472.925 68.8892L470.363 70.451L470.377 70.4736L470.391 70.4958L472.925 68.8892ZM479.984 75.9489L478.32 78.445L478.34 78.4579L478.359 78.4706L479.984 75.9489ZM490.325 81.0199L489.277 83.8308L489.298 83.8387L489.319 83.8462L490.325 81.0199ZM502.854 84.5994L503.551 81.6817L503.53 81.6766L503.509 81.6719L502.854 84.5994ZM521.149 88.9744L520.451 91.8922L520.473 91.8972L520.494 91.902L521.149 88.9744ZM545.609 96.929L544.386 99.6684L544.386 99.6684L545.609 96.929ZM564.899 109.159L566.894 106.918L566.894 106.918L564.899 109.159ZM577.527 126.261L574.796 127.503L574.801 127.514L574.806 127.526L577.527 126.261ZM582.2 148.832L585.2 148.848L585.2 148.829L585.2 148.809L582.2 148.832ZM572.655 181.247L570.184 179.546L570.181 179.55L572.655 181.247ZM545.609 202.426L546.78 205.188L546.787 205.185L545.609 202.426ZM460.197 202.327L459.047 205.097L459.052 205.099L460.197 202.327ZM431.76 179.955L429.279 181.641L429.286 181.651L429.292 181.66L431.76 179.955ZM421.121 143.065V140.065H418.052L418.122 143.133L421.121 143.065ZM462.783 143.065L465.776 142.862L465.586 140.065H462.783V143.065ZM468.649 160.168L466.253 161.973L466.268 161.993L466.283 162.012L468.649 160.168ZM482.669 170.409L481.56 173.197L481.579 173.204L481.598 173.212L482.669 170.409ZM521.646 170.608L520.556 167.813L520.544 167.818L521.646 170.608ZM534.274 161.759L536.629 163.617L536.629 163.617L534.274 161.759ZM534.672 137.199L532.387 139.143L532.399 139.157L532.411 139.171L534.672 137.199ZM522.939 129.244L521.757 132.002L521.77 132.007L522.939 129.244ZM504.146 123.278L503.416 126.188L503.429 126.192L503.443 126.195L504.146 123.278ZM481.973 117.71L482.704 114.801L482.693 114.798L482.682 114.795L481.973 117.71ZM441.305 98.1222L439.307 100.359L439.307 100.359L441.305 98.1222ZM426.49 62.2273L429.49 62.2405L429.49 62.2258L429.49 62.2111L426.49 62.2273ZM436.334 29.9119L433.907 28.1485L433.903 28.1542L433.899 28.1599L436.334 29.9119ZM543.223 8.33522L541.972 11.0619L541.978 11.0647L543.223 8.33522ZM569.672 29.9119L567.195 31.6047L567.195 31.6047L569.672 29.9119ZM579.416 61.929V64.929H582.466L582.416 61.8798L579.416 61.929ZM541.137 61.6329C540.265 52.8387 536.462 45.8066 529.689 40.82L526.132 45.6516C531.423 49.5476 534.448 54.9775 535.167 62.225L541.137 61.6329ZM529.689 40.82C522.978 35.8788 514.093 33.5739 503.351 33.5739V39.5739C513.29 39.5739 520.779 41.7102 526.132 45.6516L529.689 40.82ZM503.351 33.5739C496.06 33.5739 489.714 34.6032 484.412 36.782L486.693 42.3316C491.069 40.5332 496.589 39.5739 503.351 39.5739V33.5739ZM484.445 36.7688C479.2 38.8524 474.996 41.8375 472.016 45.8108L476.816 49.4108C479.007 46.4901 482.227 44.1059 486.66 42.3449L484.445 36.7688ZM471.994 45.8407C469.09 49.815 467.638 54.3493 467.638 59.3438H473.638C473.638 55.5882 474.705 52.3005 476.838 49.3808L471.994 45.8407ZM467.64 59.2347C467.489 63.38 468.357 67.1607 470.363 70.451L475.486 67.3274C474.178 65.1822 473.521 62.5992 473.636 59.4528L467.64 59.2347ZM470.391 70.4958C472.364 73.606 475.028 76.2505 478.32 78.445L481.648 73.4527C478.974 71.67 476.933 69.608 475.458 67.2826L470.391 70.4958ZM478.359 78.4706C481.552 80.5281 485.198 82.3099 489.277 83.8308L491.373 78.2089C487.63 76.8132 484.383 75.2143 481.609 73.4271L478.359 78.4706ZM489.319 83.8462C493.355 85.2827 497.649 86.5086 502.198 87.527L503.509 81.6719C499.175 80.7017 495.117 79.5411 491.331 78.1936L489.319 83.8462ZM502.156 87.5172L520.451 91.8922L521.847 86.0567L503.551 81.6817L502.156 87.5172ZM520.494 91.902C529.204 93.852 537.165 96.4444 544.386 99.6684L546.832 94.1896C539.205 90.7847 530.859 88.0741 521.805 86.0469L520.494 91.902ZM544.386 99.6684C551.562 102.872 557.724 106.788 562.904 111.4L566.894 106.918C561.203 101.852 554.505 97.615 546.832 94.1896L544.386 99.6684ZM562.904 111.4C568.031 115.963 571.988 121.325 574.796 127.503L580.258 125.02C577.1 118.073 572.639 112.033 566.894 106.918L562.904 111.4ZM574.806 127.526C577.646 133.638 579.137 140.726 579.2 148.856L585.2 148.809C585.131 139.969 583.506 132.01 580.248 124.997L574.806 127.526ZM579.2 148.816C579.137 160.753 576.099 170.954 570.184 179.546L575.126 182.948C581.806 173.245 585.131 161.836 585.2 148.848L579.2 148.816ZM570.181 179.55C564.323 188.088 555.795 194.815 544.431 199.667L546.787 205.185C559.023 199.961 568.525 192.569 575.129 182.944L570.181 179.55ZM544.439 199.664C533.169 204.439 519.437 206.884 503.152 206.884V212.884C520.011 212.884 534.583 210.356 546.78 205.188L544.439 199.664ZM503.152 206.884C487.012 206.884 473.099 204.41 461.343 199.554L459.052 205.099C471.69 210.319 486.413 212.884 503.152 212.884V206.884ZM461.348 199.556C449.698 194.718 440.697 187.607 434.228 178.249L429.292 181.66C436.478 192.056 446.436 199.86 459.047 205.097L461.348 199.556ZM434.241 178.268C427.87 168.898 424.441 157.196 424.12 142.997L418.122 143.133C418.463 158.234 422.128 171.124 429.279 181.641L434.241 178.268ZM421.121 146.065H462.783V140.065H421.121V146.065ZM459.79 143.269C460.285 150.562 462.393 156.85 466.253 161.973L471.045 158.362C468.012 154.337 466.208 149.224 465.776 142.862L459.79 143.269ZM466.283 162.012C470.156 166.981 475.282 170.699 481.56 173.197L483.778 167.621C478.39 165.479 474.169 162.37 471.015 158.323L466.283 162.012ZM481.598 173.212C487.894 175.617 494.928 176.79 502.655 176.79V170.79C495.534 170.79 489.243 169.709 483.74 167.607L481.598 173.212ZM502.655 176.79C510.229 176.79 516.949 175.689 522.749 173.398L520.544 167.818C515.605 169.769 509.664 170.79 502.655 170.79V176.79ZM522.737 173.403C528.564 171.129 533.252 167.895 536.629 163.617L531.92 159.9C529.331 163.179 525.6 165.845 520.556 167.813L522.737 173.403ZM536.629 163.617C540.038 159.299 541.749 154.299 541.749 148.733H535.749C535.749 152.978 534.476 156.661 531.92 159.9L536.629 163.617ZM541.749 148.733C541.749 143.517 540.179 138.948 536.933 135.227L532.411 139.171C534.601 141.681 535.749 144.801 535.749 148.733H541.749ZM536.956 135.255C533.911 131.676 529.557 128.787 524.108 126.481L521.77 132.007C526.662 134.077 530.13 136.491 532.387 139.143L536.956 135.255ZM524.121 126.487C518.816 124.214 512.381 122.178 504.849 120.362L503.443 126.195C510.76 127.959 516.853 129.9 521.757 132.002L524.121 126.487ZM504.877 120.369L482.704 114.801L481.242 120.62L503.416 126.188L504.877 120.369ZM482.682 114.795C465.843 110.699 452.78 104.35 443.304 95.8849L439.307 100.359C449.718 109.66 463.766 116.369 481.264 120.625L482.682 114.795ZM443.304 95.8849C434.088 87.6516 429.427 76.5518 429.49 62.2405L423.49 62.214C423.421 77.9974 428.637 90.8276 439.307 100.359L443.304 95.8849ZM429.49 62.2111C429.427 50.4581 432.543 40.3181 438.769 31.6639L433.899 28.1599C426.867 37.9338 423.421 49.3373 423.49 62.2434L429.49 62.2111ZM438.761 31.6754C445.109 22.9385 453.849 16.0607 465.092 11.0779L462.661 5.5925C450.571 10.9507 440.949 18.4574 433.907 28.1485L438.761 31.6754ZM465.092 11.0779C476.318 6.10263 489.151 3.57954 503.649 3.57954V-2.42046C488.45 -2.42046 474.768 0.226901 462.661 5.5925L465.092 11.0779ZM503.649 3.57954C518.424 3.57954 531.172 6.10653 541.972 11.0619L544.474 5.60853C532.736 0.223006 519.102 -2.42046 503.649 -2.42046V3.57954ZM541.978 11.0647C552.875 16.0354 561.241 22.8931 567.195 31.6047L572.149 28.2192C565.508 18.5028 556.241 10.976 544.468 5.60577L541.978 11.0647ZM567.195 31.6047C573.132 40.2916 576.226 50.3813 576.417 61.9781L582.416 61.8798C582.208 49.2153 578.806 37.9603 572.149 28.2192L567.195 31.6047ZM579.416 58.929H538.152V64.929H579.416V58.929ZM637.414 3.36363H640.414V0.36363H637.414V3.36363ZM637.414 207V210H640.414V207H637.414ZM594.36 207H591.36V210H594.36V207ZM594.36 3.36363V0.36363H591.36V3.36363H594.36ZM634.414 3.36363V207H640.414V3.36363H634.414ZM637.414 204H594.36V210H637.414V204ZM597.36 207V3.36363H591.36V207H597.36ZM594.36 6.36363H637.414V0.36363H594.36V6.36363ZM835.71 74.6562V77.6562H839.084L838.689 74.3048L835.71 74.6562ZM792.159 74.6562L789.188 75.0756L789.552 77.6562H792.159V74.6562ZM787.286 59.642L784.66 61.0923L784.665 61.1007L784.67 61.1091L787.286 59.642ZM777.84 48.3068L775.952 50.6376L775.952 50.6376L777.84 48.3068ZM764.517 41.1477L763.568 43.9938L763.579 43.9975L764.517 41.1477ZM720.767 46.517L722.421 49.0197L722.428 49.0148L722.435 49.0099L720.767 46.517ZM702.57 69.1875L705.32 70.3871L705.323 70.3803L702.57 69.1875ZM702.57 141.773L699.821 142.972L699.824 142.98L699.828 142.988L702.57 141.773ZM720.866 164.145L719.241 166.667L719.241 166.667L720.866 164.145ZM764.019 169.415L763.14 166.547L763.129 166.55L764.019 169.415ZM777.244 162.753L779.057 165.143L779.07 165.133L779.083 165.123L777.244 162.753ZM786.789 151.915L784.227 150.354L784.218 150.368L784.21 150.383L786.789 151.915ZM792.159 137.398L792.172 134.398L789.66 134.386L789.208 136.858L792.159 137.398ZM835.71 137.597L838.688 137.956L839.091 134.612L835.723 134.597L835.71 137.597ZM827.258 164.642L824.595 163.26L824.591 163.268L827.258 164.642ZM809.261 187.81L811.271 190.037L811.272 190.036L809.261 187.81ZM782.414 203.918L783.475 206.724L783.485 206.72L782.414 203.918ZM698.593 197.455L697.094 200.053L697.1 200.056L698.593 197.455ZM664.786 161.759L662.133 163.159L662.138 163.167L664.786 161.759ZM664.985 48.5057L667.629 49.9233L667.629 49.9233L664.985 48.5057ZM698.991 12.9091L700.475 15.5161L700.485 15.5109L698.991 12.9091ZM780.127 5.55113L779.19 8.40091L779.195 8.40272L780.127 5.55113ZM807.073 20.0682L805.18 22.3953L805.186 22.4002L805.192 22.405L807.073 20.0682ZM826.164 43.2358L823.52 44.6535L823.524 44.6609L823.528 44.6683L826.164 43.2358ZM835.71 71.6562H792.159V77.6562H835.71V71.6562ZM795.129 74.2369C794.289 68.2834 792.56 62.9149 789.903 58.175L784.67 61.1091C786.918 65.1191 788.438 69.7601 789.188 75.0756L795.129 74.2369ZM789.913 58.1918C787.278 53.4209 783.882 49.341 779.729 45.976L775.952 50.6376C779.488 53.5037 782.39 56.9805 784.66 61.0923L789.913 58.1918ZM779.729 45.976C775.582 42.6152 770.813 40.0607 765.454 38.2979L763.579 43.9975C768.296 45.5491 772.41 47.7674 775.952 50.6376L779.729 45.976ZM765.465 38.3017C760.155 36.5317 754.429 35.6619 748.309 35.6619V41.6619C753.856 41.6619 758.935 42.4494 763.568 43.9938L765.465 38.3017ZM748.309 35.6619C737.249 35.6619 727.471 38.418 719.098 44.0241L722.435 49.0099C729.706 44.1426 738.29 41.6619 748.309 41.6619V35.6619ZM719.112 44.0144C710.733 49.5533 704.321 57.6028 699.818 67.9947L705.323 70.3803C709.437 60.8859 715.156 53.8217 722.421 49.0197L719.112 44.0144ZM699.821 67.9879C695.304 78.3411 693.107 90.7718 693.107 105.182H699.107C699.107 91.3532 701.219 79.7877 705.32 70.3871L699.821 67.9879ZM693.107 105.182C693.107 119.976 695.3 132.61 699.821 142.972L705.32 140.573C701.223 131.182 699.107 119.421 699.107 105.182H693.107ZM699.828 142.988C704.401 153.312 710.852 161.263 719.241 166.667L722.49 161.623C715.236 156.951 709.49 149.987 705.313 140.558L699.828 142.988ZM719.241 166.667C727.598 172.049 737.222 174.702 748.011 174.702V168.702C738.25 168.702 729.778 166.317 722.49 161.623L719.241 166.667ZM748.011 174.702C754.043 174.702 759.683 173.904 764.91 172.28L763.129 166.55C758.545 167.975 753.512 168.702 748.011 168.702V174.702ZM764.899 172.283C770.181 170.663 774.91 168.288 779.057 165.143L775.431 160.363C771.888 163.051 767.801 165.117 763.14 166.547L764.899 172.283ZM779.083 165.123C783.229 161.906 786.661 158.008 789.369 153.446L784.21 150.383C781.88 154.307 778.948 157.634 775.405 160.383L779.083 165.123ZM789.351 153.476C792.148 148.886 794.057 143.694 795.11 137.938L789.208 136.858C788.272 141.973 786.601 146.458 784.227 150.354L789.351 153.476ZM792.145 140.398L835.696 140.597L835.723 134.597L792.172 134.398L792.145 140.398ZM832.731 137.237C831.649 146.213 828.944 154.883 824.595 163.26L829.921 166.024C834.587 157.034 837.516 147.673 838.688 137.956L832.731 137.237ZM824.591 163.268C820.324 171.548 814.552 178.986 807.25 185.584L811.272 190.036C819.083 182.978 825.31 174.971 829.925 166.016L824.591 163.268ZM807.251 185.583C800.062 192.071 791.441 197.256 781.343 201.115L783.485 206.72C794.202 202.624 803.478 197.071 811.271 190.037L807.251 185.583ZM781.353 201.112C771.407 204.873 760.075 206.784 747.315 206.784V212.784C760.672 212.784 772.74 210.784 783.475 206.724L781.353 201.112ZM747.315 206.784C729.622 206.784 713.906 202.786 700.087 194.853L697.1 200.056C711.917 208.563 728.682 212.784 747.315 212.784V206.784ZM700.092 194.856C686.363 186.938 675.477 175.468 667.435 160.35L662.138 163.167C670.668 179.204 682.32 191.532 697.094 200.053L700.092 194.856ZM667.44 160.358C659.499 145.309 655.457 126.957 655.457 105.182H649.457C649.457 127.687 653.635 147.052 662.133 163.159L667.44 160.358ZM655.457 105.182C655.457 83.3457 659.563 64.9672 667.629 49.9233L662.341 47.0881C653.703 63.1995 649.457 82.605 649.457 105.182H655.457ZM667.629 49.9233C675.735 34.8056 686.684 23.3696 700.475 15.516L697.506 10.3021C682.662 18.7554 670.94 31.0505 662.341 47.0881L667.629 49.9233ZM700.485 15.5109C714.31 7.5738 729.896 3.57954 747.315 3.57954V-2.42046C728.938 -2.42046 712.308 1.80498 697.497 10.3073L700.485 15.5109ZM747.315 3.57954C758.831 3.57954 769.449 5.19653 779.19 8.40091L781.065 2.70135C770.655 -0.723063 759.397 -2.42046 747.315 -2.42046V3.57954ZM779.195 8.40272C789.008 11.6095 797.66 16.2773 805.18 22.3953L808.967 17.741C800.843 11.1318 791.531 6.12157 781.059 2.69954L779.195 8.40272ZM805.192 22.405C812.69 28.4416 818.799 35.848 823.52 44.6535L828.808 41.8181C823.719 32.3282 817.1 24.2894 808.955 17.7314L805.192 22.405ZM823.528 44.6683C828.294 53.4369 831.377 63.5344 832.73 75.0077L838.689 74.3048C837.259 62.1796 833.978 51.3301 828.8 41.8032L823.528 44.6683Z" fill="white" mask="url(#path-1-outside-1_1_16)"/>
</svg>
