<svg width="1509" height="490" viewBox="0 0 1509 490" fill="none" xmlns="http://www.w3.org/2000/svg">
<g clip-path="url(#clip0_53_620)">
<mask id="path-1-outside-1_53_620" maskUnits="userSpaceOnUse" x="6" y="10" width="1495" height="470" fill="black">
<rect fill="white" x="6" y="10" width="1495" height="470"/>
<path d="M8.94442 50.8508V12.8182H188.135V50.8508H121.338V231H75.7413V50.8508H8.94442ZM214.645 231V12.8182H260.774V102.839H354.417V12.8182H400.44V231H354.417V140.872H260.774V231H214.645ZM435.473 231V12.8182H582.49V50.8508H481.602V102.839H574.926V140.872H481.602V192.967H582.916V231H435.473ZM737.797 231H660.453V12.8182H738.436C760.382 12.8182 779.274 17.1861 795.112 25.9219C810.95 34.5866 823.131 47.0511 831.654 63.3153C840.247 79.5795 844.544 99.0398 844.544 121.696C844.544 144.423 840.247 163.955 831.654 180.29C823.131 196.625 810.879 209.161 794.899 217.896C778.99 226.632 759.956 231 737.797 231ZM706.583 191.476H735.879C749.516 191.476 760.986 189.061 770.29 184.232C779.665 179.331 786.696 171.767 791.384 161.54C796.142 151.241 798.521 137.96 798.521 121.696C798.521 105.574 796.142 92.3991 791.384 82.1719C786.696 71.9446 779.7 64.4162 770.396 59.5866C761.093 54.7571 749.622 52.3423 735.986 52.3423H706.583V191.476ZM901.017 231H851.585L926.905 12.8182H986.351L1061.56 231H1012.13L957.48 62.6761H955.775L901.017 231ZM897.927 145.24H1014.69V181.249H897.927V145.24ZM1130.95 12.8182V231H1084.82V12.8182H1130.95ZM1165.91 231V12.8182H1212.04V192.967H1305.57V231H1165.91ZM1292.51 12.8182H1344.17L1393.93 106.781H1396.06L1445.81 12.8182H1497.48L1417.9 153.869V231H1372.09V153.869L1292.51 12.8182ZM160.752 318.567C159.9 309.973 156.242 303.297 149.779 298.538C143.316 293.78 134.545 291.401 123.465 291.401C115.937 291.401 109.58 292.466 104.396 294.597C99.2109 296.656 95.2337 299.533 92.4638 303.226C89.7649 306.919 88.4155 311.109 88.4155 315.797C88.2734 319.703 89.0902 323.112 90.8658 326.024C92.7124 328.936 95.2337 331.457 98.4297 333.588C101.626 335.648 105.319 337.459 109.509 339.021C113.7 340.513 118.174 341.791 122.933 342.857L142.535 347.544C152.052 349.675 160.788 352.516 168.742 356.067C176.697 359.618 183.586 363.986 189.41 369.17C195.234 374.355 199.744 380.463 202.94 387.494C206.207 394.526 207.876 402.587 207.947 411.678C207.876 425.03 204.467 436.607 197.719 446.408C191.043 456.138 181.384 463.702 168.742 469.099C156.171 474.426 141.008 477.089 123.252 477.089C105.638 477.089 90.2976 474.391 77.2294 468.993C64.2322 463.595 54.076 455.605 46.7607 445.023C39.5163 434.369 35.7166 421.195 35.3615 405.499H79.9993C80.4964 412.814 82.5916 418.922 86.2848 423.822C90.049 428.652 95.0561 432.31 101.306 434.795C107.627 437.21 114.765 438.418 122.719 438.418C130.532 438.418 137.315 437.281 143.067 435.009C148.891 432.736 153.401 429.575 156.597 425.527C159.793 421.479 161.391 416.827 161.391 411.571C161.391 406.67 159.935 402.551 157.023 399.213C154.183 395.875 149.992 393.034 144.452 390.69C138.984 388.347 132.272 386.216 124.317 384.298L100.56 378.332C82.1655 373.858 67.6413 366.862 56.9879 357.345C46.3345 347.828 41.0433 335.009 41.1143 318.886C41.0433 305.676 44.5589 294.135 51.6612 284.263C58.8345 274.391 68.6712 266.685 81.1712 261.145C93.6712 255.605 107.876 252.835 123.785 252.835C139.978 252.835 154.112 255.605 166.185 261.145C178.33 266.685 187.776 274.391 194.523 284.263C201.271 294.135 204.751 305.57 204.964 318.567H160.752ZM256.975 474V255.818H303.104V345.839H396.748V255.818H442.77V474H396.748V383.872H303.104V474H256.975ZM633.569 255.818H679.698V397.509C679.698 413.418 675.898 427.338 668.299 439.27C660.77 451.202 650.223 460.506 636.658 467.182C623.093 473.787 607.29 477.089 589.25 477.089C571.14 477.089 555.301 473.787 541.736 467.182C528.171 460.506 517.624 451.202 510.096 439.27C502.567 427.338 498.803 413.418 498.803 397.509V255.818H544.932V393.567C544.932 401.876 546.743 409.263 550.365 415.726C554.059 422.189 559.243 427.267 565.919 430.96C572.596 434.653 580.373 436.5 589.25 436.5C598.199 436.5 605.976 434.653 612.581 430.96C619.257 427.267 624.407 422.189 628.029 415.726C631.722 409.263 633.569 401.876 633.569 393.567V255.818ZM735.651 474V255.818H880.111V293.851H781.78V345.839H870.523V383.872H781.78V474H735.651ZM929.139 474V255.818H1073.6V293.851H975.268V345.839H1064.01V383.872H975.268V474H929.139ZM1122.63 474V255.818H1168.76V435.967H1262.29V474H1122.63ZM1310.84 474V255.818H1457.86V293.851H1356.97V345.839H1450.3V383.872H1356.97V435.967H1458.29V474H1310.84Z"/>
</mask>
<path d="M8.94442 50.8508H6.94442V52.8508H8.94442V50.8508ZM8.94442 12.8182V10.8182H6.94442V12.8182H8.94442ZM188.135 12.8182H190.135V10.8182H188.135V12.8182ZM188.135 50.8508V52.8508H190.135V50.8508H188.135ZM121.338 50.8508V48.8508H119.338V50.8508H121.338ZM121.338 231V233H123.338V231H121.338ZM75.7413 231H73.7413V233H75.7413V231ZM75.7413 50.8508H77.7413V48.8508H75.7413V50.8508ZM10.9444 50.8508V12.8182H6.94442V50.8508H10.9444ZM8.94442 14.8182H188.135V10.8182H8.94442V14.8182ZM186.135 12.8182V50.8508H190.135V12.8182H186.135ZM188.135 48.8508H121.338V52.8508H188.135V48.8508ZM119.338 50.8508V231H123.338V50.8508H119.338ZM121.338 229H75.7413V233H121.338V229ZM77.7413 231V50.8508H73.7413V231H77.7413ZM75.7413 48.8508H8.94442V52.8508H75.7413V48.8508ZM214.645 231H212.645V233H214.645V231ZM214.645 12.8182V10.8182H212.645V12.8182H214.645ZM260.774 12.8182H262.774V10.8182H260.774V12.8182ZM260.774 102.839H258.774V104.839H260.774V102.839ZM354.417 102.839V104.839H356.417V102.839H354.417ZM354.417 12.8182V10.8182H352.417V12.8182H354.417ZM400.44 12.8182H402.44V10.8182H400.44V12.8182ZM400.44 231V233H402.44V231H400.44ZM354.417 231H352.417V233H354.417V231ZM354.417 140.872H356.417V138.872H354.417V140.872ZM260.774 140.872V138.872H258.774V140.872H260.774ZM260.774 231V233H262.774V231H260.774ZM216.645 231V12.8182H212.645V231H216.645ZM214.645 14.8182H260.774V10.8182H214.645V14.8182ZM258.774 12.8182V102.839H262.774V12.8182H258.774ZM260.774 104.839H354.417V100.839H260.774V104.839ZM356.417 102.839V12.8182H352.417V102.839H356.417ZM354.417 14.8182H400.44V10.8182H354.417V14.8182ZM398.44 12.8182V231H402.44V12.8182H398.44ZM400.44 229H354.417V233H400.44V229ZM356.417 231V140.872H352.417V231H356.417ZM354.417 138.872H260.774V142.872H354.417V138.872ZM258.774 140.872V231H262.774V140.872H258.774ZM260.774 229H214.645V233H260.774V229ZM435.473 231H433.473V233H435.473V231ZM435.473 12.8182V10.8182H433.473V12.8182H435.473ZM582.49 12.8182H584.49V10.8182H582.49V12.8182ZM582.49 50.8508V52.8508H584.49V50.8508H582.49ZM481.602 50.8508V48.8508H479.602V50.8508H481.602ZM481.602 102.839H479.602V104.839H481.602V102.839ZM574.926 102.839H576.926V100.839H574.926V102.839ZM574.926 140.872V142.872H576.926V140.872H574.926ZM481.602 140.872V138.872H479.602V140.872H481.602ZM481.602 192.967H479.602V194.967H481.602V192.967ZM582.916 192.967H584.916V190.967H582.916V192.967ZM582.916 231V233H584.916V231H582.916ZM437.473 231V12.8182H433.473V231H437.473ZM435.473 14.8182H582.49V10.8182H435.473V14.8182ZM580.49 12.8182V50.8508H584.49V12.8182H580.49ZM582.49 48.8508H481.602V52.8508H582.49V48.8508ZM479.602 50.8508V102.839H483.602V50.8508H479.602ZM481.602 104.839H574.926V100.839H481.602V104.839ZM572.926 102.839V140.872H576.926V102.839H572.926ZM574.926 138.872H481.602V142.872H574.926V138.872ZM479.602 140.872V192.967H483.602V140.872H479.602ZM481.602 194.967H582.916V190.967H481.602V194.967ZM580.916 192.967V231H584.916V192.967H580.916ZM582.916 229H435.473V233H582.916V229ZM660.453 231H658.453V233H660.453V231ZM660.453 12.8182V10.8182H658.453V12.8182H660.453ZM795.112 25.9219L794.146 27.6732L794.152 27.6765L795.112 25.9219ZM831.654 63.3153L829.882 64.2436L829.885 64.2497L831.654 63.3153ZM831.654 180.29L829.884 179.359L829.88 179.365L831.654 180.29ZM794.899 217.896L793.94 216.141L793.937 216.143L794.899 217.896ZM706.583 191.476H704.583V193.476H706.583V191.476ZM770.29 184.232L771.211 186.007L771.216 186.004L770.29 184.232ZM791.384 161.54L789.568 160.701L789.566 160.706L791.384 161.54ZM791.384 82.1719L789.566 83.0052L789.57 83.0156L791.384 82.1719ZM770.396 59.5866L771.318 57.8115L771.318 57.8115L770.396 59.5866ZM706.583 52.3423V50.3423H704.583V52.3423H706.583ZM737.797 229H660.453V233H737.797V229ZM662.453 231V12.8182H658.453V231H662.453ZM660.453 14.8182H738.436V10.8182H660.453V14.8182ZM738.436 14.8182C760.116 14.8182 778.661 19.1319 794.146 27.6731L796.078 24.1706C779.888 15.2402 760.648 10.8182 738.436 10.8182V14.8182ZM794.152 27.6765C809.638 36.1485 821.539 48.3225 829.882 64.2436L833.425 62.387C824.723 45.7797 812.263 33.0248 796.072 24.1673L794.152 27.6765ZM829.885 64.2497C838.296 80.1667 842.544 99.2911 842.544 121.696H846.544C846.544 98.7885 842.199 78.9924 833.422 62.381L829.885 64.2497ZM842.544 121.696C842.544 144.173 838.295 163.37 829.884 179.359L833.424 181.221C842.199 164.54 846.544 144.674 846.544 121.696H842.544ZM829.88 179.365C821.539 195.353 809.568 207.598 793.94 216.141L795.859 219.651C812.191 210.723 824.723 197.897 833.427 181.215L829.88 179.365ZM793.937 216.143C778.381 224.685 759.693 229 737.797 229V233C760.219 233 779.599 228.579 795.862 219.649L793.937 216.143ZM706.583 193.476H735.879V189.476H706.583V193.476ZM735.879 193.476C749.743 193.476 761.55 191.022 771.211 186.007L769.369 182.456C760.422 187.101 749.288 189.476 735.879 189.476V193.476ZM771.216 186.004C781.01 180.884 788.342 172.976 793.202 162.373L789.566 160.706C785.05 170.558 778.319 177.778 769.363 182.459L771.216 186.004ZM793.199 162.379C798.12 151.729 800.521 138.134 800.521 121.696H796.521C796.521 137.787 794.164 150.754 789.568 160.701L793.199 162.379ZM800.521 121.696C800.521 105.399 798.12 91.9079 793.197 81.3282L789.57 83.0156C794.165 92.8904 796.521 105.749 796.521 121.696H800.521ZM793.202 81.3386C788.343 70.7379 781.047 62.8619 771.318 57.8115L769.475 61.3617C778.354 65.9705 785.049 73.1513 789.566 83.0052L793.202 81.3386ZM771.318 57.8115C761.657 52.7965 749.85 50.3423 735.986 50.3423V54.3423C749.395 54.3423 760.528 56.7177 769.475 61.3617L771.318 57.8115ZM735.986 50.3423H706.583V54.3423H735.986V50.3423ZM704.583 52.3423V191.476H708.583V52.3423H704.583ZM901.017 231V233H902.469L902.919 231.619L901.017 231ZM851.585 231L849.695 230.347L848.779 233H851.585V231ZM926.905 12.8182V10.8182H925.479L925.014 12.1655L926.905 12.8182ZM986.351 12.8182L988.241 12.1664L987.777 10.8182H986.351V12.8182ZM1061.56 231V233H1064.37L1063.45 230.348L1061.56 231ZM1012.13 231L1010.23 231.618L1010.68 233H1012.13V231ZM957.48 62.6761L959.382 62.0585L958.933 60.6761H957.48V62.6761ZM955.775 62.6761V60.6761H954.323L953.873 62.0574L955.775 62.6761ZM897.927 145.24V143.24H895.927V145.24H897.927ZM1014.69 145.24H1016.69V143.24H1014.69V145.24ZM1014.69 181.249V183.249H1016.69V181.249H1014.69ZM897.927 181.249H895.927V183.249H897.927V181.249ZM901.017 229H851.585V233H901.017V229ZM853.476 231.653L928.795 13.4708L925.014 12.1655L849.695 230.347L853.476 231.653ZM926.905 14.8182H986.351V10.8182H926.905V14.8182ZM984.46 13.47L1059.67 231.652L1063.45 230.348L988.241 12.1664L984.46 13.47ZM1061.56 229H1012.13V233H1061.56V229ZM1014.03 230.382L959.382 62.0585L955.578 63.2938L1010.23 231.618L1014.03 230.382ZM957.48 60.6761H955.775V64.6761H957.48V60.6761ZM953.873 62.0574L899.115 230.381L902.919 231.619L957.677 63.2948L953.873 62.0574ZM897.927 147.24H1014.69V143.24H897.927V147.24ZM1012.69 145.24V181.249H1016.69V145.24H1012.69ZM1014.69 179.249H897.927V183.249H1014.69V179.249ZM899.927 181.249V145.24H895.927V181.249H899.927ZM1130.95 12.8182H1132.95V10.8182H1130.95V12.8182ZM1130.95 231V233H1132.95V231H1130.95ZM1084.82 231H1082.82V233H1084.82V231ZM1084.82 12.8182V10.8182H1082.82V12.8182H1084.82ZM1128.95 12.8182V231H1132.95V12.8182H1128.95ZM1130.95 229H1084.82V233H1130.95V229ZM1086.82 231V12.8182H1082.82V231H1086.82ZM1084.82 14.8182H1130.95V10.8182H1084.82V14.8182ZM1165.91 231H1163.91V233H1165.91V231ZM1165.91 12.8182V10.8182H1163.91V12.8182H1165.91ZM1212.04 12.8182H1214.04V10.8182H1212.04V12.8182ZM1212.04 192.967H1210.04V194.967H1212.04V192.967ZM1305.57 192.967H1307.57V190.967H1305.57V192.967ZM1305.57 231V233H1307.57V231H1305.57ZM1167.91 231V12.8182H1163.91V231H1167.91ZM1165.91 14.8182H1212.04V10.8182H1165.91V14.8182ZM1210.04 12.8182V192.967H1214.04V12.8182H1210.04ZM1212.04 194.967H1305.57V190.967H1212.04V194.967ZM1303.57 192.967V231H1307.57V192.967H1303.57ZM1305.57 229H1165.91V233H1305.57V229ZM1292.51 12.8182V10.8182H1289.08L1290.76 13.8009L1292.51 12.8182ZM1344.17 12.8182L1345.94 11.8823L1345.38 10.8182H1344.17V12.8182ZM1393.93 106.781L1392.16 107.717L1392.72 108.781H1393.93V106.781ZM1396.06 106.781V108.781H1397.26L1397.82 107.717L1396.06 106.781ZM1445.81 12.8182V10.8182H1444.6L1444.04 11.8823L1445.81 12.8182ZM1497.48 12.8182L1499.22 13.8009L1500.9 10.8182H1497.48V12.8182ZM1417.9 153.869L1416.15 152.887L1415.9 153.344V153.869H1417.9ZM1417.9 231V233H1419.9V231H1417.9ZM1372.09 231H1370.09V233H1372.09V231ZM1372.09 153.869H1374.09V153.344L1373.83 152.887L1372.09 153.869ZM1292.51 14.8182H1344.17V10.8182H1292.51V14.8182ZM1342.41 13.754L1392.16 107.717L1395.69 105.845L1345.94 11.8823L1342.41 13.754ZM1393.93 108.781H1396.06V104.781H1393.93V108.781ZM1397.82 107.717L1447.58 13.754L1444.04 11.8823L1394.29 105.845L1397.82 107.717ZM1445.81 14.8182H1497.48V10.8182H1445.81V14.8182ZM1495.73 11.8354L1416.15 152.887L1419.64 154.852L1499.22 13.8009L1495.73 11.8354ZM1415.9 153.869V231H1419.9V153.869H1415.9ZM1417.9 229H1372.09V233H1417.9V229ZM1374.09 231V153.869H1370.09V231H1374.09ZM1373.83 152.887L1294.25 11.8354L1290.76 13.8009L1370.34 154.852L1373.83 152.887ZM160.752 318.567L158.762 318.764L158.941 320.567H160.752V318.567ZM104.396 294.597L105.134 296.455L105.145 296.451L105.156 296.446L104.396 294.597ZM92.4638 303.226L90.8638 302.026L90.8563 302.036L90.849 302.046L92.4638 303.226ZM88.4155 315.797L90.4142 315.87L90.4155 315.833V315.797H88.4155ZM90.8658 326.024L89.1582 327.065L89.1673 327.08L89.1768 327.095L90.8658 326.024ZM98.4297 333.588L97.3203 335.252L97.3332 335.261L97.3463 335.269L98.4297 333.588ZM109.509 339.021L108.81 340.895L108.824 340.9L108.839 340.906L109.509 339.021ZM122.933 342.857L123.398 340.911L123.384 340.908L123.369 340.905L122.933 342.857ZM142.535 347.544L142.07 349.489L142.084 349.493L142.098 349.496L142.535 347.544ZM168.742 356.067L167.927 357.893L167.927 357.893L168.742 356.067ZM189.41 369.17L190.74 367.677L190.74 367.677L189.41 369.17ZM202.94 387.494L201.119 388.322L201.122 388.33L201.126 388.337L202.94 387.494ZM207.947 411.678L209.947 411.688L209.947 411.675L209.947 411.662L207.947 411.678ZM197.719 446.408L196.072 445.274L196.07 445.276L197.719 446.408ZM168.742 469.099L169.522 470.941L169.528 470.939L168.742 469.099ZM77.2294 468.993L76.4623 470.84L76.4659 470.841L77.2294 468.993ZM46.7607 445.023L45.1068 446.147L45.1111 446.154L45.1155 446.16L46.7607 445.023ZM35.3615 405.499V403.499H33.3157L33.362 405.544L35.3615 405.499ZM79.9993 405.499L81.9947 405.363L81.868 403.499H79.9993V405.499ZM86.2848 423.822L84.6876 425.026L84.6974 425.039L84.7073 425.052L86.2848 423.822ZM101.306 434.795L100.567 436.654L100.58 436.659L100.592 436.664L101.306 434.795ZM143.067 435.009L142.34 433.145L142.333 433.148L143.067 435.009ZM156.597 425.527L158.167 426.766L158.167 426.766L156.597 425.527ZM157.023 399.213L155.5 400.509L155.508 400.519L155.516 400.528L157.023 399.213ZM144.452 390.69L143.665 392.529L143.673 392.532L144.452 390.69ZM124.317 384.298L123.83 386.238L123.84 386.24L123.849 386.243L124.317 384.298ZM100.56 378.332L101.047 376.393L101.04 376.391L101.033 376.389L100.56 378.332ZM56.9879 357.345L55.6555 358.837L55.6555 358.837L56.9879 357.345ZM41.1143 318.886L43.1143 318.895L43.1144 318.885L43.1143 318.876L41.1143 318.886ZM51.6612 284.263L50.0432 283.087L50.0377 283.095L51.6612 284.263ZM166.185 261.145L165.351 262.963L165.355 262.965L166.185 261.145ZM194.523 284.263L192.872 285.391L192.872 285.391L194.523 284.263ZM204.964 318.567V320.567H206.997L206.964 318.534L204.964 318.567ZM162.742 318.369C161.839 309.26 157.922 302.05 150.965 296.928L148.593 300.149C154.563 304.544 157.961 310.686 158.762 318.764L162.742 318.369ZM150.965 296.928C144.049 291.836 134.813 289.401 123.465 289.401V293.401C134.277 293.401 142.583 295.724 148.593 300.149L150.965 296.928ZM123.465 289.401C115.76 289.401 109.129 290.489 103.635 292.747L105.156 296.446C110.032 294.443 116.113 293.401 123.465 293.401V289.401ZM103.657 292.738C98.2018 294.905 93.8968 297.982 90.8638 302.026L94.0638 304.426C96.5705 301.084 100.22 298.407 105.134 296.455L103.657 292.738ZM90.849 302.046C87.8933 306.091 86.4155 310.696 86.4155 315.797H90.4155C90.4155 311.522 91.6366 307.748 94.0786 304.406L90.849 302.046ZM86.4168 315.724C86.2627 319.963 87.1499 323.772 89.1582 327.065L92.5734 324.983C91.0305 322.453 90.2842 319.443 90.4142 315.87L86.4168 315.724ZM89.1768 327.095C91.1892 330.269 93.9184 332.984 97.3203 335.252L99.5391 331.924C96.549 329.931 94.2355 327.603 92.5548 324.953L89.1768 327.095ZM97.3463 335.269C100.682 337.419 104.508 339.291 108.81 340.895L110.208 337.147C106.13 335.627 102.569 333.876 99.5131 331.907L97.3463 335.269ZM108.839 340.906C113.112 342.427 117.665 343.727 122.496 344.808L123.369 340.905C118.683 339.856 114.287 338.599 110.18 337.137L108.839 340.906ZM122.467 344.802L142.07 349.489L143 345.599L123.398 340.911L122.467 344.802ZM142.098 349.496C151.5 351.601 160.107 354.402 167.927 357.893L169.557 354.24C161.468 350.629 152.604 347.749 142.972 345.592L142.098 349.496ZM167.927 357.893C175.716 361.37 182.426 365.631 188.08 370.664L190.74 367.677C184.746 362.34 177.678 357.866 169.557 354.24L167.927 357.893ZM188.08 370.664C193.698 375.665 198.039 381.547 201.119 388.322L204.76 386.667C201.448 379.379 196.77 373.045 190.74 367.677L188.08 370.664ZM201.126 388.337C204.253 395.068 205.878 402.839 205.947 411.693L209.947 411.662C209.874 402.334 208.16 393.983 204.753 386.652L201.126 388.337ZM205.947 411.667C205.878 424.669 202.564 435.843 196.072 445.274L199.367 447.542C206.369 437.37 209.874 425.391 209.947 411.688L205.947 411.667ZM196.07 445.276C189.643 454.644 180.308 461.986 167.957 467.26L169.528 470.939C182.46 465.417 192.444 457.631 199.369 447.539L196.07 445.276ZM167.962 467.258C155.7 472.454 140.817 475.089 123.252 475.089V479.089C141.199 479.089 156.643 476.399 169.522 470.941L167.962 467.258ZM123.252 475.089C105.838 475.089 90.7674 472.421 77.9929 467.144L76.4659 470.841C89.8277 476.36 105.439 479.089 123.252 479.089V475.089ZM77.9965 467.146C65.3195 461.881 55.4823 454.122 48.4058 443.885L45.1155 446.16C52.6697 457.088 63.145 465.309 76.4623 470.84L77.9965 467.146ZM48.4145 443.898C41.4303 433.627 37.7093 420.849 37.361 405.453L33.362 405.544C33.7239 421.541 37.6023 435.111 45.1068 446.147L48.4145 443.898ZM35.3615 407.499H79.9993V403.499H35.3615V407.499ZM78.0039 405.634C78.5222 413.26 80.7187 419.76 84.6876 425.026L87.882 422.619C84.4646 418.084 82.4707 412.368 81.9947 405.363L78.0039 405.634ZM84.7073 425.052C88.7113 430.189 94.0201 434.05 100.567 436.654L102.045 432.937C96.0921 430.569 91.3868 427.115 87.8623 422.593L84.7073 425.052ZM100.592 436.664C107.177 439.179 114.563 440.418 122.719 440.418V436.418C114.967 436.418 108.077 435.241 102.02 432.927L100.592 436.664ZM122.719 440.418C130.72 440.418 137.763 439.255 143.802 436.869L142.333 433.148C136.866 435.308 130.344 436.418 122.719 436.418V440.418ZM143.795 436.872C149.88 434.497 154.708 431.148 158.167 426.766L155.028 424.288C152.094 428.003 147.903 430.975 142.34 433.145L143.795 436.872ZM158.167 426.766C161.647 422.358 163.391 417.267 163.391 411.571H159.391C159.391 416.386 157.939 420.6 155.028 424.288L158.167 426.766ZM163.391 411.571C163.391 406.242 161.795 401.64 158.531 397.898L155.516 400.528C158.076 403.462 159.391 407.099 159.391 411.571H163.391ZM158.547 397.917C155.443 394.27 150.957 391.271 145.232 388.848L143.673 392.532C149.027 394.797 152.922 397.48 155.5 400.509L158.547 397.917ZM145.24 388.852C139.638 386.451 132.812 384.289 124.786 382.354L123.849 386.243C131.732 388.143 138.329 390.242 143.665 392.529L145.24 388.852ZM124.805 382.359L101.047 376.393L100.073 380.272L123.83 386.238L124.805 382.359ZM101.033 376.389C82.8575 371.968 68.662 365.092 58.3204 355.854L55.6555 358.837C66.6207 368.632 81.4734 375.748 100.088 380.276L101.033 376.389ZM58.3204 355.854C48.1515 346.769 43.0455 334.527 43.1143 318.895L39.1144 318.878C39.0412 335.49 44.5175 348.887 55.6555 358.837L58.3204 355.854ZM43.1143 318.876C43.0454 306.05 46.451 294.93 53.2847 285.431L50.0377 283.095C42.6669 293.34 39.0413 305.303 39.1144 318.897L43.1143 318.876ZM53.2792 285.438C60.2214 275.884 69.7639 268.388 81.9815 262.973L80.3608 259.316C67.5785 264.981 57.4476 272.897 50.0432 283.087L53.2792 285.438ZM81.9815 262.973C94.188 257.564 108.11 254.835 123.785 254.835V250.835C107.642 250.835 93.1544 253.647 80.3608 259.316L81.9815 262.973ZM123.785 254.835C139.752 254.835 153.59 257.566 165.351 262.963L167.019 259.327C154.633 253.644 140.204 250.835 123.785 250.835V254.835ZM165.355 262.965C177.208 268.371 186.354 275.854 192.872 285.391L196.175 283.134C189.199 272.927 179.452 264.998 167.015 259.325L165.355 262.965ZM192.872 285.391C199.379 294.912 202.757 305.958 202.964 318.6L206.964 318.534C206.745 305.181 203.162 293.358 196.175 283.134L192.872 285.391ZM204.964 316.567H160.752V320.567H204.964V316.567ZM256.975 474H254.975V476H256.975V474ZM256.975 255.818V253.818H254.975V255.818H256.975ZM303.104 255.818H305.104V253.818H303.104V255.818ZM303.104 345.839H301.104V347.839H303.104V345.839ZM396.748 345.839V347.839H398.748V345.839H396.748ZM396.748 255.818V253.818H394.748V255.818H396.748ZM442.77 255.818H444.77V253.818H442.77V255.818ZM442.77 474V476H444.77V474H442.77ZM396.748 474H394.748V476H396.748V474ZM396.748 383.872H398.748V381.872H396.748V383.872ZM303.104 383.872V381.872H301.104V383.872H303.104ZM303.104 474V476H305.104V474H303.104ZM258.975 474V255.818H254.975V474H258.975ZM256.975 257.818H303.104V253.818H256.975V257.818ZM301.104 255.818V345.839H305.104V255.818H301.104ZM303.104 347.839H396.748V343.839H303.104V347.839ZM398.748 345.839V255.818H394.748V345.839H398.748ZM396.748 257.818H442.77V253.818H396.748V257.818ZM440.77 255.818V474H444.77V255.818H440.77ZM442.77 472H396.748V476H442.77V472ZM398.748 474V383.872H394.748V474H398.748ZM396.748 381.872H303.104V385.872H396.748V381.872ZM301.104 383.872V474H305.104V383.872H301.104ZM303.104 472H256.975V476H303.104V472ZM633.569 255.818V253.818H631.569V255.818H633.569ZM679.698 255.818H681.698V253.818H679.698V255.818ZM668.299 439.27L666.612 438.195L666.607 438.203L668.299 439.27ZM636.658 467.182L637.534 468.98L637.541 468.976L636.658 467.182ZM541.736 467.182L540.853 468.976L540.861 468.98L541.736 467.182ZM510.096 439.27L508.404 440.337L508.404 440.337L510.096 439.27ZM498.803 255.818V253.818H496.803V255.818H498.803ZM544.932 255.818H546.932V253.818H544.932V255.818ZM550.365 415.726L548.621 416.704L548.625 416.711L548.629 416.718L550.365 415.726ZM565.919 430.96L564.951 432.71L564.951 432.71L565.919 430.96ZM612.581 430.96L611.613 429.21L611.605 429.215L612.581 430.96ZM628.029 415.726L626.292 414.734L626.288 414.741L626.284 414.748L628.029 415.726ZM633.569 257.818H679.698V253.818H633.569V257.818ZM677.698 255.818V397.509H681.698V255.818H677.698ZM677.698 397.509C677.698 413.086 673.982 426.624 666.612 438.195L669.986 440.344C677.814 428.053 681.698 413.749 681.698 397.509H677.698ZM666.607 438.203C659.29 449.8 649.034 458.862 635.775 465.387L637.541 468.976C651.413 462.149 662.25 452.604 669.99 440.337L666.607 438.203ZM635.782 465.384C622.538 471.832 607.045 475.089 589.25 475.089V479.089C607.535 479.089 623.647 475.741 637.534 468.98L635.782 465.384ZM589.25 475.089C571.383 475.089 555.855 471.832 542.612 465.384L540.861 468.98C554.748 475.742 570.896 479.089 589.25 479.089V475.089ZM542.619 465.387C529.361 458.862 519.104 449.8 511.787 438.203L508.404 440.337C516.144 452.604 526.981 462.149 540.853 468.976L542.619 465.387ZM511.787 438.203C504.485 426.63 500.803 413.089 500.803 397.509H496.803C496.803 413.746 500.649 428.046 508.404 440.337L511.787 438.203ZM500.803 397.509V255.818H496.803V397.509H500.803ZM498.803 257.818H544.932V253.818H498.803V257.818ZM542.932 255.818V393.567H546.932V255.818H542.932ZM542.932 393.567C542.932 402.176 544.812 409.907 548.621 416.704L552.11 414.748C548.675 408.619 546.932 401.576 546.932 393.567H542.932ZM548.629 416.718C552.509 423.508 557.963 428.844 564.951 432.71L566.888 429.21C560.524 425.69 555.609 420.87 552.102 414.734L548.629 416.718ZM564.951 432.71C571.969 436.592 580.09 438.5 589.25 438.5V434.5C580.655 434.5 573.222 432.714 566.888 429.21L564.951 432.71ZM589.25 438.5C598.478 438.5 606.604 436.594 613.557 432.706L611.605 429.215C605.349 432.713 597.92 434.5 589.25 434.5V438.5ZM613.549 432.71C620.541 428.843 625.964 423.501 629.773 416.704L626.284 414.748C622.85 420.876 617.974 425.691 611.613 429.21L613.549 432.71ZM629.765 416.718C633.651 409.919 635.569 402.183 635.569 393.567H631.569C631.569 401.57 629.793 408.607 626.292 414.734L629.765 416.718ZM635.569 393.567V255.818H631.569V393.567H635.569ZM735.651 474H733.651V476H735.651V474ZM735.651 255.818V253.818H733.651V255.818H735.651ZM880.111 255.818H882.111V253.818H880.111V255.818ZM880.111 293.851V295.851H882.111V293.851H880.111ZM781.78 293.851V291.851H779.78V293.851H781.78ZM781.78 345.839H779.78V347.839H781.78V345.839ZM870.523 345.839H872.523V343.839H870.523V345.839ZM870.523 383.872V385.872H872.523V383.872H870.523ZM781.78 383.872V381.872H779.78V383.872H781.78ZM781.78 474V476H783.78V474H781.78ZM737.651 474V255.818H733.651V474H737.651ZM735.651 257.818H880.111V253.818H735.651V257.818ZM878.111 255.818V293.851H882.111V255.818H878.111ZM880.111 291.851H781.78V295.851H880.111V291.851ZM779.78 293.851V345.839H783.78V293.851H779.78ZM781.78 347.839H870.523V343.839H781.78V347.839ZM868.523 345.839V383.872H872.523V345.839H868.523ZM870.523 381.872H781.78V385.872H870.523V381.872ZM779.78 383.872V474H783.78V383.872H779.78ZM781.78 472H735.651V476H781.78V472ZM929.139 474H927.139V476H929.139V474ZM929.139 255.818V253.818H927.139V255.818H929.139ZM1073.6 255.818H1075.6V253.818H1073.6V255.818ZM1073.6 293.851V295.851H1075.6V293.851H1073.6ZM975.268 293.851V291.851H973.268V293.851H975.268ZM975.268 345.839H973.268V347.839H975.268V345.839ZM1064.01 345.839H1066.01V343.839H1064.01V345.839ZM1064.01 383.872V385.872H1066.01V383.872H1064.01ZM975.268 383.872V381.872H973.268V383.872H975.268ZM975.268 474V476H977.268V474H975.268ZM931.139 474V255.818H927.139V474H931.139ZM929.139 257.818H1073.6V253.818H929.139V257.818ZM1071.6 255.818V293.851H1075.6V255.818H1071.6ZM1073.6 291.851H975.268V295.851H1073.6V291.851ZM973.268 293.851V345.839H977.268V293.851H973.268ZM975.268 347.839H1064.01V343.839H975.268V347.839ZM1062.01 345.839V383.872H1066.01V345.839H1062.01ZM1064.01 381.872H975.268V385.872H1064.01V381.872ZM973.268 383.872V474H977.268V383.872H973.268ZM975.268 472H929.139V476H975.268V472ZM1122.63 474H1120.63V476H1122.63V474ZM1122.63 255.818V253.818H1120.63V255.818H1122.63ZM1168.76 255.818H1170.76V253.818H1168.76V255.818ZM1168.76 435.967H1166.76V437.967H1168.76V435.967ZM1262.29 435.967H1264.29V433.967H1262.29V435.967ZM1262.29 474V476H1264.29V474H1262.29ZM1124.63 474V255.818H1120.63V474H1124.63ZM1122.63 257.818H1168.76V253.818H1122.63V257.818ZM1166.76 255.818V435.967H1170.76V255.818H1166.76ZM1168.76 437.967H1262.29V433.967H1168.76V437.967ZM1260.29 435.967V474H1264.29V435.967H1260.29ZM1262.29 472H1122.63V476H1262.29V472ZM1310.84 474H1308.84V476H1310.84V474ZM1310.84 255.818V253.818H1308.84V255.818H1310.84ZM1457.86 255.818H1459.86V253.818H1457.86V255.818ZM1457.86 293.851V295.851H1459.86V293.851H1457.86ZM1356.97 293.851V291.851H1354.97V293.851H1356.97ZM1356.97 345.839H1354.97V347.839H1356.97V345.839ZM1450.3 345.839H1452.3V343.839H1450.3V345.839ZM1450.3 383.872V385.872H1452.3V383.872H1450.3ZM1356.97 383.872V381.872H1354.97V383.872H1356.97ZM1356.97 435.967H1354.97V437.967H1356.97V435.967ZM1458.29 435.967H1460.29V433.967H1458.29V435.967ZM1458.29 474V476H1460.29V474H1458.29ZM1312.84 474V255.818H1308.84V474H1312.84ZM1310.84 257.818H1457.86V253.818H1310.84V257.818ZM1455.86 255.818V293.851H1459.86V255.818H1455.86ZM1457.86 291.851H1356.97V295.851H1457.86V291.851ZM1354.97 293.851V345.839H1358.97V293.851H1354.97ZM1356.97 347.839H1450.3V343.839H1356.97V347.839ZM1448.3 345.839V383.872H1452.3V345.839H1448.3ZM1450.3 381.872H1356.97V385.872H1450.3V381.872ZM1354.97 383.872V435.967H1358.97V383.872H1354.97ZM1356.97 437.967H1458.29V433.967H1356.97V437.967ZM1456.29 435.967V474H1460.29V435.967H1456.29ZM1458.29 472H1310.84V476H1458.29V472Z" fill="#FAF6F6" mask="url(#path-1-outside-1_53_620)"/>
</g>
<defs>
<clipPath id="clip0_53_620">
<rect width="1509" height="490" fill="white"/>
</clipPath>
</defs>
</svg>
