<svg width="1321" height="210" viewBox="0 0 1321 210" fill="none" xmlns="http://www.w3.org/2000/svg">
<mask id="path-1-outside-1_1_12" maskUnits="userSpaceOnUse" x="-4" y="-3" width="1328" height="216" fill="black">
<rect fill="white" x="-4" y="-3" width="1328" height="216"/>
<path d="M46.6046 207H0.468207L70.7665 3.36363H126.249L196.448 207H150.312L99.3034 49.8977H97.7125L46.6046 207ZM43.721 126.957H152.698V160.565H43.721V126.957ZM374.261 74.6562H330.71C329.915 69.0218 328.291 64.017 325.838 59.642C323.385 55.2007 320.237 51.4223 316.392 48.3068C312.547 45.1913 308.106 42.8049 303.068 41.1477C298.096 39.4905 292.694 38.6619 286.861 38.6619C276.321 38.6619 267.14 41.2803 259.318 46.517C251.496 51.6875 245.431 59.2443 241.122 69.1875C236.813 79.0644 234.659 91.0625 234.659 105.182C234.659 119.699 236.813 131.896 241.122 141.773C245.497 151.65 251.596 159.107 259.417 164.145C267.239 169.183 276.288 171.702 286.562 171.702C292.329 171.702 297.666 170.939 302.571 169.415C307.542 167.89 311.951 165.67 315.795 162.753C319.64 159.77 322.822 156.157 325.341 151.915C327.926 147.672 329.716 142.833 330.71 137.398L374.261 137.597C373.134 146.943 370.317 155.958 365.81 164.642C361.368 173.259 355.369 180.982 347.812 187.81C340.322 194.571 331.373 199.94 320.966 203.918C310.625 207.829 298.925 209.784 285.866 209.784C267.703 209.784 251.463 205.674 237.145 197.455C222.893 189.235 211.624 177.336 203.338 161.759C195.118 146.181 191.008 127.322 191.008 105.182C191.008 82.9754 195.185 64.0833 203.537 48.5057C211.889 32.928 223.224 21.0625 237.542 12.9091C251.861 4.68939 267.969 0.579538 285.866 0.579538C297.666 0.579538 308.603 2.23674 318.679 5.55113C328.821 8.86553 337.803 13.7045 345.625 20.0682C353.447 26.3655 359.81 34.0881 364.716 43.2358C369.687 52.3835 372.869 62.857 374.261 74.6562ZM568.008 74.6562H524.457C523.662 69.0218 522.037 64.017 519.585 59.642C517.132 55.2007 513.984 51.4223 510.139 48.3068C506.294 45.1913 501.853 42.8049 496.815 41.1477C491.843 39.4905 486.441 38.6619 480.608 38.6619C470.068 38.6619 460.887 41.2803 453.065 46.517C445.243 51.6875 439.178 59.2443 434.869 69.1875C430.56 79.0644 428.406 91.0625 428.406 105.182C428.406 119.699 430.56 131.896 434.869 141.773C439.244 151.65 445.342 159.107 453.164 164.145C460.986 169.183 470.035 171.702 480.309 171.702C486.076 171.702 491.412 170.939 496.318 169.415C501.289 167.89 505.698 165.67 509.542 162.753C513.387 159.77 516.569 156.157 519.088 151.915C521.673 147.672 523.463 142.833 524.457 137.398L568.008 137.597C566.881 146.943 564.064 155.958 559.556 164.642C555.115 173.259 549.116 180.982 541.559 187.81C534.069 194.571 525.12 199.94 514.713 203.918C504.372 207.829 492.672 209.784 479.613 209.784C461.45 209.784 445.21 205.674 430.892 197.455C416.64 189.235 405.371 177.336 397.085 161.759C388.865 146.181 384.755 127.322 384.755 105.182C384.755 82.9754 388.931 64.0833 397.284 48.5057C405.636 32.928 416.971 21.0625 431.289 12.9091C445.608 4.68939 461.716 0.579538 479.613 0.579538C491.412 0.579538 502.35 2.23674 512.426 5.55113C522.568 8.86553 531.55 13.7045 539.372 20.0682C547.194 26.3655 553.557 34.0881 558.463 43.2358C563.434 52.3835 566.616 62.857 568.008 74.6562ZM769.212 105.182C769.212 127.388 765.003 146.28 756.585 161.858C748.232 177.436 736.831 189.334 722.38 197.554C707.996 205.707 691.821 209.784 673.857 209.784C655.761 209.784 639.52 205.674 625.136 197.455C610.751 189.235 599.383 177.336 591.031 161.759C582.678 146.181 578.502 127.322 578.502 105.182C578.502 82.9754 582.678 64.0833 591.031 48.5057C599.383 32.928 610.751 21.0625 625.136 12.9091C639.52 4.68939 655.761 0.579538 673.857 0.579538C691.821 0.579538 707.996 4.68939 722.38 12.9091C736.831 21.0625 748.232 32.928 756.585 48.5057C765.003 64.0833 769.212 82.9754 769.212 105.182ZM725.562 105.182C725.562 90.7973 723.407 78.6667 719.099 68.7898C714.856 58.9129 708.857 51.4224 701.102 46.3182C693.346 41.214 684.264 38.6619 673.857 38.6619C663.45 38.6619 654.369 41.214 646.613 46.3182C638.857 51.4224 632.825 58.9129 628.516 68.7898C624.274 78.6667 622.153 90.7973 622.153 105.182C622.153 119.566 624.274 131.697 628.516 141.574C632.825 151.451 638.857 158.941 646.613 164.045C654.369 169.15 663.45 171.702 673.857 171.702C684.264 171.702 693.346 169.15 701.102 164.045C708.857 158.941 714.856 151.451 719.099 141.574C723.407 131.697 725.562 119.566 725.562 105.182ZM910.086 3.36363H953.14V135.608C953.14 150.456 949.594 163.449 942.501 174.585C935.475 185.722 925.631 194.405 912.97 200.636C900.309 206.801 885.56 209.884 868.723 209.884C851.819 209.884 837.037 206.801 824.376 200.636C811.715 194.405 801.871 185.722 794.845 174.585C787.818 163.449 784.305 150.456 784.305 135.608V3.36363H827.359V131.929C827.359 139.685 829.049 146.579 832.43 152.611C835.877 158.643 840.716 163.383 846.947 166.83C853.178 170.277 860.437 172 868.723 172C877.075 172 884.334 170.277 890.498 166.83C896.729 163.383 901.535 158.643 904.916 152.611C908.363 146.579 910.086 139.685 910.086 131.929V3.36363ZM1142.09 3.36363V207H1104.9L1016.31 78.8324H1014.82V207H971.763V3.36363H1009.55L1097.44 131.432H1099.23V3.36363H1142.09ZM1153.11 38.8608V3.36363H1320.35V38.8608H1258.01V207H1215.45V38.8608H1153.11Z"/>
</mask>
<path d="M46.6046 207H0.468207L70.7665 3.36363H126.249L196.448 207H150.312L99.3034 49.8977H97.7125L46.6046 207ZM43.721 126.957H152.698V160.565H43.721V126.957ZM374.261 74.6562H330.71C329.915 69.0218 328.291 64.017 325.838 59.642C323.385 55.2007 320.237 51.4223 316.392 48.3068C312.547 45.1913 308.106 42.8049 303.068 41.1477C298.096 39.4905 292.694 38.6619 286.861 38.6619C276.321 38.6619 267.14 41.2803 259.318 46.517C251.496 51.6875 245.431 59.2443 241.122 69.1875C236.813 79.0644 234.659 91.0625 234.659 105.182C234.659 119.699 236.813 131.896 241.122 141.773C245.497 151.65 251.596 159.107 259.417 164.145C267.239 169.183 276.288 171.702 286.562 171.702C292.329 171.702 297.666 170.939 302.571 169.415C307.542 167.89 311.951 165.67 315.795 162.753C319.64 159.77 322.822 156.157 325.341 151.915C327.926 147.672 329.716 142.833 330.71 137.398L374.261 137.597C373.134 146.943 370.317 155.958 365.81 164.642C361.368 173.259 355.369 180.982 347.812 187.81C340.322 194.571 331.373 199.94 320.966 203.918C310.625 207.829 298.925 209.784 285.866 209.784C267.703 209.784 251.463 205.674 237.145 197.455C222.893 189.235 211.624 177.336 203.338 161.759C195.118 146.181 191.008 127.322 191.008 105.182C191.008 82.9754 195.185 64.0833 203.537 48.5057C211.889 32.928 223.224 21.0625 237.542 12.9091C251.861 4.68939 267.969 0.579538 285.866 0.579538C297.666 0.579538 308.603 2.23674 318.679 5.55113C328.821 8.86553 337.803 13.7045 345.625 20.0682C353.447 26.3655 359.81 34.0881 364.716 43.2358C369.687 52.3835 372.869 62.857 374.261 74.6562ZM568.008 74.6562H524.457C523.662 69.0218 522.037 64.017 519.585 59.642C517.132 55.2007 513.984 51.4223 510.139 48.3068C506.294 45.1913 501.853 42.8049 496.815 41.1477C491.843 39.4905 486.441 38.6619 480.608 38.6619C470.068 38.6619 460.887 41.2803 453.065 46.517C445.243 51.6875 439.178 59.2443 434.869 69.1875C430.56 79.0644 428.406 91.0625 428.406 105.182C428.406 119.699 430.56 131.896 434.869 141.773C439.244 151.65 445.342 159.107 453.164 164.145C460.986 169.183 470.035 171.702 480.309 171.702C486.076 171.702 491.412 170.939 496.318 169.415C501.289 167.89 505.698 165.67 509.542 162.753C513.387 159.77 516.569 156.157 519.088 151.915C521.673 147.672 523.463 142.833 524.457 137.398L568.008 137.597C566.881 146.943 564.064 155.958 559.556 164.642C555.115 173.259 549.116 180.982 541.559 187.81C534.069 194.571 525.12 199.94 514.713 203.918C504.372 207.829 492.672 209.784 479.613 209.784C461.45 209.784 445.21 205.674 430.892 197.455C416.64 189.235 405.371 177.336 397.085 161.759C388.865 146.181 384.755 127.322 384.755 105.182C384.755 82.9754 388.931 64.0833 397.284 48.5057C405.636 32.928 416.971 21.0625 431.289 12.9091C445.608 4.68939 461.716 0.579538 479.613 0.579538C491.412 0.579538 502.35 2.23674 512.426 5.55113C522.568 8.86553 531.55 13.7045 539.372 20.0682C547.194 26.3655 553.557 34.0881 558.463 43.2358C563.434 52.3835 566.616 62.857 568.008 74.6562ZM769.212 105.182C769.212 127.388 765.003 146.28 756.585 161.858C748.232 177.436 736.831 189.334 722.38 197.554C707.996 205.707 691.821 209.784 673.857 209.784C655.761 209.784 639.52 205.674 625.136 197.455C610.751 189.235 599.383 177.336 591.031 161.759C582.678 146.181 578.502 127.322 578.502 105.182C578.502 82.9754 582.678 64.0833 591.031 48.5057C599.383 32.928 610.751 21.0625 625.136 12.9091C639.52 4.68939 655.761 0.579538 673.857 0.579538C691.821 0.579538 707.996 4.68939 722.38 12.9091C736.831 21.0625 748.232 32.928 756.585 48.5057C765.003 64.0833 769.212 82.9754 769.212 105.182ZM725.562 105.182C725.562 90.7973 723.407 78.6667 719.099 68.7898C714.856 58.9129 708.857 51.4224 701.102 46.3182C693.346 41.214 684.264 38.6619 673.857 38.6619C663.45 38.6619 654.369 41.214 646.613 46.3182C638.857 51.4224 632.825 58.9129 628.516 68.7898C624.274 78.6667 622.153 90.7973 622.153 105.182C622.153 119.566 624.274 131.697 628.516 141.574C632.825 151.451 638.857 158.941 646.613 164.045C654.369 169.15 663.45 171.702 673.857 171.702C684.264 171.702 693.346 169.15 701.102 164.045C708.857 158.941 714.856 151.451 719.099 141.574C723.407 131.697 725.562 119.566 725.562 105.182ZM910.086 3.36363H953.14V135.608C953.14 150.456 949.594 163.449 942.501 174.585C935.475 185.722 925.631 194.405 912.97 200.636C900.309 206.801 885.56 209.884 868.723 209.884C851.819 209.884 837.037 206.801 824.376 200.636C811.715 194.405 801.871 185.722 794.845 174.585C787.818 163.449 784.305 150.456 784.305 135.608V3.36363H827.359V131.929C827.359 139.685 829.049 146.579 832.43 152.611C835.877 158.643 840.716 163.383 846.947 166.83C853.178 170.277 860.437 172 868.723 172C877.075 172 884.334 170.277 890.498 166.83C896.729 163.383 901.535 158.643 904.916 152.611C908.363 146.579 910.086 139.685 910.086 131.929V3.36363ZM1142.09 3.36363V207H1104.9L1016.31 78.8324H1014.82V207H971.763V3.36363H1009.55L1097.44 131.432H1099.23V3.36363H1142.09ZM1153.11 38.8608V3.36363H1320.35V38.8608H1258.01V207H1215.45V38.8608H1153.11Z" fill="white"/>
<path d="M46.6046 207V210H48.7834L49.4574 207.928L46.6046 207ZM0.468207 207L-2.36757 206.021L-3.74117 210H0.468207V207ZM70.7665 3.36363V0.36363H68.6284L67.9307 2.38468L70.7665 3.36363ZM126.249 3.36363L129.086 2.38591L128.389 0.36363H126.249V3.36363ZM196.448 207V210H200.656L199.285 206.022L196.448 207ZM150.312 207L147.459 207.926L148.132 210H150.312V207ZM99.3034 49.8977L102.157 48.9713L101.484 46.8977H99.3034V49.8977ZM97.7125 49.8977V46.8977H95.5337L94.8597 48.9696L97.7125 49.8977ZM43.721 126.957V123.957H40.721V126.957H43.721ZM152.698 126.957H155.698V123.957H152.698V126.957ZM152.698 160.565V163.565H155.698V160.565H152.698ZM43.721 160.565H40.721V163.565H43.721V160.565ZM46.6046 204H0.468207V210H46.6046V204ZM3.30399 207.979L73.6023 4.34258L67.9307 2.38468L-2.36757 206.021L3.30399 207.979ZM70.7665 6.36363H126.249V0.36363H70.7665V6.36363ZM123.413 4.34135L193.612 207.978L199.285 206.022L129.086 2.38591L123.413 4.34135ZM196.448 204H150.312V210H196.448V204ZM153.165 206.074L102.157 48.9713L96.4501 50.8242L147.459 207.926L153.165 206.074ZM99.3034 46.8977H97.7125V52.8977H99.3034V46.8977ZM94.8597 48.9696L43.7517 206.072L49.4574 207.928L100.565 50.8258L94.8597 48.9696ZM43.721 129.957H152.698V123.957H43.721V129.957ZM149.698 126.957V160.565H155.698V126.957H149.698ZM152.698 157.565H43.721V163.565H152.698V157.565ZM46.721 160.565V126.957H40.721V160.565H46.721ZM374.261 74.6562V77.6562H377.636L377.241 74.3048L374.261 74.6562ZM330.71 74.6562L327.74 75.0756L328.104 77.6562H330.71V74.6562ZM325.838 59.642L323.212 61.0923L323.216 61.1007L323.221 61.1091L325.838 59.642ZM316.392 48.3068L314.503 50.6376L314.503 50.6376L316.392 48.3068ZM303.068 41.1477L302.119 43.9938L302.131 43.9975L303.068 41.1477ZM259.318 46.517L260.972 49.0197L260.98 49.0148L260.987 49.0099L259.318 46.517ZM241.122 69.1875L243.872 70.3871L243.875 70.3803L241.122 69.1875ZM241.122 141.773L238.372 142.972L238.376 142.98L238.379 142.988L241.122 141.773ZM259.417 164.145L257.793 166.667L257.793 166.667L259.417 164.145ZM302.571 169.415L301.691 166.547L301.68 166.55L302.571 169.415ZM315.795 162.753L317.608 165.143L317.621 165.133L317.634 165.123L315.795 162.753ZM325.341 151.915L322.779 150.354L322.77 150.368L322.761 150.383L325.341 151.915ZM330.71 137.398L330.724 134.398L328.211 134.386L327.759 136.858L330.71 137.398ZM374.261 137.597L377.24 137.956L377.643 134.612L374.275 134.597L374.261 137.597ZM365.81 164.642L363.147 163.26L363.143 163.268L365.81 164.642ZM347.812 187.81L349.823 190.037L349.824 190.036L347.812 187.81ZM320.966 203.918L322.027 206.724L322.037 206.72L320.966 203.918ZM237.145 197.455L235.646 200.053L235.651 200.056L237.145 197.455ZM203.338 161.759L200.685 163.159L200.689 163.167L203.338 161.759ZM203.537 48.5057L206.181 49.9233L206.181 49.9233L203.537 48.5057ZM237.542 12.9091L239.027 15.5161L239.036 15.5109L237.542 12.9091ZM318.679 5.55113L317.741 8.40091L317.747 8.40272L318.679 5.55113ZM345.625 20.0682L343.732 22.3953L343.738 22.4002L343.744 22.405L345.625 20.0682ZM364.716 43.2358L362.072 44.6535L362.076 44.6609L362.08 44.6683L364.716 43.2358ZM374.261 71.6562H330.71V77.6562H374.261V71.6562ZM333.681 74.2369C332.84 68.2834 331.112 62.9149 328.455 58.175L323.221 61.1091C325.469 65.1191 326.989 69.7601 327.74 75.0756L333.681 74.2369ZM328.464 58.1918C325.829 53.4209 322.433 49.341 318.281 45.976L314.503 50.6376C318.04 53.5037 320.941 56.9805 323.212 61.0923L328.464 58.1918ZM318.281 45.976C314.133 42.6152 309.364 40.0607 304.005 38.2979L302.131 43.9975C306.848 45.5491 310.961 47.7674 314.503 50.6376L318.281 45.976ZM304.017 38.3017C298.707 36.5317 292.98 35.6619 286.861 35.6619V41.6619C292.408 41.6619 297.486 42.4494 302.119 43.9938L304.017 38.3017ZM286.861 35.6619C275.8 35.6619 266.023 38.418 257.649 44.0241L260.987 49.0099C268.257 44.1426 276.841 41.6619 286.861 41.6619V35.6619ZM257.664 44.0144C249.284 49.5533 242.873 57.6028 238.369 67.9947L243.875 70.3803C247.989 60.8859 253.708 53.8217 260.972 49.0197L257.664 44.0144ZM238.372 67.9879C233.856 78.3411 231.659 90.7718 231.659 105.182H237.659C237.659 91.3532 239.771 79.7877 243.872 70.3871L238.372 67.9879ZM231.659 105.182C231.659 119.976 233.852 132.61 238.372 142.972L243.872 140.573C239.775 131.182 237.659 119.421 237.659 105.182H231.659ZM238.379 142.988C242.952 153.312 249.403 161.263 257.793 166.667L261.042 161.623C253.788 156.951 248.042 149.987 243.865 140.558L238.379 142.988ZM257.793 166.667C266.149 172.049 275.774 174.702 286.562 174.702V168.702C276.802 168.702 268.33 166.317 261.042 161.623L257.793 166.667ZM286.562 174.702C292.595 174.702 298.235 173.904 303.461 172.28L301.68 166.55C297.096 167.975 292.064 168.702 286.562 168.702V174.702ZM303.45 172.283C308.733 170.663 313.462 168.288 317.608 165.143L313.982 160.363C310.439 163.051 306.352 165.117 301.691 166.547L303.45 172.283ZM317.634 165.123C321.78 161.906 325.212 158.008 327.92 153.446L322.761 150.383C320.432 154.307 317.5 157.634 313.956 160.383L317.634 165.123ZM327.903 153.476C330.699 148.886 332.608 143.694 333.661 137.938L327.759 136.858C326.823 141.973 325.153 146.458 322.779 150.354L327.903 153.476ZM330.696 140.398L374.248 140.597L374.275 134.597L330.724 134.398L330.696 140.398ZM371.283 137.237C370.201 146.213 367.495 154.883 363.147 163.26L368.472 166.024C373.139 157.034 376.068 147.673 377.24 137.956L371.283 137.237ZM363.143 163.268C358.875 171.548 353.104 178.986 345.801 185.584L349.824 190.036C357.635 182.978 363.861 174.971 368.476 166.016L363.143 163.268ZM345.802 185.583C338.614 192.071 329.992 197.256 319.895 201.115L322.037 206.72C332.754 202.624 342.03 197.071 349.823 190.037L345.802 185.583ZM319.905 201.112C309.958 204.873 298.627 206.784 285.866 206.784V212.784C299.223 212.784 311.292 210.784 322.027 206.724L319.905 201.112ZM285.866 206.784C268.174 206.784 252.457 202.786 238.638 194.853L235.651 200.056C250.468 208.563 267.233 212.784 285.866 212.784V206.784ZM238.644 194.856C224.914 186.938 214.028 175.468 205.987 160.35L200.689 163.167C209.22 179.204 220.871 191.532 235.646 200.053L238.644 194.856ZM205.991 160.358C198.05 145.309 194.008 126.957 194.008 105.182H188.008C188.008 127.687 192.186 147.052 200.685 163.159L205.991 160.358ZM194.008 105.182C194.008 83.3457 198.115 64.9672 206.181 49.9233L200.893 47.0881C192.254 63.1995 188.008 82.605 188.008 105.182H194.008ZM206.181 49.9233C214.286 34.8056 225.235 23.3696 239.027 15.516L236.058 10.3021C221.213 18.7554 209.492 31.0505 200.893 47.0881L206.181 49.9233ZM239.036 15.5109C252.862 7.5738 268.447 3.57954 285.866 3.57954V-2.42046C267.49 -2.42046 250.859 1.80498 236.049 10.3073L239.036 15.5109ZM285.866 3.57954C297.383 3.57954 308 5.19653 317.741 8.40091L319.616 2.70135C309.206 -0.723063 297.949 -2.42046 285.866 -2.42046V3.57954ZM317.747 8.40272C327.56 11.6095 336.212 16.2773 343.732 22.3953L347.518 17.741C339.394 11.1318 330.082 6.12157 319.611 2.69954L317.747 8.40272ZM343.744 22.405C351.242 28.4416 357.35 35.848 362.072 44.6535L367.36 41.8181C362.271 32.3282 355.652 24.2894 347.506 17.7314L343.744 22.405ZM362.08 44.6683C366.845 53.4369 369.928 63.5344 371.282 75.0077L377.241 74.3048C375.81 62.1796 372.529 51.3301 367.352 41.8032L362.08 44.6683ZM568.008 74.6562V77.6562H571.383L570.987 74.3048L568.008 74.6562ZM524.457 74.6562L521.486 75.0756L521.851 77.6562H524.457V74.6562ZM519.585 59.642L516.959 61.0923L516.963 61.1007L516.968 61.1091L519.585 59.642ZM510.139 48.3068L508.25 50.6376L508.25 50.6376L510.139 48.3068ZM496.815 41.1477L495.866 43.9938L495.878 43.9975L496.815 41.1477ZM453.065 46.517L454.719 49.0197L454.727 49.0148L454.734 49.0099L453.065 46.517ZM434.869 69.1875L437.619 70.3871L437.622 70.3803L434.869 69.1875ZM434.869 141.773L432.119 142.972L432.123 142.98L432.126 142.988L434.869 141.773ZM453.164 164.145L451.54 166.667L451.54 166.667L453.164 164.145ZM496.318 169.415L495.438 166.547L495.427 166.55L496.318 169.415ZM509.542 162.753L511.355 165.143L511.368 165.133L511.381 165.123L509.542 162.753ZM519.088 151.915L516.526 150.354L516.517 150.368L516.508 150.383L519.088 151.915ZM524.457 137.398L524.471 134.398L521.958 134.386L521.506 136.858L524.457 137.398ZM568.008 137.597L570.987 137.956L571.39 134.612L568.022 134.597L568.008 137.597ZM559.556 164.642L556.894 163.26L556.89 163.268L559.556 164.642ZM541.559 187.81L543.569 190.037L543.57 190.036L541.559 187.81ZM514.713 203.918L515.774 206.724L515.784 206.72L514.713 203.918ZM430.892 197.455L429.393 200.053L429.398 200.056L430.892 197.455ZM397.085 161.759L394.432 163.159L394.436 163.167L397.085 161.759ZM397.284 48.5057L399.928 49.9233L399.928 49.9233L397.284 48.5057ZM431.289 12.9091L432.774 15.5161L432.783 15.5109L431.289 12.9091ZM512.426 5.55113L511.488 8.40091L511.494 8.40272L512.426 5.55113ZM539.372 20.0682L537.478 22.3953L537.484 22.4002L537.49 22.405L539.372 20.0682ZM558.463 43.2358L555.819 44.6535L555.823 44.6609L555.827 44.6683L558.463 43.2358ZM568.008 71.6562H524.457V77.6562H568.008V71.6562ZM527.428 74.2369C526.587 68.2834 524.859 62.9149 522.202 58.175L516.968 61.1091C519.216 65.1191 520.736 69.7601 521.486 75.0756L527.428 74.2369ZM522.211 58.1918C519.576 53.4209 516.18 49.341 512.028 45.976L508.25 50.6376C511.787 53.5037 514.688 56.9805 516.959 61.0923L522.211 58.1918ZM512.028 45.976C507.88 42.6152 503.111 40.0607 497.752 38.2979L495.878 43.9975C500.594 45.5491 504.708 47.7674 508.25 50.6376L512.028 45.976ZM497.764 38.3017C492.454 36.5317 486.727 35.6619 480.608 35.6619V41.6619C486.155 41.6619 491.233 42.4494 495.866 43.9938L497.764 38.3017ZM480.608 35.6619C469.547 35.6619 459.77 38.418 451.396 44.0241L454.734 49.0099C462.004 44.1426 470.588 41.6619 480.608 41.6619V35.6619ZM451.411 44.0144C443.031 49.5533 436.619 57.6028 432.116 67.9947L437.622 70.3803C441.736 60.8859 447.455 53.8217 454.719 49.0197L451.411 44.0144ZM432.119 67.9879C427.603 78.3411 425.406 90.7718 425.406 105.182H431.406C431.406 91.3532 433.518 79.7877 437.619 70.3871L432.119 67.9879ZM425.406 105.182C425.406 119.976 427.599 132.61 432.119 142.972L437.619 140.573C433.522 131.182 431.406 119.421 431.406 105.182H425.406ZM432.126 142.988C436.699 153.312 443.15 161.263 451.54 166.667L454.789 161.623C447.535 156.951 441.789 149.987 437.612 140.558L432.126 142.988ZM451.54 166.667C459.896 172.049 469.521 174.702 480.309 174.702V168.702C470.548 168.702 462.077 166.317 454.789 161.623L451.54 166.667ZM480.309 174.702C486.342 174.702 491.982 173.904 497.208 172.28L495.427 166.55C490.843 167.975 485.811 168.702 480.309 168.702V174.702ZM497.197 172.283C502.48 170.663 507.209 168.288 511.355 165.143L507.729 160.363C504.186 163.051 500.099 165.117 495.438 166.547L497.197 172.283ZM511.381 165.123C515.527 161.906 518.959 158.008 521.667 153.446L516.508 150.383C514.179 154.307 511.246 157.634 507.703 160.383L511.381 165.123ZM521.649 153.476C524.446 148.886 526.355 143.694 527.408 137.938L521.506 136.858C520.57 141.973 518.9 146.458 516.526 150.354L521.649 153.476ZM524.443 140.398L567.994 140.597L568.022 134.597L524.471 134.398L524.443 140.398ZM565.03 137.237C563.948 146.213 561.242 154.883 556.894 163.26L562.219 166.024C566.886 157.034 569.815 147.673 570.987 137.956L565.03 137.237ZM556.89 163.268C552.622 171.548 546.851 178.986 539.548 185.584L543.57 190.036C551.382 182.978 557.608 174.971 562.223 166.016L556.89 163.268ZM539.549 185.583C532.361 192.071 523.739 197.256 513.642 201.115L515.784 206.72C526.501 202.624 535.777 197.071 543.569 190.037L539.549 185.583ZM513.651 201.112C503.705 204.873 492.374 206.784 479.613 206.784V212.784C492.97 212.784 505.039 210.784 515.774 206.724L513.651 201.112ZM479.613 206.784C461.921 206.784 446.204 202.786 432.385 194.853L429.398 200.056C444.215 208.563 460.98 212.784 479.613 212.784V206.784ZM432.39 194.856C418.661 186.938 407.775 175.468 399.733 160.35L394.436 163.167C402.966 179.204 414.618 191.532 429.393 200.053L432.39 194.856ZM399.738 160.358C391.797 145.309 387.755 126.957 387.755 105.182H381.755C381.755 127.687 385.933 147.052 394.432 163.159L399.738 160.358ZM387.755 105.182C387.755 83.3457 391.862 64.9672 399.928 49.9233L394.64 47.0881C386.001 63.1995 381.755 82.605 381.755 105.182H387.755ZM399.928 49.9233C408.033 34.8056 418.982 23.3696 432.774 15.516L429.805 10.3021C414.96 18.7554 403.239 31.0505 394.64 47.0881L399.928 49.9233ZM432.783 15.5109C446.609 7.5738 462.194 3.57954 479.613 3.57954V-2.42046C461.237 -2.42046 444.606 1.80498 429.796 10.3073L432.783 15.5109ZM479.613 3.57954C491.129 3.57954 501.747 5.19653 511.488 8.40091L513.363 2.70135C502.953 -0.723063 491.695 -2.42046 479.613 -2.42046V3.57954ZM511.494 8.40272C521.307 11.6095 529.958 16.2773 537.478 22.3953L541.265 17.741C533.141 11.1318 523.829 6.12157 513.358 2.69954L511.494 8.40272ZM537.49 22.405C544.989 28.4416 551.097 35.848 555.819 44.6535L561.107 41.8181C556.018 32.3282 549.399 24.2894 541.253 17.7314L537.49 22.405ZM555.827 44.6683C560.592 53.4369 563.675 63.5344 565.029 75.0077L570.987 74.3048C569.557 62.1796 566.276 51.3301 561.099 41.8032L555.827 44.6683ZM756.585 161.858L753.945 160.432L753.941 160.44L756.585 161.858ZM722.38 197.554L723.859 200.164L723.863 200.162L722.38 197.554ZM625.136 197.455L626.624 194.85L625.136 197.455ZM591.031 161.759L588.387 163.176L588.387 163.176L591.031 161.759ZM591.031 48.5057L593.674 49.9233L593.674 49.9233L591.031 48.5057ZM625.136 12.9091L626.615 15.519L626.624 15.5138L625.136 12.9091ZM722.38 12.9091L720.892 15.5138L720.899 15.5179L720.906 15.5219L722.38 12.9091ZM756.585 48.5057L753.941 49.9233L753.945 49.932L756.585 48.5057ZM719.099 68.7898L716.342 69.9738L716.346 69.9816L716.349 69.9893L719.099 68.7898ZM701.102 46.3182L699.452 48.8242L699.452 48.8242L701.102 46.3182ZM646.613 46.3182L648.262 48.8242L648.262 48.8242L646.613 46.3182ZM628.516 68.7898L625.767 67.5902L625.763 67.598L625.76 67.6058L628.516 68.7898ZM628.516 141.574L625.76 142.758L625.763 142.766L625.767 142.773L628.516 141.574ZM646.613 164.045L648.262 161.539L648.262 161.539L646.613 164.045ZM701.102 164.045L699.452 161.539L699.452 161.539L701.102 164.045ZM719.099 141.574L716.349 140.374L716.346 140.382L716.342 140.39L719.099 141.574ZM766.212 105.182C766.212 127.014 762.074 145.39 753.945 160.432L759.224 163.284C767.932 147.171 772.212 127.762 772.212 105.182H766.212ZM753.941 160.44C745.838 175.553 734.825 187.024 720.897 194.946L723.863 200.162C738.837 191.645 750.627 179.318 759.228 163.276L753.941 160.44ZM720.901 194.944C707.006 202.82 691.349 206.784 673.857 206.784V212.784C692.294 212.784 708.985 208.595 723.859 200.164L720.901 194.944ZM673.857 206.784C656.233 206.784 640.514 202.787 626.624 194.85L623.647 200.059C638.526 208.562 655.288 212.784 673.857 212.784V206.784ZM626.624 194.85C612.762 186.928 601.779 175.457 593.674 160.341L588.387 163.176C596.986 179.215 608.741 191.541 623.647 200.059L626.624 194.85ZM593.674 160.341C585.608 145.296 581.502 126.95 581.502 105.182H575.502C575.502 127.694 579.749 147.066 588.387 163.176L593.674 160.341ZM581.502 105.182C581.502 83.3457 585.608 64.9672 593.674 49.9233L588.387 47.0881C579.748 63.1995 575.502 82.605 575.502 105.182H581.502ZM593.674 49.9233C601.778 34.8091 612.758 23.3735 626.615 15.519L623.656 10.2992C608.744 18.7515 596.987 31.047 588.387 47.0881L593.674 49.9233ZM626.624 15.5138C640.514 7.57667 656.233 3.57954 673.857 3.57954V-2.42046C655.288 -2.42046 638.526 1.80211 623.647 10.3044L626.624 15.5138ZM673.857 3.57954C691.345 3.57954 706.998 7.57475 720.892 15.5138L723.868 10.3044C708.993 1.80403 692.298 -2.42046 673.857 -2.42046V3.57954ZM720.906 15.5219C734.828 23.3773 745.839 34.8126 753.941 49.9233L759.228 47.0881C750.626 31.0434 738.833 18.7476 723.854 10.2963L720.906 15.5219ZM753.945 49.932C762.074 64.9739 766.212 83.3492 766.212 105.182H772.212C772.212 82.6016 767.932 63.1928 759.224 47.0794L753.945 49.932ZM728.562 105.182C728.562 90.5155 726.368 77.9495 721.848 67.5902L716.349 69.9893C720.447 79.3839 722.562 91.0792 722.562 105.182H728.562ZM721.855 67.6058C717.419 57.2766 711.071 49.2877 702.751 43.8122L699.452 48.8242C706.644 53.557 712.294 60.5492 716.342 69.9738L721.855 67.6058ZM702.751 43.8122C694.448 38.3477 684.777 35.6619 673.857 35.6619V41.6619C683.752 41.6619 692.244 44.0804 699.452 48.8242L702.751 43.8122ZM673.857 35.6619C662.937 35.6619 653.267 38.3477 644.964 43.8122L648.262 48.8242C655.47 44.0804 663.963 41.6619 673.857 41.6619V35.6619ZM644.964 43.8122C636.648 49.2847 630.27 57.268 625.767 67.5902L631.266 69.9893C635.381 60.5578 641.066 53.56 648.262 48.8242L644.964 43.8122ZM625.76 67.6058C621.312 77.9602 619.153 90.5204 619.153 105.182H625.153C625.153 91.0742 627.236 79.3731 631.273 69.9738L625.76 67.6058ZM619.153 105.182C619.153 119.843 621.312 132.403 625.76 142.758L631.273 140.39C627.236 130.991 625.153 119.289 625.153 105.182H619.153ZM625.767 142.773C630.27 153.096 636.648 161.079 644.964 166.551L648.262 161.539C641.066 156.804 635.381 149.806 631.266 140.374L625.767 142.773ZM644.964 166.551C653.267 172.016 662.937 174.702 673.857 174.702V168.702C663.963 168.702 655.47 166.283 648.262 161.539L644.964 166.551ZM673.857 174.702C684.777 174.702 694.448 172.016 702.751 166.551L699.452 161.539C692.244 166.283 683.752 168.702 673.857 168.702V174.702ZM702.751 166.551C711.071 161.076 717.419 153.087 721.855 142.758L716.342 140.39C712.294 149.814 706.644 156.807 699.452 161.539L702.751 166.551ZM721.848 142.773C726.368 132.414 728.562 119.848 728.562 105.182H722.562C722.562 119.284 720.447 130.98 716.349 140.374L721.848 142.773ZM910.086 3.36363V0.36363H907.086V3.36363H910.086ZM953.14 3.36363H956.14V0.36363H953.14V3.36363ZM942.501 174.585L939.971 172.974L939.964 172.984L942.501 174.585ZM912.97 200.636L914.283 203.334L914.295 203.328L912.97 200.636ZM824.376 200.636L823.051 203.328L823.063 203.334L824.376 200.636ZM794.845 174.585L792.308 176.186L792.308 176.186L794.845 174.585ZM784.305 3.36363V0.36363H781.305V3.36363H784.305ZM827.359 3.36363H830.359V0.36363H827.359V3.36363ZM832.43 152.611L829.813 154.077L829.819 154.088L829.825 154.099L832.43 152.611ZM846.947 166.83L845.495 169.455L845.495 169.455L846.947 166.83ZM890.498 166.83L889.046 164.204L889.034 164.211L890.498 166.83ZM904.916 152.611L902.311 151.122L902.305 151.133L902.299 151.144L904.916 152.611ZM910.086 6.36363H953.14V0.36363H910.086V6.36363ZM950.14 3.36363V135.608H956.14V3.36363H950.14ZM950.14 135.608C950.14 149.959 946.72 162.377 939.971 172.974L945.032 176.197C952.468 164.521 956.14 150.954 956.14 135.608H950.14ZM939.964 172.984C933.254 183.618 923.846 191.94 911.645 197.945L914.295 203.328C927.416 196.871 937.695 187.825 945.038 176.186L939.964 172.984ZM911.657 197.939C899.477 203.869 885.193 206.884 868.723 206.884V212.884C885.927 212.884 901.141 209.733 914.283 203.334L911.657 197.939ZM868.723 206.884C852.184 206.884 837.867 203.869 825.689 197.939L823.063 203.334C836.207 209.734 851.454 212.884 868.723 212.884V206.884ZM825.701 197.945C813.5 191.94 804.092 183.618 797.382 172.984L792.308 176.186C799.651 187.825 809.93 196.871 823.051 203.328L825.701 197.945ZM797.382 172.984C790.695 162.386 787.305 149.964 787.305 135.608H781.305C781.305 150.949 784.941 164.511 792.308 176.186L797.382 172.984ZM787.305 135.608V3.36363H781.305V135.608H787.305ZM784.305 6.36363H827.359V0.36363H784.305V6.36363ZM824.359 3.36363V131.929H830.359V3.36363H824.359ZM824.359 131.929C824.359 140.135 826.152 147.545 829.813 154.077L835.047 151.144C831.947 145.612 830.359 139.235 830.359 131.929H824.359ZM829.825 154.099C833.552 160.621 838.795 165.749 845.495 169.455L848.399 164.204C842.637 161.017 838.202 156.665 835.035 151.122L829.825 154.099ZM845.495 169.455C852.238 173.185 860.012 175 868.723 175V169C860.861 169 854.118 167.368 848.399 164.204L845.495 169.455ZM868.723 175C877.494 175 885.275 173.187 891.962 169.448L889.034 164.211C883.392 167.366 876.656 169 868.723 169V175ZM891.95 169.455C898.655 165.746 903.871 160.612 907.533 154.077L902.299 151.144C899.2 156.674 894.804 161.019 889.046 164.204L891.95 169.455ZM907.521 154.099C911.256 147.563 913.086 140.145 913.086 131.929H907.086C907.086 139.225 905.47 145.594 902.311 151.122L907.521 154.099ZM913.086 131.929V3.36363H907.086V131.929H913.086ZM1142.09 3.36363H1145.09V0.36363H1142.09V3.36363ZM1142.09 207V210H1145.09V207H1142.09ZM1104.9 207L1102.43 208.706L1103.33 210H1104.9V207ZM1016.31 78.8324L1018.78 77.1265L1017.88 75.8324H1016.31V78.8324ZM1014.82 78.8324V75.8324H1011.82V78.8324H1014.82ZM1014.82 207V210H1017.82V207H1014.82ZM971.763 207H968.763V210H971.763V207ZM971.763 3.36363V0.36363H968.763V3.36363H971.763ZM1009.55 3.36363L1012.02 1.666L1011.13 0.36363H1009.55V3.36363ZM1097.44 131.432L1094.97 133.129L1095.87 134.432H1097.44V131.432ZM1099.23 131.432V134.432H1102.23V131.432H1099.23ZM1099.23 3.36363V0.36363H1096.23V3.36363H1099.23ZM1139.09 3.36363V207H1145.09V3.36363H1139.09ZM1142.09 204H1104.9V210H1142.09V204ZM1107.37 205.294L1018.78 77.1265L1013.84 80.5382L1102.43 208.706L1107.37 205.294ZM1016.31 75.8324H1014.82V81.8324H1016.31V75.8324ZM1011.82 78.8324V207H1017.82V78.8324H1011.82ZM1014.82 204H971.763V210H1014.82V204ZM974.763 207V3.36363H968.763V207H974.763ZM971.763 6.36363H1009.55V0.36363H971.763V6.36363ZM1007.07 5.06126L1094.97 133.129L1099.92 129.734L1012.02 1.666L1007.07 5.06126ZM1097.44 134.432H1099.23V128.432H1097.44V134.432ZM1102.23 131.432V3.36363H1096.23V131.432H1102.23ZM1099.23 6.36363H1142.09V0.36363H1099.23V6.36363ZM1153.11 38.8608H1150.11V41.8608H1153.11V38.8608ZM1153.11 3.36363V0.36363H1150.11V3.36363H1153.11ZM1320.35 3.36363H1323.35V0.36363H1320.35V3.36363ZM1320.35 38.8608V41.8608H1323.35V38.8608H1320.35ZM1258.01 38.8608V35.8608H1255.01V38.8608H1258.01ZM1258.01 207V210H1261.01V207H1258.01ZM1215.45 207H1212.45V210H1215.45V207ZM1215.45 38.8608H1218.45V35.8608H1215.45V38.8608ZM1156.11 38.8608V3.36363H1150.11V38.8608H1156.11ZM1153.11 6.36363H1320.35V0.36363H1153.11V6.36363ZM1317.35 3.36363V38.8608H1323.35V3.36363H1317.35ZM1320.35 35.8608H1258.01V41.8608H1320.35V35.8608ZM1255.01 38.8608V207H1261.01V38.8608H1255.01ZM1258.01 204H1215.45V210H1258.01V204ZM1218.45 207V38.8608H1212.45V207H1218.45ZM1215.45 35.8608H1153.11V41.8608H1215.45V35.8608Z" fill="white" mask="url(#path-1-outside-1_1_12)"/>
</svg>
