<svg width="1509" height="490" viewBox="0 0 1509 490" fill="none" xmlns="http://www.w3.org/2000/svg">
<g clip-path="url(#clip0_53_620)">
<rect width="1509" height="490" fill="black"/>
<path d="M8.94442 50.8508V12.8182H188.135V50.8508H121.338V231H75.7413V50.8508H8.94442ZM214.645 231V12.8182H260.774V102.839H354.417V12.8182H400.44V231H354.417V140.872H260.774V231H214.645ZM435.473 231V12.8182H582.49V50.8508H481.602V102.839H574.926V140.872H481.602V192.967H582.916V231H435.473ZM737.797 231H660.453V12.8182H738.436C760.382 12.8182 779.274 17.1861 795.112 25.9219C810.95 34.5866 823.131 47.0511 831.654 63.3153C840.247 79.5795 844.544 99.0398 844.544 121.696C844.544 144.423 840.247 163.955 831.654 180.29C823.131 196.625 810.879 209.161 794.899 217.896C778.99 226.632 759.956 231 737.797 231ZM706.583 191.476H735.879C749.516 191.476 760.986 189.061 770.29 184.232C779.665 179.331 786.696 171.767 791.384 161.54C796.142 151.241 798.521 137.96 798.521 121.696C798.521 105.574 796.142 92.3991 791.384 82.1719C786.696 71.9446 779.7 64.4162 770.396 59.5866C761.093 54.7571 749.622 52.3423 735.986 52.3423H706.583V191.476ZM901.017 231H851.585L926.905 12.8182H986.351L1061.56 231H1012.13L957.48 62.6761H955.775L901.017 231ZM897.927 145.24H1014.69V181.249H897.927V145.24ZM1130.95 12.8182V231H1084.82V12.8182H1130.95ZM1165.91 231V12.8182H1212.04V192.967H1305.57V231H1165.91ZM1292.51 12.8182H1344.17L1393.93 106.781H1396.06L1445.81 12.8182H1497.48L1417.9 153.869V231H1372.09V153.869L1292.51 12.8182ZM160.752 318.567C159.9 309.973 156.242 303.297 149.779 298.538C143.316 293.78 134.545 291.401 123.465 291.401C115.937 291.401 109.58 292.466 104.396 294.597C99.2109 296.656 95.2337 299.533 92.4638 303.226C89.7649 306.919 88.4155 311.109 88.4155 315.797C88.2734 319.703 89.0902 323.112 90.8658 326.024C92.7124 328.936 95.2337 331.457 98.4297 333.588C101.626 335.648 105.319 337.459 109.509 339.021C113.7 340.513 118.174 341.791 122.933 342.857L142.535 347.544C152.052 349.675 160.788 352.516 168.742 356.067C176.697 359.618 183.586 363.986 189.41 369.17C195.234 374.355 199.744 380.463 202.94 387.494C206.207 394.526 207.876 402.587 207.947 411.678C207.876 425.03 204.467 436.607 197.719 446.408C191.043 456.138 181.384 463.702 168.742 469.099C156.171 474.426 141.008 477.089 123.252 477.089C105.638 477.089 90.2976 474.391 77.2294 468.993C64.2322 463.595 54.076 455.605 46.7607 445.023C39.5163 434.369 35.7166 421.195 35.3615 405.499H79.9993C80.4964 412.814 82.5916 418.922 86.2848 423.822C90.049 428.652 95.0561 432.31 101.306 434.795C107.627 437.21 114.765 438.418 122.719 438.418C130.532 438.418 137.315 437.281 143.067 435.009C148.891 432.736 153.401 429.575 156.597 425.527C159.793 421.479 161.391 416.827 161.391 411.571C161.391 406.67 159.935 402.551 157.023 399.213C154.183 395.875 149.992 393.034 144.452 390.69C138.984 388.347 132.272 386.216 124.317 384.298L100.56 378.332C82.1655 373.858 67.6413 366.862 56.9879 357.345C46.3345 347.828 41.0433 335.009 41.1143 318.886C41.0433 305.676 44.5589 294.135 51.6612 284.263C58.8345 274.391 68.6712 266.685 81.1712 261.145C93.6712 255.605 107.876 252.835 123.785 252.835C139.978 252.835 154.112 255.605 166.185 261.145C178.33 266.685 187.776 274.391 194.523 284.263C201.271 294.135 204.751 305.57 204.964 318.567H160.752ZM256.975 474V255.818H303.104V345.839H396.748V255.818H442.77V474H396.748V383.872H303.104V474H256.975ZM633.569 255.818H679.698V397.509C679.698 413.418 675.898 427.338 668.299 439.27C660.77 451.202 650.223 460.506 636.658 467.182C623.093 473.787 607.29 477.089 589.25 477.089C571.14 477.089 555.301 473.787 541.736 467.182C528.171 460.506 517.624 451.202 510.096 439.27C502.567 427.338 498.803 413.418 498.803 397.509V255.818H544.932V393.567C544.932 401.876 546.743 409.263 550.365 415.726C554.059 422.189 559.243 427.267 565.919 430.96C572.596 434.653 580.373 436.5 589.25 436.5C598.199 436.5 605.976 434.653 612.581 430.96C619.257 427.267 624.407 422.189 628.029 415.726C631.722 409.263 633.569 401.876 633.569 393.567V255.818ZM735.651 474V255.818H880.111V293.851H781.78V345.839H870.523V383.872H781.78V474H735.651ZM929.139 474V255.818H1073.6V293.851H975.268V345.839H1064.01V383.872H975.268V474H929.139ZM1122.63 474V255.818H1168.76V435.967H1262.29V474H1122.63ZM1310.84 474V255.818H1457.86V293.851H1356.97V345.839H1450.3V383.872H1356.97V435.967H1458.29V474H1310.84Z" fill="white"/>
</g>
<defs>
<clipPath id="clip0_53_620">
<rect width="1509" height="490" fill="white"/>
</clipPath>
</defs>
</svg>
