<svg width="1509" height="490" viewBox="0 0 1509 490" fill="none" xmlns="http://www.w3.org/2000/svg">
<g clip-path="url(#clip0_54_632)">
<rect width="1509" height="490" fill="black"/>
<path d="M53.2239 81.7273H138.558L228.686 301.614H232.521L322.649 81.7273H407.982V409H340.866V195.985H338.149L253.455 407.402H207.752L123.057 195.186H120.34V409H53.2239V81.7273ZM460.491 409V81.7273H681.017V138.776H529.685V216.759H669.671V273.808H529.685V351.951H681.656V409H460.491ZM847.544 409H731.529V81.7273H848.503C881.422 81.7273 909.76 88.2791 933.517 101.383C957.274 114.38 975.545 133.077 988.329 157.473C1001.22 181.869 1007.66 211.06 1007.66 245.044C1007.66 279.135 1001.22 308.432 988.329 332.935C975.545 357.437 957.168 376.241 933.198 389.344C909.334 402.448 880.783 409 847.544 409ZM800.722 349.714H844.668C865.122 349.714 882.328 346.092 896.284 338.847C910.346 331.496 920.893 320.151 927.924 304.81C935.062 289.362 938.631 269.44 938.631 245.044C938.631 220.861 935.062 201.099 927.924 185.758C920.893 170.417 910.399 159.124 896.443 151.88C882.487 144.636 865.282 141.013 844.828 141.013H800.722V349.714ZM1123.62 81.7273V409H1054.42V81.7273H1123.62ZM1232.45 409H1158.31L1271.29 81.7273H1360.45L1473.27 409H1399.13L1317.15 156.514H1314.59L1232.45 409ZM1227.82 280.36H1402.96V334.373H1227.82V280.36Z" fill="white"/>
</g>
<defs>
<clipPath id="clip0_54_632">
<rect width="1509" height="490" fill="white"/>
</clipPath>
</defs>
</svg>
