<svg width="1509" height="490" viewBox="0 0 1509 490" fill="none" xmlns="http://www.w3.org/2000/svg">
<g clip-path="url(#clip0_53_624)">
<rect width="1509" height="490" fill="black"/>
<path d="M339.703 63.3636V427H273.297L115.094 198.129H112.431V427H35.5485V63.3636H103.02L259.98 292.057H263.176V63.3636H339.703ZM398.224 427V63.3636H643.253V126.751H475.106V213.399H630.646V276.787H475.106V363.612H643.963V427H398.224ZM781.23 427L677.182 63.3636H761.166L821.358 316.027H824.377L890.783 63.3636H962.693L1028.92 316.56H1032.12L1092.31 63.3636H1176.29L1072.25 427H997.317L928.07 189.251H925.229L856.159 427H781.23ZM1406.29 167.945C1404.87 153.622 1398.77 142.495 1388 134.564C1377.23 126.633 1362.61 122.668 1344.15 122.668C1331.6 122.668 1321 124.443 1312.36 127.994C1303.72 131.427 1297.09 136.221 1292.48 142.376C1287.98 148.532 1285.73 155.516 1285.73 163.328C1285.49 169.839 1286.85 175.52 1289.81 180.374C1292.89 185.227 1297.09 189.429 1302.42 192.98C1307.75 196.413 1313.9 199.431 1320.89 202.036C1327.87 204.521 1335.33 206.652 1343.26 208.428L1375.93 216.24C1391.79 219.791 1406.35 224.526 1419.61 230.445C1432.87 236.363 1444.35 243.643 1454.05 252.284C1463.76 260.925 1471.28 271.105 1476.6 282.824C1482.05 294.543 1484.83 307.978 1484.95 323.129C1484.83 345.383 1479.15 364.678 1467.9 381.013C1456.78 397.23 1440.68 409.836 1419.61 418.832C1398.66 427.71 1373.38 432.149 1343.79 432.149C1314.43 432.149 1288.87 427.651 1267.09 418.655C1245.42 409.659 1228.5 396.342 1216.3 378.705C1204.23 360.949 1197.9 338.991 1197.31 312.831H1271.7C1272.53 325.023 1276.02 335.203 1282.18 343.371C1288.45 351.42 1296.8 357.516 1307.21 361.659C1317.75 365.684 1329.65 367.696 1342.9 367.696C1355.92 367.696 1367.23 365.802 1376.82 362.014C1386.52 358.226 1394.04 352.959 1399.37 346.212C1404.69 339.464 1407.36 331.711 1407.36 322.952C1407.36 314.784 1404.93 307.919 1400.08 302.355C1395.34 296.792 1388.36 292.057 1379.12 288.151C1370.01 284.244 1358.82 280.693 1345.57 277.497L1305.97 267.554C1275.31 260.097 1251.11 248.437 1233.35 232.575C1215.59 216.714 1206.78 195.348 1206.89 168.477C1206.78 146.46 1212.64 127.225 1224.47 110.771C1236.43 94.3177 1252.82 81.4744 1273.66 72.2415C1294.49 63.0085 1318.16 58.392 1344.68 58.392C1371.67 58.392 1395.22 63.0085 1415.35 72.2415C1435.59 81.4744 1451.33 94.3177 1462.58 110.771C1473.82 127.225 1479.62 146.283 1479.98 167.945H1406.29Z" fill="white"/>
</g>
<defs>
<clipPath id="clip0_53_624">
<rect width="1509" height="490" fill="white"/>
</clipPath>
</defs>
</svg>
