<svg width="1517" height="498" viewBox="0 0 1517 498" fill="none" xmlns="http://www.w3.org/2000/svg">
<g clip-path="url(#clip0_54_636)" filter="url(#filter0_d_54_636)">
<rect width="1509" height="490" transform="translate(4)" fill="black"/>
<path d="M100.283 343H55.7943L123.582 146.636H177.083L244.775 343H200.286L151.1 191.509H149.566L100.283 343ZM97.5024 265.816H202.588V298.224H97.5024V265.816ZM437.838 215.383H395.842C395.075 209.95 393.509 205.124 391.144 200.905C388.779 196.622 385.742 192.979 382.035 189.974C378.328 186.97 374.045 184.669 369.187 183.071C364.393 181.473 359.183 180.674 353.558 180.674C343.395 180.674 334.542 183.199 327 188.249C319.457 193.234 313.608 200.521 309.453 210.109C305.299 219.634 303.221 231.203 303.221 244.818C303.221 258.817 305.299 270.578 309.453 280.102C313.672 289.626 319.553 296.817 327.095 301.675C334.638 306.533 343.363 308.962 353.271 308.962C358.832 308.962 363.978 308.227 368.708 306.757C373.502 305.287 377.752 303.146 381.46 300.333C385.167 297.457 388.235 293.973 390.664 289.882C393.157 285.791 394.883 281.125 395.842 275.884L437.838 276.075C436.751 285.088 434.034 293.781 429.688 302.155C425.405 310.464 419.62 317.911 412.333 324.495C405.11 331.015 396.481 336.192 386.446 340.028C376.474 343.799 365.192 345.685 352.6 345.685C335.085 345.685 319.425 341.722 305.618 333.795C291.875 325.869 281.009 314.396 273.019 299.374C265.093 284.353 261.129 266.168 261.129 244.818C261.129 223.405 265.156 205.188 273.21 190.166C281.264 175.145 292.195 163.703 306.002 155.841C319.808 147.915 335.341 143.952 352.6 143.952C363.978 143.952 374.524 145.55 384.24 148.746C394.02 151.942 402.681 156.608 410.224 162.744C417.767 168.817 423.903 176.263 428.633 185.085C433.427 193.906 436.495 204.005 437.838 215.383ZM646.265 215.383H604.269C603.502 209.95 601.936 205.124 599.571 200.905C597.206 196.622 594.17 192.979 590.462 189.974C586.755 186.97 582.472 184.669 577.614 183.071C572.82 181.473 567.611 180.674 561.986 180.674C551.822 180.674 542.969 183.199 535.427 188.249C527.884 193.234 522.036 200.521 517.881 210.109C513.726 219.634 511.648 231.203 511.648 244.818C511.648 258.817 513.726 270.578 517.881 280.102C522.099 289.626 527.98 296.817 535.523 301.675C543.065 306.533 551.79 308.962 561.698 308.962C567.259 308.962 572.405 308.227 577.135 306.757C581.929 305.287 586.18 303.146 589.887 300.333C593.594 297.457 596.663 293.973 599.092 289.882C601.585 285.791 603.31 281.125 604.269 275.884L646.265 276.075C645.178 285.088 642.462 293.781 638.115 302.155C633.832 310.464 628.048 317.911 620.761 324.495C613.538 331.015 604.908 336.192 594.873 340.028C584.901 343.799 573.619 345.685 561.027 345.685C543.513 345.685 527.852 341.722 514.045 333.795C500.303 325.869 489.436 314.396 481.446 299.374C473.52 284.353 469.557 266.168 469.557 244.818C469.557 223.405 473.584 205.188 481.638 190.166C489.692 175.145 500.622 163.703 514.429 155.841C528.236 147.915 543.768 143.952 561.027 143.952C572.405 143.952 582.952 145.55 592.668 148.746C602.447 151.942 611.109 156.608 618.651 162.744C626.194 168.817 632.33 176.263 637.06 185.085C641.854 193.906 644.923 204.005 646.265 215.383ZM861.883 244.818C861.883 266.232 857.824 284.449 849.707 299.47C841.653 314.491 830.658 325.965 816.724 333.891C802.853 341.754 787.256 345.685 769.934 345.685C752.483 345.685 736.823 341.722 722.952 333.795C709.082 325.869 698.119 314.396 690.065 299.374C682.011 284.353 677.984 266.168 677.984 244.818C677.984 223.405 682.011 205.188 690.065 190.166C698.119 175.145 709.082 163.703 722.952 155.841C736.823 147.915 752.483 143.952 769.934 143.952C787.256 143.952 802.853 147.915 816.724 155.841C830.658 163.703 841.653 175.145 849.707 190.166C857.824 205.188 861.883 223.405 861.883 244.818ZM819.792 244.818C819.792 230.947 817.714 219.25 813.559 209.726C809.469 200.202 803.684 192.979 796.205 188.057C788.726 183.135 779.969 180.674 769.934 180.674C759.898 180.674 751.141 183.135 743.662 188.057C736.184 192.979 730.367 200.202 726.212 209.726C722.121 219.25 720.076 230.947 720.076 244.818C720.076 258.689 722.121 270.386 726.212 279.911C730.367 289.435 736.184 296.658 743.662 301.58C751.141 306.501 759.898 308.962 769.934 308.962C779.969 308.962 788.726 306.501 796.205 301.58C803.684 296.658 809.469 289.435 813.559 279.911C817.714 270.386 819.792 258.689 819.792 244.818ZM1019.33 146.636H1060.84V274.158C1060.84 288.476 1057.42 301.004 1050.58 311.743C1043.81 322.482 1034.32 330.855 1022.11 336.864C1009.9 342.808 995.676 345.781 979.44 345.781C963.14 345.781 948.886 342.808 936.677 336.864C924.468 330.855 914.976 322.482 908.2 311.743C901.425 301.004 898.037 288.476 898.037 274.158V146.636H939.553V270.61C939.553 278.089 941.183 284.737 944.443 290.553C947.767 296.37 952.433 300.94 958.442 304.264C964.45 307.588 971.45 309.25 979.44 309.25C987.494 309.25 994.493 307.588 1000.44 304.264C1006.45 300.94 1011.08 296.37 1014.34 290.553C1017.66 284.737 1019.33 278.089 1019.33 270.61V146.636ZM1264.64 146.636V343H1228.78L1143.35 219.41H1141.92V343H1100.4V146.636H1136.83L1221.59 270.131H1223.32V146.636H1264.64ZM1296.87 180.866V146.636H1458.14V180.866H1398.02V343H1356.98V180.866H1296.87Z" fill="white"/>
</g>
<defs>
<filter id="filter0_d_54_636" x="0" y="0" width="1517" height="498" filterUnits="userSpaceOnUse" color-interpolation-filters="sRGB">
<feFlood flood-opacity="0" result="BackgroundImageFix"/>
<feColorMatrix in="SourceAlpha" type="matrix" values="0 0 0 0 0 0 0 0 0 0 0 0 0 0 0 0 0 0 127 0" result="hardAlpha"/>
<feOffset dy="4"/>
<feGaussianBlur stdDeviation="2"/>
<feComposite in2="hardAlpha" operator="out"/>
<feColorMatrix type="matrix" values="0 0 0 0 0 0 0 0 0 0 0 0 0 0 0 0 0 0 0.25 0"/>
<feBlend mode="normal" in2="BackgroundImageFix" result="effect1_dropShadow_54_636"/>
<feBlend mode="normal" in="SourceGraphic" in2="effect1_dropShadow_54_636" result="shape"/>
</filter>
<clipPath id="clip0_54_636">
<rect width="1509" height="490" fill="white" transform="translate(4)"/>
</clipPath>
</defs>
</svg>
