<svg width="1500" height="341" viewBox="0 0 1500 341" fill="none" xmlns="http://www.w3.org/2000/svg">
<rect x="0.5" y="0.5" width="1499" height="340" stroke="black"/>
<mask id="path-2-outside-1_12_2" maskUnits="userSpaceOnUse" x="206" y="65" width="1096" height="210" fill="black">
<rect fill="white" x="206" y="65" width="1096" height="210"/>
<path d="M209.23 68.3636H262.327L318.406 205.182H320.793L376.872 68.3636H429.969V272H388.207V139.457H386.517L333.818 271.006H305.381L252.682 138.96H250.991V272H209.23V68.3636ZM483.74 272H437.604L507.902 68.3636H563.385L633.584 272H587.448L536.439 114.898H534.848L483.74 272ZM480.857 191.957H589.834V225.565H480.857V191.957ZM641.294 272V68.3636H721.635C737.014 68.3636 750.139 71.1146 761.01 76.6165C771.948 82.0521 780.267 89.7746 785.967 99.7841C791.735 109.727 794.618 121.427 794.618 134.884C794.618 148.406 791.701 160.04 785.868 169.784C780.035 179.462 771.583 186.886 760.513 192.057C749.509 197.227 736.185 199.812 720.541 199.812H666.749V165.21H713.581C721.801 165.21 728.628 164.083 734.064 161.83C739.5 159.576 743.543 156.195 746.195 151.688C748.913 147.18 750.271 141.579 750.271 134.884C750.271 128.122 748.913 122.421 746.195 117.781C743.543 113.141 739.467 109.628 733.965 107.241C728.529 104.789 721.668 103.562 713.382 103.562H684.348V272H641.294ZM751.266 179.33L801.877 272H754.348L704.831 179.33H751.266ZM808.244 272V68.3636H851.298V158.151H853.983L927.264 68.3636H978.869L903.301 159.543L979.764 272H928.258L872.477 188.278L851.298 214.131V272H808.244ZM984.491 272V68.3636H1121.71V103.861H1027.55V152.384H1114.65V187.881H1027.55V236.503H1122.1V272H984.491ZM1131.38 103.861V68.3636H1298.62V103.861H1236.28V272H1193.72V103.861H1131.38Z"/>
</mask>
<path d="M209.23 68.3636H262.327L318.406 205.182H320.793L376.872 68.3636H429.969V272H388.207V139.457H386.517L333.818 271.006H305.381L252.682 138.96H250.991V272H209.23V68.3636ZM483.74 272H437.604L507.902 68.3636H563.385L633.584 272H587.448L536.439 114.898H534.848L483.74 272ZM480.857 191.957H589.834V225.565H480.857V191.957ZM641.294 272V68.3636H721.635C737.014 68.3636 750.139 71.1146 761.01 76.6165C771.948 82.0521 780.267 89.7746 785.967 99.7841C791.735 109.727 794.618 121.427 794.618 134.884C794.618 148.406 791.701 160.04 785.868 169.784C780.035 179.462 771.583 186.886 760.513 192.057C749.509 197.227 736.185 199.812 720.541 199.812H666.749V165.21H713.581C721.801 165.21 728.628 164.083 734.064 161.83C739.5 159.576 743.543 156.195 746.195 151.688C748.913 147.18 750.271 141.579 750.271 134.884C750.271 128.122 748.913 122.421 746.195 117.781C743.543 113.141 739.467 109.628 733.965 107.241C728.529 104.789 721.668 103.562 713.382 103.562H684.348V272H641.294ZM751.266 179.33L801.877 272H754.348L704.831 179.33H751.266ZM808.244 272V68.3636H851.298V158.151H853.983L927.264 68.3636H978.869L903.301 159.543L979.764 272H928.258L872.477 188.278L851.298 214.131V272H808.244ZM984.491 272V68.3636H1121.71V103.861H1027.55V152.384H1114.65V187.881H1027.55V236.503H1122.1V272H984.491ZM1131.38 103.861V68.3636H1298.62V103.861H1236.28V272H1193.72V103.861H1131.38Z" fill="white"/>
<path d="M209.23 68.3636V65.3636H206.23V68.3636H209.23ZM262.327 68.3636L265.103 67.2258L264.339 65.3636H262.327V68.3636ZM318.406 205.182L315.63 206.32L316.394 208.182H318.406V205.182ZM320.793 205.182V208.182H322.805L323.568 206.32L320.793 205.182ZM376.872 68.3636V65.3636H374.86L374.096 67.2258L376.872 68.3636ZM429.969 68.3636H432.969V65.3636H429.969V68.3636ZM429.969 272V275H432.969V272H429.969ZM388.207 272H385.207V275H388.207V272ZM388.207 139.457H391.207V136.457H388.207V139.457ZM386.517 139.457V136.457H384.487L383.732 138.342L386.517 139.457ZM333.818 271.006V274.006H335.848L336.603 272.121L333.818 271.006ZM305.381 271.006L302.594 272.118L303.348 274.006H305.381V271.006ZM252.682 138.96L255.468 137.848L254.715 135.96H252.682V138.96ZM250.991 138.96V135.96H247.991V138.96H250.991ZM250.991 272V275H253.991V272H250.991ZM209.23 272H206.23V275H209.23V272ZM209.23 71.3636H262.327V65.3636H209.23V71.3636ZM259.551 69.5014L315.63 206.32L321.182 204.044L265.103 67.2258L259.551 69.5014ZM318.406 208.182H320.793V202.182H318.406V208.182ZM323.568 206.32L379.648 69.5014L374.096 67.2258L318.017 204.044L323.568 206.32ZM376.872 71.3636H429.969V65.3636H376.872V71.3636ZM426.969 68.3636V272H432.969V68.3636H426.969ZM429.969 269H388.207V275H429.969V269ZM391.207 272V139.457H385.207V272H391.207ZM388.207 136.457H386.517V142.457H388.207V136.457ZM383.732 138.342L331.033 269.89L336.603 272.121L389.302 140.573L383.732 138.342ZM333.818 268.006H305.381V274.006H333.818V268.006ZM308.167 269.894L255.468 137.848L249.896 140.072L302.594 272.118L308.167 269.894ZM252.682 135.96H250.991V141.96H252.682V135.96ZM247.991 138.96V272H253.991V138.96H247.991ZM250.991 269H209.23V275H250.991V269ZM212.23 272V68.3636H206.23V272H212.23ZM483.74 272V275H485.919L486.593 272.928L483.74 272ZM437.604 272L434.768 271.021L433.395 275H437.604V272ZM507.902 68.3636V65.3636H505.764L505.067 67.3847L507.902 68.3636ZM563.385 68.3636L566.222 67.3859L565.524 65.3636H563.385V68.3636ZM633.584 272V275H637.792L636.42 271.022L633.584 272ZM587.448 272L584.595 272.926L585.268 275H587.448V272ZM536.439 114.898L539.293 113.971L538.619 111.898H536.439V114.898ZM534.848 114.898V111.898H532.67L531.996 113.97L534.848 114.898ZM480.857 191.957V188.957H477.857V191.957H480.857ZM589.834 191.957H592.834V188.957H589.834V191.957ZM589.834 225.565V228.565H592.834V225.565H589.834ZM480.857 225.565H477.857V228.565H480.857V225.565ZM483.74 269H437.604V275H483.74V269ZM440.44 272.979L510.738 69.3426L505.067 67.3847L434.768 271.021L440.44 272.979ZM507.902 71.3636H563.385V65.3636H507.902V71.3636ZM560.549 69.3413L630.748 272.978L636.42 271.022L566.222 67.3859L560.549 69.3413ZM633.584 269H587.448V275H633.584V269ZM590.301 271.074L539.293 113.971L533.586 115.824L584.595 272.926L590.301 271.074ZM536.439 111.898H534.848V117.898H536.439V111.898ZM531.996 113.97L480.888 271.072L486.593 272.928L537.701 115.826L531.996 113.97ZM480.857 194.957H589.834V188.957H480.857V194.957ZM586.834 191.957V225.565H592.834V191.957H586.834ZM589.834 222.565H480.857V228.565H589.834V222.565ZM483.857 225.565V191.957H477.857V225.565H483.857ZM641.294 272H638.294V275H641.294V272ZM641.294 68.3636V65.3636H638.294V68.3636H641.294ZM761.01 76.6165L759.655 79.2932L759.665 79.2981L759.675 79.303L761.01 76.6165ZM785.967 99.7841L783.361 101.269L783.366 101.279L783.372 101.289L785.967 99.7841ZM785.868 169.784L788.437 171.333L788.442 171.325L785.868 169.784ZM760.513 192.057L759.243 189.339L759.237 189.342L760.513 192.057ZM666.749 199.812H663.749V202.812H666.749V199.812ZM666.749 165.21V162.21H663.749V165.21H666.749ZM734.064 161.83L735.213 164.601L735.213 164.601L734.064 161.83ZM746.195 151.688L743.626 150.138L743.617 150.152L743.609 150.166L746.195 151.688ZM746.195 117.781L743.59 119.27L743.598 119.284L743.606 119.297L746.195 117.781ZM733.965 107.241L732.731 109.976L732.751 109.985L732.771 109.994L733.965 107.241ZM684.348 103.562V100.562H681.348V103.562H684.348ZM684.348 272V275H687.348V272H684.348ZM751.266 179.33L753.899 177.892L753.046 176.33H751.266V179.33ZM801.877 272V275H806.933L804.51 270.562L801.877 272ZM754.348 272L751.702 273.414L752.55 275H754.348V272ZM704.831 179.33V176.33H699.827L702.185 180.743L704.831 179.33ZM644.294 272V68.3636H638.294V272H644.294ZM641.294 71.3636H721.635V65.3636H641.294V71.3636ZM721.635 71.3636C736.664 71.3636 749.3 74.0522 759.655 79.2932L762.365 73.9398C750.978 68.177 737.364 65.3636 721.635 65.3636V71.3636ZM759.675 79.303C770.112 84.4901 777.973 91.8093 783.361 101.269L788.574 98.2994C782.56 87.7399 773.783 79.614 762.345 73.9299L759.675 79.303ZM783.372 101.289C788.832 110.702 791.618 121.865 791.618 134.884H797.618C797.618 120.989 794.637 108.752 788.563 98.2789L783.372 101.289ZM791.618 134.884C791.618 147.968 788.8 159.046 783.294 168.243L788.442 171.325C794.603 161.033 797.618 148.845 797.618 134.884H791.618ZM783.299 168.235C777.798 177.361 769.82 184.399 759.243 189.339L761.783 194.775C773.346 189.374 782.271 181.563 788.437 171.333L783.299 168.235ZM759.237 189.342C748.73 194.279 735.866 196.812 720.541 196.812V202.812C736.504 202.812 750.289 200.176 761.789 194.772L759.237 189.342ZM720.541 196.812H666.749V202.812H720.541V196.812ZM669.749 199.812V165.21H663.749V199.812H669.749ZM666.749 168.21H713.581V162.21H666.749V168.21ZM713.581 168.21C722.05 168.21 729.299 167.053 735.213 164.601L732.915 159.058C727.958 161.114 721.552 162.21 713.581 162.21V168.21ZM735.213 164.601C741.172 162.13 745.758 158.347 748.781 153.209L743.609 150.166C741.329 154.043 737.828 157.021 732.915 159.058L735.213 164.601ZM748.764 153.237C751.831 148.15 753.271 141.978 753.271 134.884H747.271C747.271 141.179 745.994 146.21 743.626 150.138L748.764 153.237ZM753.271 134.884C753.271 127.725 751.832 121.469 748.783 116.265L743.606 119.297C745.993 123.373 747.271 128.52 747.271 134.884H753.271ZM748.8 116.293C745.788 111.022 741.179 107.1 735.158 104.489L732.771 109.994C737.755 112.155 741.299 115.26 743.59 119.27L748.8 116.293ZM735.199 104.507C729.255 101.825 721.939 100.562 713.382 100.562V106.562C721.398 106.562 727.803 107.753 732.731 109.976L735.199 104.507ZM713.382 100.562H684.348V106.562H713.382V100.562ZM681.348 103.562V272H687.348V103.562H681.348ZM684.348 269H641.294V275H684.348V269ZM748.633 180.767L799.244 273.438L804.51 270.562L753.899 177.892L748.633 180.767ZM801.877 269H754.348V275H801.877V269ZM756.994 270.586L707.477 177.916L702.185 180.743L751.702 273.414L756.994 270.586ZM704.831 182.33H751.266V176.33H704.831V182.33ZM808.244 272H805.244V275H808.244V272ZM808.244 68.3636V65.3636H805.244V68.3636H808.244ZM851.298 68.3636H854.298V65.3636H851.298V68.3636ZM851.298 158.151H848.298V161.151H851.298V158.151ZM853.983 158.151V161.151H855.407L856.307 160.047L853.983 158.151ZM927.264 68.3636V65.3636H925.84L924.94 66.4667L927.264 68.3636ZM978.869 68.3636L981.179 70.278L985.252 65.3636H978.869V68.3636ZM903.301 159.543L900.991 157.628L899.552 159.365L900.82 161.229L903.301 159.543ZM979.764 272V275H985.432L982.245 270.313L979.764 272ZM928.258 272L925.762 273.663L926.652 275H928.258V272ZM872.477 188.278L874.974 186.615L872.726 183.241L870.156 186.377L872.477 188.278ZM851.298 214.131L848.977 212.23L848.298 213.059V214.131H851.298ZM851.298 272V275H854.298V272H851.298ZM811.244 272V68.3636H805.244V272H811.244ZM808.244 71.3636H851.298V65.3636H808.244V71.3636ZM848.298 68.3636V158.151H854.298V68.3636H848.298ZM851.298 161.151H853.983V155.151H851.298V161.151ZM856.307 160.047L929.588 70.2605L924.94 66.4667L851.659 156.254L856.307 160.047ZM927.264 71.3636H978.869V65.3636H927.264V71.3636ZM976.559 66.4493L900.991 157.628L905.611 161.457L981.179 70.278L976.559 66.4493ZM900.82 161.229L977.283 273.687L982.245 270.313L905.782 157.856L900.82 161.229ZM979.764 269H928.258V275H979.764V269ZM930.755 270.337L874.974 186.615L869.981 189.942L925.762 273.663L930.755 270.337ZM870.156 186.377L848.977 212.23L853.619 216.032L874.798 190.18L870.156 186.377ZM848.298 214.131V272H854.298V214.131H848.298ZM851.298 269H808.244V275H851.298V269ZM984.491 272H981.491V275H984.491V272ZM984.491 68.3636V65.3636H981.491V68.3636H984.491ZM1121.71 68.3636H1124.71V65.3636H1121.71V68.3636ZM1121.71 103.861V106.861H1124.71V103.861H1121.71ZM1027.55 103.861V100.861H1024.55V103.861H1027.55ZM1027.55 152.384H1024.55V155.384H1027.55V152.384ZM1114.65 152.384H1117.65V149.384H1114.65V152.384ZM1114.65 187.881V190.881H1117.65V187.881H1114.65ZM1027.55 187.881V184.881H1024.55V187.881H1027.55ZM1027.55 236.503H1024.55V239.503H1027.55V236.503ZM1122.1 236.503H1125.1V233.503H1122.1V236.503ZM1122.1 272V275H1125.1V272H1122.1ZM987.491 272V68.3636H981.491V272H987.491ZM984.491 71.3636H1121.71V65.3636H984.491V71.3636ZM1118.71 68.3636V103.861H1124.71V68.3636H1118.71ZM1121.71 100.861H1027.55V106.861H1121.71V100.861ZM1024.55 103.861V152.384H1030.55V103.861H1024.55ZM1027.55 155.384H1114.65V149.384H1027.55V155.384ZM1111.65 152.384V187.881H1117.65V152.384H1111.65ZM1114.65 184.881H1027.55V190.881H1114.65V184.881ZM1024.55 187.881V236.503H1030.55V187.881H1024.55ZM1027.55 239.503H1122.1V233.503H1027.55V239.503ZM1119.1 236.503V272H1125.1V236.503H1119.1ZM1122.1 269H984.491V275H1122.1V269ZM1131.38 103.861H1128.38V106.861H1131.38V103.861ZM1131.38 68.3636V65.3636H1128.38V68.3636H1131.38ZM1298.62 68.3636H1301.62V65.3636H1298.62V68.3636ZM1298.62 103.861V106.861H1301.62V103.861H1298.62ZM1236.28 103.861V100.861H1233.28V103.861H1236.28ZM1236.28 272V275H1239.28V272H1236.28ZM1193.72 272H1190.72V275H1193.72V272ZM1193.72 103.861H1196.72V100.861H1193.72V103.861ZM1134.38 103.861V68.3636H1128.38V103.861H1134.38ZM1131.38 71.3636H1298.62V65.3636H1131.38V71.3636ZM1295.62 68.3636V103.861H1301.62V68.3636H1295.62ZM1298.62 100.861H1236.28V106.861H1298.62V100.861ZM1233.28 103.861V272H1239.28V103.861H1233.28ZM1236.28 269H1193.72V275H1236.28V269ZM1196.72 272V103.861H1190.72V272H1196.72ZM1193.72 100.861H1131.38V106.861H1193.72V100.861Z" fill="white" mask="url(#path-2-outside-1_12_2)"/>
</svg>
