<svg width="1509" height="456" viewBox="0 0 1509 456" fill="none" xmlns="http://www.w3.org/2000/svg">
<g clip-path="url(#clip0_53_622)">
<rect width="1509" height="456" fill="black"/>
<path d="M16.5943 209V12.6364H94.0659C108.895 12.6364 121.552 15.2891 132.035 20.5945C142.582 25.8359 150.604 33.2827 156.101 42.9347C161.662 52.5227 164.442 63.8047 164.442 76.7805C164.442 89.8203 161.63 101.038 156.005 110.435C150.38 119.767 142.23 126.926 131.555 131.912C120.944 136.898 108.096 139.391 93.0112 139.391H41.1397V106.024H86.2995C94.2257 106.024 100.809 104.937 106.051 102.764C111.292 100.591 115.192 97.331 117.748 92.9844C120.369 88.6378 121.68 83.2365 121.68 76.7805C121.68 70.2606 120.369 64.7635 117.748 60.2891C115.192 55.8146 111.26 52.4268 105.955 50.1257C100.714 47.7607 94.0978 46.5781 86.1078 46.5781H58.1106V209H16.5943ZM122.638 119.639L171.442 209H125.611L77.862 119.639H122.638ZM204.582 209V12.6364H336.897V46.8658H246.098V93.6555H330.09V127.885H246.098V174.771H337.281V209H204.582ZM553.96 81.3828H511.965C511.198 75.9496 509.632 71.1236 507.267 66.9048C504.902 62.6221 501.865 58.9787 498.158 55.9744C494.451 52.9702 490.168 50.669 485.31 49.071C480.516 47.473 475.306 46.674 469.681 46.674C459.518 46.674 450.665 49.1989 443.122 54.2486C435.58 59.2344 429.731 66.5213 425.576 76.1094C421.421 85.6335 419.344 97.2031 419.344 110.818C419.344 124.817 421.421 136.578 425.576 146.102C429.795 155.626 435.676 162.817 443.218 167.675C450.761 172.533 459.486 174.962 469.394 174.962C474.955 174.962 480.1 174.227 484.83 172.757C489.625 171.287 493.875 169.146 497.583 166.333C501.29 163.457 504.358 159.973 506.787 155.882C509.28 151.791 511.006 147.125 511.965 141.884L553.96 142.075C552.874 151.088 550.157 159.781 545.811 168.155C541.528 176.464 535.743 183.911 528.456 190.495C521.233 197.015 512.604 202.192 502.568 206.028C492.597 209.799 481.315 211.685 468.723 211.685C451.208 211.685 435.548 207.722 421.741 199.795C407.998 191.869 397.132 180.396 389.142 165.374C381.215 150.353 377.252 132.168 377.252 110.818C377.252 89.4048 381.279 71.1875 389.333 56.1662C397.387 41.1449 408.318 29.7031 422.125 21.8409C435.931 13.9148 451.464 9.9517 468.723 9.9517C480.1 9.9517 490.647 11.5497 500.363 14.7457C510.143 17.9418 518.804 22.6079 526.347 28.7443C533.889 34.8168 540.026 42.2635 544.756 51.0845C549.55 59.9055 552.618 70.005 553.96 81.3828ZM594.531 209V12.6364H726.847V46.8658H636.048V93.6555H720.039V127.885H636.048V174.771H727.23V209H594.531ZM934.897 12.6364V209H899.038L813.608 85.4098H812.17V209H770.654V12.6364H807.088L891.847 136.131H893.573V12.6364H934.897ZM972.52 46.8658V12.6364H1133.79V46.8658H1073.67V209H1032.64V46.8658H972.52ZM1171.15 209V12.6364H1212.67V174.771H1296.85V209H1171.15ZM1298.59 12.6364H1345.09L1389.87 97.2031H1391.78L1436.56 12.6364H1483.06L1411.44 139.582V209H1370.21V139.582L1298.59 12.6364ZM82.6243 446H33.1925L108.512 227.818H167.958L243.171 446H193.739L139.087 277.676H137.383L82.6243 446ZM79.5348 360.24H196.296V396.249H79.5348V360.24ZM442.776 446H365.432V227.818H443.415C465.361 227.818 484.253 232.186 500.091 240.922C515.929 249.587 528.109 262.051 536.632 278.315C545.226 294.58 549.523 314.04 549.523 336.696C549.523 359.423 545.226 378.955 536.632 395.29C528.109 411.625 515.858 424.161 499.878 432.896C483.969 441.632 464.935 446 442.776 446ZM411.561 406.476H440.858C454.494 406.476 465.964 404.061 475.268 399.232C484.643 394.331 491.675 386.767 496.362 376.54C501.121 366.241 503.5 352.96 503.5 336.696C503.5 320.574 501.121 307.399 496.362 297.172C491.675 286.945 484.679 279.416 475.375 274.587C466.071 269.757 454.601 267.342 440.964 267.342H411.561V406.476ZM757.037 446H679.694V227.818H757.676C779.623 227.818 798.515 232.186 814.353 240.922C830.191 249.587 842.371 262.051 850.894 278.315C859.488 294.58 863.784 314.04 863.784 336.696C863.784 359.423 859.488 378.955 850.894 395.29C842.371 411.625 830.12 424.161 814.14 432.896C798.23 441.632 779.196 446 757.037 446ZM725.823 406.476H755.12C768.756 406.476 780.226 404.061 789.53 399.232C798.905 394.331 805.936 386.767 810.624 376.54C815.382 366.241 817.762 352.96 817.762 336.696C817.762 320.574 815.382 307.399 810.624 297.172C805.936 286.945 798.941 279.416 789.637 274.587C780.333 269.757 768.863 267.342 755.226 267.342H725.823V406.476ZM993.955 446V227.818H1140.97V265.851H1040.08V317.839H1133.41V355.872H1040.08V407.967H1141.4V446H993.955ZM1350.99 446H1273.65V227.818H1351.63C1373.58 227.818 1392.47 232.186 1408.31 240.922C1424.14 249.587 1436.32 262.051 1444.85 278.315C1453.44 294.58 1457.74 314.04 1457.74 336.696C1457.74 359.423 1453.44 378.955 1444.85 395.29C1436.32 411.625 1424.07 424.161 1408.09 432.896C1392.18 441.632 1373.15 446 1350.99 446ZM1319.78 406.476H1349.07C1362.71 406.476 1374.18 404.061 1383.48 399.232C1392.86 394.331 1399.89 386.767 1404.58 376.54C1409.34 366.241 1411.71 352.96 1411.71 336.696C1411.71 320.574 1409.34 307.399 1404.58 297.172C1399.89 286.945 1392.89 279.416 1383.59 274.587C1374.29 269.757 1362.82 267.342 1349.18 267.342H1319.78V406.476Z" fill="white"/>
</g>
<defs>
<clipPath id="clip0_53_622">
<rect width="1509" height="456" fill="white"/>
</clipPath>
</defs>
</svg>
