<svg width="771" height="210" viewBox="0 0 771 210" fill="none" xmlns="http://www.w3.org/2000/svg">
<mask id="path-1-outside-1_1_14" maskUnits="userSpaceOnUse" x="-3" y="-3" width="777" height="216" fill="black">
<rect fill="white" x="-3" y="-3" width="777" height="216"/>
<path d="M170.714 3.36363V207H133.526L44.9326 78.8324H43.4411V207H0.387157V3.36363H38.1713L126.069 131.432H127.859V3.36363H170.714ZM189.486 207V3.36363H326.702V38.8608H232.54V87.3835H319.642V122.881H232.54V171.503H327.099V207H189.486ZM389.969 207L331.702 3.36363H378.733L412.441 144.855H414.131L451.318 3.36363H491.588L528.676 145.153H530.466L564.173 3.36363H611.205L552.938 207H510.977L472.199 73.8608H470.608L431.929 207H389.969ZM726.003 61.929C725.207 53.9081 721.793 47.6771 715.761 43.2358C709.729 38.7945 701.543 36.5739 691.202 36.5739C684.175 36.5739 678.242 37.5682 673.403 39.5568C668.564 41.4792 664.852 44.1638 662.267 47.6108C659.748 51.0578 658.489 54.9688 658.489 59.3438C658.356 62.9896 659.118 66.1714 660.775 68.8892C662.499 71.607 664.852 73.9602 667.835 75.9489C670.818 77.8712 674.265 79.5615 678.176 81.0199C682.087 82.4119 686.263 83.6051 690.704 84.5994L709 88.9744C717.882 90.9631 726.036 93.6146 733.46 96.929C740.884 100.243 747.314 104.32 752.75 109.159C758.186 113.998 762.395 119.699 765.378 126.261C768.427 132.824 769.985 140.348 770.051 148.832C769.985 161.295 766.803 172.099 760.506 181.247C754.275 190.329 745.259 197.388 733.46 202.426C721.727 207.398 707.575 209.884 691.003 209.884C674.563 209.884 660.245 207.365 648.048 202.327C635.918 197.289 626.438 189.831 619.611 179.955C612.849 170.011 609.303 157.715 608.972 143.065H650.633C651.097 149.893 653.053 155.594 656.5 160.168C660.013 164.675 664.686 168.089 670.52 170.409C676.419 172.663 683.081 173.79 690.506 173.79C697.797 173.79 704.128 172.729 709.497 170.608C714.933 168.487 719.142 165.537 722.125 161.759C725.108 157.98 726.599 153.638 726.599 148.733C726.599 144.159 725.24 140.314 722.523 137.199C719.871 134.083 715.96 131.432 710.79 129.244C705.686 127.057 699.421 125.068 691.997 123.278L669.824 117.71C652.655 113.534 639.099 107.005 629.156 98.1222C619.213 89.2396 614.275 77.2746 614.341 62.2273C614.275 49.8977 617.556 39.1259 624.185 29.9119C630.88 20.6979 640.061 13.5057 651.727 8.33522C663.394 3.16477 676.651 0.579538 691.5 0.579538C706.614 0.579538 719.805 3.16477 731.074 8.33522C742.409 13.5057 751.225 20.6979 757.523 29.9119C763.82 39.1259 767.068 49.7983 767.267 61.929H726.003Z"/>
</mask>
<path d="M170.714 3.36363V207H133.526L44.9326 78.8324H43.4411V207H0.387157V3.36363H38.1713L126.069 131.432H127.859V3.36363H170.714ZM189.486 207V3.36363H326.702V38.8608H232.54V87.3835H319.642V122.881H232.54V171.503H327.099V207H189.486ZM389.969 207L331.702 3.36363H378.733L412.441 144.855H414.131L451.318 3.36363H491.588L528.676 145.153H530.466L564.173 3.36363H611.205L552.938 207H510.977L472.199 73.8608H470.608L431.929 207H389.969ZM726.003 61.929C725.207 53.9081 721.793 47.6771 715.761 43.2358C709.729 38.7945 701.543 36.5739 691.202 36.5739C684.175 36.5739 678.242 37.5682 673.403 39.5568C668.564 41.4792 664.852 44.1638 662.267 47.6108C659.748 51.0578 658.489 54.9688 658.489 59.3438C658.356 62.9896 659.118 66.1714 660.775 68.8892C662.499 71.607 664.852 73.9602 667.835 75.9489C670.818 77.8712 674.265 79.5615 678.176 81.0199C682.087 82.4119 686.263 83.6051 690.704 84.5994L709 88.9744C717.882 90.9631 726.036 93.6146 733.46 96.929C740.884 100.243 747.314 104.32 752.75 109.159C758.186 113.998 762.395 119.699 765.378 126.261C768.427 132.824 769.985 140.348 770.051 148.832C769.985 161.295 766.803 172.099 760.506 181.247C754.275 190.329 745.259 197.388 733.46 202.426C721.727 207.398 707.575 209.884 691.003 209.884C674.563 209.884 660.245 207.365 648.048 202.327C635.918 197.289 626.438 189.831 619.611 179.955C612.849 170.011 609.303 157.715 608.972 143.065H650.633C651.097 149.893 653.053 155.594 656.5 160.168C660.013 164.675 664.686 168.089 670.52 170.409C676.419 172.663 683.081 173.79 690.506 173.79C697.797 173.79 704.128 172.729 709.497 170.608C714.933 168.487 719.142 165.537 722.125 161.759C725.108 157.98 726.599 153.638 726.599 148.733C726.599 144.159 725.24 140.314 722.523 137.199C719.871 134.083 715.96 131.432 710.79 129.244C705.686 127.057 699.421 125.068 691.997 123.278L669.824 117.71C652.655 113.534 639.099 107.005 629.156 98.1222C619.213 89.2396 614.275 77.2746 614.341 62.2273C614.275 49.8977 617.556 39.1259 624.185 29.9119C630.88 20.6979 640.061 13.5057 651.727 8.33522C663.394 3.16477 676.651 0.579538 691.5 0.579538C706.614 0.579538 719.805 3.16477 731.074 8.33522C742.409 13.5057 751.225 20.6979 757.523 29.9119C763.82 39.1259 767.068 49.7983 767.267 61.929H726.003Z" fill="white"/>
<path d="M170.714 3.36363H173.714V0.36363H170.714V3.36363ZM170.714 207V210H173.714V207H170.714ZM133.526 207L131.059 208.706L131.953 210H133.526V207ZM44.9326 78.8324L47.4004 77.1265L46.5059 75.8324H44.9326V78.8324ZM43.4411 78.8324V75.8324H40.4411V78.8324H43.4411ZM43.4411 207V210H46.4411V207H43.4411ZM0.387157 207H-2.61284V210H0.387157V207ZM0.387157 3.36363V0.36363H-2.61284V3.36363H0.387157ZM38.1713 3.36363L40.6447 1.666L39.7509 0.36363H38.1713V3.36363ZM126.069 131.432L123.596 133.129L124.489 134.432H126.069V131.432ZM127.859 131.432V134.432H130.859V131.432H127.859ZM127.859 3.36363V0.36363H124.859V3.36363H127.859ZM167.714 3.36363V207H173.714V3.36363H167.714ZM170.714 204H133.526V210H170.714V204ZM135.994 205.294L47.4004 77.1265L42.4648 80.5382L131.059 208.706L135.994 205.294ZM44.9326 75.8324H43.4411V81.8324H44.9326V75.8324ZM40.4411 78.8324V207H46.4411V78.8324H40.4411ZM43.4411 204H0.387157V210H43.4411V204ZM3.38716 207V3.36363H-2.61284V207H3.38716ZM0.387157 6.36363H38.1713V0.36363H0.387157V6.36363ZM35.6978 5.06126L123.596 133.129L128.542 129.734L40.6447 1.666L35.6978 5.06126ZM126.069 134.432H127.859V128.432H126.069V134.432ZM130.859 131.432V3.36363H124.859V131.432H130.859ZM127.859 6.36363H170.714V0.36363H127.859V6.36363ZM189.486 207H186.486V210H189.486V207ZM189.486 3.36363V0.36363H186.486V3.36363H189.486ZM326.702 3.36363H329.702V0.36363H326.702V3.36363ZM326.702 38.8608V41.8608H329.702V38.8608H326.702ZM232.54 38.8608V35.8608H229.54V38.8608H232.54ZM232.54 87.3835H229.54V90.3835H232.54V87.3835ZM319.642 87.3835H322.642V84.3835H319.642V87.3835ZM319.642 122.881V125.881H322.642V122.881H319.642ZM232.54 122.881V119.881H229.54V122.881H232.54ZM232.54 171.503H229.54V174.503H232.54V171.503ZM327.099 171.503H330.099V168.503H327.099V171.503ZM327.099 207V210H330.099V207H327.099ZM192.486 207V3.36363H186.486V207H192.486ZM189.486 6.36363H326.702V0.36363H189.486V6.36363ZM323.702 3.36363V38.8608H329.702V3.36363H323.702ZM326.702 35.8608H232.54V41.8608H326.702V35.8608ZM229.54 38.8608V87.3835H235.54V38.8608H229.54ZM232.54 90.3835H319.642V84.3835H232.54V90.3835ZM316.642 87.3835V122.881H322.642V87.3835H316.642ZM319.642 119.881H232.54V125.881H319.642V119.881ZM229.54 122.881V171.503H235.54V122.881H229.54ZM232.54 174.503H327.099V168.503H232.54V174.503ZM324.099 171.503V207H330.099V171.503H324.099ZM327.099 204H189.486V210H327.099V204ZM389.969 207L387.085 207.825L387.707 210H389.969V207ZM331.702 3.36363V0.36363H327.723L328.818 4.18891L331.702 3.36363ZM378.733 3.36363L381.651 2.6684L381.102 0.36363H378.733V3.36363ZM412.441 144.855L409.522 145.55L410.071 147.855H412.441V144.855ZM414.131 144.855V147.855H416.444L417.032 145.618L414.131 144.855ZM451.318 3.36363V0.36363H449.005L448.417 2.60105L451.318 3.36363ZM491.588 3.36363L494.491 2.60446L493.904 0.36363H491.588V3.36363ZM528.676 145.153L525.774 145.913L526.36 148.153H528.676V145.153ZM530.466 145.153V148.153H532.837L533.385 145.847L530.466 145.153ZM564.173 3.36363V0.36363H561.803L561.255 2.66978L564.173 3.36363ZM611.205 3.36363L614.089 4.18891L615.184 0.36363H611.205V3.36363ZM552.938 207V210H555.2L555.822 207.825L552.938 207ZM510.977 207L508.097 207.839L508.727 210H510.977V207ZM472.199 73.8608L475.079 73.0219L474.45 70.8608H472.199V73.8608ZM470.608 73.8608V70.8608H468.356L467.727 73.0238L470.608 73.8608ZM431.929 207V210H434.182L434.81 207.837L431.929 207ZM392.853 206.175L334.586 2.53835L328.818 4.18891L387.085 207.825L392.853 206.175ZM331.702 6.36363H378.733V0.36363H331.702V6.36363ZM375.815 4.05886L409.522 145.55L415.359 144.16L381.651 2.6684L375.815 4.05886ZM412.441 147.855H414.131V141.855H412.441V147.855ZM417.032 145.618L454.22 4.12621L448.417 2.60105L411.229 144.093L417.032 145.618ZM451.318 6.36363H491.588V0.36363H451.318V6.36363ZM488.686 4.1228L525.774 145.913L531.579 144.394L494.491 2.60446L488.686 4.1228ZM528.676 148.153H530.466V142.153H528.676V148.153ZM533.385 145.847L567.092 4.05748L561.255 2.66978L527.547 144.46L533.385 145.847ZM564.173 6.36363H611.205V0.36363H564.173V6.36363ZM608.32 2.53835L550.053 206.175L555.822 207.825L614.089 4.18891L608.32 2.53835ZM552.938 204H510.977V210H552.938V204ZM513.858 206.161L475.079 73.0219L469.319 74.6997L508.097 207.839L513.858 206.161ZM472.199 70.8608H470.608V76.8608H472.199V70.8608ZM467.727 73.0238L429.048 206.163L434.81 207.837L473.489 74.6977L467.727 73.0238ZM431.929 204H389.969V210H431.929V204ZM726.003 61.929L723.017 62.225L723.286 64.929H726.003V61.929ZM673.403 39.5568L674.511 42.3449L674.527 42.3383L674.544 42.3316L673.403 39.5568ZM662.267 47.6108L659.867 45.8108L659.856 45.8257L659.845 45.8407L662.267 47.6108ZM658.489 59.3438L661.487 59.4528L661.489 59.3983V59.3438H658.489ZM660.775 68.8892L658.214 70.451L658.228 70.4736L658.242 70.4958L660.775 68.8892ZM667.835 75.9489L666.171 78.445L666.19 78.4579L666.21 78.4706L667.835 75.9489ZM678.176 81.0199L677.128 83.8308L677.149 83.8387L677.17 83.8462L678.176 81.0199ZM690.704 84.5994L691.402 81.6817L691.381 81.6766L691.36 81.6719L690.704 84.5994ZM709 88.9744L708.302 91.8922L708.323 91.8972L708.345 91.902L709 88.9744ZM733.46 96.929L732.237 99.6684L732.237 99.6684L733.46 96.929ZM752.75 109.159L754.745 106.918L754.745 106.918L752.75 109.159ZM765.378 126.261L762.647 127.503L762.652 127.514L762.657 127.526L765.378 126.261ZM770.051 148.832L773.051 148.848L773.051 148.829L773.051 148.809L770.051 148.832ZM760.506 181.247L758.035 179.546L758.032 179.55L760.506 181.247ZM733.46 202.426L734.631 205.188L734.638 205.185L733.46 202.426ZM648.048 202.327L646.898 205.097L646.903 205.099L648.048 202.327ZM619.611 179.955L617.13 181.641L617.136 181.651L617.143 181.66L619.611 179.955ZM608.972 143.065V140.065H605.903L605.972 143.133L608.972 143.065ZM650.633 143.065L653.627 142.862L653.436 140.065H650.633V143.065ZM656.5 160.168L654.104 161.973L654.119 161.993L654.134 162.012L656.5 160.168ZM670.52 170.409L669.411 173.197L669.43 173.204L669.449 173.212L670.52 170.409ZM709.497 170.608L708.406 167.813L708.395 167.818L709.497 170.608ZM722.125 161.759L724.48 163.617L724.48 163.617L722.125 161.759ZM722.523 137.199L720.238 139.143L720.25 139.157L720.262 139.171L722.523 137.199ZM710.79 129.244L709.608 132.002L709.621 132.007L710.79 129.244ZM691.997 123.278L691.266 126.188L691.28 126.192L691.294 126.195L691.997 123.278ZM669.824 117.71L670.554 114.801L670.544 114.798L670.533 114.795L669.824 117.71ZM629.156 98.1222L627.158 100.359L627.158 100.359L629.156 98.1222ZM614.341 62.2273L617.341 62.2405L617.341 62.2258L617.341 62.2111L614.341 62.2273ZM624.185 29.9119L621.758 28.1485L621.753 28.1542L621.749 28.1599L624.185 29.9119ZM731.074 8.33522L729.823 11.0619L729.829 11.0647L731.074 8.33522ZM757.523 29.9119L755.046 31.6047L755.046 31.6047L757.523 29.9119ZM767.267 61.929V64.929H770.317L770.267 61.8798L767.267 61.929ZM728.988 61.6329C728.116 52.8387 724.313 45.8066 717.54 40.82L713.983 45.6516C719.274 49.5476 722.299 54.9775 723.017 62.225L728.988 61.6329ZM717.54 40.82C710.829 35.8788 701.944 33.5739 691.202 33.5739V39.5739C701.141 39.5739 708.629 41.7102 713.983 45.6516L717.54 40.82ZM691.202 33.5739C683.91 33.5739 677.565 34.6032 672.263 36.782L674.544 42.3316C678.92 40.5332 684.44 39.5739 691.202 39.5739V33.5739ZM672.296 36.7688C667.051 38.8524 662.847 41.8375 659.867 45.8108L664.667 49.4108C666.857 46.4901 670.078 44.1059 674.511 42.3449L672.296 36.7688ZM659.845 45.8407C656.941 49.815 655.489 54.3493 655.489 59.3438H661.489C661.489 55.5882 662.556 52.3005 664.689 49.3808L659.845 45.8407ZM655.491 59.2347C655.34 63.38 656.208 67.1607 658.214 70.451L663.337 67.3274C662.029 65.1822 661.372 62.5992 661.487 59.4528L655.491 59.2347ZM658.242 70.4958C660.214 73.606 662.879 76.2505 666.171 78.445L669.499 73.4527C666.825 71.67 664.784 69.608 663.309 67.2826L658.242 70.4958ZM666.21 78.4706C669.403 80.5281 673.049 82.3099 677.128 83.8308L679.224 78.2089C675.481 76.8132 672.233 75.2143 669.46 73.4271L666.21 78.4706ZM677.17 83.8462C681.206 85.2827 685.5 86.5086 690.049 87.527L691.36 81.6719C687.026 80.7017 682.968 79.5411 679.182 78.1936L677.17 83.8462ZM690.007 87.5172L708.302 91.8922L709.698 86.0567L691.402 81.6817L690.007 87.5172ZM708.345 91.902C717.055 93.852 725.016 96.4444 732.237 99.6684L734.683 94.1896C727.056 90.7847 718.71 88.0741 709.655 86.0469L708.345 91.902ZM732.237 99.6684C739.413 102.872 745.575 106.788 750.755 111.4L754.745 106.918C749.054 101.852 742.356 97.615 734.683 94.1896L732.237 99.6684ZM750.755 111.4C755.881 115.963 759.838 121.325 762.647 127.503L768.109 125.02C764.951 118.073 760.49 112.033 754.745 106.918L750.755 111.4ZM762.657 127.526C765.497 133.638 766.988 140.726 767.051 148.856L773.051 148.809C772.982 139.969 771.357 132.01 768.098 124.997L762.657 127.526ZM767.051 148.816C766.988 160.753 763.95 170.954 758.035 179.546L762.977 182.948C769.656 173.245 772.982 161.836 773.051 148.848L767.051 148.816ZM758.032 179.55C752.173 188.088 743.645 194.815 732.282 199.667L734.638 205.185C746.873 199.961 756.376 192.569 762.979 182.944L758.032 179.55ZM732.29 199.664C721.02 204.439 707.288 206.884 691.003 206.884V212.884C707.862 212.884 722.434 210.356 734.631 205.188L732.29 199.664ZM691.003 206.884C674.863 206.884 660.95 204.41 649.193 199.554L646.903 205.099C659.54 210.319 674.264 212.884 691.003 212.884V206.884ZM649.199 199.556C637.548 194.718 628.548 187.607 622.078 178.249L617.143 181.66C624.329 192.056 634.287 199.86 646.898 205.097L649.199 199.556ZM622.091 178.268C615.72 168.898 612.292 157.196 611.971 142.997L605.972 143.133C606.314 158.234 609.978 171.124 617.13 181.641L622.091 178.268ZM608.972 146.065H650.633V140.065H608.972V146.065ZM647.64 143.269C648.136 150.562 650.244 156.85 654.104 161.973L658.896 158.362C655.862 154.337 654.059 149.224 653.627 142.862L647.64 143.269ZM654.134 162.012C658.007 166.981 663.132 170.699 669.411 173.197L671.629 167.621C666.241 165.479 662.02 162.37 658.866 158.323L654.134 162.012ZM669.449 173.212C675.745 175.617 682.778 176.79 690.506 176.79V170.79C683.384 170.79 677.094 169.709 671.59 167.607L669.449 173.212ZM690.506 176.79C698.079 176.79 704.8 175.689 710.599 173.398L708.395 167.818C703.455 169.769 697.515 170.79 690.506 170.79V176.79ZM710.588 173.403C716.415 171.129 721.102 167.895 724.48 163.617L719.77 159.9C717.182 163.179 713.45 165.845 708.406 167.813L710.588 173.403ZM724.48 163.617C727.889 159.299 729.599 154.299 729.599 148.733H723.599C723.599 152.978 722.327 156.661 719.77 159.9L724.48 163.617ZM729.599 148.733C729.599 143.517 728.03 138.948 724.783 135.227L720.262 139.171C722.451 141.681 723.599 144.801 723.599 148.733H729.599ZM724.807 135.255C721.761 131.676 717.408 128.787 711.959 126.481L709.621 132.007C714.512 134.077 717.981 136.491 720.238 139.143L724.807 135.255ZM711.971 126.487C706.667 124.214 700.232 122.178 692.7 120.362L691.294 126.195C698.611 127.959 704.704 129.9 709.608 132.002L711.971 126.487ZM692.728 120.369L670.554 114.801L669.093 120.62L691.266 126.188L692.728 120.369ZM670.533 114.795C653.693 110.699 640.63 104.35 631.155 95.8849L627.158 100.359C637.568 109.66 651.617 116.369 669.115 120.625L670.533 114.795ZM631.155 95.8849C621.938 87.6516 617.278 76.5518 617.341 62.2405L611.341 62.214C611.271 77.9974 616.488 90.8276 627.158 100.359L631.155 95.8849ZM617.341 62.2111C617.278 50.4581 620.394 40.3181 626.62 31.6639L621.749 28.1599C614.718 37.9338 611.271 49.3373 611.341 62.2434L617.341 62.2111ZM626.612 31.6754C632.96 22.9385 641.7 16.0607 652.943 11.0779L650.512 5.5925C638.421 10.9507 628.799 18.4574 621.758 28.1485L626.612 31.6754ZM652.943 11.0779C664.169 6.10263 677.002 3.57954 691.5 3.57954V-2.42046C676.301 -2.42046 662.619 0.226901 650.512 5.5925L652.943 11.0779ZM691.5 3.57954C706.274 3.57954 719.023 6.10653 729.823 11.0619L732.325 5.60853C720.587 0.223006 706.953 -2.42046 691.5 -2.42046V3.57954ZM729.829 11.0647C740.726 16.0354 749.092 22.8931 755.046 31.6047L759.999 28.2192C753.359 18.5028 744.092 10.976 732.319 5.60577L729.829 11.0647ZM755.046 31.6047C760.983 40.2916 764.077 50.3813 764.267 61.9781L770.267 61.8798C770.059 49.2153 766.657 37.9603 759.999 28.2192L755.046 31.6047ZM767.267 58.929H726.003V64.929H767.267V58.929Z" fill="white" mask="url(#path-1-outside-1_1_14)"/>
</svg>
