<svg width="1509" height="490" viewBox="0 0 1509 490" fill="none" xmlns="http://www.w3.org/2000/svg">
<g clip-path="url(#clip0_53_626)">
<rect width="1509" height="490" fill="black"/>
<path d="M98.0485 427V63.3636H243.645C270.397 63.3636 292.71 67.3291 310.584 75.2599C328.458 83.1908 341.893 94.1993 350.889 108.286C359.886 122.253 364.384 138.352 364.384 156.581C364.384 170.786 361.543 183.274 355.861 194.045C350.179 204.699 342.367 213.458 332.423 220.324C322.599 227.071 311.353 231.865 298.688 234.706V238.257C312.537 238.849 325.499 242.755 337.573 249.976C349.765 257.196 359.649 267.317 367.225 280.338C374.8 293.241 378.588 308.629 378.588 326.503C378.588 345.797 373.794 363.02 364.206 378.172C354.736 393.205 340.709 405.101 322.125 413.861C303.541 422.62 280.636 427 253.411 427H98.0485ZM174.931 364.145H237.608C259.033 364.145 274.658 360.061 284.483 351.893C294.308 343.607 299.22 332.599 299.22 318.868C299.22 308.806 296.794 299.929 291.941 292.234C287.087 284.54 280.163 278.503 271.166 274.124C262.289 269.744 251.694 267.554 239.384 267.554H174.931V364.145ZM174.931 215.53H231.926C242.461 215.53 251.813 213.695 259.98 210.026C268.266 206.238 274.777 200.911 279.512 194.045C284.365 187.18 286.791 178.953 286.791 169.365C286.791 156.226 282.116 145.632 272.764 137.582C263.531 129.533 250.392 125.509 233.347 125.509H174.931V215.53ZM648.224 63.3636H725.106V299.514C725.106 326.029 718.774 349.23 706.108 369.116C693.56 389.003 675.982 404.509 653.373 415.636C630.765 426.645 604.427 432.149 574.361 432.149C544.176 432.149 517.779 426.645 495.17 415.636C472.561 404.509 454.983 389.003 442.436 369.116C429.889 349.23 423.615 326.029 423.615 299.514V63.3636H500.497V292.945C500.497 306.794 503.515 319.105 509.552 329.876C515.708 340.648 524.349 349.112 535.476 355.267C546.603 361.422 559.564 364.5 574.361 364.5C589.275 364.5 602.237 361.422 613.246 355.267C624.372 349.112 632.954 340.648 638.991 329.876C645.147 319.105 648.224 306.794 648.224 292.945V63.3636ZM783.361 427V63.3636H926.827C954.289 63.3636 977.727 68.276 997.139 78.1008C1016.67 87.8073 1031.53 101.598 1041.71 119.472C1052 137.227 1057.15 158.12 1057.15 182.149C1057.15 206.297 1051.95 227.071 1041.53 244.472C1031.11 261.754 1016.02 275.011 996.252 284.244C976.602 293.477 952.809 298.094 924.874 298.094H828.816V236.304H912.445C927.123 236.304 939.315 234.292 949.021 230.267C958.728 226.242 965.949 220.205 970.683 212.156C975.537 204.107 977.963 194.105 977.963 182.149C977.963 170.075 975.537 159.895 970.683 151.609C965.949 143.323 958.669 137.05 948.844 132.788C939.137 128.409 926.886 126.219 912.09 126.219H860.243V427H783.361ZM979.739 261.517L1070.12 427H985.243L896.82 261.517H979.739ZM1410.64 63.3636V427H1344.23L1186.03 198.129H1183.37V427H1106.49V63.3636H1173.96L1330.92 292.057H1334.11V63.3636H1410.64Z" fill="white"/>
</g>
<defs>
<clipPath id="clip0_53_626">
<rect width="1509" height="490" fill="white"/>
</clipPath>
</defs>
</svg>
