<svg width="1500" height="341" viewBox="0 0 1500 341" fill="none" xmlns="http://www.w3.org/2000/svg">
<mask id="path-1-outside-1_97_2" maskUnits="userSpaceOnUse" x="37" y="25" width="1429" height="291" fill="black">
<rect fill="white" x="37" y="25" width="1429" height="291"/>
<path d="M229.068 121.969C227.179 115.402 224.525 109.599 221.106 104.561C217.688 99.4332 213.505 95.1151 208.557 91.6065C203.699 88.008 198.121 85.2642 191.824 83.375C185.616 81.4858 178.734 80.5412 171.177 80.5412C157.053 80.5412 144.639 84.0497 133.933 91.0667C123.318 98.0838 115.041 108.294 109.104 121.699C103.166 135.013 100.197 151.296 100.197 170.548C100.197 189.8 103.121 206.173 108.969 219.668C114.816 233.162 123.093 243.463 133.798 250.57C144.504 257.587 157.143 261.095 171.717 261.095C184.942 261.095 196.232 258.756 205.588 254.078C215.034 249.31 222.231 242.608 227.179 233.972C232.217 225.335 234.736 215.125 234.736 203.339L246.611 205.094H175.361V161.102H291.007V195.918C291.007 220.207 285.879 241.079 275.623 258.531C265.368 275.894 251.244 289.298 233.251 298.744C215.259 308.1 194.658 312.778 171.447 312.778C145.538 312.778 122.778 307.066 103.166 295.641C83.5543 284.125 68.2607 267.797 57.2853 246.656C46.3999 225.425 40.9572 200.236 40.9572 171.088C40.9572 148.687 44.1959 128.716 50.6731 111.173C57.2404 93.5407 66.4165 78.607 78.2015 66.3722C89.9866 54.1373 103.706 44.8262 119.359 38.4389C135.013 32.0516 151.97 28.8579 170.233 28.8579C185.886 28.8579 200.46 31.152 213.954 35.7401C227.449 40.2382 239.414 46.6255 249.849 54.902C260.375 63.1785 268.966 73.0293 275.623 84.4545C282.281 95.7898 286.554 108.294 288.443 121.969H229.068ZM623.06 170.818C623.06 200.955 617.348 226.595 605.923 247.736C594.587 268.877 579.114 285.025 559.502 296.18C539.98 307.246 518.03 312.778 493.65 312.778C469.09 312.778 447.049 307.201 427.528 296.045C408.006 284.89 392.577 268.742 381.242 247.601C369.907 226.46 364.239 200.866 364.239 170.818C364.239 140.681 369.907 115.042 381.242 93.9006C392.577 72.7595 408.006 56.6562 427.528 45.5909C447.049 34.4356 469.09 28.8579 493.65 28.8579C518.03 28.8579 539.98 34.4356 559.502 45.5909C579.114 56.6562 594.587 72.7595 605.923 93.9006C617.348 115.042 623.06 140.681 623.06 170.818ZM563.82 170.818C563.82 151.296 560.896 134.833 555.049 121.429C549.291 108.025 541.15 97.8589 530.624 90.9318C520.099 84.0047 507.774 80.5412 493.65 80.5412C479.526 80.5412 467.201 84.0047 456.675 90.9318C446.15 97.8589 437.963 108.025 432.116 121.429C426.358 134.833 423.479 151.296 423.479 170.818C423.479 190.34 426.358 206.803 432.116 220.207C437.963 233.612 446.15 243.777 456.675 250.705C467.201 257.632 479.526 261.095 493.65 261.095C507.774 261.095 520.099 257.632 530.624 250.705C541.15 243.777 549.291 233.612 555.049 220.207C560.896 206.803 563.82 190.34 563.82 170.818ZM732.592 309H669.979L765.384 32.6364H840.682L935.952 309H873.338L804.112 95.7898H801.953L732.592 309ZM728.679 200.371H876.577V245.982H728.679V200.371ZM1003.42 309V32.6364H1061.85V260.825H1180.33V309H1003.42ZM1403.14 112.118C1402.06 101.232 1397.43 92.776 1389.24 86.7486C1381.06 80.7211 1369.95 77.7074 1355.91 77.7074C1346.38 77.7074 1338.32 79.0568 1331.76 81.7557C1325.19 84.3646 1320.15 88.008 1316.64 92.6861C1313.23 97.3641 1311.52 102.672 1311.52 108.609C1311.34 113.557 1312.37 117.875 1314.62 121.564C1316.96 125.252 1320.15 128.446 1324.2 131.145C1328.25 133.754 1332.93 136.048 1338.23 138.027C1343.54 139.916 1349.21 141.536 1355.24 142.885L1380.07 148.822C1392.12 151.521 1403.19 155.12 1413.26 159.618C1423.34 164.116 1432.07 169.649 1439.44 176.216C1446.82 182.783 1452.53 190.52 1456.58 199.426C1460.72 208.332 1462.83 218.543 1462.92 230.058C1462.83 246.971 1458.51 261.635 1449.97 274.05C1441.51 286.375 1429.28 295.955 1413.26 302.793C1397.34 309.54 1378.13 312.913 1355.64 312.913C1333.33 312.913 1313.9 309.495 1297.35 302.658C1280.88 295.821 1268.02 285.7 1258.75 272.295C1249.58 258.801 1244.76 242.113 1244.31 222.232H1300.86C1301.49 231.498 1304.14 239.234 1308.82 245.442C1313.59 251.559 1319.93 256.192 1327.84 259.341C1335.85 262.4 1344.89 263.929 1354.97 263.929C1364.86 263.929 1373.46 262.49 1380.74 259.611C1388.12 256.732 1393.83 252.729 1397.88 247.601C1401.93 242.473 1403.95 236.58 1403.95 229.923C1403.95 223.716 1402.11 218.498 1398.42 214.27C1394.82 210.042 1389.51 206.443 1382.5 203.474C1375.57 200.506 1367.07 197.807 1356.99 195.378L1326.9 187.821C1303.6 182.153 1285.2 173.292 1271.71 161.237C1258.21 149.182 1251.51 132.944 1251.6 112.523C1251.51 95.7898 1255.96 81.1709 1264.96 68.6662C1274.05 56.1615 1286.51 46.4006 1302.34 39.3835C1318.17 32.3665 1336.17 28.8579 1356.32 28.8579C1376.83 28.8579 1394.73 32.3665 1410.02 39.3835C1425.41 46.4006 1437.37 56.1615 1445.92 68.6662C1454.47 81.1709 1458.87 95.6548 1459.14 112.118H1403.14Z"/>
</mask>
<path d="M229.068 121.969C227.179 115.402 224.525 109.599 221.106 104.561C217.688 99.4332 213.505 95.1151 208.557 91.6065C203.699 88.008 198.121 85.2642 191.824 83.375C185.616 81.4858 178.734 80.5412 171.177 80.5412C157.053 80.5412 144.639 84.0497 133.933 91.0667C123.318 98.0838 115.041 108.294 109.104 121.699C103.166 135.013 100.197 151.296 100.197 170.548C100.197 189.8 103.121 206.173 108.969 219.668C114.816 233.162 123.093 243.463 133.798 250.57C144.504 257.587 157.143 261.095 171.717 261.095C184.942 261.095 196.232 258.756 205.588 254.078C215.034 249.31 222.231 242.608 227.179 233.972C232.217 225.335 234.736 215.125 234.736 203.339L246.611 205.094H175.361V161.102H291.007V195.918C291.007 220.207 285.879 241.079 275.623 258.531C265.368 275.894 251.244 289.298 233.251 298.744C215.259 308.1 194.658 312.778 171.447 312.778C145.538 312.778 122.778 307.066 103.166 295.641C83.5543 284.125 68.2607 267.797 57.2853 246.656C46.3999 225.425 40.9572 200.236 40.9572 171.088C40.9572 148.687 44.1959 128.716 50.6731 111.173C57.2404 93.5407 66.4165 78.607 78.2015 66.3722C89.9866 54.1373 103.706 44.8262 119.359 38.4389C135.013 32.0516 151.97 28.8579 170.233 28.8579C185.886 28.8579 200.46 31.152 213.954 35.7401C227.449 40.2382 239.414 46.6255 249.849 54.902C260.375 63.1785 268.966 73.0293 275.623 84.4545C282.281 95.7898 286.554 108.294 288.443 121.969H229.068ZM623.06 170.818C623.06 200.955 617.348 226.595 605.923 247.736C594.587 268.877 579.114 285.025 559.502 296.18C539.98 307.246 518.03 312.778 493.65 312.778C469.09 312.778 447.049 307.201 427.528 296.045C408.006 284.89 392.577 268.742 381.242 247.601C369.907 226.46 364.239 200.866 364.239 170.818C364.239 140.681 369.907 115.042 381.242 93.9006C392.577 72.7595 408.006 56.6562 427.528 45.5909C447.049 34.4356 469.09 28.8579 493.65 28.8579C518.03 28.8579 539.98 34.4356 559.502 45.5909C579.114 56.6562 594.587 72.7595 605.923 93.9006C617.348 115.042 623.06 140.681 623.06 170.818ZM563.82 170.818C563.82 151.296 560.896 134.833 555.049 121.429C549.291 108.025 541.15 97.8589 530.624 90.9318C520.099 84.0047 507.774 80.5412 493.65 80.5412C479.526 80.5412 467.201 84.0047 456.675 90.9318C446.15 97.8589 437.963 108.025 432.116 121.429C426.358 134.833 423.479 151.296 423.479 170.818C423.479 190.34 426.358 206.803 432.116 220.207C437.963 233.612 446.15 243.777 456.675 250.705C467.201 257.632 479.526 261.095 493.65 261.095C507.774 261.095 520.099 257.632 530.624 250.705C541.15 243.777 549.291 233.612 555.049 220.207C560.896 206.803 563.82 190.34 563.82 170.818ZM732.592 309H669.979L765.384 32.6364H840.682L935.952 309H873.338L804.112 95.7898H801.953L732.592 309ZM728.679 200.371H876.577V245.982H728.679V200.371ZM1003.42 309V32.6364H1061.85V260.825H1180.33V309H1003.42ZM1403.14 112.118C1402.06 101.232 1397.43 92.776 1389.24 86.7486C1381.06 80.7211 1369.95 77.7074 1355.91 77.7074C1346.38 77.7074 1338.32 79.0568 1331.76 81.7557C1325.19 84.3646 1320.15 88.008 1316.64 92.6861C1313.23 97.3641 1311.52 102.672 1311.52 108.609C1311.34 113.557 1312.37 117.875 1314.62 121.564C1316.96 125.252 1320.15 128.446 1324.2 131.145C1328.25 133.754 1332.93 136.048 1338.23 138.027C1343.54 139.916 1349.21 141.536 1355.24 142.885L1380.07 148.822C1392.12 151.521 1403.19 155.12 1413.26 159.618C1423.34 164.116 1432.07 169.649 1439.44 176.216C1446.82 182.783 1452.53 190.52 1456.58 199.426C1460.72 208.332 1462.83 218.543 1462.92 230.058C1462.83 246.971 1458.51 261.635 1449.97 274.05C1441.51 286.375 1429.28 295.955 1413.26 302.793C1397.34 309.54 1378.13 312.913 1355.64 312.913C1333.33 312.913 1313.9 309.495 1297.35 302.658C1280.88 295.821 1268.02 285.7 1258.75 272.295C1249.58 258.801 1244.76 242.113 1244.31 222.232H1300.86C1301.49 231.498 1304.14 239.234 1308.82 245.442C1313.59 251.559 1319.93 256.192 1327.84 259.341C1335.85 262.4 1344.89 263.929 1354.97 263.929C1364.86 263.929 1373.46 262.49 1380.74 259.611C1388.12 256.732 1393.83 252.729 1397.88 247.601C1401.93 242.473 1403.95 236.58 1403.95 229.923C1403.95 223.716 1402.11 218.498 1398.42 214.27C1394.82 210.042 1389.51 206.443 1382.5 203.474C1375.57 200.506 1367.07 197.807 1356.99 195.378L1326.9 187.821C1303.6 182.153 1285.2 173.292 1271.71 161.237C1258.21 149.182 1251.51 132.944 1251.6 112.523C1251.51 95.7898 1255.96 81.1709 1264.96 68.6662C1274.05 56.1615 1286.51 46.4006 1302.34 39.3835C1318.17 32.3665 1336.17 28.8579 1356.32 28.8579C1376.83 28.8579 1394.73 32.3665 1410.02 39.3835C1425.41 46.4006 1437.37 56.1615 1445.92 68.6662C1454.47 81.1709 1458.87 95.6548 1459.14 112.118H1403.14Z" fill="white"/>
<path d="M229.068 121.969L226.185 122.798L226.809 124.969H229.068V121.969ZM221.106 104.561L218.61 106.225L218.617 106.235L218.624 106.246L221.106 104.561ZM208.557 91.6065L206.771 94.0172L206.796 94.0357L206.821 94.0537L208.557 91.6065ZM191.824 83.375L190.95 86.245L190.962 86.2485L191.824 83.375ZM133.933 91.0667L132.288 88.5577L132.279 88.5641L133.933 91.0667ZM109.104 121.699L111.843 122.921L111.846 122.914L109.104 121.699ZM133.798 250.57L132.139 253.069L132.146 253.074L132.154 253.079L133.798 250.57ZM205.588 254.078L206.93 256.761L206.94 256.756L205.588 254.078ZM227.179 233.972L224.587 232.46L224.582 232.47L224.576 232.48L227.179 233.972ZM234.736 203.339L235.174 200.372L231.736 199.864V203.339H234.736ZM246.611 205.094V208.094L247.049 202.126L246.611 205.094ZM175.361 205.094H172.361V208.094H175.361V205.094ZM175.361 161.102V158.102H172.361V161.102H175.361ZM291.007 161.102H294.007V158.102H291.007V161.102ZM275.623 258.531L278.206 260.057L278.21 260.051L275.623 258.531ZM233.251 298.744L234.635 301.406L234.646 301.401L233.251 298.744ZM103.166 295.641L101.647 298.228L101.656 298.233L103.166 295.641ZM57.2853 246.656L54.6158 248.025L54.6193 248.032L54.6228 248.039L57.2853 246.656ZM50.6731 111.173L47.8618 110.126L47.8588 110.134L50.6731 111.173ZM78.2015 66.3722L80.3622 68.4534L80.3622 68.4534L78.2015 66.3722ZM119.359 38.4389L118.226 35.6613L118.226 35.6613L119.359 38.4389ZM213.954 35.7401L212.989 38.5804L212.997 38.5833L213.006 38.5861L213.954 35.7401ZM249.849 54.902L247.985 57.2525L247.995 57.2602L249.849 54.902ZM275.623 84.4545L273.031 85.9649L273.037 85.9738L275.623 84.4545ZM288.443 121.969V124.969H291.886L291.415 121.558L288.443 121.969ZM231.951 121.139C229.985 114.305 227.206 108.206 223.589 102.877L218.624 106.246C221.844 110.991 224.373 116.498 226.185 122.798L231.951 121.139ZM223.603 102.897C219.984 97.4688 215.544 92.8836 210.292 89.1593L206.821 94.0537C211.465 97.3465 215.392 101.398 218.61 106.225L223.603 102.897ZM210.342 89.1959C205.182 85.3735 199.286 82.4817 192.686 80.5015L190.962 86.2485C196.956 88.0467 202.215 90.6426 206.771 94.0172L210.342 89.1959ZM192.697 80.505C186.165 78.5168 178.983 77.5412 171.177 77.5412V83.5412C178.486 83.5412 185.068 84.4548 190.95 86.245L192.697 80.505ZM171.177 77.5412C156.532 77.5412 143.533 81.1876 132.288 88.5577L135.578 93.5758C145.744 86.9118 157.575 83.5412 171.177 83.5412V77.5412ZM132.279 88.5641C121.115 95.9433 112.494 106.637 106.361 120.484L111.846 122.914C117.588 109.952 125.52 100.224 135.587 93.5694L132.279 88.5641ZM106.364 120.477C100.209 134.278 97.1973 151.004 97.1973 170.548H103.197C103.197 151.589 106.123 135.748 111.843 122.921L106.364 120.477ZM97.1973 170.548C97.1973 190.09 100.163 206.893 106.216 220.86L111.721 218.475C106.079 205.454 103.197 189.511 103.197 170.548H97.1973ZM106.216 220.86C112.26 234.808 120.883 245.597 132.139 253.069L135.457 248.07C125.302 241.328 117.372 231.516 111.721 218.475L106.216 220.86ZM132.154 253.079C143.413 260.459 156.642 264.095 171.717 264.095V258.095C157.644 258.095 145.594 254.714 135.443 248.061L132.154 253.079ZM171.717 264.095C185.288 264.095 197.062 261.695 206.93 256.761L204.246 251.395C195.402 255.817 184.596 258.095 171.717 258.095V264.095ZM206.94 256.756C216.875 251.741 224.523 244.642 229.782 235.463L224.576 232.48C219.939 240.574 213.193 246.879 204.236 251.4L206.94 256.756ZM229.77 235.483C235.12 226.312 237.736 215.56 237.736 203.339H231.736C231.736 214.689 229.313 224.359 224.587 232.46L229.77 235.483ZM234.297 206.307L246.172 208.062L247.049 202.126L235.174 200.372L234.297 206.307ZM246.611 202.094H175.361V208.094H246.611V202.094ZM178.361 205.094V161.102H172.361V205.094H178.361ZM175.361 164.102H291.007V158.102H175.361V164.102ZM288.007 161.102V195.918H294.007V161.102H288.007ZM288.007 195.918C288.007 219.78 282.972 240.104 273.037 257.011L278.21 260.051C288.786 242.053 294.007 220.635 294.007 195.918H288.007ZM273.04 257.006C263.07 273.884 249.36 286.899 231.857 296.088L234.646 301.401C253.128 291.698 267.665 277.904 278.206 260.057L273.04 257.006ZM231.867 296.083C214.36 305.186 194.246 309.778 171.447 309.778V315.778C195.069 315.778 216.157 311.015 234.635 301.406L231.867 296.083ZM171.447 309.778C145.992 309.778 123.768 304.171 104.676 293.048L101.656 298.233C121.788 309.961 145.084 315.778 171.447 315.778V309.778ZM104.685 293.054C85.5839 281.838 70.676 265.939 59.9479 245.274L54.6228 248.039C65.8454 269.656 81.5246 286.413 101.647 298.228L104.685 293.054ZM59.9549 245.288C49.3296 224.564 43.9572 199.864 43.9572 171.088H37.9572C37.9572 200.608 43.4702 226.287 54.6158 248.025L59.9549 245.288ZM43.9572 171.088C43.9572 148.974 47.1546 129.364 53.4874 112.212L47.8588 110.134C41.2371 128.068 37.9572 148.401 37.9572 171.088H43.9572ZM53.4845 112.22C59.9236 94.9318 68.892 80.3614 80.3622 68.4534L76.0409 64.2909C63.941 76.8527 54.5571 92.1496 47.8618 110.126L53.4845 112.22ZM80.3622 68.4534C91.8585 56.5182 105.228 47.4451 120.493 41.2166L118.226 35.6613C102.183 42.2073 88.1146 51.7564 76.0409 64.2909L80.3622 68.4534ZM120.493 41.2166C135.758 34.9875 152.328 31.8579 170.233 31.8579V25.8579C151.613 25.8579 134.267 29.1157 118.226 35.6613L120.493 41.2166ZM170.233 31.8579C185.59 31.8579 199.834 34.1079 212.989 38.5804L214.92 32.8997C201.086 28.1961 186.183 25.8579 170.233 25.8579V31.8579ZM213.006 38.5861C226.191 42.9812 237.842 49.2076 247.985 57.2525L251.713 52.5515C240.986 44.0433 228.706 37.4951 214.903 32.894L213.006 38.5861ZM247.995 57.2602C258.227 65.3061 266.567 74.8705 273.031 85.9649L278.215 82.9442C271.366 71.1882 262.522 61.0509 251.704 52.5437L247.995 57.2602ZM273.037 85.9738C279.484 96.9515 283.633 109.076 285.471 122.379L291.415 121.558C289.474 107.513 285.077 94.628 278.21 82.9353L273.037 85.9738ZM288.443 118.969H229.068V124.969H288.443V118.969ZM605.923 247.736L603.283 246.309L603.279 246.318L605.923 247.736ZM559.502 296.18L560.981 298.79L560.985 298.788L559.502 296.18ZM427.528 296.045L429.016 293.441L429.016 293.441L427.528 296.045ZM381.242 247.601L378.598 249.018L378.598 249.018L381.242 247.601ZM381.242 93.9006L383.886 95.3182L383.886 95.3182L381.242 93.9006ZM427.528 45.5909L429.007 48.2008L429.016 48.1956L427.528 45.5909ZM559.502 45.5909L558.014 48.1956L558.021 48.1997L558.028 48.2037L559.502 45.5909ZM605.923 93.9006L603.279 95.3182L603.283 95.3269L605.923 93.9006ZM555.049 121.429L552.292 122.613L552.296 122.621L552.299 122.629L555.049 121.429ZM530.624 90.9318L528.975 93.4378L528.975 93.4378L530.624 90.9318ZM456.675 90.9318L458.325 93.4378L458.325 93.4378L456.675 90.9318ZM432.116 121.429L429.366 120.229L429.363 120.237L429.359 120.245L432.116 121.429ZM432.116 220.207L429.359 221.391L429.363 221.399L429.366 221.407L432.116 220.207ZM456.675 250.705L458.325 248.199L458.325 248.199L456.675 250.705ZM530.624 250.705L528.975 248.199L528.975 248.199L530.624 250.705ZM555.049 220.207L552.299 219.008L552.296 219.016L552.292 219.023L555.049 220.207ZM620.06 170.818C620.06 200.582 614.419 225.704 603.283 246.309L608.562 249.162C620.276 227.485 626.06 201.329 626.06 170.818H620.06ZM603.279 246.318C592.193 266.994 577.108 282.715 558.019 293.573L560.985 298.788C581.12 287.335 596.982 270.76 608.566 249.153L603.279 246.318ZM558.023 293.571C538.991 304.358 517.557 309.778 493.65 309.778V315.778C518.502 315.778 540.97 310.133 560.981 298.79L558.023 293.571ZM493.65 309.778C469.563 309.778 448.043 304.313 429.016 293.441L426.039 298.65C446.055 310.088 468.618 315.778 493.65 315.778V309.778ZM429.016 293.441C410.016 282.584 394.974 266.863 383.886 246.183L378.598 249.018C390.181 270.621 405.995 287.197 426.039 298.65L429.016 293.441ZM383.886 246.183C372.836 225.575 367.239 200.493 367.239 170.818H361.239C361.239 201.238 366.977 227.345 378.598 249.018L383.886 246.183ZM367.239 170.818C367.239 141.051 372.837 115.926 383.886 95.3182L378.598 92.483C366.977 114.158 361.239 140.311 361.239 170.818H367.239ZM383.886 95.3182C394.973 74.6405 410.013 58.9672 429.007 48.2008L426.048 42.981C405.999 54.3453 390.182 70.8784 378.598 92.483L383.886 95.3182ZM429.016 48.1956C448.043 37.3229 469.563 31.8579 493.65 31.8579V25.8579C468.618 25.8579 446.055 31.5483 426.039 42.9862L429.016 48.1956ZM493.65 31.8579C517.553 31.8579 538.983 37.321 558.014 48.1956L560.99 42.9862C540.978 31.5502 518.506 25.8579 493.65 25.8579V31.8579ZM558.028 48.2037C577.112 58.9711 592.194 74.6441 603.279 95.3182L608.566 92.483C596.981 70.8748 581.116 54.3414 560.976 42.9781L558.028 48.2037ZM603.283 95.3269C614.419 115.932 620.06 141.055 620.06 170.818H626.06C626.06 140.307 620.276 114.151 608.562 92.4743L603.283 95.3269ZM566.82 170.818C566.82 151.015 563.857 134.116 557.799 120.229L552.299 122.629C557.936 135.551 560.82 151.578 560.82 170.818H566.82ZM557.805 120.245C551.854 106.388 543.363 95.7242 532.273 88.4258L528.975 93.4378C538.936 99.9936 546.729 109.661 552.292 122.613L557.805 120.245ZM532.273 88.4258C521.2 81.1384 508.287 77.5412 493.65 77.5412V83.5412C507.261 83.5412 518.997 86.8711 528.975 93.4378L532.273 88.4258ZM493.65 77.5412C479.013 77.5412 466.099 81.1384 455.026 88.4258L458.325 93.4378C468.303 86.8711 480.039 83.5412 493.65 83.5412V77.5412ZM455.026 88.4258C443.941 95.7213 435.408 106.38 429.366 120.229L434.865 122.629C440.519 109.67 448.359 99.9965 458.325 93.4378L455.026 88.4258ZM429.359 120.245C423.397 134.127 420.479 151.02 420.479 170.818H426.479C426.479 151.573 429.32 135.54 434.872 122.613L429.359 120.245ZM420.479 170.818C420.479 190.617 423.397 207.509 429.359 221.391L434.872 219.023C429.32 206.097 426.479 190.063 426.479 170.818H420.479ZM429.366 221.407C435.408 235.257 443.941 245.915 455.026 253.211L458.325 248.199C448.359 241.64 440.519 231.967 434.865 219.008L429.366 221.407ZM455.026 253.211C466.099 260.498 479.013 264.095 493.65 264.095V258.095C480.039 258.095 468.303 254.765 458.325 248.199L455.026 253.211ZM493.65 264.095C508.287 264.095 521.2 260.498 532.273 253.211L528.975 248.199C518.997 254.765 507.261 258.095 493.65 258.095V264.095ZM532.273 253.211C543.363 245.912 551.854 235.248 557.805 221.391L552.292 219.023C546.729 231.975 538.936 241.643 528.975 248.199L532.273 253.211ZM557.799 221.407C563.857 207.52 566.82 190.622 566.82 170.818H560.82C560.82 190.058 557.936 206.086 552.299 219.008L557.799 221.407ZM732.592 309V312H734.771L735.445 309.928L732.592 309ZM669.979 309L667.143 308.021L665.769 312H669.979V309ZM765.384 32.6364V29.6364H763.245L762.548 31.6574L765.384 32.6364ZM840.682 32.6364L843.518 31.6586L842.821 29.6364H840.682V32.6364ZM935.952 309V312H940.159L938.788 308.022L935.952 309ZM873.338 309L870.485 309.926L871.158 312H873.338V309ZM804.112 95.7898L806.966 94.8633L806.292 92.7898H804.112V95.7898ZM801.953 95.7898V92.7898H799.774L799.1 94.8617L801.953 95.7898ZM728.679 200.371V197.371H725.679V200.371H728.679ZM876.577 200.371H879.577V197.371H876.577V200.371ZM876.577 245.982V248.982H879.577V245.982H876.577ZM728.679 245.982H725.679V248.982H728.679V245.982ZM732.592 306H669.979V312H732.592V306ZM672.814 309.979L768.219 33.6153L762.548 31.6574L667.143 308.021L672.814 309.979ZM765.384 35.6364H840.682V29.6364H765.384V35.6364ZM837.846 33.6141L933.116 309.978L938.788 308.022L843.518 31.6586L837.846 33.6141ZM935.952 306H873.338V312H935.952V306ZM876.191 308.074L806.966 94.8633L801.259 96.7162L870.485 309.926L876.191 308.074ZM804.112 92.7898H801.953V98.7898H804.112V92.7898ZM799.1 94.8617L729.739 308.072L735.445 309.928L804.806 96.7178L799.1 94.8617ZM728.679 203.371H876.577V197.371H728.679V203.371ZM873.577 200.371V245.982H879.577V200.371H873.577ZM876.577 242.982H728.679V248.982H876.577V242.982ZM731.679 245.982V200.371H725.679V245.982H731.679ZM1003.42 309H1000.42V312H1003.42V309ZM1003.42 32.6364V29.6364H1000.42V32.6364H1003.42ZM1061.85 32.6364H1064.85V29.6364H1061.85V32.6364ZM1061.85 260.825H1058.85V263.825H1061.85V260.825ZM1180.33 260.825H1183.33V257.825H1180.33V260.825ZM1180.33 309V312H1183.33V309H1180.33ZM1006.42 309V32.6364H1000.42V309H1006.42ZM1003.42 35.6364H1061.85V29.6364H1003.42V35.6364ZM1058.85 32.6364V260.825H1064.85V32.6364H1058.85ZM1061.85 263.825H1180.33V257.825H1061.85V263.825ZM1177.33 260.825V309H1183.33V260.825H1177.33ZM1180.33 306H1003.42V312H1180.33V306ZM1403.14 112.118L1400.16 112.414L1400.43 115.118H1403.14V112.118ZM1331.76 81.7557L1332.87 84.5437L1332.88 84.5372L1332.9 84.5305L1331.76 81.7557ZM1316.64 92.6861L1314.24 90.8861L1314.23 90.901L1314.22 90.916L1316.64 92.6861ZM1311.52 108.609L1314.51 108.718L1314.52 108.664V108.609H1311.52ZM1314.62 121.564L1312.06 123.126L1312.07 123.148L1312.09 123.171L1314.62 121.564ZM1324.2 131.145L1322.54 133.641L1322.56 133.654L1322.58 133.667L1324.2 131.145ZM1338.23 138.027L1337.19 140.838L1337.21 140.846L1337.23 140.853L1338.23 138.027ZM1355.24 142.885L1355.94 139.967L1355.91 139.962L1355.89 139.957L1355.24 142.885ZM1380.07 148.822L1379.37 151.74L1379.39 151.745L1379.41 151.75L1380.07 148.822ZM1413.26 159.618L1412.04 162.357L1412.04 162.357L1413.26 159.618ZM1439.44 176.216L1441.44 173.975L1441.44 173.975L1439.44 176.216ZM1456.58 199.426L1453.85 200.668L1453.85 200.679L1453.86 200.69L1456.58 199.426ZM1462.92 230.058L1465.92 230.074L1465.92 230.054L1465.92 230.035L1462.92 230.058ZM1449.97 274.05L1447.5 272.349L1447.49 272.352L1449.97 274.05ZM1413.26 302.793L1414.43 305.555L1414.44 305.552L1413.26 302.793ZM1297.35 302.658L1296.2 305.428L1296.2 305.43L1297.35 302.658ZM1258.75 272.295L1256.27 273.982L1256.28 273.992L1256.29 274.001L1258.75 272.295ZM1244.31 222.232V219.232H1241.25L1241.32 222.299L1244.31 222.232ZM1300.86 222.232L1303.85 222.028L1303.66 219.232H1300.86V222.232ZM1308.82 245.442L1306.42 247.247L1306.44 247.267L1306.45 247.286L1308.82 245.442ZM1327.84 259.341L1326.74 262.129L1326.75 262.136L1326.77 262.143L1327.84 259.341ZM1380.74 259.611L1379.65 256.816L1379.64 256.821L1380.74 259.611ZM1397.88 247.601L1400.23 249.46L1400.23 249.46L1397.88 247.601ZM1398.42 214.27L1396.13 216.214L1396.15 216.228L1396.16 216.242L1398.42 214.27ZM1382.5 203.474L1381.31 206.232L1381.33 206.237L1382.5 203.474ZM1356.99 195.378L1356.26 198.287L1356.28 198.291L1356.29 198.294L1356.99 195.378ZM1326.9 187.821L1327.63 184.911L1327.62 184.909L1327.61 184.906L1326.9 187.821ZM1271.71 161.237L1269.71 163.474L1269.71 163.474L1271.71 161.237ZM1251.6 112.523L1254.6 112.536L1254.6 112.521L1254.6 112.507L1251.6 112.523ZM1264.96 68.6662L1262.53 66.9027L1262.53 66.9085L1262.53 66.9142L1264.96 68.6662ZM1410.02 39.3835L1408.77 42.1102L1408.78 42.113L1410.02 39.3835ZM1445.92 68.6662L1443.44 70.359L1443.44 70.359L1445.92 68.6662ZM1459.14 112.118V115.118H1462.19L1462.14 112.069L1459.14 112.118ZM1406.13 111.822C1404.97 100.163 1399.95 90.9055 1391.02 84.3327L1387.46 89.1644C1394.91 94.6466 1399.15 102.302 1400.16 112.414L1406.13 111.822ZM1391.02 84.3327C1382.16 77.8054 1370.35 74.7074 1355.91 74.7074V80.7074C1369.54 80.7074 1379.96 83.6368 1387.46 89.1644L1391.02 84.3327ZM1355.91 74.7074C1346.11 74.7074 1337.65 76.0918 1330.62 78.9809L1332.9 84.5305C1339 82.0218 1346.64 80.7074 1355.91 80.7074V74.7074ZM1330.65 78.9676C1323.68 81.7379 1318.15 85.6817 1314.24 90.8861L1319.04 94.4861C1322.16 90.3343 1326.7 86.9913 1332.87 84.5437L1330.65 78.9676ZM1314.22 90.916C1310.42 96.1213 1308.52 102.052 1308.52 108.609H1314.52C1314.52 103.291 1316.03 98.6069 1319.07 94.4561L1314.22 90.916ZM1308.52 108.5C1308.32 113.948 1309.46 118.865 1312.06 123.126L1317.18 120.002C1315.28 116.886 1314.35 113.167 1314.51 108.718L1308.52 108.5ZM1312.09 123.171C1314.67 127.251 1318.18 130.736 1322.54 133.641L1325.86 128.649C1322.13 126.156 1319.24 123.253 1317.15 119.957L1312.09 123.171ZM1322.58 133.667C1326.83 136.411 1331.71 138.796 1337.19 140.838L1339.28 135.216C1334.14 133.299 1329.66 131.097 1325.83 128.623L1322.58 133.667ZM1337.23 140.853C1342.66 142.787 1348.45 144.439 1354.58 145.812L1355.89 139.957C1349.97 138.632 1344.42 137.045 1339.24 135.201L1337.23 140.853ZM1354.54 145.803L1379.37 151.74L1380.77 145.905L1355.94 139.967L1354.54 145.803ZM1379.41 151.75C1391.29 154.41 1402.17 157.95 1412.04 162.357L1414.49 156.878C1404.21 152.29 1392.95 148.632 1380.72 145.895L1379.41 151.75ZM1412.04 162.357C1421.87 166.744 1430.33 172.117 1437.45 178.457L1441.44 173.975C1433.8 167.181 1424.81 161.488 1414.49 156.878L1412.04 162.357ZM1437.45 178.457C1444.52 184.748 1449.98 192.146 1453.85 200.668L1459.31 198.185C1455.09 188.894 1449.12 180.818 1441.44 173.975L1437.45 178.457ZM1453.86 200.69C1457.79 209.146 1459.84 218.922 1459.92 230.082L1465.92 230.035C1465.83 218.164 1463.65 207.518 1459.3 198.162L1453.86 200.69ZM1459.92 230.042C1459.84 246.429 1455.66 260.489 1447.5 272.349L1452.44 275.751C1461.37 262.781 1465.83 247.513 1465.92 230.074L1459.92 230.042ZM1447.49 272.352C1439.41 284.134 1427.66 293.383 1412.09 300.034L1414.44 305.552C1430.89 298.528 1443.61 288.615 1452.44 275.747L1447.49 272.352ZM1412.09 300.03C1396.63 306.581 1377.85 309.913 1355.64 309.913V315.913C1378.42 315.913 1398.05 312.498 1414.43 305.555L1412.09 300.03ZM1355.64 309.913C1333.63 309.913 1314.6 306.54 1298.49 299.885L1296.2 305.43C1313.2 312.45 1333.03 315.913 1355.64 315.913V309.913ZM1298.5 299.887C1282.51 293.249 1270.13 283.476 1261.22 270.59L1256.29 274.001C1265.91 287.924 1279.25 298.392 1296.2 305.428L1298.5 299.887ZM1261.23 270.609C1252.45 257.688 1247.75 241.594 1247.31 222.164L1241.32 222.299C1241.78 242.632 1246.71 259.914 1256.27 273.982L1261.23 270.609ZM1244.31 225.232H1300.86V219.232H1244.31V225.232ZM1297.86 222.435C1298.52 232.167 1301.33 240.491 1306.42 247.247L1311.21 243.636C1306.95 237.978 1304.45 230.828 1303.85 222.028L1297.86 222.435ZM1306.45 247.286C1311.58 253.865 1318.37 258.803 1326.74 262.129L1328.95 256.553C1321.48 253.582 1315.59 249.254 1311.18 243.598L1306.45 247.286ZM1326.77 262.143C1335.18 265.353 1344.59 266.929 1354.97 266.929V260.929C1345.2 260.929 1336.53 259.446 1328.91 256.538L1326.77 262.143ZM1354.97 266.929C1365.15 266.929 1374.13 265.45 1381.84 262.401L1379.64 256.821C1372.78 259.53 1364.58 260.929 1354.97 260.929V266.929ZM1381.83 262.406C1389.6 259.374 1395.79 255.087 1400.23 249.46L1395.53 245.742C1391.87 250.37 1386.64 254.09 1379.65 256.816L1381.83 262.406ZM1400.23 249.46C1404.71 243.792 1406.95 237.241 1406.95 229.923H1400.95C1400.95 235.92 1399.15 241.154 1395.53 245.742L1400.23 249.46ZM1406.95 229.923C1406.95 223.074 1404.9 217.132 1400.68 212.298L1396.16 216.242C1399.32 219.864 1400.95 224.358 1400.95 229.923H1406.95ZM1400.7 212.326C1396.71 207.634 1390.96 203.798 1383.67 200.712L1381.33 206.237C1388.07 209.088 1392.93 212.449 1396.13 216.214L1400.7 212.326ZM1383.68 200.717C1376.55 197.662 1367.88 194.916 1357.7 192.461L1356.29 198.294C1366.26 200.697 1374.59 203.349 1381.31 206.232L1383.68 200.717ZM1357.72 192.468L1327.63 184.911L1326.17 190.731L1356.26 198.287L1357.72 192.468ZM1327.61 184.906C1304.64 179.318 1286.73 170.637 1273.71 159L1269.71 163.474C1283.67 175.947 1302.56 184.988 1326.19 190.736L1327.61 184.906ZM1273.71 159C1260.94 147.594 1254.51 132.221 1254.6 112.536L1248.6 112.509C1248.51 133.667 1255.49 150.77 1269.71 163.474L1273.71 159ZM1254.6 112.507C1254.51 96.3501 1258.8 82.3631 1267.4 70.4182L1262.53 66.9142C1253.13 79.9788 1248.51 95.2294 1248.6 112.539L1254.6 112.507ZM1267.39 70.4297C1276.13 58.402 1288.15 48.9556 1303.56 42.1262L1301.12 36.6408C1284.87 43.8456 1271.97 53.9209 1262.53 66.9027L1267.39 70.4297ZM1303.56 42.1262C1318.95 35.3043 1336.52 31.8579 1356.32 31.8579V25.8579C1335.81 25.8579 1317.4 29.4286 1301.12 36.6408L1303.56 42.1262ZM1356.32 31.8579C1376.49 31.8579 1393.95 35.3082 1408.77 42.1102L1411.28 36.6568C1395.51 29.4247 1377.17 25.8579 1356.32 25.8579V31.8579ZM1408.78 42.113C1423.73 48.9303 1435.24 58.3566 1443.44 70.359L1448.4 66.9734C1439.51 53.9663 1427.09 43.8709 1411.27 36.6541L1408.78 42.113ZM1443.44 70.359C1451.63 82.3365 1455.88 96.2378 1456.14 112.167L1462.14 112.069C1461.86 95.0718 1457.3 80.0053 1448.4 66.9734L1443.44 70.359ZM1459.14 109.118H1403.14V115.118H1459.14V109.118Z" fill="white" fill-opacity="0.64" mask="url(#path-1-outside-1_97_2)"/>
</svg>
